  0
SECTION
  2
HEADER
  9
$ANGBASE
  50
0.0
  9
$ANGDIR
  70
1
  9
$MEASUREMENT
  70
1
  0
ENDSEC
  0
SECTION
  2
TABLES
  0
TABLE
  2
LTYPE
  70
4
  0
LTYPE
  5
40F
  2
CONTINUOUS
  70
0
  3
Solid line
  72
65
  73
0
  40
0.0
  0
LTYPE
  5
410
  2
DASHDOT
 70
0
  3
Dash Dot ____ _ ____ _
 72
65
 73
4
 40
2.0
 49
1.25
 49
-0.25
 49
0.25
 49
-0.25
  0
LTYPE
  5
411
  2
DASHED
 70
0
  3
Dashed __ __ __ __ __
 72
65
 73
2
 40
0.75
 49
0.5
 49
-0.25
  0
LTYPE
  5
43B
  2
DOTTED
 70
0
  3
Dotted .  .  .  .
 72
65
 73
2
 40
0.2
 49
0.0
 49
-0.2
  0
ENDTAB
  0
TABLE
  2
STYLE
  70
4
  0
STYLE
  2
KICAD
  70
0
  40
0
  41
1
  42
1
  50
0
  71
0
  3
isocp.shx
  0
STYLE
  2
KICADB
  70
0
  40
0
  41
1
  42
1
  50
0
  71
0
  3
isocp.shx
  0
STYLE
  2
KICADI
  70
0
  40
0
  41
1
  42
1
  50
15
  71
0
  3
isocp.shx
  0
STYLE
  2
KICADBI
  70
0
  40
0
  41
1
  42
1
  50
15
  71
0
  3
isocp.shx
  0
ENDTAB
  0
TABLE
  2
LAYER
  70
1
  0
LAYER
  2
BLACK
  70
0
  62
7
  6
CONTINUOUS
  0
ENDTAB
  0
ENDSEC
  0
SECTION
  2
ENTITIES
0
LINE
8
BLACK
6
CONTINUOUS
10
1
20
7.01467
11
1
21
32.9853
0
LINE
8
BLACK
6
CONTINUOUS
10
1
20
32.9853
11
0.99344
21
33.0131
0
LINE
8
BLACK
6
CONTINUOUS
10
0.99344
20
33.0131
11
0.013302
21
34.9734
0
LINE
8
BLACK
6
CONTINUOUS
10
0.013302
20
34.9734
11
0.002745
21
35.0181
0
LINE
8
BLACK
6
CONTINUOUS
10
0.002745
20
35.0181
11
0
21
35.0297
0
LINE
8
BLACK
6
CONTINUOUS
10
0
20
35.0297
11
0
21
38.9938
0
LINE
8
BLACK
6
CONTINUOUS
10
0
20
38.9938
11
0.000607
21
39.0062
0
LINE
8
BLACK
6
CONTINUOUS
10
0.000607
20
39.0062
11
0.017998
21
39.1827
0
LINE
8
BLACK
6
CONTINUOUS
10
0.017998
20
39.1827
11
0.022816
21
39.207
0
LINE
8
BLACK
6
CONTINUOUS
10
0.022816
20
39.207
11
0.072518
21
39.3708
0
LINE
8
BLACK
6
CONTINUOUS
10
0.072518
20
39.3708
11
0.081971
21
39.3936
0
LINE
8
BLACK
6
CONTINUOUS
10
0.081971
20
39.3936
11
0.162681
21
39.5446
0
LINE
8
BLACK
6
CONTINUOUS
10
0.162681
20
39.5446
11
0.176404
21
39.5652
0
LINE
8
BLACK
6
CONTINUOUS
10
0.176404
20
39.5652
11
0.28502
21
39.6975
0
LINE
8
BLACK
6
CONTINUOUS
10
0.28502
20
39.6975
11
0.302485
21
39.715
0
LINE
8
BLACK
6
CONTINUOUS
10
0.302485
20
39.715
11
0.434834
21
39.8236
0
LINE
8
BLACK
6
CONTINUOUS
10
0.434834
20
39.8236
11
0.455372
21
39.8373
0
LINE
8
BLACK
6
CONTINUOUS
10
0.455372
20
39.8373
11
0.606371
21
39.918
0
LINE
8
BLACK
6
CONTINUOUS
10
0.606371
20
39.918
11
0.629191
21
39.9275
0
LINE
8
BLACK
6
CONTINUOUS
10
0.629191
20
39.9275
11
0.793007
21
39.9772
0
LINE
8
BLACK
6
CONTINUOUS
10
0.793007
20
39.9772
11
0.817295
21
39.982
0
LINE
8
BLACK
6
CONTINUOUS
10
0.817295
20
39.982
11
0.994867
21
39.9994
0
LINE
8
BLACK
6
CONTINUOUS
10
0.994867
20
39.9994
11
1.00716
21
40
0
LINE
8
BLACK
6
CONTINUOUS
10
1.00716
20
40
11
4.97121
21
40
0
LINE
8
BLACK
6
CONTINUOUS
10
4.97121
20
40
11
5.02763
21
39.9867
0
LINE
8
BLACK
6
CONTINUOUS
10
5.02763
20
39.9867
11
6.98686
21
39.0056
0
LINE
8
BLACK
6
CONTINUOUS
10
6.98686
20
39.0056
11
7.01469
21
38.999
0
LINE
8
BLACK
6
CONTINUOUS
10
7.01469
20
38.999
11
32.9853
21
38.999
0
LINE
8
BLACK
6
CONTINUOUS
10
32.9853
20
38.999
11
33.0131
21
39.0056
0
LINE
8
BLACK
6
CONTINUOUS
10
33.0131
20
39.0056
11
34.9724
21
39.9867
0
LINE
8
BLACK
6
CONTINUOUS
10
34.9724
20
39.9867
11
35.0288
21
40
0
LINE
8
BLACK
6
CONTINUOUS
10
35.0288
20
40
11
38.9938
21
40
0
LINE
8
BLACK
6
CONTINUOUS
10
38.9938
20
40
11
39.0062
21
39.9994
0
LINE
8
BLACK
6
CONTINUOUS
10
39.0062
20
39.9994
11
39.1828
21
39.982
0
LINE
8
BLACK
6
CONTINUOUS
10
39.1828
20
39.982
11
39.207
21
39.9772
0
LINE
8
BLACK
6
CONTINUOUS
10
39.207
20
39.9772
11
39.3709
21
39.9275
0
LINE
8
BLACK
6
CONTINUOUS
10
39.3709
20
39.9275
11
39.3937
21
39.918
0
LINE
8
BLACK
6
CONTINUOUS
10
39.3937
20
39.918
11
39.5447
21
39.8373
0
LINE
8
BLACK
6
CONTINUOUS
10
39.5447
20
39.8373
11
39.5652
21
39.8235
0
LINE
8
BLACK
6
CONTINUOUS
10
39.5652
20
39.8235
11
39.6976
21
39.7149
0
LINE
8
BLACK
6
CONTINUOUS
10
39.6976
20
39.7149
11
39.7151
21
39.6974
0
LINE
8
BLACK
6
CONTINUOUS
10
39.7151
20
39.6974
11
39.8237
21
39.5651
0
LINE
8
BLACK
6
CONTINUOUS
10
39.8237
20
39.5651
11
39.8374
21
39.5445
0
LINE
8
BLACK
6
CONTINUOUS
10
39.8374
20
39.5445
11
39.9181
21
39.3935
0
LINE
8
BLACK
6
CONTINUOUS
10
39.9181
20
39.3935
11
39.9275
21
39.3707
0
LINE
8
BLACK
6
CONTINUOUS
10
39.9275
20
39.3707
11
39.9772
21
39.2068
0
LINE
8
BLACK
6
CONTINUOUS
10
39.9772
20
39.2068
11
39.982
21
39.1826
0
LINE
8
BLACK
6
CONTINUOUS
10
39.982
20
39.1826
11
39.9994
21
39.0062
0
LINE
8
BLACK
6
CONTINUOUS
10
39.9994
20
39.0062
11
40
21
38.9938
0
LINE
8
BLACK
6
CONTINUOUS
10
40
20
38.9938
11
40
21
35.0297
0
LINE
8
BLACK
6
CONTINUOUS
10
40
20
35.0297
11
39.9867
21
34.9734
0
LINE
8
BLACK
6
CONTINUOUS
10
39.9867
20
34.9734
11
39.0066
21
33.0131
0
LINE
8
BLACK
6
CONTINUOUS
10
39.0066
20
33.0131
11
39
21
32.9853
0
LINE
8
BLACK
6
CONTINUOUS
10
39
20
32.9853
11
39
21
7.01467
0
LINE
8
BLACK
6
CONTINUOUS
10
39
20
7.01467
11
39.0066
21
6.98688
0
LINE
8
BLACK
6
CONTINUOUS
10
39.0066
20
6.98688
11
39.9867
21
5.0266
0
LINE
8
BLACK
6
CONTINUOUS
10
39.9867
20
5.0266
11
40
21
4.97025
0
LINE
8
BLACK
6
CONTINUOUS
10
40
20
4.97025
11
40
21
1.00619
0
LINE
8
BLACK
6
CONTINUOUS
10
40
20
1.00619
11
39.9994
21
0.993837
0
LINE
8
BLACK
6
CONTINUOUS
10
39.9994
20
0.993837
11
39.982
21
0.817263
0
LINE
8
BLACK
6
CONTINUOUS
10
39.982
20
0.817263
11
39.9772
21
0.793037
0
LINE
8
BLACK
6
CONTINUOUS
10
39.9772
20
0.793037
11
39.9275
21
0.629191
0
LINE
8
BLACK
6
CONTINUOUS
10
39.9275
20
0.629191
11
39.918
21
0.606371
0
LINE
8
BLACK
6
CONTINUOUS
10
39.918
20
0.606371
11
39.8373
21
0.455372
0
LINE
8
BLACK
6
CONTINUOUS
10
39.8373
20
0.455372
11
39.8236
21
0.434834
0
LINE
8
BLACK
6
CONTINUOUS
10
39.8236
20
0.434834
11
39.715
21
0.302485
0
LINE
8
BLACK
6
CONTINUOUS
10
39.715
20
0.302485
11
39.6975
21
0.28502
0
LINE
8
BLACK
6
CONTINUOUS
10
39.6975
20
0.28502
11
39.5652
21
0.176404
0
LINE
8
BLACK
6
CONTINUOUS
10
39.5652
20
0.176404
11
39.5446
21
0.162681
0
LINE
8
BLACK
6
CONTINUOUS
10
39.5446
20
0.162681
11
39.3936
21
0.081971
0
LINE
8
BLACK
6
CONTINUOUS
10
39.3936
20
0.081971
11
39.3708
21
0.072518
0
LINE
8
BLACK
6
CONTINUOUS
10
39.3708
20
0.072518
11
39.207
21
0.022816
0
LINE
8
BLACK
6
CONTINUOUS
10
39.207
20
0.022816
11
39.1827
21
0.017998
0
LINE
8
BLACK
6
CONTINUOUS
10
39.1827
20
0.017998
11
39.0062
21
0.000607
0
LINE
8
BLACK
6
CONTINUOUS
10
39.0062
20
0.000607
11
38.9938
21
0
0
LINE
8
BLACK
6
CONTINUOUS
10
38.9938
20
0
11
35.0297
21
0
0
LINE
8
BLACK
6
CONTINUOUS
10
35.0297
20
0
11
34.9734
21
0.013302
0
LINE
8
BLACK
6
CONTINUOUS
10
34.9734
20
0.013302
11
33.0131
21
0.99344
0
LINE
8
BLACK
6
CONTINUOUS
10
33.0131
20
0.99344
11
32.9853
21
1
0
LINE
8
BLACK
6
CONTINUOUS
10
32.9853
20
1
11
7.01467
21
1
0
LINE
8
BLACK
6
CONTINUOUS
10
7.01467
20
1
11
6.98688
21
0.99344
0
LINE
8
BLACK
6
CONTINUOUS
10
6.98688
20
0.99344
11
5.0266
21
0.013302
0
LINE
8
BLACK
6
CONTINUOUS
10
5.0266
20
0.013302
11
4.97025
21
0
0
LINE
8
BLACK
6
CONTINUOUS
10
4.97025
20
0
11
1.00619
21
0
0
LINE
8
BLACK
6
CONTINUOUS
10
1.00619
20
0
11
0.993837
21
0.000607
0
LINE
8
BLACK
6
CONTINUOUS
10
0.993837
20
0.000607
11
0.817263
21
0.017998
0
LINE
8
BLACK
6
CONTINUOUS
10
0.817263
20
0.017998
11
0.793037
21
0.022816
0
LINE
8
BLACK
6
CONTINUOUS
10
0.793037
20
0.022816
11
0.629191
21
0.072518
0
LINE
8
BLACK
6
CONTINUOUS
10
0.629191
20
0.072518
11
0.606371
21
0.081971
0
LINE
8
BLACK
6
CONTINUOUS
10
0.606371
20
0.081971
11
0.455372
21
0.162681
0
LINE
8
BLACK
6
CONTINUOUS
10
0.455372
20
0.162681
11
0.434834
21
0.176404
0
LINE
8
BLACK
6
CONTINUOUS
10
0.434834
20
0.176404
11
0.302485
21
0.28502
0
LINE
8
BLACK
6
CONTINUOUS
10
0.302485
20
0.28502
11
0.28502
21
0.302485
0
LINE
8
BLACK
6
CONTINUOUS
10
0.28502
20
0.302485
11
0.176404
21
0.434834
0
LINE
8
BLACK
6
CONTINUOUS
10
0.176404
20
0.434834
11
0.162681
21
0.455372
0
LINE
8
BLACK
6
CONTINUOUS
10
0.162681
20
0.455372
11
0.081971
21
0.606371
0
LINE
8
BLACK
6
CONTINUOUS
10
0.081971
20
0.606371
11
0.072518
21
0.629191
0
LINE
8
BLACK
6
CONTINUOUS
10
0.072518
20
0.629191
11
0.022816
21
0.793037
0
LINE
8
BLACK
6
CONTINUOUS
10
0.022816
20
0.793037
11
0.017998
21
0.817263
0
LINE
8
BLACK
6
CONTINUOUS
10
0.017998
20
0.817263
11
0.000607
21
0.993837
0
LINE
8
BLACK
6
CONTINUOUS
10
0.000607
20
0.993837
11
0
21
1.00619
0
LINE
8
BLACK
6
CONTINUOUS
10
0
20
1.00619
11
0
21
4.97025
0
LINE
8
BLACK
6
CONTINUOUS
10
0
20
4.97025
11
0.013302
21
5.0266
0
LINE
8
BLACK
6
CONTINUOUS
10
0.013302
20
5.0266
11
0.609057
21
6.21812
0
LINE
8
BLACK
6
CONTINUOUS
10
0.609057
20
6.21812
11
0.99344
21
6.98688
0
LINE
8
BLACK
6
CONTINUOUS
10
0.99344
20
6.98688
11
1
21
7.01467
0
LINE
8
BLACK
6
CONTINUOUS
10
6.20586
20
6.20167
11
6.21355
21
6.2
0
LINE
8
BLACK
6
CONTINUOUS
10
6.21355
20
6.2
11
14.474
21
6.2
0
LINE
8
BLACK
6
CONTINUOUS
10
14.474
20
6.2
11
14.5421
21
6.18
0
LINE
8
BLACK
6
CONTINUOUS
10
14.5421
20
6.18
11
14.5886
21
6.12634
0
LINE
8
BLACK
6
CONTINUOUS
10
14.5886
20
6.12634
11
14.6
21
6.074
0
LINE
8
BLACK
6
CONTINUOUS
10
14.6
20
6.074
11
14.6
21
5.126
0
LINE
8
BLACK
6
CONTINUOUS
10
14.6
20
5.126
11
14.58
21
5.05788
0
LINE
8
BLACK
6
CONTINUOUS
10
14.58
20
5.05788
11
14.5263
21
5.01139
0
LINE
8
BLACK
6
CONTINUOUS
10
14.5263
20
5.01139
11
14.474
21
5
0
LINE
8
BLACK
6
CONTINUOUS
10
14.474
20
5
11
7.01811
21
5
0
LINE
8
BLACK
6
CONTINUOUS
10
7.01811
20
5
11
7.00288
21
4.99552
0
LINE
8
BLACK
6
CONTINUOUS
10
7.00288
20
4.99552
11
7.00167
21
4.99413
0
LINE
8
BLACK
6
CONTINUOUS
10
7.00167
20
4.99413
11
7
21
4.98645
0
LINE
8
BLACK
6
CONTINUOUS
10
7
20
4.98645
11
7
21
2.01811
0
LINE
8
BLACK
6
CONTINUOUS
10
7
20
2.01811
11
7.00447
21
2.00288
0
LINE
8
BLACK
6
CONTINUOUS
10
7.00447
20
2.00288
11
7.00587
21
2.00167
0
LINE
8
BLACK
6
CONTINUOUS
10
7.00587
20
2.00167
11
7.01355
21
2
0
LINE
8
BLACK
6
CONTINUOUS
10
7.01355
20
2
11
32.9819
21
2
0
LINE
8
BLACK
6
CONTINUOUS
10
32.9819
20
2
11
32.9971
21
2.00447
0
LINE
8
BLACK
6
CONTINUOUS
10
32.9971
20
2.00447
11
32.9983
21
2.00587
0
LINE
8
BLACK
6
CONTINUOUS
10
32.9983
20
2.00587
11
33
21
2.01355
0
LINE
8
BLACK
6
CONTINUOUS
10
33
20
2.01355
11
33
21
4.98189
0
LINE
8
BLACK
6
CONTINUOUS
10
33
20
4.98189
11
32.9955
21
4.99712
0
LINE
8
BLACK
6
CONTINUOUS
10
32.9955
20
4.99712
11
32.9941
21
4.99833
0
LINE
8
BLACK
6
CONTINUOUS
10
32.9941
20
4.99833
11
32.9865
21
5
0
LINE
8
BLACK
6
CONTINUOUS
10
32.9865
20
5
11
17.526
21
5
0
LINE
8
BLACK
6
CONTINUOUS
10
17.526
20
5
11
17.4579
21
5.02
0
LINE
8
BLACK
6
CONTINUOUS
10
17.4579
20
5.02
11
17.4114
21
5.07366
0
LINE
8
BLACK
6
CONTINUOUS
10
17.4114
20
5.07366
11
17.4
21
5.126
0
LINE
8
BLACK
6
CONTINUOUS
10
17.4
20
5.126
11
17.4
21
27.1819
0
LINE
8
BLACK
6
CONTINUOUS
10
17.4
20
27.1819
11
17.3955
21
27.1971
0
LINE
8
BLACK
6
CONTINUOUS
10
17.3955
20
27.1971
11
17.3941
21
27.1983
0
LINE
8
BLACK
6
CONTINUOUS
10
17.3941
20
27.1983
11
17.3865
21
27.2
0
LINE
8
BLACK
6
CONTINUOUS
10
17.3865
20
27.2
11
13.026
21
27.2
0
LINE
8
BLACK
6
CONTINUOUS
10
13.026
20
27.2
11
12.9579
21
27.22
0
LINE
8
BLACK
6
CONTINUOUS
10
12.9579
20
27.22
11
12.9114
21
27.2737
0
LINE
8
BLACK
6
CONTINUOUS
10
12.9114
20
27.2737
11
12.9
21
27.326
0
LINE
8
BLACK
6
CONTINUOUS
10
12.9
20
27.326
11
12.9
21
28.274
0
LINE
8
BLACK
6
CONTINUOUS
10
12.9
20
28.274
11
12.92
21
28.3421
0
LINE
8
BLACK
6
CONTINUOUS
10
12.92
20
28.3421
11
12.9737
21
28.3886
0
LINE
8
BLACK
6
CONTINUOUS
10
12.9737
20
28.3886
11
13.026
21
28.4
0
LINE
8
BLACK
6
CONTINUOUS
10
13.026
20
28.4
11
18.474
21
28.4
0
LINE
8
BLACK
6
CONTINUOUS
10
18.474
20
28.4
11
18.5421
21
28.38
0
LINE
8
BLACK
6
CONTINUOUS
10
18.5421
20
28.38
11
18.5886
21
28.3263
0
LINE
8
BLACK
6
CONTINUOUS
10
18.5886
20
28.3263
11
18.6
21
28.274
0
LINE
8
BLACK
6
CONTINUOUS
10
18.6
20
28.274
11
18.6
21
26.7181
0
LINE
8
BLACK
6
CONTINUOUS
10
18.6
20
26.7181
11
18.6045
21
26.7029
0
LINE
8
BLACK
6
CONTINUOUS
10
18.6045
20
26.7029
11
18.6059
21
26.7017
0
LINE
8
BLACK
6
CONTINUOUS
10
18.6059
20
26.7017
11
18.6135
21
26.7
0
LINE
8
BLACK
6
CONTINUOUS
10
18.6135
20
26.7
11
21.074
21
26.7
0
LINE
8
BLACK
6
CONTINUOUS
10
21.074
20
26.7
11
21.1421
21
26.68
0
LINE
8
BLACK
6
CONTINUOUS
10
21.1421
20
26.68
11
21.1886
21
26.6263
0
LINE
8
BLACK
6
CONTINUOUS
10
21.1886
20
26.6263
11
21.2
21
26.574
0
LINE
8
BLACK
6
CONTINUOUS
10
21.2
20
26.574
11
21.2
21
25.626
0
LINE
8
BLACK
6
CONTINUOUS
10
21.2
20
25.626
11
21.18
21
25.5579
0
LINE
8
BLACK
6
CONTINUOUS
10
21.18
20
25.5579
11
21.1263
21
25.5114
0
LINE
8
BLACK
6
CONTINUOUS
10
21.1263
20
25.5114
11
21.074
21
25.5
0
LINE
8
BLACK
6
CONTINUOUS
10
21.074
20
25.5
11
18.6181
21
25.5
0
LINE
8
BLACK
6
CONTINUOUS
10
18.6181
20
25.5
11
18.6029
21
25.4955
0
LINE
8
BLACK
6
CONTINUOUS
10
18.6029
20
25.4955
11
18.6017
21
25.4941
0
LINE
8
BLACK
6
CONTINUOUS
10
18.6017
20
25.4941
11
18.6
21
25.4865
0
LINE
8
BLACK
6
CONTINUOUS
10
18.6
20
25.4865
11
18.6
21
6.21812
0
LINE
8
BLACK
6
CONTINUOUS
10
18.6
20
6.21812
11
18.6045
21
6.20288
0
LINE
8
BLACK
6
CONTINUOUS
10
18.6045
20
6.20288
11
18.6059
21
6.20167
0
LINE
8
BLACK
6
CONTINUOUS
10
18.6059
20
6.20167
11
18.6135
21
6.2
0
LINE
8
BLACK
6
CONTINUOUS
10
18.6135
20
6.2
11
33.7819
21
6.2
0
LINE
8
BLACK
6
CONTINUOUS
10
33.7819
20
6.2
11
33.7971
21
6.20447
0
LINE
8
BLACK
6
CONTINUOUS
10
33.7971
20
6.20447
11
33.7983
21
6.20586
0
LINE
8
BLACK
6
CONTINUOUS
10
33.7983
20
6.20586
11
33.8
21
6.21355
0
LINE
8
BLACK
6
CONTINUOUS
10
33.8
20
6.21355
11
33.8
21
14.574
0
LINE
8
BLACK
6
CONTINUOUS
10
33.8
20
14.574
11
33.82
21
14.6421
0
LINE
8
BLACK
6
CONTINUOUS
10
33.82
20
14.6421
11
33.8737
21
14.6886
0
LINE
8
BLACK
6
CONTINUOUS
10
33.8737
20
14.6886
11
33.926
21
14.7
0
LINE
8
BLACK
6
CONTINUOUS
10
33.926
20
14.7
11
34.874
21
14.7
0
LINE
8
BLACK
6
CONTINUOUS
10
34.874
20
14.7
11
34.9421
21
14.68
0
LINE
8
BLACK
6
CONTINUOUS
10
34.9421
20
14.68
11
34.9886
21
14.6263
0
LINE
8
BLACK
6
CONTINUOUS
10
34.9886
20
14.6263
11
35
21
14.574
0
LINE
8
BLACK
6
CONTINUOUS
10
35
20
14.574
11
35
21
7.01811
0
LINE
8
BLACK
6
CONTINUOUS
10
35
20
7.01811
11
35.0045
21
7.00288
0
LINE
8
BLACK
6
CONTINUOUS
10
35.0045
20
7.00288
11
35.0059
21
7.00167
0
LINE
8
BLACK
6
CONTINUOUS
10
35.0059
20
7.00167
11
35.0135
21
7
0
LINE
8
BLACK
6
CONTINUOUS
10
35.0135
20
7
11
37.9819
21
7
0
LINE
8
BLACK
6
CONTINUOUS
10
37.9819
20
7
11
37.9971
21
7.00447
0
LINE
8
BLACK
6
CONTINUOUS
10
37.9971
20
7.00447
11
37.9983
21
7.00587
0
LINE
8
BLACK
6
CONTINUOUS
10
37.9983
20
7.00587
11
38
21
7.01355
0
LINE
8
BLACK
6
CONTINUOUS
10
38
20
7.01355
11
38
21
32.9819
0
LINE
8
BLACK
6
CONTINUOUS
10
38
20
32.9819
11
37.9955
21
32.9971
0
LINE
8
BLACK
6
CONTINUOUS
10
37.9955
20
32.9971
11
37.9941
21
32.9983
0
LINE
8
BLACK
6
CONTINUOUS
10
37.9941
20
32.9983
11
37.9865
21
33
0
LINE
8
BLACK
6
CONTINUOUS
10
37.9865
20
33
11
35.0181
21
33
0
LINE
8
BLACK
6
CONTINUOUS
10
35.0181
20
33
11
35.0029
21
32.9955
0
LINE
8
BLACK
6
CONTINUOUS
10
35.0029
20
32.9955
11
35.0017
21
32.9941
0
LINE
8
BLACK
6
CONTINUOUS
10
35.0017
20
32.9941
11
35
21
32.9865
0
LINE
8
BLACK
6
CONTINUOUS
10
35
20
32.9865
11
35
21
22.026
0
LINE
8
BLACK
6
CONTINUOUS
10
35
20
22.026
11
34.98
21
21.9579
0
LINE
8
BLACK
6
CONTINUOUS
10
34.98
20
21.9579
11
34.9263
21
21.9114
0
LINE
8
BLACK
6
CONTINUOUS
10
34.9263
20
21.9114
11
34.874
21
21.9
0
LINE
8
BLACK
6
CONTINUOUS
10
34.874
20
21.9
11
33.926
21
21.9
0
LINE
8
BLACK
6
CONTINUOUS
10
33.926
20
21.9
11
33.8579
21
21.92
0
LINE
8
BLACK
6
CONTINUOUS
10
33.8579
20
21.92
11
33.8114
21
21.9737
0
LINE
8
BLACK
6
CONTINUOUS
10
33.8114
20
21.9737
11
33.8
21
22.026
0
LINE
8
BLACK
6
CONTINUOUS
10
33.8
20
22.026
11
33.8
21
25.4819
0
LINE
8
BLACK
6
CONTINUOUS
10
33.8
20
25.4819
11
33.7955
21
25.4971
0
LINE
8
BLACK
6
CONTINUOUS
10
33.7955
20
25.4971
11
33.7941
21
25.4983
0
LINE
8
BLACK
6
CONTINUOUS
10
33.7941
20
25.4983
11
33.7865
21
25.5
0
LINE
8
BLACK
6
CONTINUOUS
10
33.7865
20
25.5
11
22.826
21
25.5
0
LINE
8
BLACK
6
CONTINUOUS
10
22.826
20
25.5
11
22.7579
21
25.52
0
LINE
8
BLACK
6
CONTINUOUS
10
22.7579
20
25.52
11
22.7114
21
25.5737
0
LINE
8
BLACK
6
CONTINUOUS
10
22.7114
20
25.5737
11
22.7
21
25.626
0
LINE
8
BLACK
6
CONTINUOUS
10
22.7
20
25.626
11
22.7
21
26.574
0
LINE
8
BLACK
6
CONTINUOUS
10
22.7
20
26.574
11
22.72
21
26.6421
0
LINE
8
BLACK
6
CONTINUOUS
10
22.72
20
26.6421
11
22.7737
21
26.6886
0
LINE
8
BLACK
6
CONTINUOUS
10
22.7737
20
26.6886
11
22.826
21
26.7
0
LINE
8
BLACK
6
CONTINUOUS
10
22.826
20
26.7
11
24.3819
21
26.7
0
LINE
8
BLACK
6
CONTINUOUS
10
24.3819
20
26.7
11
24.3971
21
26.7045
0
LINE
8
BLACK
6
CONTINUOUS
10
24.3971
20
26.7045
11
24.3983
21
26.7059
0
LINE
8
BLACK
6
CONTINUOUS
10
24.3983
20
26.7059
11
24.4
21
26.7135
0
LINE
8
BLACK
6
CONTINUOUS
10
24.4
20
26.7135
11
24.4
21
29.174
0
LINE
8
BLACK
6
CONTINUOUS
10
24.4
20
29.174
11
24.42
21
29.2421
0
LINE
8
BLACK
6
CONTINUOUS
10
24.42
20
29.2421
11
24.4737
21
29.2886
0
LINE
8
BLACK
6
CONTINUOUS
10
24.4737
20
29.2886
11
24.526
21
29.3
0
LINE
8
BLACK
6
CONTINUOUS
10
24.526
20
29.3
11
25.474
21
29.3
0
LINE
8
BLACK
6
CONTINUOUS
10
25.474
20
29.3
11
25.5421
21
29.28
0
LINE
8
BLACK
6
CONTINUOUS
10
25.5421
20
29.28
11
25.5886
21
29.2263
0
LINE
8
BLACK
6
CONTINUOUS
10
25.5886
20
29.2263
11
25.6
21
29.174
0
LINE
8
BLACK
6
CONTINUOUS
10
25.6
20
29.174
11
25.6
21
26.7181
0
LINE
8
BLACK
6
CONTINUOUS
10
25.6
20
26.7181
11
25.6045
21
26.7029
0
LINE
8
BLACK
6
CONTINUOUS
10
25.6045
20
26.7029
11
25.6059
21
26.7017
0
LINE
8
BLACK
6
CONTINUOUS
10
25.6059
20
26.7017
11
25.6135
21
26.7
0
LINE
8
BLACK
6
CONTINUOUS
10
25.6135
20
26.7
11
33.7819
21
26.7
0
LINE
8
BLACK
6
CONTINUOUS
10
33.7819
20
26.7
11
33.7971
21
26.7045
0
LINE
8
BLACK
6
CONTINUOUS
10
33.7971
20
26.7045
11
33.7983
21
26.7059
0
LINE
8
BLACK
6
CONTINUOUS
10
33.7983
20
26.7059
11
33.8
21
26.7135
0
LINE
8
BLACK
6
CONTINUOUS
10
33.8
20
26.7135
11
33.8
21
33.7819
0
LINE
8
BLACK
6
CONTINUOUS
10
33.8
20
33.7819
11
33.7955
21
33.7971
0
LINE
8
BLACK
6
CONTINUOUS
10
33.7955
20
33.7971
11
33.7941
21
33.7983
0
LINE
8
BLACK
6
CONTINUOUS
10
33.7941
20
33.7983
11
33.7865
21
33.8
0
LINE
8
BLACK
6
CONTINUOUS
10
33.7865
20
33.8
11
25.6181
21
33.8
0
LINE
8
BLACK
6
CONTINUOUS
10
25.6181
20
33.8
11
25.6029
21
33.7955
0
LINE
8
BLACK
6
CONTINUOUS
10
25.6029
20
33.7955
11
25.6017
21
33.7941
0
LINE
8
BLACK
6
CONTINUOUS
10
25.6017
20
33.7941
11
25.6
21
33.7865
0
LINE
8
BLACK
6
CONTINUOUS
10
25.6
20
33.7865
11
25.6
21
30.826
0
LINE
8
BLACK
6
CONTINUOUS
10
25.6
20
30.826
11
25.58
21
30.7579
0
LINE
8
BLACK
6
CONTINUOUS
10
25.58
20
30.7579
11
25.5263
21
30.7114
0
LINE
8
BLACK
6
CONTINUOUS
10
25.5263
20
30.7114
11
25.474
21
30.7
0
LINE
8
BLACK
6
CONTINUOUS
10
25.474
20
30.7
11
24.526
21
30.7
0
LINE
8
BLACK
6
CONTINUOUS
10
24.526
20
30.7
11
24.4579
21
30.72
0
LINE
8
BLACK
6
CONTINUOUS
10
24.4579
20
30.72
11
24.4114
21
30.7737
0
LINE
8
BLACK
6
CONTINUOUS
10
24.4114
20
30.7737
11
24.4
21
30.826
0
LINE
8
BLACK
6
CONTINUOUS
10
24.4
20
30.826
11
24.4
21
33.7819
0
LINE
8
BLACK
6
CONTINUOUS
10
24.4
20
33.7819
11
24.3955
21
33.7971
0
LINE
8
BLACK
6
CONTINUOUS
10
24.3955
20
33.7971
11
24.3941
21
33.7983
0
LINE
8
BLACK
6
CONTINUOUS
10
24.3941
20
33.7983
11
24.3865
21
33.8
0
LINE
8
BLACK
6
CONTINUOUS
10
24.3865
20
33.8
11
11.4181
21
33.8
0
LINE
8
BLACK
6
CONTINUOUS
10
11.4181
20
33.8
11
11.4029
21
33.7955
0
LINE
8
BLACK
6
CONTINUOUS
10
11.4029
20
33.7955
11
11.4017
21
33.7941
0
LINE
8
BLACK
6
CONTINUOUS
10
11.4017
20
33.7941
11
11.4
21
33.7865
0
LINE
8
BLACK
6
CONTINUOUS
10
11.4
20
33.7865
11
11.4
21
27.326
0
LINE
8
BLACK
6
CONTINUOUS
10
11.4
20
27.326
11
11.38
21
27.2579
0
LINE
8
BLACK
6
CONTINUOUS
10
11.38
20
27.2579
11
11.3263
21
27.2114
0
LINE
8
BLACK
6
CONTINUOUS
10
11.3263
20
27.2114
11
11.274
21
27.2
0
LINE
8
BLACK
6
CONTINUOUS
10
11.274
20
27.2
11
6.21812
21
27.2
0
LINE
8
BLACK
6
CONTINUOUS
10
6.21812
20
27.2
11
6.20288
21
27.1955
0
LINE
8
BLACK
6
CONTINUOUS
10
6.20288
20
27.1955
11
6.20167
21
27.1941
0
LINE
8
BLACK
6
CONTINUOUS
10
6.20167
20
27.1941
11
6.2
21
27.1865
0
LINE
8
BLACK
6
CONTINUOUS
10
6.2
20
27.1865
11
6.2
21
13.5181
0
LINE
8
BLACK
6
CONTINUOUS
10
6.2
20
13.5181
11
6.20447
21
13.5029
0
LINE
8
BLACK
6
CONTINUOUS
10
6.20447
20
13.5029
11
6.20586
21
13.5017
0
LINE
8
BLACK
6
CONTINUOUS
10
6.20586
20
13.5017
11
6.21355
21
13.5
0
LINE
8
BLACK
6
CONTINUOUS
10
6.21355
20
13.5
11
11.374
21
13.5
0
LINE
8
BLACK
6
CONTINUOUS
10
11.374
20
13.5
11
11.4421
21
13.48
0
LINE
8
BLACK
6
CONTINUOUS
10
11.4421
20
13.48
11
11.4886
21
13.4263
0
LINE
8
BLACK
6
CONTINUOUS
10
11.4886
20
13.4263
11
11.5
21
13.374
0
LINE
8
BLACK
6
CONTINUOUS
10
11.5
20
13.374
11
11.5
21
12.426
0
LINE
8
BLACK
6
CONTINUOUS
10
11.5
20
12.426
11
11.48
21
12.3579
0
LINE
8
BLACK
6
CONTINUOUS
10
11.48
20
12.3579
11
11.4263
21
12.3114
0
LINE
8
BLACK
6
CONTINUOUS
10
11.4263
20
12.3114
11
11.374
21
12.3
0
LINE
8
BLACK
6
CONTINUOUS
10
11.374
20
12.3
11
6.21812
21
12.3
0
LINE
8
BLACK
6
CONTINUOUS
10
6.21812
20
12.3
11
6.20288
21
12.2955
0
LINE
8
BLACK
6
CONTINUOUS
10
6.20288
20
12.2955
11
6.20167
21
12.2941
0
LINE
8
BLACK
6
CONTINUOUS
10
6.20167
20
12.2941
11
6.2
21
12.2865
0
LINE
8
BLACK
6
CONTINUOUS
10
6.2
20
12.2865
11
6.2
21
6.21812
0
LINE
8
BLACK
6
CONTINUOUS
10
6.2
20
6.21812
11
6.20447
21
6.20288
0
LINE
8
BLACK
6
CONTINUOUS
10
6.20447
20
6.20288
11
6.20586
21
6.20167
0
LINE
8
BLACK
6
CONTINUOUS
10
6.20586
20
28.4017
11
6.21355
21
28.4
0
LINE
8
BLACK
6
CONTINUOUS
10
6.21355
20
28.4
11
10.1819
21
28.4
0
LINE
8
BLACK
6
CONTINUOUS
10
10.1819
20
28.4
11
10.1971
21
28.4045
0
LINE
8
BLACK
6
CONTINUOUS
10
10.1971
20
28.4045
11
10.1983
21
28.4059
0
LINE
8
BLACK
6
CONTINUOUS
10
10.1983
20
28.4059
11
10.2
21
28.4135
0
LINE
8
BLACK
6
CONTINUOUS
10
10.2
20
28.4135
11
10.2
21
33.7819
0
LINE
8
BLACK
6
CONTINUOUS
10
10.2
20
33.7819
11
10.1955
21
33.7971
0
LINE
8
BLACK
6
CONTINUOUS
10
10.1955
20
33.7971
11
10.1941
21
33.7983
0
LINE
8
BLACK
6
CONTINUOUS
10
10.1941
20
33.7983
11
10.1865
21
33.8
0
LINE
8
BLACK
6
CONTINUOUS
10
10.1865
20
33.8
11
6.21812
21
33.8
0
LINE
8
BLACK
6
CONTINUOUS
10
6.21812
20
33.8
11
6.20288
21
33.7955
0
LINE
8
BLACK
6
CONTINUOUS
10
6.20288
20
33.7955
11
6.20167
21
33.7941
0
LINE
8
BLACK
6
CONTINUOUS
10
6.20167
20
33.7941
11
6.2
21
33.7865
0
LINE
8
BLACK
6
CONTINUOUS
10
6.2
20
33.7865
11
6.2
21
28.4181
0
LINE
8
BLACK
6
CONTINUOUS
10
6.2
20
28.4181
11
6.20447
21
28.4029
0
LINE
8
BLACK
6
CONTINUOUS
10
6.20447
20
28.4029
11
6.20586
21
28.4017
0
LINE
8
BLACK
6
CONTINUOUS
10
7.00587
20
35.0017
11
7.01355
21
35
0
LINE
8
BLACK
6
CONTINUOUS
10
7.01355
20
35
11
32.9819
21
35
0
LINE
8
BLACK
6
CONTINUOUS
10
32.9819
20
35
11
32.9971
21
35.0045
0
LINE
8
BLACK
6
CONTINUOUS
10
32.9971
20
35.0045
11
32.9983
21
35.0059
0
LINE
8
BLACK
6
CONTINUOUS
10
32.9983
20
35.0059
11
33
21
35.0135
0
LINE
8
BLACK
6
CONTINUOUS
10
33
20
35.0135
11
33
21
37.9819
0
LINE
8
BLACK
6
CONTINUOUS
10
33
20
37.9819
11
32.9955
21
37.9971
0
LINE
8
BLACK
6
CONTINUOUS
10
32.9955
20
37.9971
11
32.9941
21
37.9983
0
LINE
8
BLACK
6
CONTINUOUS
10
32.9941
20
37.9983
11
32.9865
21
38
0
LINE
8
BLACK
6
CONTINUOUS
10
32.9865
20
38
11
7.01811
21
38
0
LINE
8
BLACK
6
CONTINUOUS
10
7.01811
20
38
11
7.00288
21
37.9955
0
LINE
8
BLACK
6
CONTINUOUS
10
7.00288
20
37.9955
11
7.00167
21
37.9941
0
LINE
8
BLACK
6
CONTINUOUS
10
7.00167
20
37.9941
11
7
21
37.9865
0
LINE
8
BLACK
6
CONTINUOUS
10
7
20
37.9865
11
7
21
35.0181
0
LINE
8
BLACK
6
CONTINUOUS
10
7
20
35.0181
11
7.00447
21
35.0029
0
LINE
8
BLACK
6
CONTINUOUS
10
7.00447
20
35.0029
11
7.00587
21
35.0017
0
LINE
8
BLACK
6
CONTINUOUS
10
2.00587
20
7.00167
11
2.01355
21
7
0
LINE
8
BLACK
6
CONTINUOUS
10
2.01355
20
7
11
4.98189
21
7
0
LINE
8
BLACK
6
CONTINUOUS
10
4.98189
20
7
11
4.99712
21
7.00447
0
LINE
8
BLACK
6
CONTINUOUS
10
4.99712
20
7.00447
11
4.99833
21
7.00587
0
LINE
8
BLACK
6
CONTINUOUS
10
4.99833
20
7.00587
11
5
21
7.01355
0
LINE
8
BLACK
6
CONTINUOUS
10
5
20
7.01355
11
5
21
32.9819
0
LINE
8
BLACK
6
CONTINUOUS
10
5
20
32.9819
11
4.99552
21
32.9971
0
LINE
8
BLACK
6
CONTINUOUS
10
4.99552
20
32.9971
11
4.99413
21
32.9983
0
LINE
8
BLACK
6
CONTINUOUS
10
4.99413
20
32.9983
11
4.98645
21
33
0
LINE
8
BLACK
6
CONTINUOUS
10
4.98645
20
33
11
2.01811
21
33
0
LINE
8
BLACK
6
CONTINUOUS
10
2.01811
20
33
11
2.00288
21
32.9955
0
LINE
8
BLACK
6
CONTINUOUS
10
2.00288
20
32.9955
11
2.00167
21
32.9941
0
LINE
8
BLACK
6
CONTINUOUS
10
2.00167
20
32.9941
11
2
21
32.9865
0
LINE
8
BLACK
6
CONTINUOUS
10
2
20
32.9865
11
2
21
7.01811
0
LINE
8
BLACK
6
CONTINUOUS
10
2
20
7.01811
11
2.00447
21
7.00288
0
LINE
8
BLACK
6
CONTINUOUS
10
2.00447
20
7.00288
11
2.00587
21
7.00167
0
LINE
8
BLACK
6
CONTINUOUS
10
16.1421
20
13.48
11
16.1886
21
13.4263
0
LINE
8
BLACK
6
CONTINUOUS
10
16.1886
20
13.4263
11
16.2
21
13.374
0
LINE
8
BLACK
6
CONTINUOUS
10
16.2
20
13.374
11
16.2
21
12.426
0
LINE
8
BLACK
6
CONTINUOUS
10
16.2
20
12.426
11
16.18
21
12.3579
0
LINE
8
BLACK
6
CONTINUOUS
10
16.18
20
12.3579
11
16.1263
21
12.3114
0
LINE
8
BLACK
6
CONTINUOUS
10
16.1263
20
12.3114
11
16.074
21
12.3
0
LINE
8
BLACK
6
CONTINUOUS
10
16.074
20
12.3
11
12.926
21
12.3
0
LINE
8
BLACK
6
CONTINUOUS
10
12.926
20
12.3
11
12.8579
21
12.32
0
LINE
8
BLACK
6
CONTINUOUS
10
12.8579
20
12.32
11
12.8114
21
12.3737
0
LINE
8
BLACK
6
CONTINUOUS
10
12.8114
20
12.3737
11
12.8
21
12.426
0
LINE
8
BLACK
6
CONTINUOUS
10
12.8
20
12.426
11
12.8
21
13.374
0
LINE
8
BLACK
6
CONTINUOUS
10
12.8
20
13.374
11
12.82
21
13.4421
0
LINE
8
BLACK
6
CONTINUOUS
10
12.82
20
13.4421
11
12.8737
21
13.4886
0
LINE
8
BLACK
6
CONTINUOUS
10
12.8737
20
13.4886
11
12.926
21
13.5
0
LINE
8
BLACK
6
CONTINUOUS
10
12.926
20
13.5
11
16.074
21
13.5
0
LINE
8
BLACK
6
CONTINUOUS
10
16.074
20
13.5
11
16.1421
21
13.48
0
LINE
8
BLACK
6
CONTINUOUS
10
34.9421
20
20.58
11
34.9886
21
20.5263
0
LINE
8
BLACK
6
CONTINUOUS
10
34.9886
20
20.5263
11
35
21
20.474
0
LINE
8
BLACK
6
CONTINUOUS
10
35
20
20.474
11
35
21
16.126
0
LINE
8
BLACK
6
CONTINUOUS
10
35
20
16.126
11
34.98
21
16.0579
0
LINE
8
BLACK
6
CONTINUOUS
10
34.98
20
16.0579
11
34.9263
21
16.0114
0
LINE
8
BLACK
6
CONTINUOUS
10
34.9263
20
16.0114
11
34.874
21
16
0
LINE
8
BLACK
6
CONTINUOUS
10
34.874
20
16
11
33.926
21
16
0
LINE
8
BLACK
6
CONTINUOUS
10
33.926
20
16
11
33.8579
21
16.02
0
LINE
8
BLACK
6
CONTINUOUS
10
33.8579
20
16.02
11
33.8114
21
16.0737
0
LINE
8
BLACK
6
CONTINUOUS
10
33.8114
20
16.0737
11
33.8
21
16.126
0
LINE
8
BLACK
6
CONTINUOUS
10
33.8
20
16.126
11
33.8
21
20.474
0
LINE
8
BLACK
6
CONTINUOUS
10
33.8
20
20.474
11
33.82
21
20.5421
0
LINE
8
BLACK
6
CONTINUOUS
10
33.82
20
20.5421
11
33.8737
21
20.5886
0
LINE
8
BLACK
6
CONTINUOUS
10
33.8737
20
20.5886
11
33.926
21
20.6
0
LINE
8
BLACK
6
CONTINUOUS
10
33.926
20
20.6
11
34.874
21
20.6
0
LINE
8
BLACK
6
CONTINUOUS
10
34.874
20
20.6
11
34.9421
21
20.58
  0
ENDSEC
  0
EOF
