  0
SECTION
  2
HEADER
  9
$ANGBASE
  50
0.0
  9
$ANGDIR
  70
1
  9
$MEASUREMENT
  70
1
  0
ENDSEC
  0
SECTION
  2
TABLES
  0
TABLE
  2
LTYPE
  70
4
  0
LTYPE
  5
40F
  2
CONTINUOUS
  70
0
  3
Solid line
  72
65
  73
0
  40
0.0
  0
LTYPE
  5
410
  2
DASHDOT
 70
0
  3
Dash Dot ____ _ ____ _
 72
65
 73
4
 40
2.0
 49
1.25
 49
-0.25
 49
0.25
 49
-0.25
  0
LTYPE
  5
411
  2
DASHED
 70
0
  3
Dashed __ __ __ __ __
 72
65
 73
2
 40
0.75
 49
0.5
 49
-0.25
  0
LTYPE
  5
43B
  2
DOTTED
 70
0
  3
Dotted .  .  .  .
 72
65
 73
2
 40
0.2
 49
0.0
 49
-0.2
  0
ENDTAB
  0
TABLE
  2
STYLE
  70
4
  0
STYLE
  2
KICAD
  70
0
  40
0
  41
1
  42
1
  50
0
  71
0
  3
isocp.shx
  0
STYLE
  2
KICADB
  70
0
  40
0
  41
1
  42
1
  50
0
  71
0
  3
isocp.shx
  0
STYLE
  2
KICADI
  70
0
  40
0
  41
1
  42
1
  50
15
  71
0
  3
isocp.shx
  0
STYLE
  2
KICADBI
  70
0
  40
0
  41
1
  42
1
  50
15
  71
0
  3
isocp.shx
  0
ENDTAB
  0
TABLE
  2
LAYER
  70
1
  0
LAYER
  2
BLACK
  70
0
  62
7
  6
CONTINUOUS
  0
ENDTAB
  0
ENDSEC
  0
SECTION
  2
ENTITIES
0
LINE
8
BLACK
6
CONTINUOUS
10
34.943
20
40.1118
11
34.9771
21
40.1231
0
LINE
8
BLACK
6
CONTINUOUS
10
34.9771
20
40.1231
11
34.9882
21
40.1218
0
LINE
8
BLACK
6
CONTINUOUS
10
34.9882
20
40.1218
11
34.999
21
40.125
0
LINE
8
BLACK
6
CONTINUOUS
10
34.999
20
40.125
11
38.999
21
40.125
0
LINE
8
BLACK
6
CONTINUOUS
10
38.999
20
40.125
11
38.9996
21
40.1249
0
LINE
8
BLACK
6
CONTINUOUS
10
38.9996
20
40.1249
11
39
21
40.125
0
LINE
8
BLACK
6
CONTINUOUS
10
39
20
40.125
11
39.1954
21
40.1079
0
LINE
8
BLACK
6
CONTINUOUS
10
39.1954
20
40.1079
11
39.3848
21
40.0571
0
LINE
8
BLACK
6
CONTINUOUS
10
39.3848
20
40.0571
11
39.5626
21
39.9742
0
LINE
8
BLACK
6
CONTINUOUS
10
39.5626
20
39.9742
11
39.7232
21
39.8617
0
LINE
8
BLACK
6
CONTINUOUS
10
39.7232
20
39.8617
11
39.8619
21
39.723
0
LINE
8
BLACK
6
CONTINUOUS
10
39.8619
20
39.723
11
39.9744
21
39.5624
0
LINE
8
BLACK
6
CONTINUOUS
10
39.9744
20
39.5624
11
40.0572
21
39.3846
0
LINE
8
BLACK
6
CONTINUOUS
10
40.0572
20
39.3846
11
40.1079
21
39.1951
0
LINE
8
BLACK
6
CONTINUOUS
10
40.1079
20
39.1951
11
40.125
21
39.0001
0
LINE
8
BLACK
6
CONTINUOUS
10
40.125
20
39.0001
11
40.125
21
39
0
LINE
8
BLACK
6
CONTINUOUS
10
40.125
20
39
11
40.125
21
35
0
LINE
8
BLACK
6
CONTINUOUS
10
40.125
20
35
11
40.1199
21
34.9645
0
LINE
8
BLACK
6
CONTINUOUS
10
40.1199
20
34.9645
11
40.1138
21
34.9551
0
LINE
8
BLACK
6
CONTINUOUS
10
40.1138
20
34.9551
11
40.1118
21
34.9441
0
LINE
8
BLACK
6
CONTINUOUS
10
40.1118
20
34.9441
11
39.125
21
32.9705
0
LINE
8
BLACK
6
CONTINUOUS
10
39.125
20
32.9705
11
39.125
21
7.02951
0
LINE
8
BLACK
6
CONTINUOUS
10
39.125
20
7.02951
11
40.1118
21
5.0559
0
LINE
8
BLACK
6
CONTINUOUS
10
40.1118
20
5.0559
11
40.1231
21
5.02184
0
LINE
8
BLACK
6
CONTINUOUS
10
40.1231
20
5.02184
11
40.1219
21
5.01073
0
LINE
8
BLACK
6
CONTINUOUS
10
40.1219
20
5.01073
11
40.125
21
5
0
LINE
8
BLACK
6
CONTINUOUS
10
40.125
20
5
11
40.125
21
1
0
LINE
8
BLACK
6
CONTINUOUS
10
40.125
20
1
11
40.1079
21
0.804646
0
LINE
8
BLACK
6
CONTINUOUS
10
40.1079
20
0.804646
11
40.0572
21
0.615227
0
LINE
8
BLACK
6
CONTINUOUS
10
40.0572
20
0.615227
11
39.9743
21
0.4375
0
LINE
8
BLACK
6
CONTINUOUS
10
39.9743
20
0.4375
11
39.8618
21
0.276864
0
LINE
8
BLACK
6
CONTINUOUS
10
39.8618
20
0.276864
11
39.7231
21
0.1382
0
LINE
8
BLACK
6
CONTINUOUS
10
39.7231
20
0.1382
11
39.5625
21
0.025721
0
LINE
8
BLACK
6
CONTINUOUS
10
39.5625
20
0.025721
11
39.3848
21
-0.057154
0
LINE
8
BLACK
6
CONTINUOUS
10
39.3848
20
-0.057154
11
39.1954
21
-0.107909
0
LINE
8
BLACK
6
CONTINUOUS
10
39.1954
20
-0.107909
11
39
21
-0.125
0
LINE
8
BLACK
6
CONTINUOUS
10
39
20
-0.125
11
35
21
-0.125
0
LINE
8
BLACK
6
CONTINUOUS
10
35
20
-0.125
11
34.9645
21
-0.119852
0
LINE
8
BLACK
6
CONTINUOUS
10
34.9645
20
-0.119852
11
34.9551
21
-0.113786
0
LINE
8
BLACK
6
CONTINUOUS
10
34.9551
20
-0.113786
11
34.9441
21
-0.111803
0
LINE
8
BLACK
6
CONTINUOUS
10
34.9441
20
-0.111803
11
32.9705
21
0.875
0
LINE
8
BLACK
6
CONTINUOUS
10
32.9705
20
0.875
11
7.02951
21
0.875
0
LINE
8
BLACK
6
CONTINUOUS
10
7.02951
20
0.875
11
5.0559
21
-0.111803
0
LINE
8
BLACK
6
CONTINUOUS
10
5.0559
20
-0.111803
11
5.02184
21
-0.123076
0
LINE
8
BLACK
6
CONTINUOUS
10
5.02184
20
-0.123076
11
5.01073
21
-0.121852
0
LINE
8
BLACK
6
CONTINUOUS
10
5.01073
20
-0.121852
11
5
21
-0.125
0
LINE
8
BLACK
6
CONTINUOUS
10
5
20
-0.125
11
1
21
-0.125
0
LINE
8
BLACK
6
CONTINUOUS
10
1
20
-0.125
11
0.804646
21
-0.107909
0
LINE
8
BLACK
6
CONTINUOUS
10
0.804646
20
-0.107909
11
0.615227
21
-0.057154
0
LINE
8
BLACK
6
CONTINUOUS
10
0.615227
20
-0.057154
11
0.4375
21
0.025721
0
LINE
8
BLACK
6
CONTINUOUS
10
0.4375
20
0.025721
11
0.276864
21
0.1382
0
LINE
8
BLACK
6
CONTINUOUS
10
0.276864
20
0.1382
11
0.1382
21
0.276864
0
LINE
8
BLACK
6
CONTINUOUS
10
0.1382
20
0.276864
11
0.025721
21
0.4375
0
LINE
8
BLACK
6
CONTINUOUS
10
0.025721
20
0.4375
11
-0.057154
21
0.615227
0
LINE
8
BLACK
6
CONTINUOUS
10
-0.057154
20
0.615227
11
-0.107909
21
0.804646
0
LINE
8
BLACK
6
CONTINUOUS
10
-0.107909
20
0.804646
11
-0.125
21
1
0
LINE
8
BLACK
6
CONTINUOUS
10
-0.125
20
1
11
-0.125
21
5
0
LINE
8
BLACK
6
CONTINUOUS
10
-0.125
20
5
11
-0.119852
21
5.0355
0
LINE
8
BLACK
6
CONTINUOUS
10
-0.119852
20
5.0355
11
-0.113786
21
5.0449
0
LINE
8
BLACK
6
CONTINUOUS
10
-0.113786
20
5.0449
11
-0.111803
21
5.0559
0
LINE
8
BLACK
6
CONTINUOUS
10
-0.111803
20
5.0559
11
0.875
21
7.02951
0
LINE
8
BLACK
6
CONTINUOUS
10
0.875
20
7.02951
11
0.875
21
32.9705
0
LINE
8
BLACK
6
CONTINUOUS
10
0.875
20
32.9705
11
-0.111803
21
34.9441
0
LINE
8
BLACK
6
CONTINUOUS
10
-0.111803
20
34.9441
11
-0.123076
21
34.9782
0
LINE
8
BLACK
6
CONTINUOUS
10
-0.123076
20
34.9782
11
-0.121852
21
34.9893
0
LINE
8
BLACK
6
CONTINUOUS
10
-0.121852
20
34.9893
11
-0.125
21
35
0
LINE
8
BLACK
6
CONTINUOUS
10
-0.125
20
35
11
-0.125
21
39
0
LINE
8
BLACK
6
CONTINUOUS
10
-0.125
20
39
11
-0.107909
21
39.1954
0
LINE
8
BLACK
6
CONTINUOUS
10
-0.107909
20
39.1954
11
-0.057154
21
39.3848
0
LINE
8
BLACK
6
CONTINUOUS
10
-0.057154
20
39.3848
11
0.025721
21
39.5625
0
LINE
8
BLACK
6
CONTINUOUS
10
0.025721
20
39.5625
11
0.1382
21
39.7231
0
LINE
8
BLACK
6
CONTINUOUS
10
0.1382
20
39.7231
11
0.276864
21
39.8618
0
LINE
8
BLACK
6
CONTINUOUS
10
0.276864
20
39.8618
11
0.4375
21
39.9743
0
LINE
8
BLACK
6
CONTINUOUS
10
0.4375
20
39.9743
11
0.615227
21
40.0572
0
LINE
8
BLACK
6
CONTINUOUS
10
0.615227
20
40.0572
11
0.804646
21
40.1079
0
LINE
8
BLACK
6
CONTINUOUS
10
0.804646
20
40.1079
11
1
21
40.125
0
LINE
8
BLACK
6
CONTINUOUS
10
1
20
40.125
11
1.00052
21
40.1249
0
LINE
8
BLACK
6
CONTINUOUS
10
1.00052
20
40.1249
11
1.001
21
40.125
0
LINE
8
BLACK
6
CONTINUOUS
10
1.001
20
40.125
11
5.001
21
40.125
0
LINE
8
BLACK
6
CONTINUOUS
10
5.001
20
40.125
11
5.0365
21
40.1199
0
LINE
8
BLACK
6
CONTINUOUS
10
5.0365
20
40.1199
11
5.04593
21
40.1138
0
LINE
8
BLACK
6
CONTINUOUS
10
5.04593
20
40.1138
11
5.05697
21
40.1118
0
LINE
8
BLACK
6
CONTINUOUS
10
5.05697
20
40.1118
11
7.02955
21
39.124
0
LINE
8
BLACK
6
CONTINUOUS
10
7.02955
20
39.124
11
32.9705
21
39.124
0
LINE
8
BLACK
6
CONTINUOUS
10
32.9705
20
39.124
11
34.943
21
40.1118
0
LINE
8
BLACK
6
CONTINUOUS
10
6.9645
20
38.8791
11
6.95507
21
38.8852
0
LINE
8
BLACK
6
CONTINUOUS
10
6.95507
20
38.8852
11
6.94403
21
38.8872
0
LINE
8
BLACK
6
CONTINUOUS
10
6.94403
20
38.8872
11
4.97145
21
39.875
0
LINE
8
BLACK
6
CONTINUOUS
10
4.97145
20
39.875
11
1.001
21
39.875
0
LINE
8
BLACK
6
CONTINUOUS
10
1.001
20
39.875
11
1.00035
21
39.8751
0
LINE
8
BLACK
6
CONTINUOUS
10
1.00035
20
39.8751
11
1
21
39.875
0
LINE
8
BLACK
6
CONTINUOUS
10
1
20
39.875
11
0.998821
21
39.8753
0
LINE
8
BLACK
6
CONTINUOUS
10
0.998821
20
39.8753
11
0.983207
21
39.8776
0
LINE
8
BLACK
6
CONTINUOUS
10
0.983207
20
39.8776
11
0.82847
21
39.8623
0
LINE
8
BLACK
6
CONTINUOUS
10
0.82847
20
39.8623
11
0.663532
21
39.8123
0
LINE
8
BLACK
6
CONTINUOUS
10
0.663532
20
39.8123
11
0.511524
21
39.7311
0
LINE
8
BLACK
6
CONTINUOUS
10
0.511524
20
39.7311
11
0.378288
21
39.6217
0
LINE
8
BLACK
6
CONTINUOUS
10
0.378288
20
39.6217
11
0.268944
21
39.4885
0
LINE
8
BLACK
6
CONTINUOUS
10
0.268944
20
39.4885
11
0.187694
21
39.3365
0
LINE
8
BLACK
6
CONTINUOUS
10
0.187694
20
39.3365
11
0.13766
21
39.1715
0
LINE
8
BLACK
6
CONTINUOUS
10
0.13766
20
39.1715
11
0.121904
21
39.0116
0
LINE
8
BLACK
6
CONTINUOUS
10
0.121904
20
39.0116
11
0.125
21
39
0
LINE
8
BLACK
6
CONTINUOUS
10
0.125
20
39
11
0.125
21
35.0295
0
LINE
8
BLACK
6
CONTINUOUS
10
0.125
20
35.0295
11
1.1118
21
33.0559
0
LINE
8
BLACK
6
CONTINUOUS
10
1.1118
20
33.0559
11
1.12308
21
33.0218
0
LINE
8
BLACK
6
CONTINUOUS
10
1.12308
20
33.0218
11
1.12185
21
33.0107
0
LINE
8
BLACK
6
CONTINUOUS
10
1.12185
20
33.0107
11
1.125
21
33
0
LINE
8
BLACK
6
CONTINUOUS
10
1.125
20
33
11
1.125
21
7
0
LINE
8
BLACK
6
CONTINUOUS
10
1.125
20
7
11
1.11985
21
6.9645
0
LINE
8
BLACK
6
CONTINUOUS
10
1.11985
20
6.9645
11
1.11379
21
6.9551
0
LINE
8
BLACK
6
CONTINUOUS
10
1.11379
20
6.9551
11
1.1118
21
6.9441
0
LINE
8
BLACK
6
CONTINUOUS
10
1.1118
20
6.9441
11
0.125
21
4.97049
0
LINE
8
BLACK
6
CONTINUOUS
10
0.125
20
4.97049
11
0.125
21
1
0
LINE
8
BLACK
6
CONTINUOUS
10
0.125
20
1
11
0.122479
21
0.982612
0
LINE
8
BLACK
6
CONTINUOUS
10
0.122479
20
0.982612
11
0.13766
21
0.82847
0
LINE
8
BLACK
6
CONTINUOUS
10
0.13766
20
0.82847
11
0.187694
21
0.663532
0
LINE
8
BLACK
6
CONTINUOUS
10
0.187694
20
0.663532
11
0.268944
21
0.511524
0
LINE
8
BLACK
6
CONTINUOUS
10
0.268944
20
0.511524
11
0.378288
21
0.378288
0
LINE
8
BLACK
6
CONTINUOUS
10
0.378288
20
0.378288
11
0.511524
21
0.268944
0
LINE
8
BLACK
6
CONTINUOUS
10
0.511524
20
0.268944
11
0.663532
21
0.187694
0
LINE
8
BLACK
6
CONTINUOUS
10
0.663532
20
0.187694
11
0.82847
21
0.13766
0
LINE
8
BLACK
6
CONTINUOUS
10
0.82847
20
0.13766
11
0.988446
21
0.121904
0
LINE
8
BLACK
6
CONTINUOUS
10
0.988446
20
0.121904
11
1
21
0.125
0
LINE
8
BLACK
6
CONTINUOUS
10
1
20
0.125
11
4.97049
21
0.125
0
LINE
8
BLACK
6
CONTINUOUS
10
4.97049
20
0.125
11
6.9441
21
1.1118
0
LINE
8
BLACK
6
CONTINUOUS
10
6.9441
20
1.1118
11
6.97816
21
1.12308
0
LINE
8
BLACK
6
CONTINUOUS
10
6.97816
20
1.12308
11
6.98927
21
1.12185
0
LINE
8
BLACK
6
CONTINUOUS
10
6.98927
20
1.12185
11
7
21
1.125
0
LINE
8
BLACK
6
CONTINUOUS
10
7
20
1.125
11
33
21
1.125
0
LINE
8
BLACK
6
CONTINUOUS
10
33
20
1.125
11
33.0355
21
1.11985
0
LINE
8
BLACK
6
CONTINUOUS
10
33.0355
20
1.11985
11
33.0449
21
1.11379
0
LINE
8
BLACK
6
CONTINUOUS
10
33.0449
20
1.11379
11
33.0559
21
1.1118
0
LINE
8
BLACK
6
CONTINUOUS
10
33.0559
20
1.1118
11
35.0295
21
0.125
0
LINE
8
BLACK
6
CONTINUOUS
10
35.0295
20
0.125
11
39
21
0.125
0
LINE
8
BLACK
6
CONTINUOUS
10
39
20
0.125
11
39.0174
21
0.122479
0
LINE
8
BLACK
6
CONTINUOUS
10
39.0174
20
0.122479
11
39.1715
21
0.13766
0
LINE
8
BLACK
6
CONTINUOUS
10
39.1715
20
0.13766
11
39.3365
21
0.187694
0
LINE
8
BLACK
6
CONTINUOUS
10
39.3365
20
0.187694
11
39.4885
21
0.268944
0
LINE
8
BLACK
6
CONTINUOUS
10
39.4885
20
0.268944
11
39.6217
21
0.378288
0
LINE
8
BLACK
6
CONTINUOUS
10
39.6217
20
0.378288
11
39.7311
21
0.511524
0
LINE
8
BLACK
6
CONTINUOUS
10
39.7311
20
0.511524
11
39.8123
21
0.663532
0
LINE
8
BLACK
6
CONTINUOUS
10
39.8123
20
0.663532
11
39.8623
21
0.82847
0
LINE
8
BLACK
6
CONTINUOUS
10
39.8623
20
0.82847
11
39.8781
21
0.988446
0
LINE
8
BLACK
6
CONTINUOUS
10
39.8781
20
0.988446
11
39.875
21
1
0
LINE
8
BLACK
6
CONTINUOUS
10
39.875
20
1
11
39.875
21
4.97049
0
LINE
8
BLACK
6
CONTINUOUS
10
39.875
20
4.97049
11
38.8882
21
6.9441
0
LINE
8
BLACK
6
CONTINUOUS
10
38.8882
20
6.9441
11
38.8769
21
6.97816
0
LINE
8
BLACK
6
CONTINUOUS
10
38.8769
20
6.97816
11
38.8781
21
6.98927
0
LINE
8
BLACK
6
CONTINUOUS
10
38.8781
20
6.98927
11
38.875
21
7
0
LINE
8
BLACK
6
CONTINUOUS
10
38.875
20
7
11
38.875
21
33
0
LINE
8
BLACK
6
CONTINUOUS
10
38.875
20
33
11
38.8801
21
33.0355
0
LINE
8
BLACK
6
CONTINUOUS
10
38.8801
20
33.0355
11
38.8862
21
33.0449
0
LINE
8
BLACK
6
CONTINUOUS
10
38.8862
20
33.0449
11
38.8882
21
33.0559
0
LINE
8
BLACK
6
CONTINUOUS
10
38.8882
20
33.0559
11
39.875
21
35.0295
0
LINE
8
BLACK
6
CONTINUOUS
10
39.875
20
35.0295
11
39.875
21
39
0
LINE
8
BLACK
6
CONTINUOUS
10
39.875
20
39
11
39.8775
21
39.0173
0
LINE
8
BLACK
6
CONTINUOUS
10
39.8775
20
39.0173
11
39.8624
21
39.1714
0
LINE
8
BLACK
6
CONTINUOUS
10
39.8624
20
39.1714
11
39.8124
21
39.3363
0
LINE
8
BLACK
6
CONTINUOUS
10
39.8124
20
39.3363
11
39.7311
21
39.4884
0
LINE
8
BLACK
6
CONTINUOUS
10
39.7311
20
39.4884
11
39.6218
21
39.6216
0
LINE
8
BLACK
6
CONTINUOUS
10
39.6218
20
39.6216
11
39.4885
21
39.731
0
LINE
8
BLACK
6
CONTINUOUS
10
39.4885
20
39.731
11
39.3365
21
39.8123
0
LINE
8
BLACK
6
CONTINUOUS
10
39.3365
20
39.8123
11
39.1716
21
39.8623
0
LINE
8
BLACK
6
CONTINUOUS
10
39.1716
20
39.8623
11
39.0116
21
39.8781
0
LINE
8
BLACK
6
CONTINUOUS
10
39.0116
20
39.8781
11
39
21
39.875
0
LINE
8
BLACK
6
CONTINUOUS
10
39
20
39.875
11
38.9995
21
39.8751
0
LINE
8
BLACK
6
CONTINUOUS
10
38.9995
20
39.8751
11
38.999
21
39.875
0
LINE
8
BLACK
6
CONTINUOUS
10
38.999
20
39.875
11
35.0285
21
39.875
0
LINE
8
BLACK
6
CONTINUOUS
10
35.0285
20
39.875
11
33.056
21
38.8872
0
LINE
8
BLACK
6
CONTINUOUS
10
33.056
20
38.8872
11
33.0219
21
38.8759
0
LINE
8
BLACK
6
CONTINUOUS
10
33.0219
20
38.8759
11
33.0108
21
38.8772
0
LINE
8
BLACK
6
CONTINUOUS
10
33.0108
20
38.8772
11
33
21
38.874
0
LINE
8
BLACK
6
CONTINUOUS
10
33
20
38.874
11
7
21
38.874
0
LINE
8
BLACK
6
CONTINUOUS
10
7
20
38.874
11
6.9645
21
38.8791
  0
ENDSEC
  0
EOF
