M48
; DRILL file {KiCad (6.0.1)} date Thu Apr 21 10:10:45 2022
; FORMAT={2:4/ absolute / inch / keep zeros}
; #@! TF.CreationDate,2022-04-21T10:10:45+02:00
; #@! TF.GenerationSoftware,Kicad,Pcbnew,(6.0.1)
; #@! TF.FileFunction,MixedPlating,1,2
FMAT,2
INCH
; #@! TA.AperFunction,Plated,PTH,ViaDrill
T1C0.0157
; #@! TA.AperFunction,Plated,PTH,ViaDrill
T2C0.0197
; #@! TA.AperFunction,Plated,PTH,ComponentDrill
T3C0.0394
; #@! TA.AperFunction,NonPlated,NPTH,ComponentDrill
T4C0.0315
; #@! TA.AperFunction,NonPlated,NPTH,ComponentDrill
T5C0.1063
%
G90
G05
T1
X052264Y-039173
T2
X039764Y-013780
X039764Y-014567
X039764Y-015354
X039764Y-016142
X039764Y-016929
X039764Y-017520
X039764Y-019094
X039764Y-020079
X039764Y-020866
X039764Y-021654
X039764Y-022441
X039764Y-023228
X039764Y-024016
X039764Y-024803
X039764Y-033858
X039764Y-035236
X039764Y-043701
X039764Y-044488
X039764Y-045276
X039764Y-046063
X039764Y-046850
X039764Y-047638
X039764Y-048425
X039764Y-049213
X039764Y-050492
X039764Y-053150
X039764Y-053937
X039764Y-054724
X039764Y-055512
X039764Y-056299
X039764Y-057087
X039764Y-057874
X039764Y-058661
X039819Y-051764
X040157Y-050098
X040157Y-052264
X040354Y-017520
X040354Y-019094
X040453Y-033858
X040453Y-035236
X040551Y-013780
X040551Y-014961
X040551Y-024803
X040551Y-043701
X040551Y-050492
X040551Y-051870
X040551Y-054331
X040551Y-058661
X040945Y-017520
X040945Y-019094
X040945Y-021260
X040945Y-023228
X040945Y-050098
X040945Y-052264
X041142Y-033858
X041142Y-035236
X041339Y-013780
X041339Y-024803
X041339Y-029331
X041339Y-031299
X041339Y-037205
X041339Y-043701
X041339Y-047244
X041339Y-049213
X041339Y-050492
X041339Y-051870
X041339Y-053150
X041339Y-055118
X041339Y-058661
X041535Y-017520
X041535Y-019094
X041732Y-050098
X041732Y-052264
X041831Y-033858
X041831Y-035236
X042126Y-013780
X042126Y-017520
X042126Y-019094
X042126Y-024803
X042126Y-024803
X042126Y-036024
X042126Y-038386
X042126Y-043701
X042126Y-048425
X042126Y-050492
X042126Y-051870
X042126Y-053937
X042126Y-058661
X042318Y-015340
X042421Y-035236
X042461Y-033858
X042520Y-032087
X042520Y-041535
X042520Y-050098
X042520Y-052264
X042717Y-017520
X042717Y-019291
X042747Y-021691
X042913Y-013780
X042913Y-016929
X042913Y-024803
X042913Y-037205
X042913Y-043701
X042913Y-050492
X042913Y-051870
X042913Y-058661
X043110Y-035236
X043150Y-033858
X043307Y-019882
X043307Y-029331
X043307Y-031299
X043307Y-033268
X043307Y-036024
X043307Y-039173
X043307Y-045276
X043307Y-047244
X043307Y-049213
X043307Y-050098
X043307Y-052264
X043307Y-053150
X043307Y-055118
X043307Y-057087
X043504Y-017913
X043701Y-013780
X043701Y-043701
X043701Y-050492
X043701Y-051870
X043701Y-057874
X043701Y-058661
X043799Y-035236
X043839Y-033858
X043898Y-017520
X043898Y-019882
X044094Y-020669
X044094Y-021260
X044094Y-021850
X044094Y-022441
X044094Y-023031
X044094Y-023622
X044094Y-024213
X044094Y-024803
X044094Y-037598
X044094Y-039961
X044094Y-046457
X044094Y-050098
X044094Y-052264
X044094Y-055118
X044291Y-017126
X044473Y-015769
X044488Y-013780
X044488Y-019685
X044488Y-035236
X044488Y-036811
X044488Y-043701
X044488Y-050492
X044488Y-053937
X044488Y-058661
X044528Y-033858
X044783Y-032972
X044823Y-052650
X044882Y-017126
X044882Y-019094
X044882Y-029724
X044882Y-031693
X044882Y-041535
X044882Y-050098
X044913Y-050996
X045177Y-035236
X045177Y-036024
X045205Y-051484
X045217Y-033858
X045276Y-013780
X045276Y-018504
X045276Y-020079
X045276Y-043701
X045276Y-045276
X045276Y-053150
X045276Y-055118
X045276Y-057087
X045276Y-058661
X045472Y-017126
X045472Y-020669
X045472Y-021260
X045472Y-021850
X045472Y-022441
X045472Y-023031
X045472Y-023622
X045472Y-024213
X045472Y-024803
X045496Y-051024
X045669Y-050098
X045815Y-052626
X045866Y-018504
X045945Y-027913
X045965Y-037697
X046058Y-017123
X046063Y-013780
X046063Y-014567
X046063Y-024803
X046063Y-043701
X046063Y-044488
X046063Y-049213
X046063Y-050492
X046063Y-058661
X046457Y-020079
X046457Y-048031
X046457Y-050098
X046457Y-052264
X046457Y-054331
X046555Y-035236
X046555Y-039862
X046594Y-033858
X046649Y-017123
X046654Y-018504
X046654Y-035728
X046850Y-013780
X046850Y-022047
X046850Y-024803
X046850Y-043701
X046850Y-050492
X046850Y-051870
X046850Y-058661
X047047Y-030807
X047146Y-032776
X047244Y-017126
X047244Y-018504
X047244Y-029331
X047244Y-035236
X047244Y-045276
X047244Y-047244
X047244Y-049213
X047244Y-050098
X047244Y-052264
X047244Y-053150
X047244Y-055118
X047244Y-057087
X047283Y-033858
X047441Y-036122
X047638Y-013780
X047638Y-015748
X047638Y-024803
X047638Y-041535
X047638Y-043701
X047638Y-050492
X047638Y-051870
X047638Y-058661
X047835Y-017126
X047835Y-018504
X047933Y-035236
X047972Y-033858
X048026Y-023204
X048031Y-048425
X048031Y-050098
X048031Y-052264
X048031Y-053150
X048031Y-054331
X048228Y-039370
X048228Y-057677
X048327Y-037008
X048425Y-013780
X048425Y-017126
X048425Y-018504
X048425Y-019685
X048425Y-020866
X048425Y-024803
X048425Y-043701
X048425Y-050492
X048425Y-051870
X048425Y-058661
X048524Y-031299
X048622Y-035236
X048661Y-033858
X048819Y-014961
X048819Y-050098
X048819Y-051181
X048819Y-052264
X049016Y-017126
X049016Y-018504
X049114Y-036122
X049213Y-013780
X049213Y-024803
X049213Y-043701
X049213Y-047244
X049213Y-049213
X049213Y-050492
X049213Y-051870
X049213Y-053150
X049213Y-055118
X049213Y-057087
X049213Y-058661
X049311Y-035236
X049350Y-033858
X049454Y-033268
X049606Y-016142
X049606Y-017126
X049606Y-018504
X049606Y-050098
X049606Y-051181
X049606Y-052264
X050000Y-013780
X050000Y-024803
X050000Y-043701
X050000Y-050492
X050000Y-051870
X050000Y-054331
X050000Y-058661
X050039Y-033858
X050197Y-017126
X050197Y-018504
X050377Y-047168
X050394Y-020079
X050394Y-048819
X050394Y-050098
X050394Y-052264
X050787Y-013780
X050787Y-024803
X050787Y-043701
X050787Y-050492
X050787Y-051870
X050787Y-058661
X050984Y-018504
X050989Y-031693
X051181Y-023622
X051181Y-041142
X051181Y-047244
X051181Y-049213
X051181Y-050098
X051181Y-052264
X051181Y-053150
X051181Y-055118
X051181Y-057087
X051225Y-032283
X051344Y-034016
X051344Y-034882
X051457Y-029606
X051575Y-013780
X051575Y-017126
X051575Y-018504
X051575Y-021260
X051575Y-024803
X051575Y-043701
X051575Y-050492
X051575Y-051870
X051575Y-058661
X051816Y-034449
X051969Y-014567
X051969Y-016535
X051969Y-050098
X051969Y-052264
X051969Y-053937
X052165Y-017126
X052165Y-018504
X052288Y-034016
X052288Y-034882
X052362Y-013780
X052362Y-024803
X052362Y-039961
X052362Y-043701
X052362Y-045276
X052362Y-050492
X052362Y-057480
X052362Y-058661
X052622Y-052504
X052756Y-017126
X052756Y-018504
X052756Y-019685
X052756Y-050098
X052953Y-037894
X052957Y-051567
X053051Y-036713
X053150Y-013780
X053150Y-016142
X053150Y-024803
X053150Y-029331
X053150Y-041142
X053150Y-043701
X053150Y-045276
X053150Y-053150
X053150Y-055118
X053150Y-057087
X053150Y-058661
X053220Y-051035
X053346Y-017126
X053346Y-018504
X053535Y-051563
X053543Y-033268
X053642Y-033740
X053661Y-035098
X053776Y-052535
X053937Y-013780
X053937Y-017126
X053937Y-018504
X053937Y-024803
X053937Y-030118
X053937Y-037598
X053937Y-043701
X053937Y-049606
X053937Y-050492
X053937Y-053543
X053937Y-058661
X054331Y-021654
X054331Y-032874
X054331Y-033740
X054331Y-046457
X054331Y-048031
X054331Y-050098
X054331Y-052264
X054350Y-035098
X054528Y-017126
X054528Y-018504
X054724Y-013780
X054724Y-016142
X054724Y-023622
X054724Y-024803
X054724Y-043701
X054724Y-050492
X054724Y-051870
X054724Y-058661
X054961Y-033780
X054980Y-035138
X055118Y-017126
X055118Y-018504
X055118Y-027362
X055118Y-029331
X055118Y-031299
X055118Y-033268
X055118Y-041142
X055118Y-045276
X055118Y-047244
X055118Y-049213
X055118Y-050098
X055118Y-052264
X055118Y-053150
X055118Y-055118
X055118Y-057087
X055217Y-035925
X055413Y-032185
X055512Y-013780
X055512Y-024803
X055512Y-039961
X055512Y-043701
X055512Y-050492
X055512Y-051870
X055512Y-058661
X055650Y-033780
X055669Y-035138
X055709Y-017126
X055709Y-018504
X055906Y-014567
X055906Y-016142
X055906Y-030118
X055906Y-050098
X055906Y-052264
X056299Y-013780
X056299Y-017126
X056299Y-018504
X056299Y-024803
X056299Y-043701
X056299Y-048425
X056299Y-050492
X056299Y-051870
X056299Y-053937
X056299Y-058661
X056318Y-020015
X056339Y-033780
X056358Y-035138
X056693Y-022047
X056693Y-050098
X056693Y-052264
X056890Y-018504
X056988Y-033760
X057008Y-035118
X057087Y-013780
X057087Y-024803
X057087Y-027362
X057087Y-029331
X057087Y-031299
X057087Y-037205
X057087Y-041142
X057087Y-043701
X057087Y-047244
X057087Y-049213
X057087Y-050492
X057087Y-051870
X057087Y-053150
X057087Y-055118
X057087Y-058661
X057480Y-018504
X057480Y-050098
X057480Y-052264
X057677Y-033760
X057697Y-035118
X057874Y-013780
X057874Y-024803
X057874Y-028543
X057874Y-043701
X057874Y-050492
X057874Y-051870
X057874Y-058661
X058071Y-016929
X058071Y-018504
X058268Y-020472
X058268Y-023622
X058268Y-050098
X058268Y-052264
X058366Y-033760
X058386Y-035118
X058661Y-013780
X058661Y-016142
X058661Y-016929
X058661Y-018504
X058661Y-022441
X058661Y-024803
X058661Y-043701
X058661Y-044488
X058661Y-045276
X058661Y-046063
X058661Y-046850
X058661Y-047638
X058661Y-048425
X058661Y-049213
X058661Y-050492
X058661Y-051870
X058661Y-053150
X058661Y-053937
X058661Y-054724
X058661Y-055512
X058661Y-056299
X058661Y-057087
X058661Y-057874
X058661Y-058661
X059252Y-016929
X059252Y-018504
X059449Y-013780
X059449Y-019685
X059449Y-024803
X059843Y-016929
X059843Y-018504
X060236Y-013780
X060236Y-024803
X060433Y-016929
X060433Y-018504
X060630Y-014961
X061018Y-023582
X061024Y-013780
X061024Y-016929
X061024Y-018504
X061024Y-024803
X061056Y-021238
X061614Y-016929
X061614Y-018504
X061811Y-013780
X061811Y-024803
X062205Y-016929
X062205Y-018504
X062598Y-013780
X062598Y-014567
X062598Y-015354
X062598Y-016142
X062598Y-019291
X062598Y-020079
X062598Y-020866
X062598Y-021654
X062598Y-022441
X062598Y-023228
X062598Y-024016
X062598Y-024803
T3
X040354Y-027346
X040354Y-028346
X040354Y-029346
X040354Y-030346
X040525Y-038071
X040525Y-039071
X040525Y-040071
X040525Y-041071
X048425Y-046457
X049425Y-046457
X050425Y-046457
X051425Y-046457
X052441Y-015197
X053441Y-015197
X054441Y-015197
X055441Y-015197
X058071Y-038142
X058071Y-039142
X058071Y-040142
X058071Y-041142
T4
X043307Y-011811
X047992Y-011798
X054350Y-011817
X059035Y-011805
T5
X045079Y-038976
X049508Y-029134
X053937Y-038976
T0
M30
