%TF.GenerationSoftware,KiCad,Pcbnew,(6.0.1)*%
%TF.CreationDate,2022-04-21T10:22:39+02:00*%
%TF.ProjectId,Board2,426f6172-6432-42e6-9b69-6361645f7063,rev?*%
%TF.SameCoordinates,Original*%
%TF.FileFunction,Copper,L2,Bot*%
%TF.FilePolarity,Positive*%
%FSLAX46Y46*%
G04 Gerber Fmt 4.6, Leading zero omitted, Abs format (unit mm)*
G04 Created by KiCad (PCBNEW (6.0.1)) date 2022-04-21 10:22:39*
%MOMM*%
%LPD*%
G01*
G04 APERTURE LIST*
%TA.AperFunction,ComponentPad*%
%ADD10R,1.700000X1.700000*%
%TD*%
%TA.AperFunction,ComponentPad*%
%ADD11O,1.700000X1.700000*%
%TD*%
%TA.AperFunction,WasherPad*%
%ADD12C,1.270000*%
%TD*%
%TA.AperFunction,SMDPad,CuDef*%
%ADD13R,4.900000X1.600000*%
%TD*%
%TA.AperFunction,SMDPad,CuDef*%
%ADD14R,1.600000X4.900000*%
%TD*%
%TA.AperFunction,ViaPad*%
%ADD15C,0.900000*%
%TD*%
%TA.AperFunction,ViaPad*%
%ADD16C,0.800000*%
%TD*%
%TA.AperFunction,Conductor*%
%ADD17C,0.500000*%
%TD*%
G04 APERTURE END LIST*
D10*
%TO.P,J3,1,Pin_1*%
%TO.N,N/C*%
X102500000Y-69460000D03*
D11*
%TO.P,J3,2,Pin_2*%
X102500000Y-72000000D03*
%TO.P,J3,3,Pin_3*%
X102500000Y-74540000D03*
%TO.P,J3,4,Pin_4*%
X102500000Y-77080000D03*
%TD*%
D12*
%TO.P,REF\u002A\u002A,*%
%TO.N,*%
X149949992Y-29983659D03*
X138049991Y-30016348D03*
%TD*%
D13*
%TO.P,J4,S3*%
%TO.N,N/C*%
X157232500Y-49260000D03*
%TO.P,J4,S4*%
X157232500Y-40740000D03*
%TD*%
D10*
%TO.P,J4,1,Pin_1*%
%TO.N,N/C*%
X102932500Y-96700000D03*
D11*
%TO.P,J4,2,Pin_2*%
X102932500Y-99240000D03*
%TO.P,J4,3,Pin_3*%
X102932500Y-101780000D03*
%TO.P,J4,4,Pin_4*%
X102932500Y-104320000D03*
%TD*%
D13*
%TO.P,J1,S3*%
%TO.N,N/C*%
X102700000Y-83490000D03*
%TO.P,J1,S4*%
X102700000Y-92010000D03*
%TD*%
D14*
%TO.P,J3,S3*%
%TO.N,N/C*%
X109275000Y-61542500D03*
%TO.P,J3,S4*%
X117795000Y-61542500D03*
%TD*%
D10*
%TO.P,J3,1,Pin_1*%
%TO.N,N/C*%
X123000000Y-118000000D03*
D11*
%TO.P,J3,2,Pin_2*%
X125540000Y-118000000D03*
%TO.P,J3,3,Pin_3*%
X128080000Y-118000000D03*
%TO.P,J3,4,Pin_4*%
X130620000Y-118000000D03*
%TD*%
D10*
%TO.P,J1,1,Pin_1*%
%TO.N,N/C*%
X133200000Y-38600000D03*
D11*
%TO.P,J1,2,Pin_2*%
X135740000Y-38600000D03*
%TO.P,J1,3,Pin_3*%
X138280000Y-38600000D03*
%TO.P,J1,4,Pin_4*%
X140820000Y-38600000D03*
%TD*%
D13*
%TO.P,J2,S3*%
%TO.N,N/C*%
X147050000Y-91760000D03*
%TO.P,J2,S4*%
X147050000Y-83240000D03*
%TD*%
D10*
%TO.P,J5,1,Pin_1*%
%TO.N,N/C*%
X147500000Y-96880000D03*
D11*
%TO.P,J5,2,Pin_2*%
X147500000Y-99420000D03*
%TO.P,J5,3,Pin_3*%
X147500000Y-101960000D03*
%TO.P,J5,4,Pin_4*%
X147500000Y-104500000D03*
%TD*%
D12*
%TO.P,REF\u002A\u002A,*%
%TO.N,*%
X121900010Y-29967301D03*
X110000009Y-29999991D03*
%TD*%
D13*
%TO.P,J2,S3*%
%TO.N,N/C*%
X102457500Y-42250000D03*
%TO.P,J2,S4*%
X102457500Y-50770000D03*
%TD*%
D15*
%TO.N,*%
X107000000Y-128250000D03*
X134000000Y-43500000D03*
X157000000Y-63000000D03*
X132500000Y-47000000D03*
D16*
X114000000Y-75500000D03*
D15*
X149000000Y-137000000D03*
X147000000Y-131750000D03*
X133000000Y-128250000D03*
D16*
X119750000Y-83250000D03*
D15*
X149000000Y-43000000D03*
D16*
X118250000Y-101250000D03*
D15*
X145000000Y-135000000D03*
X120000000Y-140000000D03*
X150500000Y-43000000D03*
X141000000Y-131750000D03*
X113850000Y-133730000D03*
X112000000Y-140000000D03*
D16*
X130700000Y-75200000D03*
D15*
X104000000Y-54000000D03*
X117000000Y-111000000D03*
D16*
X113750000Y-83750000D03*
X135000000Y-104500000D03*
D15*
X103000000Y-131750000D03*
X106000000Y-132750000D03*
X121500000Y-47000000D03*
X109000000Y-128250000D03*
X125000000Y-145000000D03*
X143000000Y-63000000D03*
X159000000Y-35000000D03*
D16*
X140750000Y-81750000D03*
D15*
X152000000Y-43000000D03*
X101000000Y-113000000D03*
X135000000Y-145000000D03*
X116370000Y-133670000D03*
X103000000Y-35000000D03*
X127500000Y-47000000D03*
X107000000Y-63000000D03*
D16*
X141400000Y-89250000D03*
D15*
X117000000Y-149000000D03*
X149000000Y-125000000D03*
X120000000Y-115000000D03*
X129000000Y-111000000D03*
X132000000Y-42000000D03*
X132000000Y-127250000D03*
X112961126Y-40052607D03*
X119000000Y-35000000D03*
D16*
X132812500Y-86400000D03*
D15*
X122000000Y-123000000D03*
X144500000Y-47000000D03*
X149000000Y-149000000D03*
X122500000Y-146500000D03*
X135000000Y-115000000D03*
D16*
X130412500Y-88600000D03*
D15*
X135500000Y-47000000D03*
X128000000Y-127250000D03*
X120000000Y-132750000D03*
D16*
X140000000Y-79500000D03*
D15*
X124000000Y-130000000D03*
X149000000Y-117000000D03*
X146000000Y-132750000D03*
X103000000Y-38000000D03*
X149000000Y-119000000D03*
X108000000Y-127250000D03*
X120000000Y-120000000D03*
D16*
X138000000Y-83500000D03*
X139600000Y-85800000D03*
D15*
X109000000Y-35000000D03*
X117000000Y-35000000D03*
X101000000Y-43000000D03*
X145000000Y-35000000D03*
X123000000Y-111000000D03*
X112000000Y-127250000D03*
X142000000Y-37000000D03*
X131000000Y-131750000D03*
X143000000Y-131750000D03*
X145000000Y-149000000D03*
D16*
X113000000Y-93500000D03*
D15*
X129000000Y-35000000D03*
X157000000Y-35000000D03*
D16*
X135000000Y-74500000D03*
D15*
X105000000Y-149000000D03*
X135180000Y-129630000D03*
X127000000Y-128250000D03*
X115000000Y-149000000D03*
X119000000Y-131750000D03*
X105000000Y-140000000D03*
X101000000Y-111000000D03*
X105000000Y-131750000D03*
X101000000Y-55000000D03*
X120000000Y-47000000D03*
D16*
X114850000Y-86000000D03*
X109500000Y-89500000D03*
X123250000Y-79500000D03*
D15*
X147000000Y-35000000D03*
X108576130Y-55096021D03*
X149000000Y-128250000D03*
X101000000Y-117000000D03*
X125000000Y-128250000D03*
X125000000Y-131750000D03*
X127000000Y-35000000D03*
X101140000Y-131480000D03*
X102500000Y-44500000D03*
X145000000Y-111000000D03*
X107000000Y-44500000D03*
D16*
X132750000Y-99500000D03*
D15*
X145000000Y-131750000D03*
X109000000Y-43000000D03*
X111000000Y-147000000D03*
D16*
X113100000Y-86000000D03*
X107000000Y-91500000D03*
D15*
X146000000Y-127250000D03*
X141000000Y-128250000D03*
X105000000Y-135000000D03*
X128000000Y-132750000D03*
X132000000Y-137000000D03*
X134000000Y-47000000D03*
X135980000Y-130970000D03*
D16*
X114000000Y-105500000D03*
D15*
X130000000Y-125000000D03*
X126000000Y-43500000D03*
D16*
X108000000Y-105500000D03*
X145000000Y-94500000D03*
D15*
X134510000Y-130980000D03*
D16*
X107000000Y-97500000D03*
X120000000Y-89500000D03*
X123500000Y-89500000D03*
D15*
X115500000Y-57000000D03*
X115500000Y-54000000D03*
X139000000Y-63000000D03*
X123000000Y-149000000D03*
X137000000Y-47000000D03*
X124500000Y-47000000D03*
X105500000Y-44500000D03*
X130000000Y-135000000D03*
X158000000Y-47000000D03*
X117000000Y-128250000D03*
D16*
X104500000Y-89500000D03*
D15*
X116987883Y-43492641D03*
D16*
X119500000Y-78250000D03*
D15*
X140000000Y-140000000D03*
X110000000Y-50500000D03*
D16*
X137000000Y-76500000D03*
D15*
X115560000Y-129600000D03*
X142000000Y-132750000D03*
D16*
X142000000Y-76500000D03*
D15*
X107000000Y-35000000D03*
D16*
X116750000Y-95750000D03*
D15*
X145000000Y-120000000D03*
X138000000Y-55000000D03*
X143000000Y-47000000D03*
X133000000Y-115000000D03*
X129000000Y-128250000D03*
X123000000Y-50000000D03*
X149000000Y-113000000D03*
X112000000Y-55500000D03*
D16*
X107750000Y-89500000D03*
X136300000Y-89150000D03*
D15*
X118000000Y-127250000D03*
X128000000Y-124000000D03*
X120000000Y-125000000D03*
X131000000Y-128250000D03*
X143000000Y-35000000D03*
D16*
X101000000Y-86000000D03*
D15*
X144000000Y-132750000D03*
D16*
X145000000Y-79500000D03*
D15*
X112500000Y-43500000D03*
X137000000Y-111000000D03*
D16*
X145000000Y-104500000D03*
D15*
X130000000Y-145000000D03*
X101000000Y-123000000D03*
D16*
X121750000Y-89500000D03*
D15*
X107000000Y-137000000D03*
X133000000Y-146000000D03*
X107000000Y-149000000D03*
X149000000Y-135000000D03*
X103000000Y-138000000D03*
X110000000Y-135000000D03*
X118000000Y-51000000D03*
X147000000Y-128250000D03*
X101000000Y-61000000D03*
X124000000Y-38000000D03*
X113000000Y-128250000D03*
D16*
X120500000Y-91750000D03*
D15*
X112000000Y-118000000D03*
X113000000Y-137000000D03*
X152000000Y-47000000D03*
D16*
X147000000Y-72500000D03*
D15*
X118000000Y-132750000D03*
D16*
X134500000Y-96250000D03*
D15*
X125000000Y-111000000D03*
X125000000Y-120000000D03*
X138500000Y-43500000D03*
X116000000Y-127250000D03*
D16*
X140000000Y-104500000D03*
D15*
X105000000Y-128250000D03*
X138000000Y-118000000D03*
X149000000Y-123000000D03*
X106000000Y-127250000D03*
X146000000Y-47000000D03*
D16*
X144750000Y-85750000D03*
D15*
X159000000Y-57000000D03*
X132500000Y-43500000D03*
X111000000Y-111000000D03*
D16*
X110000000Y-84500000D03*
D15*
X101000000Y-51000000D03*
X139000000Y-111000000D03*
X123000000Y-128250000D03*
D16*
X102750000Y-86000000D03*
D15*
X105500000Y-48500000D03*
X111000000Y-149000000D03*
X113000000Y-35000000D03*
D16*
X113000000Y-89500000D03*
D15*
X159000000Y-39000000D03*
X119000000Y-128250000D03*
X122000000Y-135000000D03*
X120000000Y-127250000D03*
X121987174Y-58936893D03*
X110000000Y-140000000D03*
X159000000Y-59000000D03*
X138000000Y-127250000D03*
X108500000Y-49000000D03*
X151000000Y-50000000D03*
X155082686Y-53943760D03*
X110000000Y-127250000D03*
X125000000Y-135000000D03*
X141500000Y-47000000D03*
X129000000Y-149000000D03*
D16*
X105000000Y-94500000D03*
D15*
X130000000Y-140000000D03*
X132000000Y-132750000D03*
X112000000Y-132750000D03*
X141500000Y-43500000D03*
D16*
X114000000Y-80500000D03*
X137000000Y-95500000D03*
D15*
X124000000Y-132750000D03*
X105000000Y-125000000D03*
X141000000Y-35000000D03*
D16*
X112000000Y-101500000D03*
D15*
X137000000Y-136000000D03*
X101000000Y-121000000D03*
D16*
X120100000Y-86000000D03*
D15*
X135000000Y-135000000D03*
X149000000Y-57000000D03*
X155000000Y-63000000D03*
X101000000Y-147000000D03*
X121000000Y-149000000D03*
X144000000Y-56000000D03*
X148000000Y-60000000D03*
X107000000Y-111000000D03*
X127000000Y-131750000D03*
X115000000Y-51000000D03*
X114000000Y-127250000D03*
X101000000Y-57000000D03*
X131000000Y-43500000D03*
X104000000Y-127250000D03*
X101000000Y-135000000D03*
X101000000Y-141000000D03*
X140000000Y-132750000D03*
X126000000Y-132750000D03*
D16*
X104500000Y-86000000D03*
D15*
X149000000Y-35000000D03*
X103000000Y-128250000D03*
X137000000Y-43500000D03*
X123000000Y-47000000D03*
X101000000Y-35000000D03*
D16*
X101000000Y-89500000D03*
D15*
X134000000Y-50000000D03*
X127500000Y-43500000D03*
X115500000Y-58500000D03*
X110500000Y-45500000D03*
X149000000Y-141000000D03*
X101000000Y-48500000D03*
X147000000Y-111000000D03*
X127000000Y-111000000D03*
X103000000Y-111000000D03*
X101000000Y-41000000D03*
X140000000Y-127250000D03*
X123000000Y-43500000D03*
X141000000Y-63000000D03*
D16*
X122750000Y-94000000D03*
D15*
X115000000Y-115000000D03*
X108500000Y-44500000D03*
D16*
X134750000Y-93250000D03*
D15*
X150500000Y-47000000D03*
X117000000Y-125000000D03*
D16*
X146550000Y-89200000D03*
D15*
X110000000Y-115000000D03*
X127956557Y-119805822D03*
X121000000Y-111000000D03*
X135000000Y-111000000D03*
X145000000Y-128250000D03*
X139000000Y-149000000D03*
X113000000Y-149000000D03*
D16*
X105000000Y-74500000D03*
X130000000Y-104500000D03*
D15*
X149000000Y-41000000D03*
X125000000Y-149000000D03*
D16*
X116700000Y-70900000D03*
D15*
X108000000Y-132750000D03*
D16*
X136250000Y-85700000D03*
D15*
X105000000Y-111000000D03*
D16*
X146500000Y-85750000D03*
D15*
X101000000Y-59000000D03*
X120000000Y-135000000D03*
X122000000Y-127250000D03*
D16*
X145000000Y-69500000D03*
X110000000Y-99500000D03*
D15*
X159000000Y-61000000D03*
D16*
X106250000Y-89500000D03*
D15*
X151000000Y-35000000D03*
X147000000Y-149000000D03*
X141000000Y-149000000D03*
D16*
X114750000Y-91500000D03*
D15*
X129000000Y-63000000D03*
X128000000Y-51000000D03*
X149000000Y-47000000D03*
X139000000Y-60000000D03*
D16*
X140000000Y-69500000D03*
D15*
X109000000Y-63000000D03*
D16*
X105000000Y-79500000D03*
D15*
X135000000Y-35000000D03*
X115500000Y-55500000D03*
X112000000Y-58500000D03*
X149000000Y-131750000D03*
X124500000Y-43500000D03*
X107000000Y-123000000D03*
X110000000Y-120000000D03*
X133660000Y-133360000D03*
X143000000Y-137000000D03*
X138000000Y-132750000D03*
D16*
X123600000Y-86000000D03*
X145000000Y-74500000D03*
X122500000Y-100000000D03*
D15*
X111000000Y-128250000D03*
X130000000Y-120000000D03*
D16*
X118350000Y-86000000D03*
D15*
X101000000Y-39000000D03*
X155000000Y-47000000D03*
X140000000Y-47000000D03*
X142000000Y-41000000D03*
X159000000Y-53000000D03*
X133000000Y-63000000D03*
X153500000Y-47000000D03*
X140000000Y-135000000D03*
X135000000Y-63000000D03*
X110000000Y-132750000D03*
D16*
X120000000Y-74500000D03*
D15*
X121000000Y-128250000D03*
X133000000Y-149000000D03*
X101000000Y-128250000D03*
X139000000Y-41000000D03*
X126000000Y-41000000D03*
X143000000Y-111000000D03*
D16*
X111350000Y-86000000D03*
D15*
X137000000Y-128250000D03*
X141000000Y-111000000D03*
D16*
X112000000Y-95500000D03*
D15*
X107000000Y-131750000D03*
X142000000Y-127250000D03*
D16*
X148250000Y-85750000D03*
X102750000Y-89500000D03*
X141000000Y-101500000D03*
D15*
X115500000Y-43500000D03*
X130000000Y-132750000D03*
X104000000Y-48500000D03*
X131000000Y-111000000D03*
X155000000Y-35000000D03*
X121000000Y-63000000D03*
X135000000Y-149000000D03*
X159000000Y-63000000D03*
X156500000Y-47000000D03*
D16*
X110000000Y-74500000D03*
D15*
X159000000Y-51000000D03*
D16*
X140000000Y-84500000D03*
D15*
X101000000Y-44500000D03*
X119000000Y-56000000D03*
X133000000Y-111000000D03*
X135000000Y-140000000D03*
D16*
X139650000Y-89250000D03*
D15*
X115000000Y-47000000D03*
X101000000Y-137000000D03*
X151000000Y-63000000D03*
X133000000Y-35000000D03*
X127000000Y-149000000D03*
D16*
X108000000Y-81500000D03*
X114750000Y-89500000D03*
D15*
X102000000Y-127250000D03*
X122000000Y-138000000D03*
X137000000Y-35000000D03*
X126000000Y-47000000D03*
X103000000Y-149000000D03*
X149000000Y-139000000D03*
D16*
X130412500Y-86400000D03*
X140250000Y-91250000D03*
D15*
X132000000Y-37000000D03*
X147000000Y-63000000D03*
X113000000Y-111000000D03*
X159000000Y-55000000D03*
X115000000Y-145000000D03*
X104000000Y-44500000D03*
D16*
X109600000Y-86000000D03*
D15*
X101000000Y-63000000D03*
X140000000Y-43500000D03*
X112000000Y-54000000D03*
X129500000Y-47000000D03*
X136590000Y-133440000D03*
D16*
X121000000Y-105500000D03*
D15*
X149000000Y-111000000D03*
X153500000Y-43000000D03*
D16*
X118500000Y-90750000D03*
D15*
X159000000Y-37000000D03*
X125000000Y-140000000D03*
X118487883Y-43492641D03*
X140000000Y-125000000D03*
X159000000Y-49000000D03*
X104000000Y-132750000D03*
X107487883Y-38964360D03*
X117000000Y-63000000D03*
D16*
X143100000Y-85800000D03*
D15*
X125000000Y-63000000D03*
X149000000Y-63000000D03*
X112000000Y-60000000D03*
X153000000Y-35000000D03*
X149000000Y-143000000D03*
X114000000Y-48500000D03*
D16*
X110000000Y-91500000D03*
D15*
X137000000Y-126000000D03*
X131000000Y-63000000D03*
X101000000Y-149000000D03*
X101000000Y-37000000D03*
X147500000Y-43000000D03*
X123000000Y-53000000D03*
X120000000Y-43500000D03*
X110000000Y-125000000D03*
D16*
X125250000Y-89500000D03*
D15*
X117000000Y-37000000D03*
X130000000Y-60000000D03*
D16*
X129512500Y-80500000D03*
D15*
X145000000Y-140000000D03*
X154000000Y-38000000D03*
D16*
X118250000Y-89500000D03*
X140000000Y-74500000D03*
D15*
X156500000Y-43000000D03*
D16*
X131612500Y-87500000D03*
D15*
X114820000Y-130770000D03*
X121500000Y-43500000D03*
X143000000Y-128250000D03*
D16*
X106250000Y-86000000D03*
D15*
X111500000Y-50500000D03*
X131000000Y-35000000D03*
D16*
X143150000Y-89250000D03*
D15*
X112000000Y-57000000D03*
X104000000Y-59000000D03*
X109000000Y-149000000D03*
X159000000Y-41000000D03*
X123000000Y-63000000D03*
X107000000Y-48500000D03*
D16*
X138050000Y-89150000D03*
D15*
X149000000Y-147000000D03*
X117000000Y-113000000D03*
X158000000Y-43000000D03*
X103000000Y-63000000D03*
X101000000Y-145000000D03*
X145000000Y-125000000D03*
X118000000Y-122000000D03*
X143000000Y-123000000D03*
D16*
X109000000Y-94500000D03*
D15*
X122000000Y-132750000D03*
X123000000Y-131750000D03*
X101000000Y-119000000D03*
X114080000Y-129530000D03*
X119000000Y-63000000D03*
X149000000Y-121000000D03*
D16*
X124750000Y-91750000D03*
D15*
X140000000Y-120000000D03*
D16*
X110000000Y-79500000D03*
X111250000Y-89500000D03*
D15*
X145000000Y-63000000D03*
X135500000Y-43500000D03*
D16*
X132812500Y-88600000D03*
D15*
X148000000Y-127250000D03*
X101000000Y-53000000D03*
D16*
X107850000Y-86000000D03*
D15*
X115000000Y-140000000D03*
D16*
X125612500Y-84500000D03*
D15*
X111000000Y-131750000D03*
X138500000Y-47000000D03*
X153000000Y-63000000D03*
X112000000Y-63000000D03*
X155000000Y-43000000D03*
X126000000Y-130000000D03*
X102000000Y-132750000D03*
X137000000Y-63000000D03*
X123000000Y-35000000D03*
D16*
X125350000Y-86000000D03*
X144800000Y-89200000D03*
X127100000Y-86000000D03*
D15*
X137000000Y-149000000D03*
X121000000Y-35000000D03*
X115500000Y-60000000D03*
X113000000Y-50000000D03*
X115500000Y-63000000D03*
X121000000Y-131750000D03*
X112000000Y-61500000D03*
X126000000Y-127250000D03*
D16*
X141350000Y-85800000D03*
D15*
X124000000Y-127250000D03*
D16*
X133000000Y-101500000D03*
D15*
X119000000Y-149000000D03*
X148000000Y-132750000D03*
X115500000Y-61500000D03*
X102500000Y-48500000D03*
X112000000Y-52500000D03*
X154986665Y-59897111D03*
X101000000Y-125000000D03*
X115000000Y-35000000D03*
D16*
X136000000Y-84500000D03*
D15*
X140000000Y-115000000D03*
X111000000Y-35000000D03*
X115500000Y-52500000D03*
X109000000Y-131750000D03*
X139000000Y-35000000D03*
X148000000Y-52000000D03*
X116500000Y-47000000D03*
X147500000Y-47000000D03*
X135000000Y-41000000D03*
X131000000Y-149000000D03*
X101000000Y-143000000D03*
X139000000Y-131750000D03*
X101000000Y-115000000D03*
X127000000Y-63000000D03*
X130000000Y-127250000D03*
X114000000Y-43500000D03*
X107000000Y-63000000D03*
X111500000Y-44500000D03*
X149000000Y-115000000D03*
X118500000Y-47000000D03*
X143000000Y-43500000D03*
D16*
X130112500Y-82000000D03*
D15*
X134000000Y-127250000D03*
X139000000Y-128250000D03*
X125000000Y-125000000D03*
X118000000Y-138000000D03*
X129000000Y-131750000D03*
X115000000Y-135000000D03*
D16*
X121850000Y-86000000D03*
D15*
X127000000Y-138000000D03*
X110000000Y-145000000D03*
X115000000Y-111000000D03*
D16*
X148300000Y-89200000D03*
X138000000Y-85700000D03*
D15*
X105000000Y-120000000D03*
X131000000Y-47000000D03*
X119000000Y-111000000D03*
X105000000Y-63000000D03*
X143000000Y-149000000D03*
X125000000Y-35000000D03*
X109000000Y-111000000D03*
X149000000Y-145000000D03*
X131000000Y-54000000D03*
X138000000Y-122000000D03*
X144000000Y-127250000D03*
X120000000Y-145000000D03*
X105000000Y-35000000D03*
X121000000Y-40000000D03*
X101000000Y-139000000D03*
X143047955Y-50839055D03*
X140000000Y-145000000D03*
%TD*%
D17*
%TO.N,*%
X132750000Y-99500000D02*
X124900000Y-99500000D01*
X124900000Y-99500000D02*
X116700000Y-91300000D01*
X116700000Y-91300000D02*
X116700000Y-70900000D01*
%TD*%
%TA.AperFunction,NonConductor*%
G36*
X149434121Y-110528002D02*
G01*
X149480614Y-110581658D01*
X149492000Y-110634000D01*
X149492000Y-149366000D01*
X149471998Y-149434121D01*
X149418342Y-149480614D01*
X149366000Y-149492000D01*
X100634000Y-149492000D01*
X100565879Y-149471998D01*
X100519386Y-149418342D01*
X100508000Y-149366000D01*
X100508000Y-118898134D01*
X121641500Y-118898134D01*
X121648255Y-118960316D01*
X121699385Y-119096705D01*
X121786739Y-119213261D01*
X121903295Y-119300615D01*
X122039684Y-119351745D01*
X122101866Y-119358500D01*
X123898134Y-119358500D01*
X123960316Y-119351745D01*
X124096705Y-119300615D01*
X124213261Y-119213261D01*
X124300615Y-119096705D01*
X124344798Y-118978848D01*
X124387440Y-118922084D01*
X124454001Y-118897384D01*
X124523350Y-118912592D01*
X124558017Y-118940580D01*
X124583218Y-118969673D01*
X124590580Y-118976883D01*
X124754434Y-119112916D01*
X124762881Y-119118831D01*
X124946756Y-119226279D01*
X124956042Y-119230729D01*
X125155001Y-119306703D01*
X125164899Y-119309579D01*
X125268250Y-119330606D01*
X125282299Y-119329410D01*
X125286000Y-119319065D01*
X125286000Y-119318517D01*
X125794000Y-119318517D01*
X125798064Y-119332359D01*
X125811478Y-119334393D01*
X125818184Y-119333534D01*
X125828262Y-119331392D01*
X126032255Y-119270191D01*
X126041842Y-119266433D01*
X126233095Y-119172739D01*
X126241945Y-119167464D01*
X126415328Y-119043792D01*
X126423200Y-119037139D01*
X126574052Y-118886812D01*
X126580730Y-118878965D01*
X126708022Y-118701819D01*
X126709147Y-118702627D01*
X126756669Y-118658876D01*
X126826607Y-118646661D01*
X126892046Y-118674197D01*
X126919870Y-118706028D01*
X126977690Y-118800383D01*
X126983777Y-118808699D01*
X127123213Y-118969667D01*
X127130580Y-118976883D01*
X127294434Y-119112916D01*
X127302881Y-119118831D01*
X127486756Y-119226279D01*
X127496042Y-119230729D01*
X127695001Y-119306703D01*
X127704899Y-119309579D01*
X127808250Y-119330606D01*
X127822299Y-119329410D01*
X127826000Y-119319065D01*
X127826000Y-119318517D01*
X128334000Y-119318517D01*
X128338064Y-119332359D01*
X128351478Y-119334393D01*
X128358184Y-119333534D01*
X128368262Y-119331392D01*
X128572255Y-119270191D01*
X128581842Y-119266433D01*
X128773095Y-119172739D01*
X128781945Y-119167464D01*
X128955328Y-119043792D01*
X128963200Y-119037139D01*
X129114052Y-118886812D01*
X129120730Y-118878965D01*
X129248022Y-118701819D01*
X129249279Y-118702722D01*
X129296373Y-118659362D01*
X129366311Y-118647145D01*
X129431751Y-118674678D01*
X129459579Y-118706511D01*
X129519987Y-118805088D01*
X129666250Y-118973938D01*
X129838126Y-119116632D01*
X130031000Y-119229338D01*
X130239692Y-119309030D01*
X130244760Y-119310061D01*
X130244763Y-119310062D01*
X130339862Y-119329410D01*
X130458597Y-119353567D01*
X130463772Y-119353757D01*
X130463774Y-119353757D01*
X130676673Y-119361564D01*
X130676677Y-119361564D01*
X130681837Y-119361753D01*
X130686957Y-119361097D01*
X130686959Y-119361097D01*
X130898288Y-119334025D01*
X130898289Y-119334025D01*
X130903416Y-119333368D01*
X130908366Y-119331883D01*
X131112429Y-119270661D01*
X131112434Y-119270659D01*
X131117384Y-119269174D01*
X131317994Y-119170896D01*
X131499860Y-119041173D01*
X131658096Y-118883489D01*
X131788453Y-118702077D01*
X131801995Y-118674678D01*
X131885136Y-118506453D01*
X131885137Y-118506451D01*
X131887430Y-118501811D01*
X131952370Y-118288069D01*
X131981529Y-118066590D01*
X131983156Y-118000000D01*
X131964852Y-117777361D01*
X131910431Y-117560702D01*
X131821354Y-117355840D01*
X131700014Y-117168277D01*
X131549670Y-117003051D01*
X131545619Y-116999852D01*
X131545615Y-116999848D01*
X131378414Y-116867800D01*
X131378410Y-116867798D01*
X131374359Y-116864598D01*
X131338028Y-116844542D01*
X131322136Y-116835769D01*
X131178789Y-116756638D01*
X131173920Y-116754914D01*
X131173916Y-116754912D01*
X130973087Y-116683795D01*
X130973083Y-116683794D01*
X130968212Y-116682069D01*
X130963119Y-116681162D01*
X130963116Y-116681161D01*
X130753373Y-116643800D01*
X130753367Y-116643799D01*
X130748284Y-116642894D01*
X130674452Y-116641992D01*
X130530081Y-116640228D01*
X130530079Y-116640228D01*
X130524911Y-116640165D01*
X130304091Y-116673955D01*
X130091756Y-116743357D01*
X129893607Y-116846507D01*
X129889474Y-116849610D01*
X129889471Y-116849612D01*
X129719100Y-116977530D01*
X129714965Y-116980635D01*
X129560629Y-117142138D01*
X129557715Y-117146410D01*
X129557714Y-117146411D01*
X129545404Y-117164457D01*
X129454337Y-117297957D01*
X129452898Y-117300066D01*
X129397987Y-117345069D01*
X129327462Y-117353240D01*
X129263715Y-117321986D01*
X129243018Y-117297502D01*
X129162426Y-117172926D01*
X129156136Y-117164757D01*
X129012806Y-117007240D01*
X129005273Y-117000215D01*
X128838139Y-116868222D01*
X128829552Y-116862517D01*
X128643117Y-116759599D01*
X128633705Y-116755369D01*
X128432959Y-116684280D01*
X128422988Y-116681646D01*
X128351837Y-116668972D01*
X128338540Y-116670432D01*
X128334000Y-116684989D01*
X128334000Y-119318517D01*
X127826000Y-119318517D01*
X127826000Y-118272115D01*
X127821525Y-118256876D01*
X127820135Y-118255671D01*
X127812452Y-118254000D01*
X125812115Y-118254000D01*
X125796876Y-118258475D01*
X125795671Y-118259865D01*
X125794000Y-118267548D01*
X125794000Y-119318517D01*
X125286000Y-119318517D01*
X125286000Y-117727885D01*
X125794000Y-117727885D01*
X125798475Y-117743124D01*
X125799865Y-117744329D01*
X125807548Y-117746000D01*
X127807885Y-117746000D01*
X127823124Y-117741525D01*
X127824329Y-117740135D01*
X127826000Y-117732452D01*
X127826000Y-116683102D01*
X127822082Y-116669758D01*
X127807806Y-116667771D01*
X127769324Y-116673660D01*
X127759288Y-116676051D01*
X127556868Y-116742212D01*
X127547359Y-116746209D01*
X127358463Y-116844542D01*
X127349738Y-116850036D01*
X127179433Y-116977905D01*
X127171726Y-116984748D01*
X127024590Y-117138717D01*
X127018104Y-117146727D01*
X126913193Y-117300521D01*
X126858282Y-117345524D01*
X126787757Y-117353695D01*
X126724010Y-117322441D01*
X126703313Y-117297957D01*
X126622427Y-117172926D01*
X126616136Y-117164757D01*
X126472806Y-117007240D01*
X126465273Y-117000215D01*
X126298139Y-116868222D01*
X126289552Y-116862517D01*
X126103117Y-116759599D01*
X126093705Y-116755369D01*
X125892959Y-116684280D01*
X125882988Y-116681646D01*
X125811837Y-116668972D01*
X125798540Y-116670432D01*
X125794000Y-116684989D01*
X125794000Y-117727885D01*
X125286000Y-117727885D01*
X125286000Y-116683102D01*
X125282082Y-116669758D01*
X125267806Y-116667771D01*
X125229324Y-116673660D01*
X125219288Y-116676051D01*
X125016868Y-116742212D01*
X125007359Y-116746209D01*
X124818463Y-116844542D01*
X124809738Y-116850036D01*
X124639433Y-116977905D01*
X124631726Y-116984748D01*
X124554478Y-117065584D01*
X124492954Y-117101014D01*
X124422042Y-117097557D01*
X124364255Y-117056311D01*
X124345402Y-117022763D01*
X124303767Y-116911703D01*
X124300615Y-116903295D01*
X124213261Y-116786739D01*
X124096705Y-116699385D01*
X123960316Y-116648255D01*
X123898134Y-116641500D01*
X122101866Y-116641500D01*
X122039684Y-116648255D01*
X121903295Y-116699385D01*
X121786739Y-116786739D01*
X121699385Y-116903295D01*
X121648255Y-117039684D01*
X121641500Y-117101866D01*
X121641500Y-118898134D01*
X100508000Y-118898134D01*
X100508000Y-110634000D01*
X100528002Y-110565879D01*
X100581658Y-110519386D01*
X100634000Y-110508000D01*
X149366000Y-110508000D01*
X149434121Y-110528002D01*
G37*
%TD.AperFunction*%
%TA.AperFunction,NonConductor*%
G36*
X149232121Y-67730002D02*
G01*
X149278614Y-67783658D01*
X149290000Y-67836000D01*
X149290000Y-81806000D01*
X149269998Y-81874121D01*
X149216342Y-81920614D01*
X149164000Y-81932000D01*
X147322115Y-81932000D01*
X147306876Y-81936475D01*
X147305671Y-81937865D01*
X147304000Y-81945548D01*
X147304000Y-84529884D01*
X147308475Y-84545123D01*
X147309865Y-84546328D01*
X147317548Y-84547999D01*
X149164000Y-84547999D01*
X149232121Y-84568001D01*
X149278614Y-84621657D01*
X149290000Y-84673999D01*
X149290000Y-90326000D01*
X149269998Y-90394121D01*
X149216342Y-90440614D01*
X149164000Y-90452000D01*
X147322115Y-90452000D01*
X147306876Y-90456475D01*
X147305671Y-90457865D01*
X147304000Y-90465548D01*
X147304000Y-93049884D01*
X147308475Y-93065123D01*
X147309865Y-93066328D01*
X147317548Y-93067999D01*
X149164000Y-93067999D01*
X149232121Y-93088001D01*
X149278614Y-93141657D01*
X149290000Y-93193999D01*
X149290000Y-106164000D01*
X149269998Y-106232121D01*
X149216342Y-106278614D01*
X149164000Y-106290000D01*
X100836000Y-106290000D01*
X100767879Y-106269998D01*
X100721386Y-106216342D01*
X100710000Y-106164000D01*
X100710000Y-104283582D01*
X101442354Y-104283582D01*
X101456415Y-104527450D01*
X101457552Y-104532496D01*
X101457553Y-104532502D01*
X101479496Y-104629870D01*
X101510118Y-104765748D01*
X101512060Y-104770530D01*
X101512061Y-104770534D01*
X101569617Y-104912275D01*
X101602020Y-104992074D01*
X101729652Y-105200351D01*
X101889588Y-105384987D01*
X102077532Y-105541021D01*
X102288437Y-105664263D01*
X102293262Y-105666105D01*
X102293263Y-105666106D01*
X102310633Y-105672739D01*
X102516638Y-105751405D01*
X102521704Y-105752436D01*
X102521705Y-105752436D01*
X102640147Y-105776533D01*
X102756008Y-105800105D01*
X102893046Y-105805130D01*
X102994954Y-105808868D01*
X102994959Y-105808868D01*
X103000118Y-105809057D01*
X103069998Y-105800105D01*
X103237283Y-105778675D01*
X103237284Y-105778675D01*
X103242411Y-105778018D01*
X103331117Y-105751405D01*
X103471429Y-105709309D01*
X103476382Y-105707823D01*
X103481021Y-105705550D01*
X103481027Y-105705548D01*
X103691108Y-105602630D01*
X103695746Y-105600358D01*
X103783567Y-105537716D01*
X103890401Y-105461512D01*
X103890406Y-105461508D01*
X103894613Y-105458507D01*
X104067642Y-105286082D01*
X104210186Y-105087711D01*
X104257453Y-104992074D01*
X104316122Y-104873364D01*
X104318416Y-104868723D01*
X104348248Y-104770534D01*
X104349028Y-104767966D01*
X146168257Y-104767966D01*
X146198565Y-104902446D01*
X146201645Y-104912275D01*
X146281770Y-105109603D01*
X146286413Y-105118794D01*
X146397694Y-105300388D01*
X146403777Y-105308699D01*
X146543213Y-105469667D01*
X146550580Y-105476883D01*
X146714434Y-105612916D01*
X146722881Y-105618831D01*
X146906756Y-105726279D01*
X146916042Y-105730729D01*
X147115001Y-105806703D01*
X147124899Y-105809579D01*
X147228250Y-105830606D01*
X147242299Y-105829410D01*
X147246000Y-105819065D01*
X147246000Y-105818517D01*
X147754000Y-105818517D01*
X147758064Y-105832359D01*
X147771478Y-105834393D01*
X147778184Y-105833534D01*
X147788262Y-105831392D01*
X147992255Y-105770191D01*
X148001842Y-105766433D01*
X148193095Y-105672739D01*
X148201945Y-105667464D01*
X148375328Y-105543792D01*
X148383200Y-105537139D01*
X148534052Y-105386812D01*
X148540730Y-105378965D01*
X148665003Y-105206020D01*
X148670313Y-105197183D01*
X148764670Y-105006267D01*
X148768469Y-104996672D01*
X148830377Y-104792910D01*
X148832555Y-104782837D01*
X148833986Y-104771962D01*
X148831775Y-104757778D01*
X148818617Y-104754000D01*
X147772115Y-104754000D01*
X147756876Y-104758475D01*
X147755671Y-104759865D01*
X147754000Y-104767548D01*
X147754000Y-105818517D01*
X147246000Y-105818517D01*
X147246000Y-104772115D01*
X147241525Y-104756876D01*
X147240135Y-104755671D01*
X147232452Y-104754000D01*
X146183225Y-104754000D01*
X146169694Y-104757973D01*
X146168257Y-104767966D01*
X104349028Y-104767966D01*
X104387923Y-104639951D01*
X104387924Y-104639945D01*
X104389427Y-104634999D01*
X104421311Y-104392815D01*
X104423091Y-104320000D01*
X104403076Y-104076548D01*
X104343567Y-103839634D01*
X104271080Y-103672926D01*
X104248223Y-103620357D01*
X104248221Y-103620354D01*
X104246163Y-103615620D01*
X104113480Y-103410523D01*
X104092516Y-103387483D01*
X103952559Y-103233673D01*
X103952557Y-103233671D01*
X103949081Y-103229851D01*
X103945030Y-103226652D01*
X103945026Y-103226648D01*
X103847789Y-103149855D01*
X103806726Y-103091938D01*
X103803494Y-103021015D01*
X103839120Y-102959603D01*
X103852712Y-102948395D01*
X103890400Y-102921512D01*
X103894613Y-102918507D01*
X104067642Y-102746082D01*
X104210186Y-102547711D01*
X104231904Y-102503769D01*
X104316122Y-102333364D01*
X104318416Y-102328723D01*
X104368985Y-102162282D01*
X104387923Y-102099951D01*
X104387924Y-102099945D01*
X104389427Y-102094999D01*
X104407200Y-101960000D01*
X104411995Y-101923582D01*
X146009854Y-101923582D01*
X146010151Y-101928735D01*
X146010151Y-101928738D01*
X146013828Y-101992502D01*
X146023915Y-102167450D01*
X146025052Y-102172496D01*
X146025053Y-102172502D01*
X146046996Y-102269870D01*
X146077618Y-102405748D01*
X146079560Y-102410530D01*
X146079561Y-102410534D01*
X146167576Y-102627287D01*
X146169520Y-102632074D01*
X146297152Y-102840351D01*
X146457088Y-103024987D01*
X146645032Y-103181021D01*
X146649499Y-103183631D01*
X146678007Y-103200290D01*
X146726731Y-103251929D01*
X146739802Y-103321712D01*
X146713071Y-103387483D01*
X146690090Y-103409838D01*
X146599433Y-103477905D01*
X146591726Y-103484748D01*
X146444590Y-103638717D01*
X146438104Y-103646727D01*
X146318098Y-103822649D01*
X146313000Y-103831623D01*
X146223338Y-104024783D01*
X146219775Y-104034470D01*
X146164389Y-104234183D01*
X146165912Y-104242607D01*
X146178292Y-104246000D01*
X148818344Y-104246000D01*
X148831875Y-104242027D01*
X148833180Y-104232947D01*
X148791214Y-104065875D01*
X148787894Y-104056124D01*
X148702972Y-103860814D01*
X148698105Y-103851739D01*
X148582426Y-103672926D01*
X148576136Y-103664757D01*
X148432806Y-103507240D01*
X148425273Y-103500216D01*
X148307191Y-103406961D01*
X148266128Y-103349044D01*
X148262896Y-103278121D01*
X148298521Y-103216710D01*
X148312114Y-103205501D01*
X148457901Y-103101512D01*
X148457906Y-103101508D01*
X148462113Y-103098507D01*
X148635142Y-102926082D01*
X148777686Y-102727711D01*
X148824953Y-102632074D01*
X148883622Y-102513364D01*
X148885916Y-102508723D01*
X148918734Y-102400706D01*
X148955423Y-102279951D01*
X148955424Y-102279945D01*
X148956927Y-102274999D01*
X148971766Y-102162282D01*
X148988374Y-102036137D01*
X148988375Y-102036131D01*
X148988811Y-102032815D01*
X148988893Y-102029462D01*
X148990509Y-101963364D01*
X148990509Y-101963360D01*
X148990591Y-101960000D01*
X148970576Y-101716548D01*
X148911067Y-101479634D01*
X148813663Y-101255620D01*
X148680980Y-101050523D01*
X148674804Y-101043735D01*
X148520059Y-100873673D01*
X148520057Y-100873671D01*
X148516581Y-100869851D01*
X148512530Y-100866652D01*
X148512526Y-100866648D01*
X148328940Y-100721661D01*
X148328937Y-100721659D01*
X148324880Y-100718455D01*
X148320347Y-100715953D01*
X148318201Y-100714527D01*
X148272528Y-100660171D01*
X148263493Y-100589752D01*
X148293964Y-100525626D01*
X148314756Y-100506997D01*
X148375327Y-100463792D01*
X148383200Y-100457139D01*
X148534052Y-100306812D01*
X148540730Y-100298965D01*
X148665003Y-100126020D01*
X148670313Y-100117183D01*
X148764670Y-99926267D01*
X148768469Y-99916672D01*
X148830377Y-99712910D01*
X148832555Y-99702837D01*
X148833986Y-99691962D01*
X148831775Y-99677778D01*
X148818617Y-99674000D01*
X146183225Y-99674000D01*
X146169694Y-99677973D01*
X146168257Y-99687966D01*
X146198565Y-99822446D01*
X146201645Y-99832275D01*
X146281770Y-100029603D01*
X146286413Y-100038794D01*
X146397694Y-100220388D01*
X146403777Y-100228699D01*
X146543213Y-100389667D01*
X146550580Y-100396882D01*
X146692373Y-100514601D01*
X146732008Y-100573503D01*
X146733506Y-100644484D01*
X146696392Y-100705007D01*
X146687541Y-100712305D01*
X146514493Y-100842234D01*
X146510358Y-100845339D01*
X146341593Y-101021941D01*
X146203939Y-101223735D01*
X146101091Y-101445302D01*
X146035811Y-101680691D01*
X146035262Y-101685825D01*
X146035262Y-101685827D01*
X146029654Y-101738303D01*
X146009854Y-101923582D01*
X104411995Y-101923582D01*
X104420874Y-101856137D01*
X104420875Y-101856131D01*
X104421311Y-101852815D01*
X104423091Y-101780000D01*
X104403076Y-101536548D01*
X104343567Y-101299634D01*
X104246163Y-101075620D01*
X104113480Y-100870523D01*
X104090565Y-100845339D01*
X103952559Y-100693673D01*
X103952557Y-100693671D01*
X103949081Y-100689851D01*
X103945030Y-100686652D01*
X103945026Y-100686648D01*
X103847789Y-100609855D01*
X103806726Y-100551938D01*
X103803494Y-100481015D01*
X103839120Y-100419603D01*
X103852712Y-100408395D01*
X103890400Y-100381512D01*
X103894613Y-100378507D01*
X104067642Y-100206082D01*
X104089416Y-100175781D01*
X104132408Y-100115950D01*
X104210186Y-100007711D01*
X104254840Y-99917361D01*
X104316122Y-99793364D01*
X104318416Y-99788723D01*
X104348248Y-99690534D01*
X104387923Y-99559951D01*
X104387924Y-99559945D01*
X104389427Y-99554999D01*
X104421311Y-99312815D01*
X104421820Y-99291995D01*
X104423009Y-99243364D01*
X104423009Y-99243360D01*
X104423091Y-99240000D01*
X104403076Y-98996548D01*
X104396089Y-98968733D01*
X112509674Y-98968733D01*
X112509918Y-98973168D01*
X112509918Y-98973172D01*
X112512871Y-99026828D01*
X112525124Y-99249485D01*
X112579979Y-99525258D01*
X112599545Y-99580973D01*
X112645878Y-99712910D01*
X112673143Y-99790551D01*
X112675196Y-99794504D01*
X112675199Y-99794510D01*
X112700586Y-99843381D01*
X112802758Y-100040071D01*
X112805341Y-100043686D01*
X112805345Y-100043692D01*
X112886052Y-100156629D01*
X112966238Y-100268838D01*
X113027397Y-100332949D01*
X113145868Y-100457139D01*
X113160320Y-100472289D01*
X113163816Y-100475045D01*
X113336283Y-100611006D01*
X113381133Y-100646363D01*
X113384975Y-100648595D01*
X113384980Y-100648598D01*
X113620415Y-100785351D01*
X113620422Y-100785354D01*
X113624269Y-100787589D01*
X113628402Y-100789263D01*
X113768999Y-100846210D01*
X113884879Y-100893146D01*
X113889192Y-100894217D01*
X113889197Y-100894219D01*
X114078812Y-100941319D01*
X114157763Y-100960931D01*
X114397557Y-100985500D01*
X114571633Y-100985500D01*
X114780474Y-100970713D01*
X114784829Y-100969775D01*
X114784832Y-100969775D01*
X115051005Y-100912470D01*
X115051007Y-100912470D01*
X115055352Y-100911534D01*
X115319149Y-100814214D01*
X115323067Y-100812100D01*
X115562686Y-100682809D01*
X115566602Y-100680696D01*
X115792773Y-100513643D01*
X115799525Y-100506997D01*
X115927200Y-100381311D01*
X115993150Y-100316389D01*
X116125823Y-100142546D01*
X116161033Y-100096410D01*
X116161035Y-100096406D01*
X116163735Y-100092869D01*
X116262410Y-99916672D01*
X116298945Y-99851434D01*
X116298948Y-99851428D01*
X116301123Y-99847544D01*
X116302734Y-99843381D01*
X116400968Y-99589463D01*
X116400970Y-99589457D01*
X116402575Y-99585308D01*
X116408453Y-99559951D01*
X116435727Y-99442282D01*
X116466065Y-99311394D01*
X116490326Y-99031267D01*
X116488700Y-99001709D01*
X116475773Y-98766821D01*
X116474876Y-98750515D01*
X116420021Y-98474742D01*
X116337645Y-98240169D01*
X116328335Y-98213657D01*
X116328334Y-98213654D01*
X116326857Y-98209449D01*
X116324804Y-98205496D01*
X116324801Y-98205490D01*
X116218720Y-98001276D01*
X116197242Y-97959929D01*
X116194659Y-97956314D01*
X116194655Y-97956308D01*
X116078796Y-97794181D01*
X116033762Y-97731162D01*
X115936721Y-97629436D01*
X115842752Y-97530931D01*
X115842750Y-97530929D01*
X115839680Y-97527711D01*
X115618867Y-97353637D01*
X115615025Y-97351405D01*
X115615020Y-97351402D01*
X115379585Y-97214649D01*
X115379578Y-97214646D01*
X115375731Y-97212411D01*
X115315216Y-97187900D01*
X115119247Y-97108525D01*
X115119245Y-97108524D01*
X115115121Y-97106854D01*
X115110808Y-97105783D01*
X115110803Y-97105781D01*
X114921188Y-97058681D01*
X114842237Y-97039069D01*
X114602443Y-97014500D01*
X114428367Y-97014500D01*
X114219526Y-97029287D01*
X114215171Y-97030225D01*
X114215168Y-97030225D01*
X113948995Y-97087530D01*
X113948993Y-97087530D01*
X113944648Y-97088466D01*
X113680851Y-97185786D01*
X113676933Y-97187900D01*
X113634609Y-97210737D01*
X113433398Y-97319304D01*
X113207227Y-97486357D01*
X113006850Y-97683611D01*
X112951586Y-97756024D01*
X112867748Y-97865879D01*
X112836265Y-97907131D01*
X112808725Y-97956308D01*
X112712459Y-98128204D01*
X112698877Y-98152456D01*
X112697269Y-98156614D01*
X112697266Y-98156619D01*
X112617553Y-98362665D01*
X112597425Y-98414692D01*
X112596421Y-98419024D01*
X112596420Y-98419027D01*
X112582496Y-98479101D01*
X112533935Y-98688606D01*
X112509674Y-98968733D01*
X104396089Y-98968733D01*
X104343567Y-98759634D01*
X104271080Y-98592926D01*
X104248223Y-98540357D01*
X104248221Y-98540354D01*
X104246163Y-98535620D01*
X104113480Y-98330523D01*
X104107012Y-98323414D01*
X104022492Y-98230529D01*
X103991613Y-98196593D01*
X103960562Y-98132749D01*
X103968956Y-98062251D01*
X104014133Y-98007482D01*
X104024296Y-98001276D01*
X104036146Y-97994788D01*
X104138224Y-97918285D01*
X104150785Y-97905724D01*
X104227286Y-97803649D01*
X104235824Y-97788054D01*
X104280978Y-97667606D01*
X104284605Y-97652351D01*
X104290131Y-97601486D01*
X104290500Y-97594672D01*
X104290500Y-96972115D01*
X104286025Y-96956876D01*
X104284635Y-96955671D01*
X104276952Y-96954000D01*
X101592616Y-96954000D01*
X101577377Y-96958475D01*
X101576172Y-96959865D01*
X101574501Y-96967548D01*
X101574501Y-97594669D01*
X101574871Y-97601490D01*
X101580395Y-97652352D01*
X101584021Y-97667604D01*
X101629176Y-97788054D01*
X101637714Y-97803649D01*
X101714215Y-97905724D01*
X101726776Y-97918285D01*
X101828853Y-97994787D01*
X101841571Y-98001750D01*
X101891718Y-98052007D01*
X101906733Y-98121398D01*
X101881849Y-98187891D01*
X101872158Y-98199322D01*
X101862481Y-98209449D01*
X101774093Y-98301941D01*
X101771181Y-98306210D01*
X101650881Y-98482564D01*
X101636439Y-98503735D01*
X101533591Y-98725302D01*
X101468311Y-98960691D01*
X101467762Y-98965825D01*
X101467762Y-98965827D01*
X101462154Y-99018303D01*
X101442354Y-99203582D01*
X101442651Y-99208735D01*
X101442651Y-99208738D01*
X101448314Y-99306956D01*
X101456415Y-99447450D01*
X101457552Y-99452496D01*
X101457553Y-99452502D01*
X101474805Y-99529053D01*
X101510118Y-99685748D01*
X101512060Y-99690530D01*
X101512061Y-99690534D01*
X101600076Y-99907287D01*
X101602020Y-99912074D01*
X101729652Y-100120351D01*
X101889588Y-100304987D01*
X101990557Y-100388813D01*
X102020054Y-100413302D01*
X102059689Y-100472205D01*
X102061187Y-100543185D01*
X102024072Y-100603708D01*
X102015222Y-100611006D01*
X101965155Y-100648598D01*
X101942858Y-100665339D01*
X101926163Y-100682809D01*
X101800590Y-100814214D01*
X101774093Y-100841941D01*
X101771181Y-100846210D01*
X101648394Y-101026210D01*
X101636439Y-101043735D01*
X101533591Y-101265302D01*
X101468311Y-101500691D01*
X101467762Y-101505825D01*
X101467762Y-101505827D01*
X101462154Y-101558303D01*
X101442354Y-101743582D01*
X101442651Y-101748735D01*
X101442651Y-101748738D01*
X101452732Y-101923582D01*
X101456415Y-101987450D01*
X101457552Y-101992496D01*
X101457553Y-101992502D01*
X101466638Y-102032815D01*
X101510118Y-102225748D01*
X101512060Y-102230530D01*
X101512061Y-102230534D01*
X101581161Y-102400706D01*
X101602020Y-102452074D01*
X101729652Y-102660351D01*
X101889588Y-102844987D01*
X101991662Y-102929730D01*
X102020054Y-102953302D01*
X102059689Y-103012205D01*
X102061187Y-103083185D01*
X102024072Y-103143708D01*
X102015222Y-103151006D01*
X101949583Y-103200290D01*
X101942858Y-103205339D01*
X101774093Y-103381941D01*
X101771181Y-103386210D01*
X101693412Y-103500216D01*
X101636439Y-103583735D01*
X101533591Y-103805302D01*
X101468311Y-104040691D01*
X101467762Y-104045825D01*
X101467762Y-104045827D01*
X101462154Y-104098303D01*
X101442354Y-104283582D01*
X100710000Y-104283582D01*
X100710000Y-96427885D01*
X101574500Y-96427885D01*
X101578975Y-96443124D01*
X101580365Y-96444329D01*
X101588048Y-96446000D01*
X102660385Y-96446000D01*
X102675624Y-96441525D01*
X102676829Y-96440135D01*
X102678500Y-96432452D01*
X102678500Y-96427885D01*
X103186500Y-96427885D01*
X103190975Y-96443124D01*
X103192365Y-96444329D01*
X103200048Y-96446000D01*
X104272384Y-96446000D01*
X104287623Y-96441525D01*
X104288828Y-96440135D01*
X104290499Y-96432452D01*
X104290499Y-95805331D01*
X104290129Y-95798510D01*
X104284605Y-95747648D01*
X104280979Y-95732396D01*
X104235824Y-95611946D01*
X104227286Y-95596351D01*
X104150785Y-95494276D01*
X104138224Y-95481715D01*
X104036149Y-95405214D01*
X104020554Y-95396676D01*
X103900106Y-95351522D01*
X103884851Y-95347895D01*
X103833986Y-95342369D01*
X103827172Y-95342000D01*
X103204615Y-95342000D01*
X103189376Y-95346475D01*
X103188171Y-95347865D01*
X103186500Y-95355548D01*
X103186500Y-96427885D01*
X102678500Y-96427885D01*
X102678500Y-95360116D01*
X102674025Y-95344877D01*
X102672635Y-95343672D01*
X102664952Y-95342001D01*
X102037831Y-95342001D01*
X102031010Y-95342371D01*
X101980148Y-95347895D01*
X101964896Y-95351521D01*
X101844446Y-95396676D01*
X101828851Y-95405214D01*
X101726776Y-95481715D01*
X101714215Y-95494276D01*
X101637714Y-95596351D01*
X101629176Y-95611946D01*
X101584022Y-95732394D01*
X101580395Y-95747649D01*
X101574869Y-95798514D01*
X101574500Y-95805328D01*
X101574500Y-96427885D01*
X100710000Y-96427885D01*
X100710000Y-93444000D01*
X100730002Y-93375879D01*
X100783658Y-93329386D01*
X100836000Y-93318000D01*
X102427885Y-93318000D01*
X102443124Y-93313525D01*
X102444329Y-93312135D01*
X102446000Y-93304452D01*
X102446000Y-93299884D01*
X102954000Y-93299884D01*
X102958475Y-93315123D01*
X102959865Y-93316328D01*
X102967548Y-93317999D01*
X105194669Y-93317999D01*
X105201490Y-93317629D01*
X105252352Y-93312105D01*
X105267604Y-93308479D01*
X105388054Y-93263324D01*
X105403649Y-93254786D01*
X105505724Y-93178285D01*
X105518285Y-93165724D01*
X105594786Y-93063649D01*
X105603324Y-93048054D01*
X105648478Y-92927606D01*
X105652105Y-92912351D01*
X105657631Y-92861486D01*
X105658000Y-92854672D01*
X105658000Y-92282115D01*
X105653525Y-92266876D01*
X105652135Y-92265671D01*
X105644452Y-92264000D01*
X102972115Y-92264000D01*
X102956876Y-92268475D01*
X102955671Y-92269865D01*
X102954000Y-92277548D01*
X102954000Y-93299884D01*
X102446000Y-93299884D01*
X102446000Y-91737885D01*
X102954000Y-91737885D01*
X102958475Y-91753124D01*
X102959865Y-91754329D01*
X102967548Y-91756000D01*
X105639884Y-91756000D01*
X105655123Y-91751525D01*
X105656328Y-91750135D01*
X105657999Y-91742452D01*
X105657999Y-91165331D01*
X105657629Y-91158510D01*
X105652105Y-91107648D01*
X105648479Y-91092396D01*
X105603324Y-90971946D01*
X105594786Y-90956351D01*
X105518285Y-90854276D01*
X105505724Y-90841715D01*
X105403649Y-90765214D01*
X105388054Y-90756676D01*
X105267606Y-90711522D01*
X105252351Y-90707895D01*
X105201486Y-90702369D01*
X105194672Y-90702000D01*
X102972115Y-90702000D01*
X102956876Y-90706475D01*
X102955671Y-90707865D01*
X102954000Y-90715548D01*
X102954000Y-91737885D01*
X102446000Y-91737885D01*
X102446000Y-90720116D01*
X102441525Y-90704877D01*
X102440135Y-90703672D01*
X102432452Y-90702001D01*
X100836000Y-90702001D01*
X100767879Y-90681999D01*
X100721386Y-90628343D01*
X100710000Y-90576001D01*
X100710000Y-84924000D01*
X100730002Y-84855879D01*
X100783658Y-84809386D01*
X100836000Y-84798000D01*
X102427885Y-84798000D01*
X102443124Y-84793525D01*
X102444329Y-84792135D01*
X102446000Y-84784452D01*
X102446000Y-84779884D01*
X102954000Y-84779884D01*
X102958475Y-84795123D01*
X102959865Y-84796328D01*
X102967548Y-84797999D01*
X105194669Y-84797999D01*
X105201490Y-84797629D01*
X105252352Y-84792105D01*
X105267604Y-84788479D01*
X105388054Y-84743324D01*
X105403649Y-84734786D01*
X105505724Y-84658285D01*
X105518285Y-84645724D01*
X105594786Y-84543649D01*
X105603324Y-84528054D01*
X105648478Y-84407606D01*
X105652105Y-84392351D01*
X105657631Y-84341486D01*
X105658000Y-84334672D01*
X105658000Y-83762115D01*
X105653525Y-83746876D01*
X105652135Y-83745671D01*
X105644452Y-83744000D01*
X102972115Y-83744000D01*
X102956876Y-83748475D01*
X102955671Y-83749865D01*
X102954000Y-83757548D01*
X102954000Y-84779884D01*
X102446000Y-84779884D01*
X102446000Y-83217885D01*
X102954000Y-83217885D01*
X102958475Y-83233124D01*
X102959865Y-83234329D01*
X102967548Y-83236000D01*
X105639884Y-83236000D01*
X105655123Y-83231525D01*
X105656328Y-83230135D01*
X105657999Y-83222452D01*
X105657999Y-82645331D01*
X105657629Y-82638510D01*
X105652105Y-82587648D01*
X105648479Y-82572396D01*
X105603324Y-82451946D01*
X105594786Y-82436351D01*
X105518285Y-82334276D01*
X105505724Y-82321715D01*
X105403649Y-82245214D01*
X105388054Y-82236676D01*
X105267606Y-82191522D01*
X105252351Y-82187895D01*
X105201486Y-82182369D01*
X105194672Y-82182000D01*
X102972115Y-82182000D01*
X102956876Y-82186475D01*
X102955671Y-82187865D01*
X102954000Y-82195548D01*
X102954000Y-83217885D01*
X102446000Y-83217885D01*
X102446000Y-82200116D01*
X102441525Y-82184877D01*
X102440135Y-82183672D01*
X102432452Y-82182001D01*
X100836000Y-82182001D01*
X100767879Y-82161999D01*
X100721386Y-82108343D01*
X100710000Y-82056001D01*
X100710000Y-77347966D01*
X101168257Y-77347966D01*
X101198565Y-77482446D01*
X101201645Y-77492275D01*
X101281770Y-77689603D01*
X101286413Y-77698794D01*
X101397694Y-77880388D01*
X101403777Y-77888699D01*
X101543213Y-78049667D01*
X101550580Y-78056883D01*
X101714434Y-78192916D01*
X101722881Y-78198831D01*
X101906756Y-78306279D01*
X101916042Y-78310729D01*
X102115001Y-78386703D01*
X102124899Y-78389579D01*
X102228250Y-78410606D01*
X102242299Y-78409410D01*
X102246000Y-78399065D01*
X102246000Y-78398517D01*
X102754000Y-78398517D01*
X102758064Y-78412359D01*
X102771478Y-78414393D01*
X102778184Y-78413534D01*
X102788262Y-78411392D01*
X102992255Y-78350191D01*
X103001842Y-78346433D01*
X103193095Y-78252739D01*
X103201945Y-78247464D01*
X103375328Y-78123792D01*
X103383200Y-78117139D01*
X103534052Y-77966812D01*
X103540730Y-77958965D01*
X103665003Y-77786020D01*
X103670313Y-77777183D01*
X103764670Y-77586267D01*
X103768469Y-77576672D01*
X103830377Y-77372910D01*
X103832555Y-77362837D01*
X103833986Y-77351962D01*
X103831775Y-77337778D01*
X103818617Y-77334000D01*
X102772115Y-77334000D01*
X102756876Y-77338475D01*
X102755671Y-77339865D01*
X102754000Y-77347548D01*
X102754000Y-78398517D01*
X102246000Y-78398517D01*
X102246000Y-77352115D01*
X102241525Y-77336876D01*
X102240135Y-77335671D01*
X102232452Y-77334000D01*
X101183225Y-77334000D01*
X101169694Y-77337973D01*
X101168257Y-77347966D01*
X100710000Y-77347966D01*
X100710000Y-76814183D01*
X101164389Y-76814183D01*
X101165912Y-76822607D01*
X101178292Y-76826000D01*
X102227885Y-76826000D01*
X102243124Y-76821525D01*
X102244329Y-76820135D01*
X102246000Y-76812452D01*
X102246000Y-76807885D01*
X102754000Y-76807885D01*
X102758475Y-76823124D01*
X102759865Y-76824329D01*
X102767548Y-76826000D01*
X103818344Y-76826000D01*
X103831875Y-76822027D01*
X103833180Y-76812947D01*
X103791214Y-76645875D01*
X103787894Y-76636124D01*
X103702972Y-76440814D01*
X103698105Y-76431739D01*
X103582426Y-76252926D01*
X103576136Y-76244757D01*
X103432806Y-76087240D01*
X103425273Y-76080215D01*
X103258139Y-75948222D01*
X103249552Y-75942517D01*
X103212116Y-75921851D01*
X103162146Y-75871419D01*
X103147374Y-75801976D01*
X103172490Y-75735571D01*
X103199842Y-75708964D01*
X103375327Y-75583792D01*
X103383200Y-75577139D01*
X103534052Y-75426812D01*
X103540730Y-75418965D01*
X103665003Y-75246020D01*
X103670313Y-75237183D01*
X103764670Y-75046267D01*
X103768469Y-75036672D01*
X103830377Y-74832910D01*
X103832555Y-74822837D01*
X103833986Y-74811962D01*
X103831775Y-74797778D01*
X103818617Y-74794000D01*
X102772115Y-74794000D01*
X102756876Y-74798475D01*
X102755671Y-74799865D01*
X102754000Y-74807548D01*
X102754000Y-76807885D01*
X102246000Y-76807885D01*
X102246000Y-74812115D01*
X102241525Y-74796876D01*
X102240135Y-74795671D01*
X102232452Y-74794000D01*
X101183225Y-74794000D01*
X101169694Y-74797973D01*
X101168257Y-74807966D01*
X101198565Y-74942446D01*
X101201645Y-74952275D01*
X101281770Y-75149603D01*
X101286413Y-75158794D01*
X101397694Y-75340388D01*
X101403777Y-75348699D01*
X101543213Y-75509667D01*
X101550580Y-75516883D01*
X101714434Y-75652916D01*
X101722881Y-75658831D01*
X101792479Y-75699501D01*
X101841203Y-75751140D01*
X101854274Y-75820923D01*
X101827543Y-75886694D01*
X101787087Y-75920053D01*
X101778462Y-75924542D01*
X101769738Y-75930036D01*
X101599433Y-76057905D01*
X101591726Y-76064748D01*
X101444590Y-76218717D01*
X101438104Y-76226727D01*
X101318098Y-76402649D01*
X101313000Y-76411623D01*
X101223338Y-76604783D01*
X101219775Y-76614470D01*
X101164389Y-76814183D01*
X100710000Y-76814183D01*
X100710000Y-71963582D01*
X101009854Y-71963582D01*
X101010151Y-71968735D01*
X101010151Y-71968738D01*
X101017143Y-72090006D01*
X101023915Y-72207450D01*
X101025052Y-72212496D01*
X101025053Y-72212502D01*
X101025537Y-72214649D01*
X101077618Y-72445748D01*
X101079560Y-72450530D01*
X101079561Y-72450534D01*
X101167576Y-72667287D01*
X101169520Y-72672074D01*
X101297152Y-72880351D01*
X101457088Y-73064987D01*
X101645032Y-73221021D01*
X101649499Y-73223631D01*
X101678007Y-73240290D01*
X101726731Y-73291929D01*
X101739802Y-73361712D01*
X101713071Y-73427483D01*
X101690090Y-73449838D01*
X101599433Y-73517905D01*
X101591726Y-73524748D01*
X101444590Y-73678717D01*
X101438104Y-73686727D01*
X101318098Y-73862649D01*
X101313000Y-73871623D01*
X101223338Y-74064783D01*
X101219775Y-74074470D01*
X101164389Y-74274183D01*
X101165912Y-74282607D01*
X101178292Y-74286000D01*
X103818344Y-74286000D01*
X103831875Y-74282027D01*
X103833180Y-74272947D01*
X103791214Y-74105875D01*
X103787894Y-74096124D01*
X103702972Y-73900814D01*
X103698105Y-73891739D01*
X103582426Y-73712926D01*
X103576136Y-73704757D01*
X103432806Y-73547240D01*
X103425273Y-73540216D01*
X103307191Y-73446961D01*
X103266128Y-73389044D01*
X103262896Y-73318121D01*
X103298521Y-73256710D01*
X103312114Y-73245501D01*
X103457901Y-73141512D01*
X103457906Y-73141508D01*
X103462113Y-73138507D01*
X103635142Y-72966082D01*
X103639564Y-72959929D01*
X103674712Y-72911015D01*
X103777686Y-72767711D01*
X103793960Y-72734784D01*
X103883622Y-72553364D01*
X103885916Y-72548723D01*
X103945867Y-72351402D01*
X103955423Y-72319951D01*
X103955424Y-72319945D01*
X103956927Y-72314999D01*
X103988811Y-72072815D01*
X103990591Y-72000000D01*
X103970576Y-71756548D01*
X103911067Y-71519634D01*
X103813663Y-71295620D01*
X103680980Y-71090523D01*
X103644375Y-71050294D01*
X103613323Y-70986449D01*
X103621717Y-70915951D01*
X103646858Y-70885472D01*
X115659591Y-70885472D01*
X115676584Y-71087832D01*
X115732558Y-71283037D01*
X115735376Y-71288519D01*
X115735377Y-71288523D01*
X115800566Y-71415366D01*
X115814500Y-71472960D01*
X115814500Y-91220387D01*
X115812949Y-91240098D01*
X115810842Y-91253401D01*
X115811187Y-91259988D01*
X115811187Y-91259993D01*
X115814327Y-91319898D01*
X115814500Y-91326492D01*
X115814500Y-91346411D01*
X115814844Y-91349682D01*
X115816582Y-91366221D01*
X115817099Y-91372790D01*
X115820584Y-91439286D01*
X115822292Y-91445660D01*
X115822292Y-91445661D01*
X115824069Y-91452293D01*
X115827670Y-91471725D01*
X115828387Y-91478548D01*
X115828389Y-91478559D01*
X115829079Y-91485120D01*
X115831119Y-91491397D01*
X115831120Y-91491404D01*
X115849651Y-91548437D01*
X115851524Y-91554760D01*
X115867051Y-91612705D01*
X115867054Y-91612714D01*
X115868761Y-91619083D01*
X115871756Y-91624961D01*
X115874872Y-91631077D01*
X115882437Y-91649341D01*
X115884557Y-91655865D01*
X115886599Y-91662149D01*
X115889902Y-91667870D01*
X115919890Y-91719811D01*
X115923038Y-91725607D01*
X115953266Y-91784935D01*
X115957423Y-91790068D01*
X115957424Y-91790070D01*
X115961739Y-91795398D01*
X115972938Y-91811693D01*
X115979669Y-91823351D01*
X115984094Y-91828265D01*
X115984095Y-91828267D01*
X116024218Y-91872829D01*
X116028494Y-91877835D01*
X116041039Y-91893326D01*
X116055128Y-91907415D01*
X116059669Y-91912200D01*
X116104221Y-91961680D01*
X116109566Y-91965563D01*
X116115115Y-91969595D01*
X116130149Y-91982436D01*
X124217562Y-100069848D01*
X124230401Y-100084880D01*
X124238320Y-100095779D01*
X124243230Y-100100200D01*
X124243231Y-100100201D01*
X124287810Y-100140340D01*
X124292595Y-100144881D01*
X124306674Y-100158960D01*
X124309217Y-100161019D01*
X124309231Y-100161032D01*
X124322159Y-100171501D01*
X124327169Y-100175781D01*
X124371735Y-100215907D01*
X124371738Y-100215909D01*
X124376649Y-100220331D01*
X124388311Y-100227064D01*
X124404597Y-100238258D01*
X124409932Y-100242578D01*
X124409936Y-100242581D01*
X124415065Y-100246734D01*
X124420943Y-100249729D01*
X124474392Y-100276962D01*
X124480189Y-100280110D01*
X124528997Y-100308289D01*
X124537851Y-100313401D01*
X124544133Y-100315442D01*
X124544135Y-100315443D01*
X124550659Y-100317563D01*
X124568923Y-100325128D01*
X124575039Y-100328244D01*
X124580917Y-100331239D01*
X124587286Y-100332946D01*
X124587295Y-100332949D01*
X124645240Y-100348476D01*
X124651563Y-100350349D01*
X124708596Y-100368880D01*
X124708603Y-100368881D01*
X124714880Y-100370921D01*
X124721441Y-100371611D01*
X124721452Y-100371613D01*
X124728275Y-100372330D01*
X124747707Y-100375931D01*
X124754339Y-100377708D01*
X124754340Y-100377708D01*
X124760714Y-100379416D01*
X124767304Y-100379761D01*
X124767308Y-100379762D01*
X124811348Y-100382070D01*
X124827210Y-100382901D01*
X124833769Y-100383417D01*
X124853589Y-100385500D01*
X124873508Y-100385500D01*
X124880102Y-100385673D01*
X124940007Y-100388813D01*
X124940012Y-100388813D01*
X124946599Y-100389158D01*
X124953114Y-100388126D01*
X124953116Y-100388126D01*
X124959902Y-100387051D01*
X124979613Y-100385500D01*
X132178968Y-100385500D01*
X132240439Y-100401512D01*
X132333433Y-100453485D01*
X132526566Y-100516237D01*
X132728209Y-100540282D01*
X132734344Y-100539810D01*
X132734346Y-100539810D01*
X132924541Y-100525175D01*
X132924545Y-100525174D01*
X132930683Y-100524702D01*
X133126274Y-100470092D01*
X133131778Y-100467312D01*
X133131780Y-100467311D01*
X133302032Y-100381311D01*
X133302034Y-100381310D01*
X133307533Y-100378532D01*
X133447935Y-100268838D01*
X133462700Y-100257302D01*
X133467556Y-100253508D01*
X133476991Y-100242578D01*
X133596218Y-100104452D01*
X133596219Y-100104450D01*
X133600247Y-100099784D01*
X133700553Y-99923214D01*
X133764653Y-99730523D01*
X133790104Y-99529053D01*
X133790510Y-99500000D01*
X133770694Y-99297897D01*
X133711999Y-99103492D01*
X133642707Y-98973172D01*
X133640347Y-98968733D01*
X135009674Y-98968733D01*
X135009918Y-98973168D01*
X135009918Y-98973172D01*
X135012871Y-99026828D01*
X135025124Y-99249485D01*
X135079979Y-99525258D01*
X135099545Y-99580973D01*
X135145878Y-99712910D01*
X135173143Y-99790551D01*
X135175196Y-99794504D01*
X135175199Y-99794510D01*
X135200586Y-99843381D01*
X135302758Y-100040071D01*
X135305341Y-100043686D01*
X135305345Y-100043692D01*
X135386052Y-100156629D01*
X135466238Y-100268838D01*
X135527397Y-100332949D01*
X135645868Y-100457139D01*
X135660320Y-100472289D01*
X135663816Y-100475045D01*
X135836283Y-100611006D01*
X135881133Y-100646363D01*
X135884975Y-100648595D01*
X135884980Y-100648598D01*
X136120415Y-100785351D01*
X136120422Y-100785354D01*
X136124269Y-100787589D01*
X136128402Y-100789263D01*
X136268999Y-100846210D01*
X136384879Y-100893146D01*
X136389192Y-100894217D01*
X136389197Y-100894219D01*
X136578812Y-100941319D01*
X136657763Y-100960931D01*
X136897557Y-100985500D01*
X137071633Y-100985500D01*
X137280474Y-100970713D01*
X137284829Y-100969775D01*
X137284832Y-100969775D01*
X137551005Y-100912470D01*
X137551007Y-100912470D01*
X137555352Y-100911534D01*
X137819149Y-100814214D01*
X137823067Y-100812100D01*
X138062686Y-100682809D01*
X138066602Y-100680696D01*
X138292773Y-100513643D01*
X138299525Y-100506997D01*
X138427200Y-100381311D01*
X138493150Y-100316389D01*
X138625823Y-100142546D01*
X138661033Y-100096410D01*
X138661035Y-100096406D01*
X138663735Y-100092869D01*
X138762410Y-99916672D01*
X138798945Y-99851434D01*
X138798948Y-99851428D01*
X138801123Y-99847544D01*
X138802734Y-99843381D01*
X138900968Y-99589463D01*
X138900970Y-99589457D01*
X138902575Y-99585308D01*
X138908453Y-99559951D01*
X138935727Y-99442282D01*
X138966065Y-99311394D01*
X138990326Y-99031267D01*
X138988700Y-99001709D01*
X138975773Y-98766821D01*
X138974876Y-98750515D01*
X138920021Y-98474742D01*
X138837645Y-98240169D01*
X138828335Y-98213657D01*
X138828334Y-98213654D01*
X138826857Y-98209449D01*
X138824804Y-98205496D01*
X138824801Y-98205490D01*
X138718720Y-98001276D01*
X138697242Y-97959929D01*
X138694659Y-97956314D01*
X138694655Y-97956308D01*
X138578796Y-97794181D01*
X138533762Y-97731162D01*
X138436721Y-97629436D01*
X138342752Y-97530931D01*
X138342750Y-97530929D01*
X138339680Y-97527711D01*
X138118867Y-97353637D01*
X138115025Y-97351405D01*
X138115020Y-97351402D01*
X137879585Y-97214649D01*
X137879578Y-97214646D01*
X137875731Y-97212411D01*
X137815216Y-97187900D01*
X137619247Y-97108525D01*
X137619245Y-97108524D01*
X137615121Y-97106854D01*
X137610808Y-97105783D01*
X137610803Y-97105781D01*
X137421188Y-97058681D01*
X137342237Y-97039069D01*
X137102443Y-97014500D01*
X136928367Y-97014500D01*
X136719526Y-97029287D01*
X136715171Y-97030225D01*
X136715168Y-97030225D01*
X136448995Y-97087530D01*
X136448993Y-97087530D01*
X136444648Y-97088466D01*
X136180851Y-97185786D01*
X136176933Y-97187900D01*
X136134609Y-97210737D01*
X135933398Y-97319304D01*
X135707227Y-97486357D01*
X135506850Y-97683611D01*
X135451586Y-97756024D01*
X135367748Y-97865879D01*
X135336265Y-97907131D01*
X135308725Y-97956308D01*
X135212459Y-98128204D01*
X135198877Y-98152456D01*
X135197269Y-98156614D01*
X135197266Y-98156619D01*
X135117553Y-98362665D01*
X135097425Y-98414692D01*
X135096421Y-98419024D01*
X135096420Y-98419027D01*
X135082496Y-98479101D01*
X135033935Y-98688606D01*
X135009674Y-98968733D01*
X133640347Y-98968733D01*
X133619557Y-98929633D01*
X133619555Y-98929630D01*
X133616663Y-98924191D01*
X133612773Y-98919421D01*
X133612770Y-98919417D01*
X133492210Y-98771596D01*
X133492207Y-98771593D01*
X133488315Y-98766821D01*
X133479628Y-98759634D01*
X133336595Y-98641307D01*
X133331846Y-98637378D01*
X133153214Y-98540792D01*
X133048647Y-98508423D01*
X132965111Y-98482564D01*
X132965108Y-98482563D01*
X132959224Y-98480742D01*
X132953099Y-98480098D01*
X132953098Y-98480098D01*
X132763392Y-98460159D01*
X132763391Y-98460159D01*
X132757264Y-98459515D01*
X132672817Y-98467200D01*
X132561167Y-98477361D01*
X132561164Y-98477362D01*
X132555028Y-98477920D01*
X132549122Y-98479658D01*
X132549118Y-98479659D01*
X132451388Y-98508423D01*
X132360218Y-98535256D01*
X132279231Y-98577595D01*
X132236064Y-98600162D01*
X132177689Y-98614500D01*
X125318976Y-98614500D01*
X125250855Y-98594498D01*
X125229881Y-98577595D01*
X122618105Y-95965819D01*
X146014500Y-95965819D01*
X146014501Y-97794180D01*
X146017335Y-97830204D01*
X146019130Y-97836381D01*
X146019131Y-97836387D01*
X146056171Y-97963880D01*
X146062131Y-97984393D01*
X146066166Y-97991215D01*
X146066166Y-97991216D01*
X146072396Y-98001750D01*
X146143865Y-98122598D01*
X146257402Y-98236135D01*
X146264223Y-98240169D01*
X146375893Y-98306210D01*
X146395607Y-98317869D01*
X146403221Y-98320081D01*
X146403223Y-98320082D01*
X146414692Y-98323414D01*
X146474528Y-98361626D01*
X146504207Y-98426121D01*
X146494304Y-98496424D01*
X146470636Y-98531461D01*
X146444591Y-98558716D01*
X146438104Y-98566727D01*
X146318098Y-98742649D01*
X146313000Y-98751623D01*
X146223338Y-98944783D01*
X146219775Y-98954470D01*
X146164389Y-99154183D01*
X146165912Y-99162607D01*
X146178292Y-99166000D01*
X148818344Y-99166000D01*
X148831875Y-99162027D01*
X148833180Y-99152947D01*
X148791214Y-98985875D01*
X148787894Y-98976124D01*
X148702972Y-98780814D01*
X148698105Y-98771739D01*
X148582426Y-98592926D01*
X148576141Y-98584764D01*
X148525942Y-98529596D01*
X148494891Y-98465750D01*
X148503286Y-98395251D01*
X148548462Y-98340483D01*
X148583981Y-98323800D01*
X148596776Y-98320082D01*
X148604393Y-98317869D01*
X148624108Y-98306210D01*
X148735777Y-98240169D01*
X148742598Y-98236135D01*
X148856135Y-98122598D01*
X148927604Y-98001750D01*
X148933834Y-97991216D01*
X148933834Y-97991215D01*
X148937869Y-97984393D01*
X148943829Y-97963880D01*
X148980871Y-97836381D01*
X148980872Y-97836376D01*
X148982665Y-97830204D01*
X148985132Y-97798862D01*
X148985307Y-97796638D01*
X148985307Y-97796629D01*
X148985500Y-97794181D01*
X148985499Y-95965820D01*
X148982665Y-95929796D01*
X148937869Y-95775607D01*
X148856135Y-95637402D01*
X148742598Y-95523865D01*
X148604393Y-95442131D01*
X148596782Y-95439920D01*
X148596780Y-95439919D01*
X148456381Y-95399129D01*
X148456376Y-95399128D01*
X148450204Y-95397335D01*
X148428581Y-95395633D01*
X148416638Y-95394693D01*
X148416629Y-95394693D01*
X148414181Y-95394500D01*
X147500740Y-95394500D01*
X146585820Y-95394501D01*
X146566577Y-95396015D01*
X146556214Y-95396830D01*
X146556213Y-95396830D01*
X146549796Y-95397335D01*
X146543616Y-95399130D01*
X146543613Y-95399131D01*
X146403220Y-95439919D01*
X146403218Y-95439920D01*
X146395607Y-95442131D01*
X146257402Y-95523865D01*
X146143865Y-95637402D01*
X146062131Y-95775607D01*
X146059920Y-95783218D01*
X146059919Y-95783220D01*
X146019129Y-95923619D01*
X146019128Y-95923624D01*
X146017335Y-95929796D01*
X146016831Y-95936206D01*
X146014694Y-95963356D01*
X146014500Y-95965819D01*
X122618105Y-95965819D01*
X119256956Y-92604669D01*
X144092001Y-92604669D01*
X144092371Y-92611490D01*
X144097895Y-92662352D01*
X144101521Y-92677604D01*
X144146676Y-92798054D01*
X144155214Y-92813649D01*
X144231715Y-92915724D01*
X144244276Y-92928285D01*
X144346351Y-93004786D01*
X144361946Y-93013324D01*
X144482394Y-93058478D01*
X144497649Y-93062105D01*
X144548514Y-93067631D01*
X144555328Y-93068000D01*
X146777885Y-93068000D01*
X146793124Y-93063525D01*
X146794329Y-93062135D01*
X146796000Y-93054452D01*
X146796000Y-92032115D01*
X146791525Y-92016876D01*
X146790135Y-92015671D01*
X146782452Y-92014000D01*
X144110116Y-92014000D01*
X144094877Y-92018475D01*
X144093672Y-92019865D01*
X144092001Y-92027548D01*
X144092001Y-92604669D01*
X119256956Y-92604669D01*
X118140172Y-91487885D01*
X144092000Y-91487885D01*
X144096475Y-91503124D01*
X144097865Y-91504329D01*
X144105548Y-91506000D01*
X146777885Y-91506000D01*
X146793124Y-91501525D01*
X146794329Y-91500135D01*
X146796000Y-91492452D01*
X146796000Y-90470116D01*
X146791525Y-90454877D01*
X146790135Y-90453672D01*
X146782452Y-90452001D01*
X144555331Y-90452001D01*
X144548510Y-90452371D01*
X144497648Y-90457895D01*
X144482396Y-90461521D01*
X144361946Y-90506676D01*
X144346351Y-90515214D01*
X144244276Y-90591715D01*
X144231715Y-90604276D01*
X144155214Y-90706351D01*
X144146676Y-90721946D01*
X144101522Y-90842394D01*
X144097895Y-90857649D01*
X144092369Y-90908514D01*
X144092000Y-90915328D01*
X144092000Y-91487885D01*
X118140172Y-91487885D01*
X117622405Y-90970118D01*
X117588379Y-90907806D01*
X117585500Y-90881023D01*
X117585500Y-84084669D01*
X144092001Y-84084669D01*
X144092371Y-84091490D01*
X144097895Y-84142352D01*
X144101521Y-84157604D01*
X144146676Y-84278054D01*
X144155214Y-84293649D01*
X144231715Y-84395724D01*
X144244276Y-84408285D01*
X144346351Y-84484786D01*
X144361946Y-84493324D01*
X144482394Y-84538478D01*
X144497649Y-84542105D01*
X144548514Y-84547631D01*
X144555328Y-84548000D01*
X146777885Y-84548000D01*
X146793124Y-84543525D01*
X146794329Y-84542135D01*
X146796000Y-84534452D01*
X146796000Y-83512115D01*
X146791525Y-83496876D01*
X146790135Y-83495671D01*
X146782452Y-83494000D01*
X144110116Y-83494000D01*
X144094877Y-83498475D01*
X144093672Y-83499865D01*
X144092001Y-83507548D01*
X144092001Y-84084669D01*
X117585500Y-84084669D01*
X117585500Y-82967885D01*
X144092000Y-82967885D01*
X144096475Y-82983124D01*
X144097865Y-82984329D01*
X144105548Y-82986000D01*
X146777885Y-82986000D01*
X146793124Y-82981525D01*
X146794329Y-82980135D01*
X146796000Y-82972452D01*
X146796000Y-81950116D01*
X146791525Y-81934877D01*
X146790135Y-81933672D01*
X146782452Y-81932001D01*
X144555331Y-81932001D01*
X144548510Y-81932371D01*
X144497648Y-81937895D01*
X144482396Y-81941521D01*
X144361946Y-81986676D01*
X144346351Y-81995214D01*
X144244276Y-82071715D01*
X144231715Y-82084276D01*
X144155214Y-82186351D01*
X144146676Y-82201946D01*
X144101522Y-82322394D01*
X144097895Y-82337649D01*
X144092369Y-82388514D01*
X144092000Y-82395328D01*
X144092000Y-82967885D01*
X117585500Y-82967885D01*
X117585500Y-73968733D01*
X123759674Y-73968733D01*
X123775124Y-74249485D01*
X123829979Y-74525258D01*
X123923143Y-74790551D01*
X123925196Y-74794504D01*
X123925199Y-74794510D01*
X123950586Y-74843381D01*
X124052758Y-75040071D01*
X124055341Y-75043686D01*
X124055345Y-75043692D01*
X124131031Y-75149603D01*
X124216238Y-75268838D01*
X124219310Y-75272058D01*
X124359452Y-75418965D01*
X124410320Y-75472289D01*
X124413816Y-75475045D01*
X124551762Y-75583792D01*
X124631133Y-75646363D01*
X124634975Y-75648595D01*
X124634980Y-75648598D01*
X124870415Y-75785351D01*
X124870422Y-75785354D01*
X124874269Y-75787589D01*
X124878402Y-75789263D01*
X125118950Y-75886694D01*
X125134879Y-75893146D01*
X125139192Y-75894217D01*
X125139197Y-75894219D01*
X125283388Y-75930036D01*
X125407763Y-75960931D01*
X125647557Y-75985500D01*
X125821633Y-75985500D01*
X126030474Y-75970713D01*
X126034829Y-75969775D01*
X126034832Y-75969775D01*
X126301005Y-75912470D01*
X126301007Y-75912470D01*
X126305352Y-75911534D01*
X126528924Y-75829054D01*
X126564972Y-75815755D01*
X126569149Y-75814214D01*
X126591830Y-75801976D01*
X126812686Y-75682809D01*
X126816602Y-75680696D01*
X127042773Y-75513643D01*
X127243150Y-75316389D01*
X127413735Y-75092869D01*
X127551123Y-74847544D01*
X127552734Y-74843381D01*
X127650968Y-74589463D01*
X127650970Y-74589457D01*
X127652575Y-74585308D01*
X127716065Y-74311394D01*
X127740326Y-74031267D01*
X127724876Y-73750515D01*
X127670021Y-73474742D01*
X127587688Y-73240290D01*
X127578335Y-73213657D01*
X127578334Y-73213654D01*
X127576857Y-73209449D01*
X127574804Y-73205496D01*
X127574801Y-73205490D01*
X127449294Y-72963880D01*
X127447242Y-72959929D01*
X127444659Y-72956314D01*
X127444655Y-72956308D01*
X127286350Y-72734784D01*
X127283762Y-72731162D01*
X127114152Y-72553364D01*
X127092752Y-72530931D01*
X127092750Y-72530929D01*
X127089680Y-72527711D01*
X126868867Y-72353637D01*
X126865025Y-72351405D01*
X126865020Y-72351402D01*
X126629585Y-72214649D01*
X126629578Y-72214646D01*
X126625731Y-72212411D01*
X126565216Y-72187900D01*
X126369247Y-72108525D01*
X126369245Y-72108524D01*
X126365121Y-72106854D01*
X126360808Y-72105783D01*
X126360803Y-72105781D01*
X126171188Y-72058681D01*
X126092237Y-72039069D01*
X125852443Y-72014500D01*
X125678367Y-72014500D01*
X125469526Y-72029287D01*
X125465171Y-72030225D01*
X125465168Y-72030225D01*
X125198995Y-72087530D01*
X125198993Y-72087530D01*
X125194648Y-72088466D01*
X124930851Y-72185786D01*
X124926933Y-72187900D01*
X124884609Y-72210737D01*
X124683398Y-72319304D01*
X124457227Y-72486357D01*
X124454048Y-72489486D01*
X124454045Y-72489489D01*
X124389159Y-72553364D01*
X124256850Y-72683611D01*
X124254144Y-72687157D01*
X124110062Y-72875950D01*
X124086265Y-72907131D01*
X124084090Y-72911015D01*
X123955006Y-73141512D01*
X123948877Y-73152456D01*
X123947269Y-73156614D01*
X123947266Y-73156619D01*
X123857348Y-73389044D01*
X123847425Y-73414692D01*
X123846421Y-73419024D01*
X123846420Y-73419027D01*
X123834478Y-73470549D01*
X123783935Y-73688606D01*
X123759674Y-73968733D01*
X117585500Y-73968733D01*
X117585500Y-71471018D01*
X117601944Y-71408781D01*
X117647506Y-71328577D01*
X117650553Y-71323214D01*
X117714653Y-71130523D01*
X117740104Y-70929053D01*
X117740510Y-70900000D01*
X117720694Y-70697897D01*
X117661999Y-70503492D01*
X117593243Y-70374180D01*
X117569557Y-70329633D01*
X117569555Y-70329630D01*
X117566663Y-70324191D01*
X117562773Y-70319421D01*
X117562770Y-70319417D01*
X117442210Y-70171596D01*
X117442207Y-70171593D01*
X117438315Y-70166821D01*
X117281846Y-70037378D01*
X117103214Y-69940792D01*
X117006219Y-69910767D01*
X116915111Y-69882564D01*
X116915108Y-69882563D01*
X116909224Y-69880742D01*
X116903099Y-69880098D01*
X116903098Y-69880098D01*
X116713392Y-69860159D01*
X116713391Y-69860159D01*
X116707264Y-69859515D01*
X116622817Y-69867200D01*
X116511167Y-69877361D01*
X116511164Y-69877362D01*
X116505028Y-69877920D01*
X116499122Y-69879658D01*
X116499118Y-69879659D01*
X116357663Y-69921292D01*
X116310218Y-69935256D01*
X116130255Y-70029338D01*
X116125455Y-70033198D01*
X116125454Y-70033198D01*
X116086884Y-70064209D01*
X115971993Y-70156584D01*
X115841461Y-70312146D01*
X115838497Y-70317538D01*
X115838494Y-70317542D01*
X115791077Y-70403794D01*
X115743630Y-70490100D01*
X115682228Y-70683666D01*
X115681542Y-70689785D01*
X115681541Y-70689788D01*
X115667369Y-70816135D01*
X115659591Y-70885472D01*
X103646858Y-70885472D01*
X103666894Y-70861182D01*
X103673421Y-70857046D01*
X103693843Y-70844969D01*
X103735778Y-70820169D01*
X103735782Y-70820166D01*
X103742598Y-70816135D01*
X103856135Y-70702598D01*
X103937869Y-70564393D01*
X103940081Y-70556780D01*
X103980871Y-70416381D01*
X103980872Y-70416376D01*
X103982665Y-70410204D01*
X103984367Y-70388581D01*
X103985307Y-70376638D01*
X103985307Y-70376629D01*
X103985500Y-70374181D01*
X103985499Y-68545820D01*
X103982665Y-68509796D01*
X103937869Y-68355607D01*
X103856135Y-68217402D01*
X103742598Y-68103865D01*
X103604393Y-68022131D01*
X103596782Y-68019920D01*
X103596780Y-68019919D01*
X103456381Y-67979129D01*
X103456376Y-67979128D01*
X103450204Y-67977335D01*
X103428581Y-67975633D01*
X103416638Y-67974693D01*
X103416629Y-67974693D01*
X103414181Y-67974500D01*
X102500740Y-67974500D01*
X101585820Y-67974501D01*
X101566577Y-67976015D01*
X101556214Y-67976830D01*
X101556213Y-67976830D01*
X101549796Y-67977335D01*
X101543616Y-67979130D01*
X101543613Y-67979131D01*
X101403220Y-68019919D01*
X101403218Y-68019920D01*
X101395607Y-68022131D01*
X101257402Y-68103865D01*
X101143865Y-68217402D01*
X101062131Y-68355607D01*
X101059920Y-68363218D01*
X101059919Y-68363220D01*
X101019129Y-68503619D01*
X101019128Y-68503624D01*
X101017335Y-68509796D01*
X101016831Y-68516206D01*
X101014694Y-68543356D01*
X101014500Y-68545819D01*
X101014501Y-70374180D01*
X101017335Y-70410204D01*
X101019130Y-70416381D01*
X101019131Y-70416387D01*
X101059919Y-70556780D01*
X101062131Y-70564393D01*
X101143865Y-70702598D01*
X101257402Y-70816135D01*
X101264222Y-70820168D01*
X101264228Y-70820173D01*
X101324683Y-70855926D01*
X101373136Y-70907819D01*
X101385841Y-70977669D01*
X101358766Y-71043300D01*
X101351640Y-71051427D01*
X101341593Y-71061941D01*
X101203939Y-71263735D01*
X101101091Y-71485302D01*
X101035811Y-71720691D01*
X101035262Y-71725825D01*
X101035262Y-71725827D01*
X101029654Y-71778303D01*
X101009854Y-71963582D01*
X100710000Y-71963582D01*
X100710000Y-67836000D01*
X100730002Y-67767879D01*
X100783658Y-67721386D01*
X100836000Y-67710000D01*
X149164000Y-67710000D01*
X149232121Y-67730002D01*
G37*
%TD.AperFunction*%
%TA.AperFunction,NonConductor*%
G36*
X159789721Y-34172402D02*
G01*
X159836214Y-34226058D01*
X159847600Y-34278400D01*
X159847600Y-39306000D01*
X159827598Y-39374121D01*
X159773942Y-39420614D01*
X159721600Y-39432000D01*
X157504615Y-39432000D01*
X157489376Y-39436475D01*
X157488171Y-39437865D01*
X157486500Y-39445548D01*
X157486500Y-42029884D01*
X157490975Y-42045123D01*
X157492365Y-42046328D01*
X157500048Y-42047999D01*
X159721600Y-42047999D01*
X159789721Y-42068001D01*
X159836214Y-42121657D01*
X159847600Y-42173999D01*
X159847600Y-47826000D01*
X159827598Y-47894121D01*
X159773942Y-47940614D01*
X159721600Y-47952000D01*
X157504615Y-47952000D01*
X157489376Y-47956475D01*
X157488171Y-47957865D01*
X157486500Y-47965548D01*
X157486500Y-50549884D01*
X157490975Y-50565123D01*
X157492365Y-50566328D01*
X157500048Y-50567999D01*
X159721600Y-50567999D01*
X159789721Y-50588001D01*
X159836214Y-50641657D01*
X159847600Y-50693999D01*
X159847600Y-63721600D01*
X159827598Y-63789721D01*
X159773942Y-63836214D01*
X159721600Y-63847600D01*
X119229000Y-63847600D01*
X119160879Y-63827598D01*
X119114386Y-63773942D01*
X119103000Y-63721600D01*
X119103000Y-61814615D01*
X119098525Y-61799376D01*
X119097135Y-61798171D01*
X119089452Y-61796500D01*
X116505116Y-61796500D01*
X116489877Y-61800975D01*
X116488672Y-61802365D01*
X116487001Y-61810048D01*
X116487001Y-63721600D01*
X116466999Y-63789721D01*
X116413343Y-63836214D01*
X116361001Y-63847600D01*
X110709000Y-63847600D01*
X110640879Y-63827598D01*
X110594386Y-63773942D01*
X110583000Y-63721600D01*
X110583000Y-61814615D01*
X110578525Y-61799376D01*
X110577135Y-61798171D01*
X110569452Y-61796500D01*
X107985116Y-61796500D01*
X107969877Y-61800975D01*
X107968672Y-61802365D01*
X107967001Y-61810048D01*
X107967001Y-63721600D01*
X107946999Y-63789721D01*
X107893343Y-63836214D01*
X107841001Y-63847600D01*
X100278400Y-63847600D01*
X100210279Y-63827598D01*
X100163786Y-63773942D01*
X100152400Y-63721600D01*
X100152400Y-61270385D01*
X107967000Y-61270385D01*
X107971475Y-61285624D01*
X107972865Y-61286829D01*
X107980548Y-61288500D01*
X109002885Y-61288500D01*
X109018124Y-61284025D01*
X109019329Y-61282635D01*
X109021000Y-61274952D01*
X109021000Y-61270385D01*
X109529000Y-61270385D01*
X109533475Y-61285624D01*
X109534865Y-61286829D01*
X109542548Y-61288500D01*
X110564884Y-61288500D01*
X110580123Y-61284025D01*
X110581328Y-61282635D01*
X110582999Y-61274952D01*
X110582999Y-61270385D01*
X116487000Y-61270385D01*
X116491475Y-61285624D01*
X116492865Y-61286829D01*
X116500548Y-61288500D01*
X117522885Y-61288500D01*
X117538124Y-61284025D01*
X117539329Y-61282635D01*
X117541000Y-61274952D01*
X117541000Y-61270385D01*
X118049000Y-61270385D01*
X118053475Y-61285624D01*
X118054865Y-61286829D01*
X118062548Y-61288500D01*
X119084884Y-61288500D01*
X119100123Y-61284025D01*
X119101328Y-61282635D01*
X119102999Y-61274952D01*
X119102999Y-59047831D01*
X119102629Y-59041010D01*
X119097105Y-58990148D01*
X119093479Y-58974896D01*
X119048324Y-58854446D01*
X119039786Y-58838851D01*
X118963285Y-58736776D01*
X118950724Y-58724215D01*
X118848649Y-58647714D01*
X118833054Y-58639176D01*
X118712606Y-58594022D01*
X118697351Y-58590395D01*
X118646486Y-58584869D01*
X118639672Y-58584500D01*
X118067115Y-58584500D01*
X118051876Y-58588975D01*
X118050671Y-58590365D01*
X118049000Y-58598048D01*
X118049000Y-61270385D01*
X117541000Y-61270385D01*
X117541000Y-58602616D01*
X117536525Y-58587377D01*
X117535135Y-58586172D01*
X117527452Y-58584501D01*
X116950331Y-58584501D01*
X116943510Y-58584871D01*
X116892648Y-58590395D01*
X116877396Y-58594021D01*
X116756946Y-58639176D01*
X116741351Y-58647714D01*
X116639276Y-58724215D01*
X116626715Y-58736776D01*
X116550214Y-58838851D01*
X116541676Y-58854446D01*
X116496522Y-58974894D01*
X116492895Y-58990149D01*
X116487369Y-59041014D01*
X116487000Y-59047828D01*
X116487000Y-61270385D01*
X110582999Y-61270385D01*
X110582999Y-59047831D01*
X110582629Y-59041010D01*
X110577105Y-58990148D01*
X110573479Y-58974896D01*
X110528324Y-58854446D01*
X110519786Y-58838851D01*
X110443285Y-58736776D01*
X110430724Y-58724215D01*
X110328649Y-58647714D01*
X110313054Y-58639176D01*
X110192606Y-58594022D01*
X110177351Y-58590395D01*
X110126486Y-58584869D01*
X110119672Y-58584500D01*
X109547115Y-58584500D01*
X109531876Y-58588975D01*
X109530671Y-58590365D01*
X109529000Y-58598048D01*
X109529000Y-61270385D01*
X109021000Y-61270385D01*
X109021000Y-58602616D01*
X109016525Y-58587377D01*
X109015135Y-58586172D01*
X109007452Y-58584501D01*
X108430331Y-58584501D01*
X108423510Y-58584871D01*
X108372648Y-58590395D01*
X108357396Y-58594021D01*
X108236946Y-58639176D01*
X108221351Y-58647714D01*
X108119276Y-58724215D01*
X108106715Y-58736776D01*
X108030214Y-58838851D01*
X108021676Y-58854446D01*
X107976522Y-58974894D01*
X107972895Y-58990149D01*
X107967369Y-59041014D01*
X107967000Y-59047828D01*
X107967000Y-61270385D01*
X100152400Y-61270385D01*
X100152400Y-52204000D01*
X100172402Y-52135879D01*
X100226058Y-52089386D01*
X100278400Y-52078000D01*
X102185385Y-52078000D01*
X102200624Y-52073525D01*
X102201829Y-52072135D01*
X102203500Y-52064452D01*
X102203500Y-52059884D01*
X102711500Y-52059884D01*
X102715975Y-52075123D01*
X102717365Y-52076328D01*
X102725048Y-52077999D01*
X104952169Y-52077999D01*
X104958990Y-52077629D01*
X105009852Y-52072105D01*
X105025104Y-52068479D01*
X105145554Y-52023324D01*
X105161149Y-52014786D01*
X105263224Y-51938285D01*
X105275785Y-51925724D01*
X105352286Y-51823649D01*
X105360824Y-51808054D01*
X105405978Y-51687606D01*
X105409605Y-51672351D01*
X105415131Y-51621486D01*
X105415500Y-51614672D01*
X105415500Y-51042115D01*
X105411025Y-51026876D01*
X105409635Y-51025671D01*
X105401952Y-51024000D01*
X102729615Y-51024000D01*
X102714376Y-51028475D01*
X102713171Y-51029865D01*
X102711500Y-51037548D01*
X102711500Y-52059884D01*
X102203500Y-52059884D01*
X102203500Y-50497885D01*
X102711500Y-50497885D01*
X102715975Y-50513124D01*
X102717365Y-50514329D01*
X102725048Y-50516000D01*
X105397384Y-50516000D01*
X105412623Y-50511525D01*
X105413828Y-50510135D01*
X105415499Y-50502452D01*
X105415499Y-50104669D01*
X154274501Y-50104669D01*
X154274871Y-50111490D01*
X154280395Y-50162352D01*
X154284021Y-50177604D01*
X154329176Y-50298054D01*
X154337714Y-50313649D01*
X154414215Y-50415724D01*
X154426776Y-50428285D01*
X154528851Y-50504786D01*
X154544446Y-50513324D01*
X154664894Y-50558478D01*
X154680149Y-50562105D01*
X154731014Y-50567631D01*
X154737828Y-50568000D01*
X156960385Y-50568000D01*
X156975624Y-50563525D01*
X156976829Y-50562135D01*
X156978500Y-50554452D01*
X156978500Y-49532115D01*
X156974025Y-49516876D01*
X156972635Y-49515671D01*
X156964952Y-49514000D01*
X154292616Y-49514000D01*
X154277377Y-49518475D01*
X154276172Y-49519865D01*
X154274501Y-49527548D01*
X154274501Y-50104669D01*
X105415499Y-50104669D01*
X105415499Y-49925331D01*
X105415129Y-49918510D01*
X105409605Y-49867648D01*
X105405979Y-49852396D01*
X105360824Y-49731946D01*
X105352286Y-49716351D01*
X105275785Y-49614276D01*
X105263224Y-49601715D01*
X105161149Y-49525214D01*
X105145554Y-49516676D01*
X105025106Y-49471522D01*
X105009851Y-49467895D01*
X104958986Y-49462369D01*
X104952172Y-49462000D01*
X102729615Y-49462000D01*
X102714376Y-49466475D01*
X102713171Y-49467865D01*
X102711500Y-49475548D01*
X102711500Y-50497885D01*
X102203500Y-50497885D01*
X102203500Y-49480116D01*
X102199025Y-49464877D01*
X102197635Y-49463672D01*
X102189952Y-49462001D01*
X100278400Y-49462001D01*
X100210279Y-49441999D01*
X100163786Y-49388343D01*
X100152400Y-49336001D01*
X100152400Y-48987885D01*
X154274500Y-48987885D01*
X154278975Y-49003124D01*
X154280365Y-49004329D01*
X154288048Y-49006000D01*
X156960385Y-49006000D01*
X156975624Y-49001525D01*
X156976829Y-49000135D01*
X156978500Y-48992452D01*
X156978500Y-47970116D01*
X156974025Y-47954877D01*
X156972635Y-47953672D01*
X156964952Y-47952001D01*
X154737831Y-47952001D01*
X154731010Y-47952371D01*
X154680148Y-47957895D01*
X154664896Y-47961521D01*
X154544446Y-48006676D01*
X154528851Y-48015214D01*
X154426776Y-48091715D01*
X154414215Y-48104276D01*
X154337714Y-48206351D01*
X154329176Y-48221946D01*
X154284022Y-48342394D01*
X154280395Y-48357649D01*
X154274869Y-48408514D01*
X154274500Y-48415328D01*
X154274500Y-48987885D01*
X100152400Y-48987885D01*
X100152400Y-43684000D01*
X100172402Y-43615879D01*
X100226058Y-43569386D01*
X100278400Y-43558000D01*
X102185385Y-43558000D01*
X102200624Y-43553525D01*
X102201829Y-43552135D01*
X102203500Y-43544452D01*
X102203500Y-43539884D01*
X102711500Y-43539884D01*
X102715975Y-43555123D01*
X102717365Y-43556328D01*
X102725048Y-43557999D01*
X104952169Y-43557999D01*
X104958990Y-43557629D01*
X105009852Y-43552105D01*
X105025104Y-43548479D01*
X105145554Y-43503324D01*
X105161149Y-43494786D01*
X105263224Y-43418285D01*
X105275785Y-43405724D01*
X105352286Y-43303649D01*
X105360824Y-43288054D01*
X105405978Y-43167606D01*
X105409605Y-43152351D01*
X105415131Y-43101486D01*
X105415500Y-43094672D01*
X105415500Y-42522115D01*
X105411025Y-42506876D01*
X105409635Y-42505671D01*
X105401952Y-42504000D01*
X102729615Y-42504000D01*
X102714376Y-42508475D01*
X102713171Y-42509865D01*
X102711500Y-42517548D01*
X102711500Y-43539884D01*
X102203500Y-43539884D01*
X102203500Y-41977885D01*
X102711500Y-41977885D01*
X102715975Y-41993124D01*
X102717365Y-41994329D01*
X102725048Y-41996000D01*
X105397384Y-41996000D01*
X105412623Y-41991525D01*
X105413828Y-41990135D01*
X105415499Y-41982452D01*
X105415499Y-41584669D01*
X154274501Y-41584669D01*
X154274871Y-41591490D01*
X154280395Y-41642352D01*
X154284021Y-41657604D01*
X154329176Y-41778054D01*
X154337714Y-41793649D01*
X154414215Y-41895724D01*
X154426776Y-41908285D01*
X154528851Y-41984786D01*
X154544446Y-41993324D01*
X154664894Y-42038478D01*
X154680149Y-42042105D01*
X154731014Y-42047631D01*
X154737828Y-42048000D01*
X156960385Y-42048000D01*
X156975624Y-42043525D01*
X156976829Y-42042135D01*
X156978500Y-42034452D01*
X156978500Y-41012115D01*
X156974025Y-40996876D01*
X156972635Y-40995671D01*
X156964952Y-40994000D01*
X154292616Y-40994000D01*
X154277377Y-40998475D01*
X154276172Y-40999865D01*
X154274501Y-41007548D01*
X154274501Y-41584669D01*
X105415499Y-41584669D01*
X105415499Y-41405331D01*
X105415129Y-41398510D01*
X105409605Y-41347648D01*
X105405979Y-41332396D01*
X105360824Y-41211946D01*
X105352286Y-41196351D01*
X105275785Y-41094276D01*
X105263224Y-41081715D01*
X105161149Y-41005214D01*
X105145554Y-40996676D01*
X105025106Y-40951522D01*
X105009851Y-40947895D01*
X104958986Y-40942369D01*
X104952172Y-40942000D01*
X102729615Y-40942000D01*
X102714376Y-40946475D01*
X102713171Y-40947865D01*
X102711500Y-40955548D01*
X102711500Y-41977885D01*
X102203500Y-41977885D01*
X102203500Y-40960116D01*
X102199025Y-40944877D01*
X102197635Y-40943672D01*
X102189952Y-40942001D01*
X100278400Y-40942001D01*
X100210279Y-40921999D01*
X100163786Y-40868343D01*
X100152400Y-40816001D01*
X100152400Y-40467885D01*
X154274500Y-40467885D01*
X154278975Y-40483124D01*
X154280365Y-40484329D01*
X154288048Y-40486000D01*
X156960385Y-40486000D01*
X156975624Y-40481525D01*
X156976829Y-40480135D01*
X156978500Y-40472452D01*
X156978500Y-39450116D01*
X156974025Y-39434877D01*
X156972635Y-39433672D01*
X156964952Y-39432001D01*
X154737831Y-39432001D01*
X154731010Y-39432371D01*
X154680148Y-39437895D01*
X154664896Y-39441521D01*
X154544446Y-39486676D01*
X154528851Y-39495214D01*
X154426776Y-39571715D01*
X154414215Y-39584276D01*
X154337714Y-39686351D01*
X154329176Y-39701946D01*
X154284022Y-39822394D01*
X154280395Y-39837649D01*
X154274869Y-39888514D01*
X154274500Y-39895328D01*
X154274500Y-40467885D01*
X100152400Y-40467885D01*
X100152400Y-37724933D01*
X132095500Y-37724933D01*
X132095501Y-39475066D01*
X132110266Y-39549301D01*
X132117161Y-39559620D01*
X132117162Y-39559622D01*
X132157516Y-39620015D01*
X132166516Y-39633484D01*
X132250699Y-39689734D01*
X132324933Y-39704500D01*
X133199858Y-39704500D01*
X134075066Y-39704499D01*
X134110818Y-39697388D01*
X134137126Y-39692156D01*
X134137128Y-39692155D01*
X134149301Y-39689734D01*
X134159621Y-39682839D01*
X134159622Y-39682838D01*
X134223168Y-39640377D01*
X134233484Y-39633484D01*
X134289734Y-39549301D01*
X134304500Y-39475067D01*
X134304500Y-39303428D01*
X134324502Y-39235307D01*
X134378158Y-39188814D01*
X134448432Y-39178710D01*
X134513012Y-39208204D01*
X134537933Y-39237593D01*
X134637694Y-39400388D01*
X134643777Y-39408699D01*
X134783213Y-39569667D01*
X134790580Y-39576883D01*
X134954434Y-39712916D01*
X134962881Y-39718831D01*
X135146756Y-39826279D01*
X135156042Y-39830729D01*
X135355001Y-39906703D01*
X135364899Y-39909579D01*
X135468250Y-39930606D01*
X135482299Y-39929410D01*
X135486000Y-39919065D01*
X135486000Y-39918517D01*
X135994000Y-39918517D01*
X135998064Y-39932359D01*
X136011478Y-39934393D01*
X136018184Y-39933534D01*
X136028262Y-39931392D01*
X136232255Y-39870191D01*
X136241842Y-39866433D01*
X136433095Y-39772739D01*
X136441945Y-39767464D01*
X136615328Y-39643792D01*
X136623200Y-39637139D01*
X136774052Y-39486812D01*
X136780730Y-39478965D01*
X136908022Y-39301819D01*
X136909147Y-39302627D01*
X136956669Y-39258876D01*
X137026607Y-39246661D01*
X137092046Y-39274197D01*
X137119870Y-39306028D01*
X137177690Y-39400383D01*
X137183777Y-39408699D01*
X137323213Y-39569667D01*
X137330580Y-39576883D01*
X137494434Y-39712916D01*
X137502881Y-39718831D01*
X137686756Y-39826279D01*
X137696042Y-39830729D01*
X137895001Y-39906703D01*
X137904899Y-39909579D01*
X138008250Y-39930606D01*
X138022299Y-39929410D01*
X138026000Y-39919065D01*
X138026000Y-39918517D01*
X138534000Y-39918517D01*
X138538064Y-39932359D01*
X138551478Y-39934393D01*
X138558184Y-39933534D01*
X138568262Y-39931392D01*
X138772255Y-39870191D01*
X138781842Y-39866433D01*
X138973095Y-39772739D01*
X138981945Y-39767464D01*
X139155328Y-39643792D01*
X139163200Y-39637139D01*
X139314052Y-39486812D01*
X139320730Y-39478965D01*
X139445003Y-39306020D01*
X139450313Y-39297183D01*
X139544670Y-39106267D01*
X139548469Y-39096672D01*
X139565066Y-39042047D01*
X139604007Y-38982683D01*
X139668862Y-38953796D01*
X139739038Y-38964558D01*
X139792256Y-39011551D01*
X139800048Y-39025922D01*
X139859377Y-39154616D01*
X139862710Y-39159332D01*
X139966384Y-39306028D01*
X139976533Y-39320389D01*
X140121938Y-39462035D01*
X140290720Y-39574812D01*
X140296023Y-39577090D01*
X140296026Y-39577092D01*
X140471921Y-39652662D01*
X140477228Y-39654942D01*
X140550244Y-39671464D01*
X140669579Y-39698467D01*
X140669584Y-39698468D01*
X140675216Y-39699742D01*
X140680987Y-39699969D01*
X140680989Y-39699969D01*
X140740756Y-39702317D01*
X140878053Y-39707712D01*
X140985348Y-39692155D01*
X141073231Y-39679413D01*
X141073236Y-39679412D01*
X141078945Y-39678584D01*
X141084409Y-39676729D01*
X141084414Y-39676728D01*
X141265693Y-39615192D01*
X141265698Y-39615190D01*
X141271165Y-39613334D01*
X141448276Y-39514147D01*
X141471041Y-39495214D01*
X141575696Y-39408172D01*
X141604345Y-39384345D01*
X141669504Y-39306000D01*
X141730453Y-39232718D01*
X141730455Y-39232715D01*
X141734147Y-39228276D01*
X141833334Y-39051165D01*
X141835190Y-39045698D01*
X141835192Y-39045693D01*
X141896728Y-38864414D01*
X141896729Y-38864409D01*
X141898584Y-38858945D01*
X141899412Y-38853236D01*
X141899413Y-38853231D01*
X141927179Y-38661727D01*
X141927712Y-38658053D01*
X141929232Y-38600000D01*
X141910658Y-38397859D01*
X141909090Y-38392299D01*
X141857125Y-38208046D01*
X141857124Y-38208044D01*
X141855557Y-38202487D01*
X141835031Y-38160863D01*
X141768331Y-38025609D01*
X141765776Y-38020428D01*
X141751897Y-38001841D01*
X141674322Y-37897957D01*
X141644320Y-37857779D01*
X141495258Y-37719987D01*
X141490375Y-37716906D01*
X141490371Y-37716903D01*
X141328464Y-37614748D01*
X141323581Y-37611667D01*
X141135039Y-37536446D01*
X141129379Y-37535320D01*
X141129375Y-37535319D01*
X140941613Y-37497971D01*
X140941610Y-37497971D01*
X140935946Y-37496844D01*
X140930171Y-37496768D01*
X140930167Y-37496768D01*
X140828793Y-37495441D01*
X140732971Y-37494187D01*
X140727274Y-37495166D01*
X140727273Y-37495166D01*
X140639397Y-37510266D01*
X140532910Y-37528564D01*
X140342463Y-37598824D01*
X140168010Y-37702612D01*
X140163670Y-37706418D01*
X140163666Y-37706421D01*
X140019733Y-37832648D01*
X140015392Y-37836455D01*
X139889720Y-37995869D01*
X139887031Y-38000980D01*
X139887029Y-38000983D01*
X139797589Y-38170980D01*
X139748170Y-38221952D01*
X139679037Y-38238115D01*
X139612141Y-38214336D01*
X139572003Y-38159973D01*
X139569955Y-38160863D01*
X139482972Y-37960814D01*
X139478105Y-37951739D01*
X139362426Y-37772926D01*
X139356136Y-37764757D01*
X139212806Y-37607240D01*
X139205273Y-37600215D01*
X139038139Y-37468222D01*
X139029552Y-37462517D01*
X138843117Y-37359599D01*
X138833705Y-37355369D01*
X138632959Y-37284280D01*
X138622988Y-37281646D01*
X138551837Y-37268972D01*
X138538540Y-37270432D01*
X138534000Y-37284989D01*
X138534000Y-39918517D01*
X138026000Y-39918517D01*
X138026000Y-38872115D01*
X138021525Y-38856876D01*
X138020135Y-38855671D01*
X138012452Y-38854000D01*
X136012115Y-38854000D01*
X135996876Y-38858475D01*
X135995671Y-38859865D01*
X135994000Y-38867548D01*
X135994000Y-39918517D01*
X135486000Y-39918517D01*
X135486000Y-38327885D01*
X135994000Y-38327885D01*
X135998475Y-38343124D01*
X135999865Y-38344329D01*
X136007548Y-38346000D01*
X138007885Y-38346000D01*
X138023124Y-38341525D01*
X138024329Y-38340135D01*
X138026000Y-38332452D01*
X138026000Y-37283102D01*
X138022082Y-37269758D01*
X138007806Y-37267771D01*
X137969324Y-37273660D01*
X137959288Y-37276051D01*
X137756868Y-37342212D01*
X137747359Y-37346209D01*
X137558463Y-37444542D01*
X137549738Y-37450036D01*
X137379433Y-37577905D01*
X137371726Y-37584748D01*
X137224590Y-37738717D01*
X137218104Y-37746727D01*
X137113193Y-37900521D01*
X137058282Y-37945524D01*
X136987757Y-37953695D01*
X136924010Y-37922441D01*
X136903313Y-37897957D01*
X136822427Y-37772926D01*
X136816136Y-37764757D01*
X136672806Y-37607240D01*
X136665273Y-37600215D01*
X136498139Y-37468222D01*
X136489552Y-37462517D01*
X136303117Y-37359599D01*
X136293705Y-37355369D01*
X136092959Y-37284280D01*
X136082988Y-37281646D01*
X136011837Y-37268972D01*
X135998540Y-37270432D01*
X135994000Y-37284989D01*
X135994000Y-38327885D01*
X135486000Y-38327885D01*
X135486000Y-37283102D01*
X135482082Y-37269758D01*
X135467806Y-37267771D01*
X135429324Y-37273660D01*
X135419288Y-37276051D01*
X135216868Y-37342212D01*
X135207359Y-37346209D01*
X135018463Y-37444542D01*
X135009738Y-37450036D01*
X134839433Y-37577905D01*
X134831726Y-37584748D01*
X134684590Y-37738717D01*
X134678104Y-37746727D01*
X134558098Y-37922649D01*
X134553000Y-37931623D01*
X134544787Y-37949316D01*
X134497963Y-38002683D01*
X134429720Y-38022264D01*
X134361724Y-38001841D01*
X134315564Y-37947899D01*
X134304499Y-37896266D01*
X134304499Y-37724934D01*
X134289734Y-37650699D01*
X134263654Y-37611667D01*
X134240377Y-37576832D01*
X134233484Y-37566516D01*
X134149301Y-37510266D01*
X134075067Y-37495500D01*
X133200142Y-37495500D01*
X132324934Y-37495501D01*
X132289182Y-37502612D01*
X132262874Y-37507844D01*
X132262872Y-37507845D01*
X132250699Y-37510266D01*
X132240379Y-37517161D01*
X132240378Y-37517162D01*
X132179985Y-37557516D01*
X132166516Y-37566516D01*
X132110266Y-37650699D01*
X132095500Y-37724933D01*
X100152400Y-37724933D01*
X100152400Y-34278400D01*
X100172402Y-34210279D01*
X100226058Y-34163786D01*
X100278400Y-34152400D01*
X159721600Y-34152400D01*
X159789721Y-34172402D01*
G37*
%TD.AperFunction*%
M02*
