%TF.GenerationSoftware,KiCad,Pcbnew,(6.0.6)*%
%TF.CreationDate,2022-07-08T12:19:54+02:00*%
%TF.ProjectId,low_freq_board,6c6f775f-6672-4657-915f-626f6172642e,rev?*%
%TF.SameCoordinates,Original*%
%TF.FileFunction,Copper,L4,Bot*%
%TF.FilePolarity,Positive*%
%FSLAX46Y46*%
G04 Gerber Fmt 4.6, Leading zero omitted, Abs format (unit mm)*
G04 Created by KiCad (PCBNEW (6.0.6)) date 2022-07-08 12:19:54*
%MOMM*%
%LPD*%
G01*
G04 APERTURE LIST*
G04 Aperture macros list*
%AMRoundRect*
0 Rectangle with rounded corners*
0 $1 Rounding radius*
0 $2 $3 $4 $5 $6 $7 $8 $9 X,Y pos of 4 corners*
0 Add a 4 corners polygon primitive as box body*
4,1,4,$2,$3,$4,$5,$6,$7,$8,$9,$2,$3,0*
0 Add four circle primitives for the rounded corners*
1,1,$1+$1,$2,$3*
1,1,$1+$1,$4,$5*
1,1,$1+$1,$6,$7*
1,1,$1+$1,$8,$9*
0 Add four rect primitives between the rounded corners*
20,1,$1+$1,$2,$3,$4,$5,0*
20,1,$1+$1,$4,$5,$6,$7,0*
20,1,$1+$1,$6,$7,$8,$9,0*
20,1,$1+$1,$8,$9,$2,$3,0*%
G04 Aperture macros list end*
%TA.AperFunction,ComponentPad*%
%ADD10C,6.000000*%
%TD*%
%TA.AperFunction,SMDPad,CuDef*%
%ADD11R,2.400000X2.400000*%
%TD*%
%TA.AperFunction,SMDPad,CuDef*%
%ADD12R,1.000000X0.350000*%
%TD*%
%TA.AperFunction,SMDPad,CuDef*%
%ADD13R,0.350000X1.000000*%
%TD*%
%TA.AperFunction,ComponentPad*%
%ADD14R,1.700000X1.700000*%
%TD*%
%TA.AperFunction,ComponentPad*%
%ADD15O,1.700000X1.700000*%
%TD*%
%TA.AperFunction,SMDPad,CuDef*%
%ADD16RoundRect,0.237500X0.237500X-0.300000X0.237500X0.300000X-0.237500X0.300000X-0.237500X-0.300000X0*%
%TD*%
%TA.AperFunction,SMDPad,CuDef*%
%ADD17RoundRect,0.237500X0.237500X-0.250000X0.237500X0.250000X-0.237500X0.250000X-0.237500X-0.250000X0*%
%TD*%
%TA.AperFunction,SMDPad,CuDef*%
%ADD18RoundRect,0.237500X-0.237500X0.250000X-0.237500X-0.250000X0.237500X-0.250000X0.237500X0.250000X0*%
%TD*%
%TA.AperFunction,SMDPad,CuDef*%
%ADD19RoundRect,0.237500X-0.237500X0.300000X-0.237500X-0.300000X0.237500X-0.300000X0.237500X0.300000X0*%
%TD*%
%TA.AperFunction,SMDPad,CuDef*%
%ADD20RoundRect,0.237500X-0.300000X-0.237500X0.300000X-0.237500X0.300000X0.237500X-0.300000X0.237500X0*%
%TD*%
%TA.AperFunction,SMDPad,CuDef*%
%ADD21RoundRect,0.237500X-0.250000X-0.237500X0.250000X-0.237500X0.250000X0.237500X-0.250000X0.237500X0*%
%TD*%
%TA.AperFunction,SMDPad,CuDef*%
%ADD22RoundRect,0.155000X0.155000X-0.212500X0.155000X0.212500X-0.155000X0.212500X-0.155000X-0.212500X0*%
%TD*%
%TA.AperFunction,SMDPad,CuDef*%
%ADD23RoundRect,0.237500X0.300000X0.237500X-0.300000X0.237500X-0.300000X-0.237500X0.300000X-0.237500X0*%
%TD*%
%TA.AperFunction,SMDPad,CuDef*%
%ADD24R,1.803400X3.505200*%
%TD*%
%TA.AperFunction,SMDPad,CuDef*%
%ADD25RoundRect,0.160000X0.197500X0.160000X-0.197500X0.160000X-0.197500X-0.160000X0.197500X-0.160000X0*%
%TD*%
%TA.AperFunction,SMDPad,CuDef*%
%ADD26R,0.254000X1.066800*%
%TD*%
%TA.AperFunction,SMDPad,CuDef*%
%ADD27R,1.371600X0.635000*%
%TD*%
%TA.AperFunction,SMDPad,CuDef*%
%ADD28RoundRect,0.237500X0.250000X0.237500X-0.250000X0.237500X-0.250000X-0.237500X0.250000X-0.237500X0*%
%TD*%
%TA.AperFunction,SMDPad,CuDef*%
%ADD29RoundRect,0.155000X-0.212500X-0.155000X0.212500X-0.155000X0.212500X0.155000X-0.212500X0.155000X0*%
%TD*%
%TA.AperFunction,SMDPad,CuDef*%
%ADD30RoundRect,0.155000X-0.155000X0.212500X-0.155000X-0.212500X0.155000X-0.212500X0.155000X0.212500X0*%
%TD*%
%TA.AperFunction,ViaPad*%
%ADD31C,0.400000*%
%TD*%
%TA.AperFunction,Conductor*%
%ADD32C,0.508000*%
%TD*%
%TA.AperFunction,Conductor*%
%ADD33C,0.381000*%
%TD*%
%TA.AperFunction,Conductor*%
%ADD34C,0.254000*%
%TD*%
%TA.AperFunction,Conductor*%
%ADD35C,0.246380*%
%TD*%
%TA.AperFunction,Conductor*%
%ADD36C,0.762000*%
%TD*%
G04 APERTURE END LIST*
D10*
%TO.P,H4,1,1*%
%TO.N,GND*%
X119500003Y-88499999D03*
%TD*%
%TO.P,H3,1,1*%
%TO.N,GND*%
X86500001Y-88499999D03*
%TD*%
%TO.P,H2,1,1*%
%TO.N,GND*%
X119500003Y-55499997D03*
%TD*%
%TO.P,H1,1,1*%
%TO.N,GND*%
X86500001Y-55499997D03*
%TD*%
D11*
%TO.P,U4,17,GND_3*%
%TO.N,GND*%
X111565393Y-77385393D03*
D12*
%TO.P,U4,16,VOUT1_2*%
%TO.N,3V*%
X113465393Y-78360393D03*
%TO.P,U4,15,ADJ1*%
%TO.N,Net-(R7-Pad1)*%
X113465393Y-77710393D03*
%TO.P,U4,14,ADJ3*%
%TO.N,Net-(R11-Pad1)*%
X113465393Y-77060393D03*
%TO.P,U4,13,VOUT3*%
%TO.N,2V75*%
X113465393Y-76410393D03*
D13*
%TO.P,U4,12,VIN3*%
%TO.N,P{slash}L power*%
X112540393Y-75485393D03*
%TO.P,U4,11,GND_2*%
%TO.N,GND*%
X111890393Y-75485393D03*
%TO.P,U4,10,GND_1*%
X111240393Y-75485393D03*
%TO.P,U4,9,CBYP*%
%TO.N,Net-(C14-Pad1)*%
X110590393Y-75485393D03*
D12*
%TO.P,U4,8,EN3*%
%TO.N,P{slash}L power*%
X109665393Y-76410393D03*
%TO.P,U4,7,EN2*%
X109665393Y-77060393D03*
%TO.P,U4,6,EN1*%
X109665393Y-77710393D03*
%TO.P,U4,5,ADJ2*%
%TO.N,Net-(R10-Pad1)*%
X109665393Y-78360393D03*
D13*
%TO.P,U4,4,VOUT2*%
%TO.N,2V7*%
X110590393Y-79285393D03*
%TO.P,U4,3,VIN2*%
%TO.N,P{slash}L power*%
X111240393Y-79285393D03*
%TO.P,U4,2,VIN1*%
X111890393Y-79285393D03*
%TO.P,U4,1,VOUT1_1*%
%TO.N,3V*%
X112540393Y-79285393D03*
%TD*%
%TO.P,U5,1,VOUT1_1*%
%TO.N,2V5*%
X103917893Y-80002893D03*
%TO.P,U5,2,VIN1*%
%TO.N,P{slash}L power*%
X103267893Y-80002893D03*
%TO.P,U5,3,VIN2*%
X102617893Y-80002893D03*
%TO.P,U5,4,VOUT2*%
%TO.N,LDO_extra1*%
X101967893Y-80002893D03*
D12*
%TO.P,U5,5,ADJ2*%
%TO.N,Net-(R24-Pad1)*%
X101042893Y-79077893D03*
%TO.P,U5,6,EN1*%
%TO.N,P{slash}L power*%
X101042893Y-78427893D03*
%TO.P,U5,7,EN2*%
X101042893Y-77777893D03*
%TO.P,U5,8,EN3*%
X101042893Y-77127893D03*
D13*
%TO.P,U5,9,CBYP*%
%TO.N,Net-(C19-Pad1)*%
X101967893Y-76202893D03*
%TO.P,U5,10,GND_1*%
%TO.N,GND*%
X102617893Y-76202893D03*
%TO.P,U5,11,GND_2*%
X103267893Y-76202893D03*
%TO.P,U5,12,VIN3*%
%TO.N,P{slash}L power*%
X103917893Y-76202893D03*
D12*
%TO.P,U5,13,VOUT3*%
%TO.N,LDO_extra2*%
X104842893Y-77127893D03*
%TO.P,U5,14,ADJ3*%
%TO.N,Net-(R26-Pad2)*%
X104842893Y-77777893D03*
%TO.P,U5,15,ADJ1*%
%TO.N,Net-(R13-Pad1)*%
X104842893Y-78427893D03*
%TO.P,U5,16,VOUT1_2*%
%TO.N,2V5*%
X104842893Y-79077893D03*
D11*
%TO.P,U5,17,GND_3*%
%TO.N,GND*%
X102942893Y-78102893D03*
%TD*%
D12*
%TO.P,U6,1,-IN1*%
%TO.N,Net-(R16-Pad1)*%
X92520393Y-79730393D03*
%TO.P,U6,2,RG1_1*%
%TO.N,Net-(R15-Pad1)*%
X92520393Y-79080393D03*
%TO.P,U6,3,RG1_2*%
%TO.N,Net-(R15-Pad2)*%
X92520393Y-78430393D03*
%TO.P,U6,4,+IN1*%
%TO.N,DAC_PL2*%
X92520393Y-77780393D03*
D13*
%TO.P,U6,5,+VS_1*%
%TO.N,13V*%
X93445393Y-76855393D03*
%TO.P,U6,6,REF1*%
%TO.N,GND*%
X94095393Y-76855393D03*
%TO.P,U6,7,REF2*%
X94745393Y-76855393D03*
%TO.P,U6,8,-VS_1*%
X95395393Y-76855393D03*
D12*
%TO.P,U6,9,+IN2*%
%TO.N,RSSI*%
X96320393Y-77780393D03*
%TO.P,U6,10,RG2_1*%
%TO.N,Net-(R18-Pad2)*%
X96320393Y-78430393D03*
%TO.P,U6,11,RG2_2*%
%TO.N,Net-(R18-Pad1)*%
X96320393Y-79080393D03*
%TO.P,U6,12,-IN2*%
%TO.N,Net-(R19-Pad1)*%
X96320393Y-79730393D03*
D13*
%TO.P,U6,13,-VS_2*%
%TO.N,GND*%
X95395393Y-80655393D03*
%TO.P,U6,14,OUT2*%
%TO.N,ADC_PL2*%
X94745393Y-80655393D03*
%TO.P,U6,15,OUT1*%
%TO.N,Vtune2*%
X94095393Y-80655393D03*
%TO.P,U6,16,+VS_2*%
%TO.N,13V*%
X93445393Y-80655393D03*
D11*
%TO.P,U6,17,EP*%
X94420393Y-78755393D03*
%TD*%
D14*
%TO.P,J2,1,Pin_1*%
%TO.N,LDO_extra1*%
X119500000Y-68200000D03*
D15*
%TO.P,J2,2,Pin_2*%
%TO.N,LDO_extra2*%
X119500000Y-70740000D03*
%TO.P,J2,3,Pin_3*%
%TO.N,2V7*%
X119500000Y-73280000D03*
%TD*%
D14*
%TO.P,J1,1,Pin_1*%
%TO.N,SDA*%
X91700000Y-55500000D03*
D15*
%TO.P,J1,2,Pin_2*%
%TO.N,SCL*%
X94240000Y-55500000D03*
%TO.P,J1,3,Pin_3*%
%TO.N,GND*%
X96780000Y-55500000D03*
%TO.P,J1,4,Pin_4*%
%TO.N,unconnected-(J1-Pad4)*%
X99320000Y-55500000D03*
%TO.P,J1,5,Pin_5*%
%TO.N,unconnected-(J1-Pad5)*%
X101860000Y-55500000D03*
%TO.P,J1,6,Pin_6*%
%TO.N,unconnected-(J1-Pad6)*%
X104400000Y-55500000D03*
%TO.P,J1,7,Pin_7*%
%TO.N,unconnected-(J1-Pad7)*%
X106940000Y-55500000D03*
%TO.P,J1,8,Pin_8*%
%TO.N,unconnected-(J1-Pad8)*%
X109480000Y-55500000D03*
%TO.P,J1,9,Pin_9*%
%TO.N,unconnected-(J1-Pad9)*%
X112020000Y-55500000D03*
%TO.P,J1,10,Pin_10*%
%TO.N,unconnected-(J1-Pad10)*%
X114560000Y-55500000D03*
%TD*%
D14*
%TO.P,J3,1,Pin_1*%
%TO.N,Vtune1*%
X91569997Y-88500001D03*
D15*
%TO.P,J3,2,Pin_2*%
%TO.N,2V75*%
X94109997Y-88500001D03*
%TO.P,J3,3,Pin_3*%
%TO.N,Vtune2*%
X96649997Y-88500001D03*
%TO.P,J3,4,Pin_4*%
%TO.N,2V5*%
X99189997Y-88500001D03*
%TO.P,J3,5,Pin_5*%
%TO.N,P{slash}L power*%
X101729997Y-88500001D03*
%TO.P,J3,6,Pin_6*%
%TO.N,LEE1_Vcc*%
X104269997Y-88500001D03*
%TO.P,J3,7,Pin_7*%
%TO.N,LEE2_Vcc*%
X106809997Y-88500001D03*
%TO.P,J3,8,Pin_8*%
%TO.N,3V*%
X109349997Y-88500001D03*
%TO.P,J3,9,Pin_9*%
%TO.N,RSSI*%
X111889997Y-88500001D03*
%TO.P,J3,10,Pin_10*%
%TO.N,GND*%
X114429997Y-88500001D03*
%TD*%
D14*
%TO.P,J4,1,Pin_1*%
%TO.N,3V*%
X86500000Y-60500000D03*
D15*
%TO.P,J4,2,Pin_2*%
%TO.N,ADC_PL2*%
X86500000Y-63040000D03*
%TO.P,J4,3,Pin_3*%
%TO.N,DAC_PL2*%
X86500000Y-65580000D03*
%TD*%
D16*
%TO.P,C4,1*%
%TO.N,Net-(C4-Pad1)*%
X100569904Y-66879593D03*
%TO.P,C4,2*%
%TO.N,GND*%
X100569904Y-65154593D03*
%TD*%
D17*
%TO.P,R15,1*%
%TO.N,Net-(R15-Pad1)*%
X90982893Y-79617893D03*
%TO.P,R15,2*%
%TO.N,Net-(R15-Pad2)*%
X90982893Y-77792893D03*
%TD*%
D18*
%TO.P,R7,2*%
%TO.N,3V*%
X115005393Y-79977893D03*
%TO.P,R7,1*%
%TO.N,Net-(R7-Pad1)*%
X115005393Y-78152893D03*
%TD*%
D19*
%TO.P,C15,2*%
%TO.N,GND*%
X112730393Y-83232893D03*
%TO.P,C15,1*%
%TO.N,3V*%
X112730393Y-81507893D03*
%TD*%
D16*
%TO.P,C29,1*%
%TO.N,P{slash}L power*%
X111960393Y-73882893D03*
%TO.P,C29,2*%
%TO.N,GND*%
X111960393Y-72157893D03*
%TD*%
D19*
%TO.P,C32,1*%
%TO.N,P{slash}L power*%
X103322893Y-81600393D03*
%TO.P,C32,2*%
%TO.N,GND*%
X103322893Y-83325393D03*
%TD*%
D18*
%TO.P,R16,1*%
%TO.N,Net-(R16-Pad1)*%
X90970393Y-81162893D03*
%TO.P,R16,2*%
%TO.N,GND*%
X90970393Y-82987893D03*
%TD*%
D17*
%TO.P,R3,1*%
%TO.N,LEE2_Vcc*%
X113272893Y-68352893D03*
%TO.P,R3,2*%
%TO.N,Net-(R3-Pad2)*%
X113272893Y-66527893D03*
%TD*%
D20*
%TO.P,C5,1*%
%TO.N,P{slash}L power*%
X113080393Y-63200393D03*
%TO.P,C5,2*%
%TO.N,GND*%
X114805393Y-63200393D03*
%TD*%
D18*
%TO.P,R19,1*%
%TO.N,Net-(R19-Pad1)*%
X97870393Y-81152893D03*
%TO.P,R19,2*%
%TO.N,GND*%
X97870393Y-82977893D03*
%TD*%
D20*
%TO.P,C6,1*%
%TO.N,Net-(C6-Pad1)*%
X113330393Y-65000393D03*
%TO.P,C6,2*%
%TO.N,GND*%
X115055393Y-65000393D03*
%TD*%
D21*
%TO.P,R21,2*%
%TO.N,Vtune1*%
X92872893Y-73393788D03*
%TO.P,R21,1*%
%TO.N,P{slash}L power*%
X91047893Y-73393788D03*
%TD*%
D17*
%TO.P,R14,2*%
%TO.N,Net-(R13-Pad1)*%
X106392893Y-82240393D03*
%TO.P,R14,1*%
%TO.N,GND*%
X106392893Y-84065393D03*
%TD*%
D22*
%TO.P,C14,2*%
%TO.N,GND*%
X110180393Y-73022893D03*
%TO.P,C14,1*%
%TO.N,Net-(C14-Pad1)*%
X110180393Y-74157893D03*
%TD*%
D19*
%TO.P,C13,2*%
%TO.N,GND*%
X111190393Y-83232893D03*
%TO.P,C13,1*%
%TO.N,P{slash}L power*%
X111190393Y-81507893D03*
%TD*%
D17*
%TO.P,R9,2*%
%TO.N,Net-(R10-Pad1)*%
X108125393Y-78832893D03*
%TO.P,R9,1*%
%TO.N,2V7*%
X108125393Y-80657893D03*
%TD*%
D23*
%TO.P,C7,1*%
%TO.N,LEE2_Vcc*%
X111692893Y-68480393D03*
%TO.P,C7,2*%
%TO.N,GND*%
X109967893Y-68480393D03*
%TD*%
%TO.P,C11,1*%
%TO.N,13V*%
X94685393Y-68432893D03*
%TO.P,C11,2*%
%TO.N,GND*%
X92960393Y-68432893D03*
%TD*%
D17*
%TO.P,R17,1*%
%TO.N,P{slash}L power*%
X92500393Y-84037893D03*
%TO.P,R17,2*%
%TO.N,Net-(R16-Pad1)*%
X92500393Y-82212893D03*
%TD*%
D23*
%TO.P,C30,1*%
%TO.N,P{slash}L power*%
X104315393Y-74652893D03*
%TO.P,C30,2*%
%TO.N,GND*%
X102590393Y-74652893D03*
%TD*%
D18*
%TO.P,R24,1*%
%TO.N,Net-(R24-Pad1)*%
X99472893Y-78220393D03*
%TO.P,R24,2*%
%TO.N,LDO_extra1*%
X99472893Y-80045393D03*
%TD*%
D20*
%TO.P,C2,1*%
%TO.N,Net-(C2-Pad1)*%
X104817404Y-65017093D03*
%TO.P,C2,2*%
%TO.N,GND*%
X106542404Y-65017093D03*
%TD*%
D19*
%TO.P,C28,2*%
%TO.N,GND*%
X109650393Y-82602893D03*
%TO.P,C28,1*%
%TO.N,P{slash}L power*%
X109650393Y-80877893D03*
%TD*%
D20*
%TO.P,C10,1*%
%TO.N,Net-(C10-Pad1)*%
X96335393Y-65042893D03*
%TO.P,C10,2*%
%TO.N,GND*%
X98060393Y-65042893D03*
%TD*%
D23*
%TO.P,C23,1*%
%TO.N,Vtune1*%
X92822893Y-70893788D03*
%TO.P,C23,2*%
%TO.N,GND*%
X91097893Y-70893788D03*
%TD*%
D17*
%TO.P,R1,1*%
%TO.N,LEE1_Vcc*%
X104759904Y-68369593D03*
%TO.P,R1,2*%
%TO.N,Net-(R1-Pad2)*%
X104759904Y-66544593D03*
%TD*%
D24*
%TO.P,L3,1,1*%
%TO.N,P{slash}L power*%
X94069082Y-61502898D03*
%TO.P,L3,2,2*%
%TO.N,Net-(L3-Pad2)*%
X91376682Y-61502898D03*
%TD*%
D18*
%TO.P,R6,1*%
%TO.N,Net-(R5-Pad2)*%
X97797893Y-66570393D03*
%TO.P,R6,2*%
%TO.N,GND*%
X97797893Y-68395393D03*
%TD*%
D22*
%TO.P,C19,1*%
%TO.N,Net-(C19-Pad1)*%
X100752893Y-74870393D03*
%TO.P,C19,2*%
%TO.N,GND*%
X100752893Y-73735393D03*
%TD*%
D23*
%TO.P,C3,1*%
%TO.N,LEE1_Vcc*%
X103169205Y-68477093D03*
%TO.P,C3,2*%
%TO.N,GND*%
X101444205Y-68477093D03*
%TD*%
D17*
%TO.P,R20,1*%
%TO.N,P{slash}L power*%
X96350393Y-84027893D03*
%TO.P,R20,2*%
%TO.N,Net-(R19-Pad1)*%
X96350393Y-82202893D03*
%TD*%
D20*
%TO.P,C1,1*%
%TO.N,P{slash}L power*%
X104567404Y-63169693D03*
%TO.P,C1,2*%
%TO.N,GND*%
X106292404Y-63169693D03*
%TD*%
D24*
%TO.P,L2,1,1*%
%TO.N,P{slash}L power*%
X111061580Y-61530381D03*
%TO.P,L2,2,2*%
%TO.N,Net-(L2-Pad2)*%
X108369180Y-61530381D03*
%TD*%
D20*
%TO.P,C24,1*%
%TO.N,P{slash}L power*%
X104567404Y-61647093D03*
%TO.P,C24,2*%
%TO.N,GND*%
X106292404Y-61647093D03*
%TD*%
D17*
%TO.P,R10,2*%
%TO.N,GND*%
X108125393Y-75472893D03*
%TO.P,R10,1*%
%TO.N,Net-(R10-Pad1)*%
X108125393Y-77297893D03*
%TD*%
D19*
%TO.P,C31,2*%
%TO.N,GND*%
X99472893Y-83355393D03*
%TO.P,C31,1*%
%TO.N,LDO_extra1*%
X99472893Y-81630393D03*
%TD*%
D17*
%TO.P,R18,1*%
%TO.N,Net-(R18-Pad1)*%
X97862893Y-79617893D03*
%TO.P,R18,2*%
%TO.N,Net-(R18-Pad2)*%
X97862893Y-77792893D03*
%TD*%
D18*
%TO.P,R26,1*%
%TO.N,LDO_extra2*%
X106382893Y-75500393D03*
%TO.P,R26,2*%
%TO.N,Net-(R26-Pad2)*%
X106382893Y-77325393D03*
%TD*%
D19*
%TO.P,C20,1*%
%TO.N,2V5*%
X104852893Y-81600393D03*
%TO.P,C20,2*%
%TO.N,GND*%
X104852893Y-83325393D03*
%TD*%
D16*
%TO.P,C16,2*%
%TO.N,GND*%
X113490393Y-72157893D03*
%TO.P,C16,1*%
%TO.N,2V75*%
X113490393Y-73882893D03*
%TD*%
D23*
%TO.P,C26,1*%
%TO.N,13V*%
X92765393Y-75312893D03*
%TO.P,C26,2*%
%TO.N,GND*%
X91040393Y-75312893D03*
%TD*%
D16*
%TO.P,C8,1*%
%TO.N,Net-(C8-Pad1)*%
X109082893Y-66862893D03*
%TO.P,C8,2*%
%TO.N,GND*%
X109082893Y-65137893D03*
%TD*%
D17*
%TO.P,R8,2*%
%TO.N,Net-(R7-Pad1)*%
X115010393Y-81517893D03*
%TO.P,R8,1*%
%TO.N,GND*%
X115010393Y-83342893D03*
%TD*%
D25*
%TO.P,R23,1*%
%TO.N,Vtune1*%
X93107893Y-72143788D03*
%TO.P,R23,2*%
%TO.N,GND*%
X91912893Y-72143788D03*
%TD*%
D19*
%TO.P,C18,1*%
%TO.N,P{slash}L power*%
X101772893Y-81600393D03*
%TO.P,C18,2*%
%TO.N,GND*%
X101772893Y-83325393D03*
%TD*%
D18*
%TO.P,R12,2*%
%TO.N,Net-(R11-Pad1)*%
X115010393Y-73262893D03*
%TO.P,R12,1*%
%TO.N,GND*%
X115010393Y-71437893D03*
%TD*%
D17*
%TO.P,R5,1*%
%TO.N,13V*%
X96277893Y-68395393D03*
%TO.P,R5,2*%
%TO.N,Net-(R5-Pad2)*%
X96277893Y-66570393D03*
%TD*%
D20*
%TO.P,C9,1*%
%TO.N,P{slash}L power*%
X96092893Y-63182893D03*
%TO.P,C9,2*%
%TO.N,GND*%
X97817893Y-63182893D03*
%TD*%
D19*
%TO.P,C17,2*%
%TO.N,GND*%
X108130393Y-83972893D03*
%TO.P,C17,1*%
%TO.N,2V7*%
X108130393Y-82247893D03*
%TD*%
D20*
%TO.P,C25,1*%
%TO.N,P{slash}L power*%
X113080393Y-61680393D03*
%TO.P,C25,2*%
%TO.N,GND*%
X114805393Y-61680393D03*
%TD*%
D26*
%TO.P,U1,1,SW*%
%TO.N,Net-(L1-Pad2)*%
X101989898Y-64752912D03*
%TO.P,U1,2,VIN*%
%TO.N,P{slash}L power*%
X102439897Y-64752912D03*
%TO.P,U1,3,GND*%
%TO.N,GND*%
X102889899Y-64752912D03*
%TO.P,U1,4,BYP*%
%TO.N,Net-(C2-Pad1)*%
X103339898Y-64752912D03*
%TO.P,U1,5,FB*%
%TO.N,Net-(R1-Pad2)*%
X103339898Y-66886512D03*
%TO.P,U1,6,LDOOUT*%
%TO.N,LEE1_Vcc*%
X102889899Y-66886512D03*
%TO.P,U1,7,EN*%
%TO.N,P{slash}L power*%
X102439897Y-66886512D03*
%TO.P,U1,8,BSTOUT*%
%TO.N,Net-(C4-Pad1)*%
X101989898Y-66886512D03*
D27*
%TO.P,U1,9,GND*%
%TO.N,GND*%
X102664898Y-65819712D03*
%TD*%
D23*
%TO.P,C33,1*%
%TO.N,LDO_extra2*%
X104312500Y-73100000D03*
%TO.P,C33,2*%
%TO.N,GND*%
X102587500Y-73100000D03*
%TD*%
D18*
%TO.P,R2,1*%
%TO.N,Net-(R1-Pad2)*%
X106279904Y-66544593D03*
%TO.P,R2,2*%
%TO.N,GND*%
X106279904Y-68369593D03*
%TD*%
D28*
%TO.P,R27,1*%
%TO.N,GND*%
X108275393Y-73932893D03*
%TO.P,R27,2*%
%TO.N,Net-(R26-Pad2)*%
X106450393Y-73932893D03*
%TD*%
D18*
%TO.P,R4,1*%
%TO.N,Net-(R3-Pad2)*%
X114792893Y-66527893D03*
%TO.P,R4,2*%
%TO.N,GND*%
X114792893Y-68352893D03*
%TD*%
D29*
%TO.P,C22,2*%
%TO.N,GND*%
X95287893Y-75050000D03*
%TO.P,C22,1*%
%TO.N,13V*%
X94152893Y-75050000D03*
%TD*%
D20*
%TO.P,C27,1*%
%TO.N,P{slash}L power*%
X96092893Y-61672893D03*
%TO.P,C27,2*%
%TO.N,GND*%
X97817893Y-61672893D03*
%TD*%
D16*
%TO.P,C12,1*%
%TO.N,Net-(C12-Pad1)*%
X92087893Y-66835393D03*
%TO.P,C12,2*%
%TO.N,GND*%
X92087893Y-65110393D03*
%TD*%
D26*
%TO.P,U2,1,SW*%
%TO.N,Net-(L2-Pad2)*%
X110503354Y-64733608D03*
%TO.P,U2,2,VIN*%
%TO.N,P{slash}L power*%
X110953353Y-64733608D03*
%TO.P,U2,3,GND*%
%TO.N,GND*%
X111403355Y-64733608D03*
%TO.P,U2,4,BYP*%
%TO.N,Net-(C6-Pad1)*%
X111853354Y-64733608D03*
%TO.P,U2,5,FB*%
%TO.N,Net-(R3-Pad2)*%
X111853354Y-66867208D03*
%TO.P,U2,6,LDOOUT*%
%TO.N,LEE2_Vcc*%
X111403355Y-66867208D03*
%TO.P,U2,7,EN*%
%TO.N,P{slash}L power*%
X110953353Y-66867208D03*
%TO.P,U2,8,BSTOUT*%
%TO.N,Net-(C8-Pad1)*%
X110503354Y-66867208D03*
D27*
%TO.P,U2,9,GND*%
%TO.N,GND*%
X111178354Y-65800408D03*
%TD*%
D25*
%TO.P,R22,1*%
%TO.N,13V*%
X95397500Y-72150000D03*
%TO.P,R22,2*%
%TO.N,Vtune1*%
X94202500Y-72150000D03*
%TD*%
D30*
%TO.P,C21,1*%
%TO.N,13V*%
X93760393Y-81987893D03*
%TO.P,C21,2*%
%TO.N,GND*%
X93760393Y-83122893D03*
%TD*%
D24*
%TO.P,L1,1,1*%
%TO.N,P{slash}L power*%
X102545672Y-61537188D03*
%TO.P,L1,2,2*%
%TO.N,Net-(L1-Pad2)*%
X99853272Y-61537188D03*
%TD*%
D18*
%TO.P,R25,1*%
%TO.N,GND*%
X99472893Y-74850393D03*
%TO.P,R25,2*%
%TO.N,Net-(R24-Pad1)*%
X99472893Y-76675393D03*
%TD*%
D26*
%TO.P,U3,1,SW*%
%TO.N,Net-(L3-Pad2)*%
X93508330Y-64716107D03*
%TO.P,U3,2,VIN*%
%TO.N,P{slash}L power*%
X93958329Y-64716107D03*
%TO.P,U3,3,GND*%
%TO.N,GND*%
X94408331Y-64716107D03*
%TO.P,U3,4,BYP*%
%TO.N,Net-(C10-Pad1)*%
X94858330Y-64716107D03*
%TO.P,U3,5,FB*%
%TO.N,Net-(R5-Pad2)*%
X94858330Y-66849707D03*
%TO.P,U3,6,LDOOUT*%
%TO.N,13V*%
X94408331Y-66849707D03*
%TO.P,U3,7,EN*%
%TO.N,P{slash}L power*%
X93958329Y-66849707D03*
%TO.P,U3,8,BSTOUT*%
%TO.N,Net-(C12-Pad1)*%
X93508330Y-66849707D03*
D27*
%TO.P,U3,9,GND*%
%TO.N,GND*%
X94183330Y-65782907D03*
%TD*%
D17*
%TO.P,R11,2*%
%TO.N,2V75*%
X115005393Y-74792893D03*
%TO.P,R11,1*%
%TO.N,Net-(R11-Pad1)*%
X115005393Y-76617893D03*
%TD*%
D18*
%TO.P,R13,1*%
%TO.N,Net-(R13-Pad1)*%
X106382893Y-78870393D03*
%TO.P,R13,2*%
%TO.N,2V5*%
X106382893Y-80695393D03*
%TD*%
D31*
%TO.N,GND*%
X117300000Y-86300000D03*
X117300000Y-84938096D03*
X117300000Y-75404768D03*
X117300000Y-69957152D03*
X117300000Y-82214288D03*
X117300000Y-60423824D03*
X117300000Y-67233344D03*
X117300000Y-74042864D03*
X117300000Y-61785728D03*
X117300000Y-83576192D03*
X117300000Y-65871440D03*
X117300000Y-79490480D03*
X117300000Y-78128576D03*
X117300000Y-64509536D03*
X117300000Y-80852384D03*
X117300000Y-63147632D03*
X117300000Y-72680960D03*
X117300000Y-59061920D03*
X90061904Y-86300000D03*
X105042848Y-86300000D03*
X92785712Y-86300000D03*
X114576176Y-86300000D03*
X107766656Y-86300000D03*
X100957136Y-86300000D03*
X113214272Y-86300000D03*
X91423808Y-86300000D03*
X98233328Y-86300000D03*
X109128560Y-86300000D03*
X96871424Y-86300000D03*
X110490464Y-86300000D03*
X94147616Y-86300000D03*
X88700000Y-58961904D03*
X88700000Y-68495232D03*
X88700000Y-61685712D03*
X88700000Y-83476176D03*
X88700000Y-76666656D03*
X88700000Y-69857136D03*
X88700000Y-82114272D03*
X88700000Y-75304752D03*
X88700000Y-60323808D03*
X88700000Y-67133328D03*
X88700000Y-78028560D03*
X88700000Y-65771424D03*
X88700000Y-86300000D03*
X88700000Y-79390464D03*
X88700000Y-72580944D03*
X88700000Y-80752368D03*
X88700000Y-71219040D03*
X88700000Y-84838080D03*
X96300000Y-69800000D03*
%TO.N,LDO_extra1*%
X108300000Y-71400000D03*
X105700000Y-71400000D03*
%TO.N,LDO_extra2*%
X108300000Y-72400000D03*
%TO.N,GND*%
X111642893Y-65800000D03*
X111100000Y-65800000D03*
X110450000Y-65800000D03*
X103192893Y-65800000D03*
X102650000Y-65800000D03*
X102000000Y-65800000D03*
%TO.N,Vtune1*%
X92800000Y-74200000D03*
%TO.N,RSSI*%
X98500000Y-76800000D03*
%TO.N,GND*%
X98500000Y-74885798D03*
X107682893Y-64932893D03*
X92100000Y-69700000D03*
X109650393Y-83500393D03*
X98233328Y-57600000D03*
X94642893Y-65800000D03*
X106274455Y-60569693D03*
X110950000Y-73000000D03*
X91423808Y-57600000D03*
X106404752Y-57600000D03*
X101700000Y-73100000D03*
X107682893Y-65622893D03*
X104150000Y-84050000D03*
X102350000Y-84052893D03*
X114576176Y-57600000D03*
X99450000Y-84100000D03*
X103451769Y-75304017D03*
X99595232Y-57600000D03*
X100957136Y-57600000D03*
X90982893Y-69672893D03*
X100569455Y-64272193D03*
X113490393Y-71250393D03*
X107766656Y-57600000D03*
X107682893Y-66312893D03*
X99242893Y-65632893D03*
X113214272Y-57600000D03*
X95980393Y-80655393D03*
X92785712Y-57600000D03*
X105042848Y-57600000D03*
X90740393Y-84025393D03*
X90061904Y-57600000D03*
X99242893Y-64942893D03*
X115000000Y-84000000D03*
X97807893Y-60672893D03*
X115900000Y-71450000D03*
X111190393Y-84060393D03*
X115938080Y-57600000D03*
X112730393Y-84110393D03*
X91000000Y-74500000D03*
X91300000Y-72150000D03*
X98070393Y-84005393D03*
X107662893Y-68340000D03*
X111852368Y-57600000D03*
X90982893Y-68292893D03*
X99242893Y-66322893D03*
X108300000Y-73200000D03*
X115362893Y-60032893D03*
X117300000Y-57600000D03*
X102319040Y-57600000D03*
X103300000Y-84050000D03*
X108650393Y-76340393D03*
X93750000Y-83700000D03*
X94147616Y-57600000D03*
X103680944Y-57600000D03*
X106900000Y-84750000D03*
X88700000Y-57600000D03*
X101746500Y-74600000D03*
X114778343Y-60625393D03*
X90300000Y-70900000D03*
X115000000Y-69850000D03*
X114582893Y-60032893D03*
X94750000Y-75900000D03*
X100800000Y-73100000D03*
X92088855Y-64119181D03*
X111250000Y-74750000D03*
X109080393Y-64160393D03*
X93450000Y-65800000D03*
X110490464Y-57600000D03*
X99212893Y-68342893D03*
X96871424Y-57600000D03*
X109128560Y-57600000D03*
X107662893Y-67650000D03*
X107600000Y-84750000D03*
X95509520Y-57600000D03*
X94100000Y-65800000D03*
X113500000Y-69850000D03*
%TO.N,LEE1_Vcc*%
X104700000Y-69100000D03*
%TO.N,LEE2_Vcc*%
X108450000Y-69400000D03*
%TO.N,3V*%
X112730393Y-80600000D03*
%TO.N,2V75*%
X112750393Y-73020393D03*
%TO.N,2V7*%
X109400000Y-79285393D03*
%TO.N,2V5*%
X104535393Y-80620393D03*
%TO.N,P{slash}L power*%
X91570393Y-84035393D03*
X112695393Y-60583726D03*
X111820393Y-82270393D03*
X104749463Y-60580521D03*
X104112893Y-82462893D03*
X104169463Y-60007187D03*
X95642893Y-59979559D03*
X110830393Y-67820393D03*
X104169463Y-60590520D03*
X96222893Y-60552893D03*
X104749463Y-59997187D03*
X109030393Y-81610393D03*
X112695393Y-60000393D03*
X111150000Y-73840393D03*
X93812893Y-67802893D03*
X102296705Y-67837093D03*
X95642893Y-60562892D03*
X101000000Y-81600000D03*
X96350000Y-84700000D03*
X113275393Y-59990393D03*
X98500000Y-75800000D03*
X91850000Y-73400000D03*
X113275393Y-60573727D03*
X96222893Y-59969559D03*
X104572893Y-76202893D03*
X109665393Y-75460393D03*
%TO.N,ADC_PL2*%
X95260393Y-81665393D03*
%TO.N,DAC_PL2*%
X90950000Y-76650000D03*
%TO.N,LDO_extra1*%
X100900393Y-80045393D03*
%TO.N,Vtune2*%
X94800000Y-83400000D03*
%TD*%
D32*
%TO.N,13V*%
X94572893Y-70100000D02*
X94572893Y-68545393D01*
%TO.N,GND*%
X95300000Y-75350000D02*
X95300000Y-75020393D01*
X94750000Y-75900000D02*
X95300000Y-75350000D01*
D33*
%TO.N,DAC_PL2*%
X91390000Y-76650000D02*
X92520393Y-77780393D01*
X90950000Y-76650000D02*
X91390000Y-76650000D01*
D32*
%TO.N,P{slash}L power*%
X111917893Y-73840393D02*
X111150000Y-73840393D01*
D33*
%TO.N,GND*%
X111250000Y-74750000D02*
X111240393Y-74759607D01*
X111240393Y-74759607D02*
X111240393Y-75485393D01*
D32*
X111960393Y-72157893D02*
X113490393Y-72157893D01*
%TO.N,LEE2_Vcc*%
X108459393Y-69409393D02*
X110763893Y-69409393D01*
X108450000Y-69400000D02*
X108459393Y-69409393D01*
X110763893Y-69409393D02*
X111692893Y-68480393D01*
%TO.N,GND*%
X110950000Y-73000000D02*
X110203286Y-73000000D01*
X115887893Y-71437893D02*
X115900000Y-71450000D01*
X115010393Y-71437893D02*
X115887893Y-71437893D01*
%TO.N,LDO_extra1*%
X105700000Y-71400000D02*
X108300000Y-71400000D01*
%TO.N,LDO_extra2*%
X104750000Y-72400000D02*
X108300000Y-72400000D01*
X104312500Y-73100000D02*
X104312500Y-72837500D01*
X104312500Y-72837500D02*
X104750000Y-72400000D01*
%TO.N,GND*%
X101716893Y-73083107D02*
X102570607Y-73083107D01*
X101700000Y-73100000D02*
X101716893Y-73083107D01*
%TO.N,P{slash}L power*%
X96350000Y-84700000D02*
X96350000Y-84028286D01*
X96350000Y-84028286D02*
X96350393Y-84027893D01*
%TO.N,GND*%
X108130393Y-84219607D02*
X108130393Y-83972893D01*
X107600000Y-84750000D02*
X108130393Y-84219607D01*
X106392893Y-84242893D02*
X106392893Y-84065393D01*
X106900000Y-84750000D02*
X106392893Y-84242893D01*
X104150000Y-84028286D02*
X104852893Y-83325393D01*
X102350000Y-84052893D02*
X101772893Y-83475786D01*
X101772893Y-83475786D02*
X101772893Y-83325393D01*
X115010393Y-83989607D02*
X115010393Y-83342893D01*
X115000000Y-84000000D02*
X115010393Y-83989607D01*
D33*
%TO.N,RSSI*%
X98500000Y-76800000D02*
X97295786Y-76800000D01*
X97295786Y-76800000D02*
X96320393Y-77775393D01*
D32*
%TO.N,GND*%
X94750000Y-76850786D02*
X94745393Y-76855393D01*
X94750000Y-75900000D02*
X94750000Y-76850786D01*
X95395393Y-76855393D02*
X94160413Y-76855393D01*
%TO.N,13V*%
X93028286Y-75050000D02*
X92765393Y-75312893D01*
X94152893Y-75050000D02*
X93028286Y-75050000D01*
X92765393Y-76175393D02*
X93445393Y-76855393D01*
X92765393Y-75312893D02*
X92765393Y-76175393D01*
X94135393Y-75032500D02*
X94152893Y-75050000D01*
X95397500Y-70967500D02*
X95397500Y-72402500D01*
X95397500Y-72402500D02*
X94135393Y-73664607D01*
X94572893Y-70142893D02*
X95397500Y-70967500D01*
X94135393Y-73664607D02*
X94135393Y-75032500D01*
D33*
%TO.N,P{slash}L power*%
X101772500Y-81600000D02*
X101772893Y-81600393D01*
X101000000Y-81600000D02*
X101772500Y-81600000D01*
D32*
%TO.N,GND*%
X93750000Y-83133286D02*
X93760393Y-83122893D01*
X93750000Y-83700000D02*
X93750000Y-83133286D01*
X99450000Y-83378286D02*
X99472893Y-83355393D01*
X99450000Y-84100000D02*
X99450000Y-83378286D01*
X103300000Y-83348286D02*
X103322893Y-83325393D01*
X103300000Y-84050000D02*
X103300000Y-83348286D01*
D34*
%TO.N,Net-(R11-Pad1)*%
X115950000Y-75673286D02*
X115005393Y-76617893D01*
X115010393Y-73262893D02*
X115950000Y-74202500D01*
X115950000Y-74202500D02*
X115950000Y-75673286D01*
D33*
%TO.N,LEE1_Vcc*%
X104700000Y-69100000D02*
X104700000Y-68429497D01*
D32*
%TO.N,LDO_extra2*%
X104842893Y-77040393D02*
X106382893Y-75500393D01*
X105306893Y-76493107D02*
X105300000Y-76500000D01*
X105306893Y-74056893D02*
X105306893Y-76493107D01*
X104350000Y-73100000D02*
X105306893Y-74056893D01*
X104312500Y-73100000D02*
X104350000Y-73100000D01*
%TO.N,P{slash}L power*%
X91054105Y-73400000D02*
X91047893Y-73393788D01*
X91850000Y-73400000D02*
X91054105Y-73400000D01*
%TO.N,GND*%
X91906681Y-72150000D02*
X91912893Y-72143788D01*
X91300000Y-72150000D02*
X91906681Y-72150000D01*
X91091681Y-70900000D02*
X91097893Y-70893788D01*
X90300000Y-70900000D02*
X91091681Y-70900000D01*
D35*
X102889906Y-65594692D02*
X102664905Y-65819693D01*
D32*
X93450000Y-65800000D02*
X93467107Y-65782893D01*
X93467107Y-65782893D02*
X94183343Y-65782893D01*
X92767893Y-65782893D02*
X92105393Y-65120393D01*
X93450000Y-65800000D02*
X93432893Y-65782893D01*
X93432893Y-65782893D02*
X92767893Y-65782893D01*
D33*
%TO.N,Vtune1*%
X92800000Y-73466681D02*
X92872893Y-73393788D01*
X92800000Y-74200000D02*
X92800000Y-73466681D01*
D32*
%TO.N,GND*%
X100800000Y-73688286D02*
X100752893Y-73735393D01*
X100800000Y-73100000D02*
X100800000Y-73688286D01*
X108275393Y-73224607D02*
X108275393Y-73932893D01*
X108300000Y-73200000D02*
X108275393Y-73224607D01*
X91000000Y-75272500D02*
X91040393Y-75312893D01*
X91000000Y-74500000D02*
X91000000Y-75272500D01*
D33*
%TO.N,P{slash}L power*%
X100307873Y-75797873D02*
X101042893Y-76532893D01*
X98975466Y-75797873D02*
X100307873Y-75797873D01*
X98500000Y-75800000D02*
X98973339Y-75800000D01*
X98973339Y-75800000D02*
X98975466Y-75797873D01*
X101042893Y-76532893D02*
X101042893Y-77127893D01*
D32*
%TO.N,GND*%
X99437488Y-74885798D02*
X99472893Y-74850393D01*
X98500000Y-74885798D02*
X99437488Y-74885798D01*
X100599455Y-65157193D02*
X101261955Y-65819693D01*
X109112893Y-65137893D02*
X109775393Y-65800393D01*
X112730393Y-83232893D02*
X112730393Y-84110393D01*
X114775393Y-60628343D02*
X114778343Y-60625393D01*
X114775393Y-61700393D02*
X114775393Y-60628343D01*
X108125393Y-75472893D02*
X108125393Y-75815393D01*
X101261955Y-65819693D02*
X101449455Y-65819693D01*
X102617893Y-76202893D02*
X102617893Y-77777893D01*
D35*
X102889906Y-64752893D02*
X102889906Y-65594692D01*
D32*
X102617893Y-77777893D02*
X102942893Y-78102893D01*
X103267893Y-75487893D02*
X103451769Y-75304017D01*
D35*
X94408344Y-65557892D02*
X94183343Y-65782893D01*
D32*
X100569904Y-65154593D02*
X100569904Y-64272642D01*
X98070393Y-83177893D02*
X98070393Y-84005393D01*
X106261955Y-60582193D02*
X106274455Y-60569693D01*
X101449455Y-65819693D02*
X101649455Y-65819693D01*
X102617893Y-76202893D02*
X103267893Y-76202893D01*
X101746500Y-74600000D02*
X102537500Y-74600000D01*
X109082893Y-64162893D02*
X109080393Y-64160393D01*
X111190393Y-83232893D02*
X111190393Y-84060393D01*
D35*
X111240393Y-75485393D02*
X111240393Y-77060393D01*
D32*
X111103343Y-65800393D02*
X111178343Y-65800393D01*
X90740393Y-83217893D02*
X90740393Y-84025393D01*
X106261955Y-61719693D02*
X106261955Y-60582193D01*
X97817893Y-60682893D02*
X97807893Y-60672893D01*
D35*
X111890393Y-77060393D02*
X111565393Y-77385393D01*
D32*
X102537500Y-74600000D02*
X102590393Y-74652893D01*
X109082893Y-65137893D02*
X109082893Y-64162893D01*
X103267893Y-76202893D02*
X103267893Y-75487893D01*
X95395393Y-80655393D02*
X95980393Y-80655393D01*
X110728343Y-65800393D02*
X111103343Y-65800393D01*
X92087893Y-64120143D02*
X92088855Y-64119181D01*
X100569904Y-64272642D02*
X100569455Y-64272193D01*
X97817893Y-61682893D02*
X97817893Y-60682893D01*
X108125393Y-75815393D02*
X108650393Y-76340393D01*
D33*
X111240393Y-75485393D02*
X111890393Y-75485393D01*
D32*
X100752893Y-73735393D02*
X100752893Y-73732893D01*
X97870393Y-82977893D02*
X98070393Y-83177893D01*
D35*
X111890393Y-75485393D02*
X111890393Y-77060393D01*
D32*
X109775393Y-65800393D02*
X110003343Y-65800393D01*
D35*
X94408344Y-64716093D02*
X94408344Y-65557892D01*
X111403344Y-64733593D02*
X111403344Y-65575392D01*
D32*
X106261955Y-63169693D02*
X106261955Y-63182193D01*
D35*
X111178343Y-65800393D02*
X111628343Y-65800393D01*
X111403344Y-65575392D02*
X111178343Y-65800393D01*
D32*
X110003343Y-65800393D02*
X110728343Y-65800393D01*
X113490393Y-72157893D02*
X113490393Y-71250393D01*
X101649455Y-65819693D02*
X102664905Y-65819693D01*
X103267893Y-76202893D02*
X103267893Y-77777893D01*
X92087893Y-65110393D02*
X92087893Y-64120143D01*
X97817893Y-63182893D02*
X97817893Y-63292893D01*
D35*
X111240393Y-77060393D02*
X111565393Y-77385393D01*
D32*
X109650393Y-82602893D02*
X109650393Y-83500393D01*
X90970393Y-82987893D02*
X90740393Y-83217893D01*
X103267893Y-77777893D02*
X102942893Y-78102893D01*
%TO.N,Net-(C2-Pad1)*%
X104736955Y-65069693D02*
X103656705Y-65069693D01*
X103656705Y-65069693D02*
X103470417Y-64883405D01*
%TO.N,LEE1_Vcc*%
X103169205Y-68477093D02*
X104652404Y-68477093D01*
D35*
X102889906Y-68197794D02*
X102889906Y-66886493D01*
%TO.N,Net-(C4-Pad1)*%
X101985605Y-66882193D02*
X101989905Y-66886493D01*
D32*
X100599455Y-66882193D02*
X101859393Y-66882193D01*
X101859393Y-66882193D02*
X101859393Y-66886493D01*
%TO.N,Net-(C6-Pad1)*%
X112303343Y-65050393D02*
X111986543Y-64733593D01*
X111986543Y-64733593D02*
X111983855Y-64733593D01*
X113300393Y-65050393D02*
X112303343Y-65050393D01*
%TO.N,LEE2_Vcc*%
X111692893Y-68480393D02*
X113145393Y-68480393D01*
D35*
X111403344Y-66867193D02*
X111403344Y-68190844D01*
D32*
%TO.N,Net-(C8-Pad1)*%
X110372831Y-66862893D02*
X110372831Y-66867193D01*
D35*
X110499043Y-66862893D02*
X110503343Y-66867193D01*
D32*
X109112893Y-66862893D02*
X110372831Y-66862893D01*
%TO.N,Net-(C10-Pad1)*%
X95225143Y-65082893D02*
X94988855Y-64846605D01*
X96292893Y-65082893D02*
X95225143Y-65082893D01*
%TO.N,13V*%
X94685393Y-68432893D02*
X96240393Y-68432893D01*
D35*
X94408344Y-66849693D02*
X94408344Y-68155844D01*
D33*
X93445393Y-77780393D02*
X93445393Y-76855393D01*
X94420393Y-78755393D02*
X93445393Y-77780393D01*
X94420393Y-78755393D02*
X93445393Y-79730393D01*
X93760393Y-81987893D02*
X93445393Y-81672893D01*
X93445393Y-79730393D02*
X93445393Y-80655393D01*
X93445393Y-81672893D02*
X93445393Y-80655393D01*
D32*
%TO.N,Net-(C12-Pad1)*%
X92105393Y-66845393D02*
X92109693Y-66849693D01*
X92109693Y-66849693D02*
X93377831Y-66849693D01*
D35*
X93504043Y-66845393D02*
X93508343Y-66849693D01*
D33*
%TO.N,Net-(C14-Pad1)*%
X110590393Y-75485393D02*
X110350382Y-75245382D01*
X110350382Y-75245382D02*
X110350382Y-74327882D01*
X110350382Y-74327882D02*
X110180393Y-74157893D01*
D32*
%TO.N,3V*%
X112540393Y-79285393D02*
X112972415Y-79285393D01*
X112730393Y-79475393D02*
X112540393Y-79285393D01*
X115005393Y-79977893D02*
X115005393Y-79900393D01*
X114965393Y-79947893D02*
X114965393Y-79860393D01*
X113465393Y-78792415D02*
X113465393Y-78360393D01*
X115005393Y-79900393D02*
X113465393Y-78360393D01*
X112730393Y-81507893D02*
X112730393Y-80600000D01*
X112602642Y-79285393D02*
X112540393Y-79285393D01*
X112730393Y-80600000D02*
X112730393Y-79475393D01*
X112972415Y-79285393D02*
X113465393Y-78792415D01*
%TO.N,2V75*%
X113490393Y-73760393D02*
X112750393Y-73020393D01*
X113465393Y-76332893D02*
X115005393Y-74792893D01*
X113490393Y-73882893D02*
X113490393Y-76385393D01*
X113490393Y-76385393D02*
X113465393Y-76410393D01*
X113465393Y-76410393D02*
X113465393Y-76332893D01*
%TO.N,2V7*%
X109400000Y-79291643D02*
X108125393Y-80566250D01*
X108125393Y-80657893D02*
X108125393Y-82242893D01*
X109400000Y-79285393D02*
X110590393Y-79285393D01*
X109400000Y-79285393D02*
X109400000Y-79291643D01*
X108130393Y-82247893D02*
X108097893Y-82247893D01*
X108125393Y-82242893D02*
X108130393Y-82247893D01*
D33*
%TO.N,Net-(C19-Pad1)*%
X100752893Y-74987893D02*
X101967893Y-76202893D01*
X100752893Y-74870393D02*
X100752893Y-74987893D01*
D32*
%TO.N,2V5*%
X104600893Y-80002893D02*
X104842893Y-79760893D01*
X104535393Y-80620393D02*
X103917893Y-80002893D01*
X104842893Y-79155393D02*
X106382893Y-80695393D01*
X104852893Y-80937893D02*
X104535393Y-80620393D01*
X104842893Y-79760893D02*
X104842893Y-79077893D01*
X103917893Y-80002893D02*
X104600893Y-80002893D01*
X104852893Y-81600393D02*
X104852893Y-80937893D01*
X104842893Y-79077893D02*
X104842893Y-79155393D01*
%TO.N,Vtune1*%
X93107893Y-72143788D02*
X94157893Y-72143788D01*
X93107893Y-72143788D02*
X93107893Y-71178788D01*
X93107893Y-71178788D02*
X92822893Y-70893788D01*
X93107893Y-72143788D02*
X93107893Y-73158788D01*
D36*
X92872893Y-73393788D02*
X92872893Y-73381288D01*
D32*
X93107893Y-73158788D02*
X92872893Y-73393788D01*
D33*
%TO.N,P{slash}L power*%
X103322893Y-81672893D02*
X104112893Y-82462893D01*
D35*
X110953342Y-64733593D02*
X110953342Y-61638644D01*
D33*
X103322893Y-81600393D02*
X103322893Y-81672893D01*
X103322893Y-81600393D02*
X103267893Y-81545393D01*
D35*
X102439904Y-64752893D02*
X102439904Y-61642946D01*
D33*
X101042893Y-77777893D02*
X101042893Y-77127893D01*
X111960393Y-73882893D02*
X112540393Y-74462893D01*
D32*
X104536955Y-63169693D02*
X104536955Y-61719693D01*
D33*
X103917893Y-76202893D02*
X104572893Y-76202893D01*
D32*
X111190393Y-81507893D02*
X111190393Y-81640393D01*
X109650393Y-80990393D02*
X109030393Y-81610393D01*
D35*
X93958342Y-61613644D02*
X94069093Y-61502893D01*
D32*
X109665393Y-76410393D02*
X109665393Y-75460393D01*
D35*
X102439904Y-61642946D02*
X102545663Y-61537187D01*
D33*
X109650393Y-80610393D02*
X109650393Y-80877893D01*
D32*
X91572893Y-84037893D02*
X91570393Y-84035393D01*
D33*
X111890393Y-80520393D02*
X111890393Y-79285393D01*
X101772893Y-81600393D02*
X102617893Y-80755393D01*
D35*
X93958342Y-67657444D02*
X93812893Y-67802893D01*
D33*
X101042893Y-78427893D02*
X101042893Y-77777893D01*
X102617893Y-80755393D02*
X102617893Y-80002893D01*
D35*
X110953342Y-61638644D02*
X111061593Y-61530393D01*
D32*
X109665393Y-77710393D02*
X109665393Y-77060393D01*
D33*
X111240393Y-79285393D02*
X111240393Y-80166393D01*
D35*
X93958342Y-64716093D02*
X93958342Y-61613644D01*
X93958342Y-66849693D02*
X93958342Y-67657444D01*
D33*
X111190393Y-81220393D02*
X111890393Y-80520393D01*
X111190393Y-81507893D02*
X111190393Y-81220393D01*
D32*
X92500393Y-84037893D02*
X91572893Y-84037893D01*
D35*
X102439904Y-66886493D02*
X102439904Y-67693894D01*
X102439904Y-67693894D02*
X102296705Y-67837093D01*
X110953342Y-66867193D02*
X110953342Y-67697444D01*
D33*
X103267893Y-81545393D02*
X103267893Y-80002893D01*
X111086393Y-80320393D02*
X109940393Y-80320393D01*
D35*
X110953342Y-67697444D02*
X110830393Y-67820393D01*
D33*
X109940393Y-80320393D02*
X109650393Y-80610393D01*
D32*
X109665393Y-77060393D02*
X109665393Y-76410393D01*
D33*
X104315393Y-75805393D02*
X104315393Y-74652893D01*
D36*
X104567404Y-61647093D02*
X104567404Y-63169693D01*
D33*
X112540393Y-74462893D02*
X112540393Y-75485393D01*
X111240393Y-80166393D02*
X111086393Y-80320393D01*
D32*
X111190393Y-81640393D02*
X111820393Y-82270393D01*
X109650393Y-80877893D02*
X109650393Y-80990393D01*
D33*
X103917893Y-76202893D02*
X104315393Y-75805393D01*
D34*
%TO.N,ADC_PL2*%
X94745393Y-81150393D02*
X95260393Y-81665393D01*
X94745393Y-80655393D02*
X94745393Y-81150393D01*
D33*
%TO.N,Net-(L1-Pad2)*%
X99853263Y-61537187D02*
X99853263Y-62477557D01*
X99853263Y-62477557D02*
X101922893Y-64547187D01*
X101922893Y-64547187D02*
X101922893Y-64752893D01*
%TO.N,Net-(L2-Pad2)*%
X108369193Y-62381293D02*
X110436331Y-64448431D01*
X108369193Y-61530393D02*
X108369193Y-62381293D01*
X110436331Y-64448431D02*
X110436331Y-64733593D01*
%TO.N,Net-(L3-Pad2)*%
X93441331Y-64418431D02*
X93441331Y-64716093D01*
X91376693Y-62353793D02*
X93441331Y-64418431D01*
X91376693Y-61502893D02*
X91376693Y-62353793D01*
D32*
%TO.N,Net-(R1-Pad2)*%
X104699455Y-66557193D02*
X103669205Y-66557193D01*
X104699454Y-66557187D02*
X106149463Y-66557187D01*
X103669205Y-66557193D02*
X103470417Y-66755981D01*
%TO.N,Net-(R3-Pad2)*%
X114662893Y-66537893D02*
X113212893Y-66537893D01*
X113212893Y-66537893D02*
X112315843Y-66537893D01*
X111986543Y-66867193D02*
X111983855Y-66867193D01*
X112315843Y-66537893D02*
X111986543Y-66867193D01*
%TO.N,Net-(R5-Pad2)*%
X96205393Y-66570393D02*
X95137643Y-66570393D01*
X95137643Y-66570393D02*
X94988855Y-66719181D01*
X96205393Y-66570393D02*
X97655393Y-66570393D01*
D34*
%TO.N,Net-(R7-Pad1)*%
X115806913Y-80721373D02*
X115010393Y-81517893D01*
X115806913Y-78954413D02*
X115806913Y-80721373D01*
X115005393Y-78152893D02*
X115806913Y-78954413D01*
D33*
X113465393Y-77710393D02*
X114562893Y-77710393D01*
X114562893Y-77710393D02*
X115005393Y-78152893D01*
D32*
%TO.N,Net-(R10-Pad1)*%
X108165393Y-78772893D02*
X108520373Y-78417913D01*
X108165393Y-77297893D02*
X108165393Y-78772893D01*
X108520373Y-78417913D02*
X109665393Y-78417913D01*
D33*
%TO.N,Net-(R11-Pad1)*%
X114562893Y-77060393D02*
X115005393Y-76617893D01*
X113465393Y-77060393D02*
X114562893Y-77060393D01*
D34*
%TO.N,Net-(R13-Pad1)*%
X107184413Y-79671913D02*
X107184413Y-81448873D01*
X107184413Y-81448873D02*
X106392893Y-82240393D01*
X106382893Y-78870393D02*
X107184413Y-79671913D01*
D33*
X106382893Y-78870393D02*
X105940393Y-78427893D01*
X105940393Y-78427893D02*
X104842893Y-78427893D01*
D34*
%TO.N,Net-(R15-Pad1)*%
X91557893Y-79080393D02*
X91020393Y-79617893D01*
X92520393Y-79080393D02*
X91557893Y-79080393D01*
%TO.N,Net-(R15-Pad2)*%
X91657893Y-78430393D02*
X91020393Y-77792893D01*
X92520393Y-78430393D02*
X91657893Y-78430393D01*
D33*
%TO.N,Net-(R16-Pad1)*%
X92500393Y-82212893D02*
X92020393Y-82212893D01*
X92520393Y-79730393D02*
X92402893Y-79730393D01*
X92402893Y-79730393D02*
X90970393Y-81162893D01*
X92020393Y-82212893D02*
X90970393Y-81162893D01*
D34*
%TO.N,Net-(R18-Pad1)*%
X97282893Y-79080393D02*
X97820393Y-79617893D01*
X96320393Y-79080393D02*
X97282893Y-79080393D01*
%TO.N,Net-(R18-Pad2)*%
X96320393Y-78430393D02*
X97182893Y-78430393D01*
X97182893Y-78430393D02*
X97820393Y-77792893D01*
D33*
%TO.N,Net-(R19-Pad1)*%
X97870393Y-81152893D02*
X97742893Y-81152893D01*
X96820393Y-82202893D02*
X97870393Y-81152893D01*
X96350393Y-82202893D02*
X96820393Y-82202893D01*
X97742893Y-81152893D02*
X96320393Y-79730393D01*
D32*
%TO.N,LDO_extra1*%
X99472893Y-81630393D02*
X99472893Y-80045393D01*
X101925393Y-80045393D02*
X101967893Y-80002893D01*
X99472893Y-80045393D02*
X100900393Y-80045393D01*
X100900393Y-80045393D02*
X101925393Y-80045393D01*
%TO.N,Net-(R24-Pad1)*%
X99472893Y-78220393D02*
X99472893Y-76675393D01*
X100330393Y-79077893D02*
X101042893Y-79077893D01*
X99472893Y-78220393D02*
X100330393Y-79077893D01*
D34*
%TO.N,Net-(R26-Pad2)*%
X107184413Y-76523873D02*
X107184413Y-74766913D01*
X106382893Y-77325393D02*
X107184413Y-76523873D01*
D33*
X106382893Y-77325393D02*
X105930393Y-77777893D01*
D34*
X107184413Y-74766913D02*
X106382893Y-73965393D01*
D33*
X105930393Y-77777893D02*
X104842893Y-77777893D01*
D35*
%TO.N,Vtune2*%
X94800000Y-83400000D02*
X94800000Y-81984417D01*
X94095393Y-81279810D02*
X94095393Y-80655393D01*
X94800000Y-81984417D02*
X94095393Y-81279810D01*
%TD*%
%TA.AperFunction,Conductor*%
%TO.N,P{slash}L power*%
G36*
X113495814Y-59571516D02*
G01*
X113563917Y-59591579D01*
X113610362Y-59645276D01*
X113621702Y-59697470D01*
X113623119Y-63553393D01*
X113603142Y-63621521D01*
X113549503Y-63668033D01*
X113497007Y-63679439D01*
X110705462Y-63676949D01*
X110637359Y-63656886D01*
X110616479Y-63640044D01*
X109816285Y-62839850D01*
X109782259Y-62777538D01*
X109779380Y-62750755D01*
X109779380Y-59729647D01*
X109777020Y-59707926D01*
X109789547Y-59638045D01*
X109837867Y-59586029D01*
X109902395Y-59568318D01*
X113495814Y-59571516D01*
G37*
%TD.AperFunction*%
%TD*%
%TA.AperFunction,Conductor*%
%TO.N,GND*%
G36*
X117842121Y-57020002D02*
G01*
X117888614Y-57073658D01*
X117900000Y-57126000D01*
X117900000Y-86774000D01*
X117879998Y-86842121D01*
X117826342Y-86888614D01*
X117774000Y-86900000D01*
X88226000Y-86900000D01*
X88157879Y-86879998D01*
X88111386Y-86826342D01*
X88100000Y-86774000D01*
X88100000Y-85800000D01*
X89300000Y-85800000D01*
X116700000Y-85800000D01*
X116700000Y-58200000D01*
X89300000Y-58200000D01*
X89300000Y-85800000D01*
X88100000Y-85800000D01*
X88100000Y-57126000D01*
X88120002Y-57057879D01*
X88173658Y-57011386D01*
X88226000Y-57000000D01*
X117774000Y-57000000D01*
X117842121Y-57020002D01*
G37*
%TD.AperFunction*%
%TD*%
%TA.AperFunction,Conductor*%
%TO.N,GND*%
G36*
X115631313Y-67352905D02*
G01*
X115682881Y-67401703D01*
X115700000Y-67465115D01*
X115700000Y-70238534D01*
X115679998Y-70306655D01*
X115626342Y-70353148D01*
X115573964Y-70364534D01*
X114590115Y-70364252D01*
X111091461Y-70363251D01*
X111023346Y-70343229D01*
X110976868Y-70289560D01*
X110966785Y-70219284D01*
X110996296Y-70154711D01*
X111052664Y-70117385D01*
X111083468Y-70107406D01*
X111089731Y-70103606D01*
X111095273Y-70101068D01*
X111100749Y-70098326D01*
X111107634Y-70095827D01*
X111169025Y-70055578D01*
X111172693Y-70053263D01*
X111235474Y-70015166D01*
X111239679Y-70011452D01*
X111239682Y-70011450D01*
X111243898Y-70007726D01*
X111243924Y-70007755D01*
X111246855Y-70005155D01*
X111250209Y-70002351D01*
X111256328Y-69998339D01*
X111309882Y-69941806D01*
X111312259Y-69939365D01*
X111750826Y-69500798D01*
X111813138Y-69466772D01*
X111839921Y-69463893D01*
X112042465Y-69463893D01*
X112045711Y-69463556D01*
X112045715Y-69463556D01*
X112139628Y-69453812D01*
X112139632Y-69453811D01*
X112146486Y-69453100D01*
X112153022Y-69450919D01*
X112153024Y-69450919D01*
X112304552Y-69400365D01*
X112311500Y-69398047D01*
X112459424Y-69306509D01*
X112464597Y-69301327D01*
X112464602Y-69301323D01*
X112486013Y-69279875D01*
X112548295Y-69245796D01*
X112575185Y-69242893D01*
X112616217Y-69242893D01*
X112682333Y-69261633D01*
X112717973Y-69283602D01*
X112883084Y-69338367D01*
X112889920Y-69339067D01*
X112889923Y-69339068D01*
X112941419Y-69344344D01*
X112985821Y-69348893D01*
X113559965Y-69348893D01*
X113563211Y-69348556D01*
X113563215Y-69348556D01*
X113657128Y-69338812D01*
X113657132Y-69338811D01*
X113663986Y-69338100D01*
X113670522Y-69335919D01*
X113670524Y-69335919D01*
X113803288Y-69291625D01*
X113829000Y-69283047D01*
X113976924Y-69191509D01*
X113993508Y-69174896D01*
X114094651Y-69073577D01*
X114094655Y-69073572D01*
X114099822Y-69068396D01*
X114103663Y-69062165D01*
X114187262Y-68926543D01*
X114187263Y-68926541D01*
X114191102Y-68920313D01*
X114245867Y-68755202D01*
X114256393Y-68652465D01*
X114256393Y-68053321D01*
X114250868Y-68000068D01*
X114246312Y-67956158D01*
X114246311Y-67956154D01*
X114245600Y-67949300D01*
X114237582Y-67925265D01*
X114192865Y-67791234D01*
X114190547Y-67784286D01*
X114107370Y-67649873D01*
X114088533Y-67581422D01*
X114109695Y-67513652D01*
X114164136Y-67468081D01*
X114234572Y-67459178D01*
X114254176Y-67463976D01*
X114403084Y-67513367D01*
X114409920Y-67514067D01*
X114409923Y-67514068D01*
X114461419Y-67519344D01*
X114505821Y-67523893D01*
X115079965Y-67523893D01*
X115083211Y-67523556D01*
X115083215Y-67523556D01*
X115177128Y-67513812D01*
X115177132Y-67513811D01*
X115183986Y-67513100D01*
X115190522Y-67510919D01*
X115190524Y-67510919D01*
X115342052Y-67460365D01*
X115349000Y-67458047D01*
X115496924Y-67366509D01*
X115497965Y-67365466D01*
X115561549Y-67339732D01*
X115631313Y-67352905D01*
G37*
%TD.AperFunction*%
%TA.AperFunction,Conductor*%
G36*
X98401481Y-59520002D02*
G01*
X98447974Y-59573658D01*
X98458078Y-59643932D01*
X98454186Y-59659130D01*
X98454428Y-59659188D01*
X98452601Y-59666872D01*
X98449827Y-59674272D01*
X98443072Y-59736454D01*
X98443072Y-63337922D01*
X98449827Y-63400104D01*
X98500957Y-63536493D01*
X98588311Y-63653049D01*
X98704867Y-63740403D01*
X98841256Y-63791533D01*
X98903438Y-63798288D01*
X100133269Y-63798288D01*
X100201390Y-63818290D01*
X100222364Y-63835193D01*
X101198828Y-64811657D01*
X101232854Y-64873969D01*
X101234817Y-64885594D01*
X101239084Y-64920853D01*
X101298887Y-65079115D01*
X101303188Y-65085373D01*
X101381450Y-65199245D01*
X101394714Y-65218545D01*
X101400384Y-65223596D01*
X101400385Y-65223598D01*
X101515362Y-65326039D01*
X101515365Y-65326041D01*
X101521034Y-65331092D01*
X101527747Y-65334647D01*
X101527748Y-65334647D01*
X101568517Y-65356233D01*
X101670554Y-65410259D01*
X101677919Y-65412109D01*
X101827271Y-65449624D01*
X101827275Y-65449624D01*
X101834642Y-65451475D01*
X101842241Y-65451515D01*
X101842243Y-65451515D01*
X101912585Y-65451883D01*
X102003824Y-65452361D01*
X102037092Y-65444374D01*
X102160951Y-65414638D01*
X102160955Y-65414637D01*
X102168334Y-65412865D01*
X102175080Y-65409383D01*
X102175083Y-65409382D01*
X102218904Y-65386764D01*
X102288612Y-65373295D01*
X102294491Y-65374157D01*
X102298026Y-65374505D01*
X102304094Y-65375712D01*
X102321776Y-65375712D01*
X102345385Y-65377944D01*
X102399925Y-65388348D01*
X102479568Y-65383337D01*
X102551301Y-65378824D01*
X102551303Y-65378824D01*
X102559212Y-65378326D01*
X102565014Y-65376441D01*
X102570070Y-65375711D01*
X102575699Y-65375711D01*
X102583514Y-65374157D01*
X102589606Y-65372946D01*
X102589608Y-65372945D01*
X102601779Y-65370525D01*
X102612097Y-65363631D01*
X102623569Y-65358879D01*
X102623746Y-65359307D01*
X102635920Y-65353402D01*
X102703462Y-65331456D01*
X102711002Y-65329006D01*
X102717317Y-65324998D01*
X102787272Y-65314121D01*
X102852187Y-65342873D01*
X102865204Y-65355621D01*
X102872084Y-65363410D01*
X103069895Y-65561221D01*
X103082282Y-65575634D01*
X103095251Y-65593257D01*
X103116371Y-65611200D01*
X103135760Y-65627672D01*
X103143276Y-65634602D01*
X103149020Y-65640346D01*
X103151894Y-65642620D01*
X103151901Y-65642626D01*
X103171416Y-65658065D01*
X103174820Y-65660856D01*
X103225174Y-65703635D01*
X103230756Y-65708377D01*
X103237274Y-65711705D01*
X103241881Y-65714778D01*
X103287456Y-65769216D01*
X103296365Y-65839651D01*
X103265779Y-65903722D01*
X103237342Y-65927318D01*
X103197624Y-65951420D01*
X103193419Y-65955134D01*
X103193416Y-65955136D01*
X103189200Y-65958860D01*
X103189174Y-65958831D01*
X103186243Y-65961431D01*
X103182889Y-65964235D01*
X103176770Y-65968247D01*
X103123217Y-66024779D01*
X103120839Y-66027221D01*
X102928482Y-66219578D01*
X102866170Y-66253604D01*
X102847299Y-66256234D01*
X102784902Y-66260160D01*
X102770598Y-66261060D01*
X102764692Y-66262979D01*
X102759605Y-66263713D01*
X102754097Y-66263713D01*
X102745595Y-66265404D01*
X102740190Y-66266478D01*
X102740188Y-66266479D01*
X102728017Y-66268899D01*
X102717700Y-66275793D01*
X102716633Y-66276235D01*
X102646043Y-66283822D01*
X102639022Y-66282057D01*
X102636659Y-66280945D01*
X102626865Y-66279077D01*
X102609027Y-66273743D01*
X102601779Y-66268899D01*
X102575700Y-66263712D01*
X102558232Y-66263712D01*
X102534622Y-66261480D01*
X102487669Y-66252523D01*
X102487667Y-66252523D01*
X102479883Y-66251038D01*
X102413126Y-66255238D01*
X102353476Y-66258991D01*
X102285419Y-66243575D01*
X102285342Y-66243509D01*
X102280606Y-66241091D01*
X102280600Y-66241087D01*
X102227578Y-66214013D01*
X102221592Y-66210750D01*
X102171836Y-66181849D01*
X102165509Y-66178174D01*
X102156317Y-66175390D01*
X102135542Y-66167017D01*
X102133509Y-66165979D01*
X102133508Y-66165979D01*
X102126989Y-66162650D01*
X102063988Y-66147233D01*
X102057436Y-66145442D01*
X101995339Y-66126635D01*
X101985749Y-66126040D01*
X101963611Y-66122672D01*
X101954281Y-66120389D01*
X101948679Y-66120041D01*
X101948676Y-66120041D01*
X101945002Y-66119813D01*
X101944992Y-66119813D01*
X101943063Y-66119693D01*
X101887347Y-66119693D01*
X101879545Y-66119451D01*
X101817877Y-66115625D01*
X101804793Y-66117873D01*
X101783457Y-66119693D01*
X101454789Y-66119693D01*
X101386668Y-66099691D01*
X101365771Y-66082866D01*
X101307583Y-66024779D01*
X101272907Y-65990164D01*
X101261178Y-65982934D01*
X101131054Y-65902724D01*
X101131052Y-65902723D01*
X101124824Y-65898884D01*
X100959713Y-65844119D01*
X100952877Y-65843419D01*
X100952874Y-65843418D01*
X100901378Y-65838142D01*
X100856976Y-65833593D01*
X100282832Y-65833593D01*
X100279586Y-65833930D01*
X100279582Y-65833930D01*
X100185669Y-65843674D01*
X100185665Y-65843675D01*
X100178811Y-65844386D01*
X100172275Y-65846567D01*
X100172273Y-65846567D01*
X100063853Y-65882739D01*
X100013797Y-65899439D01*
X99865873Y-65990977D01*
X99860700Y-65996159D01*
X99748146Y-66108909D01*
X99748142Y-66108914D01*
X99742975Y-66114090D01*
X99739135Y-66120320D01*
X99739134Y-66120321D01*
X99658559Y-66251038D01*
X99651695Y-66262173D01*
X99596930Y-66427284D01*
X99586404Y-66530021D01*
X99586404Y-67229165D01*
X99586741Y-67232411D01*
X99586741Y-67232415D01*
X99596143Y-67323024D01*
X99597197Y-67333186D01*
X99599378Y-67339722D01*
X99599378Y-67339724D01*
X99622765Y-67409822D01*
X99652250Y-67498200D01*
X99743788Y-67646124D01*
X99748970Y-67651297D01*
X99861720Y-67763851D01*
X99861725Y-67763855D01*
X99866901Y-67769022D01*
X99873131Y-67772862D01*
X99873132Y-67772863D01*
X99990752Y-67845365D01*
X100014984Y-67860302D01*
X100180095Y-67915067D01*
X100186931Y-67915767D01*
X100186934Y-67915768D01*
X100238430Y-67921044D01*
X100282832Y-67925593D01*
X100856976Y-67925593D01*
X100860222Y-67925256D01*
X100860226Y-67925256D01*
X100954139Y-67915512D01*
X100954143Y-67915511D01*
X100960997Y-67914800D01*
X100967533Y-67912619D01*
X100967535Y-67912619D01*
X101100299Y-67868325D01*
X101126011Y-67859747D01*
X101273935Y-67768209D01*
X101360318Y-67681675D01*
X101422600Y-67647596D01*
X101449491Y-67644693D01*
X101463711Y-67644693D01*
X101531832Y-67664695D01*
X101578325Y-67718351D01*
X101588633Y-67787138D01*
X101586810Y-67800986D01*
X101584245Y-67820469D01*
X101583040Y-67829619D01*
X101590630Y-67898367D01*
X101600802Y-67990501D01*
X101601858Y-68000068D01*
X101660790Y-68161108D01*
X101756435Y-68303442D01*
X101883270Y-68418853D01*
X102033973Y-68500678D01*
X102041317Y-68502605D01*
X102043591Y-68503505D01*
X102099564Y-68547180D01*
X102123205Y-68620656D01*
X102123205Y-68764165D01*
X102123542Y-68767411D01*
X102123542Y-68767415D01*
X102126685Y-68797702D01*
X102133998Y-68868186D01*
X102136179Y-68874722D01*
X102136179Y-68874724D01*
X102171987Y-68982052D01*
X102189051Y-69033200D01*
X102280589Y-69181124D01*
X102285771Y-69186297D01*
X102398521Y-69298851D01*
X102398526Y-69298855D01*
X102403702Y-69304022D01*
X102409932Y-69307862D01*
X102409933Y-69307863D01*
X102544897Y-69391056D01*
X102551785Y-69395302D01*
X102716896Y-69450067D01*
X102723732Y-69450767D01*
X102723735Y-69450768D01*
X102775231Y-69456044D01*
X102819633Y-69460593D01*
X103518777Y-69460593D01*
X103522023Y-69460256D01*
X103522027Y-69460256D01*
X103615940Y-69450512D01*
X103615944Y-69450511D01*
X103622798Y-69449800D01*
X103629334Y-69447619D01*
X103629336Y-69447619D01*
X103777921Y-69398047D01*
X103787812Y-69394747D01*
X103872852Y-69342123D01*
X103941303Y-69323285D01*
X104009072Y-69344446D01*
X104054644Y-69398887D01*
X104057480Y-69405966D01*
X104064085Y-69424015D01*
X104068322Y-69430321D01*
X104068324Y-69430324D01*
X104112621Y-69496244D01*
X104159730Y-69566349D01*
X104286565Y-69681760D01*
X104437268Y-69763585D01*
X104603139Y-69807101D01*
X104690586Y-69808474D01*
X104767003Y-69809675D01*
X104767006Y-69809675D01*
X104774602Y-69809794D01*
X104782006Y-69808098D01*
X104782008Y-69808098D01*
X104862110Y-69789752D01*
X104941759Y-69771510D01*
X105094958Y-69694459D01*
X105100729Y-69689530D01*
X105100732Y-69689528D01*
X105219578Y-69588023D01*
X105225355Y-69583089D01*
X105311249Y-69463556D01*
X105320992Y-69449998D01*
X105320993Y-69449997D01*
X105325424Y-69443830D01*
X105389385Y-69284720D01*
X105392070Y-69285799D01*
X105422010Y-69236651D01*
X105440478Y-69222725D01*
X105463935Y-69208209D01*
X105497190Y-69174896D01*
X105581662Y-69090277D01*
X105581666Y-69090272D01*
X105586833Y-69085096D01*
X105590674Y-69078865D01*
X105674273Y-68943243D01*
X105674274Y-68943241D01*
X105678113Y-68937013D01*
X105732878Y-68771902D01*
X105733921Y-68761728D01*
X105743076Y-68672364D01*
X105743404Y-68669165D01*
X105743404Y-68070021D01*
X105736000Y-67998658D01*
X105733323Y-67972858D01*
X105733322Y-67972854D01*
X105732611Y-67966000D01*
X105729328Y-67956158D01*
X105679876Y-67807934D01*
X105677558Y-67800986D01*
X105594381Y-67666573D01*
X105575544Y-67598122D01*
X105596706Y-67530352D01*
X105651147Y-67484781D01*
X105721583Y-67475878D01*
X105741187Y-67480676D01*
X105890095Y-67530067D01*
X105896931Y-67530767D01*
X105896934Y-67530768D01*
X105948430Y-67536044D01*
X105992832Y-67540593D01*
X106566976Y-67540593D01*
X106570222Y-67540256D01*
X106570226Y-67540256D01*
X106664139Y-67530512D01*
X106664143Y-67530511D01*
X106670997Y-67529800D01*
X106677533Y-67527619D01*
X106677535Y-67527619D01*
X106829063Y-67477065D01*
X106836011Y-67474747D01*
X106983935Y-67383209D01*
X107033871Y-67333186D01*
X107101662Y-67265277D01*
X107101666Y-67265272D01*
X107106833Y-67260096D01*
X107125899Y-67229165D01*
X107194273Y-67118243D01*
X107194274Y-67118241D01*
X107198113Y-67112013D01*
X107252878Y-66946902D01*
X107263404Y-66844165D01*
X107263404Y-66245021D01*
X107262851Y-66239691D01*
X107253323Y-66147858D01*
X107253322Y-66147854D01*
X107252611Y-66141000D01*
X107247982Y-66127123D01*
X107199876Y-65982934D01*
X107197558Y-65975986D01*
X107106020Y-65828062D01*
X107095160Y-65817221D01*
X106988088Y-65710335D01*
X106988083Y-65710331D01*
X106982907Y-65705164D01*
X106967192Y-65695477D01*
X106841054Y-65617724D01*
X106841052Y-65617723D01*
X106834824Y-65613884D01*
X106669713Y-65559119D01*
X106662877Y-65558419D01*
X106662874Y-65558418D01*
X106611378Y-65553142D01*
X106566976Y-65548593D01*
X105992832Y-65548593D01*
X105989582Y-65548930D01*
X105986340Y-65549098D01*
X105986287Y-65548078D01*
X105920615Y-65535989D01*
X105868824Y-65487427D01*
X105851510Y-65418574D01*
X105852978Y-65406912D01*
X105852878Y-65406902D01*
X105856605Y-65370525D01*
X105863404Y-65304165D01*
X105863404Y-64730021D01*
X105860494Y-64701971D01*
X105853323Y-64632858D01*
X105853322Y-64632854D01*
X105852611Y-64626000D01*
X105849328Y-64616158D01*
X105799876Y-64467934D01*
X105797558Y-64460986D01*
X105706020Y-64313062D01*
X105668845Y-64275952D01*
X105588088Y-64195335D01*
X105588083Y-64195331D01*
X105582907Y-64190164D01*
X105499576Y-64138798D01*
X105452083Y-64086025D01*
X105440661Y-64015953D01*
X105470437Y-63949062D01*
X105505624Y-63908423D01*
X105505624Y-63908422D01*
X105511522Y-63901611D01*
X105541823Y-63835193D01*
X105570321Y-63772727D01*
X105570323Y-63772722D01*
X105572186Y-63768638D01*
X105592162Y-63700509D01*
X105612907Y-63555835D01*
X105612874Y-63467195D01*
X105613038Y-63460725D01*
X105613077Y-63459958D01*
X105613404Y-63456765D01*
X105613404Y-62882621D01*
X105613067Y-62879379D01*
X105612899Y-62876122D01*
X105613023Y-62876116D01*
X105612648Y-62868856D01*
X105612301Y-61951407D01*
X105612958Y-61938512D01*
X105613404Y-61934165D01*
X105613404Y-61360021D01*
X105612744Y-61353657D01*
X105612072Y-61340711D01*
X105611465Y-59733057D01*
X105611461Y-59722889D01*
X105606232Y-59674272D01*
X105602489Y-59639475D01*
X105615091Y-59569606D01*
X105663467Y-59517641D01*
X105727766Y-59500000D01*
X106847096Y-59500000D01*
X106915217Y-59520002D01*
X106961710Y-59573658D01*
X106971814Y-59643932D01*
X106969678Y-59655148D01*
X106968508Y-59660067D01*
X106965735Y-59667465D01*
X106958980Y-59729647D01*
X106958980Y-63331115D01*
X106965735Y-63393297D01*
X107016865Y-63529686D01*
X107104219Y-63646242D01*
X107220775Y-63733596D01*
X107357164Y-63784726D01*
X107419346Y-63791481D01*
X108738655Y-63791481D01*
X108806776Y-63811483D01*
X108827751Y-63828386D01*
X109701335Y-64701971D01*
X109735360Y-64764283D01*
X109736958Y-64776064D01*
X109737331Y-64776019D01*
X109752522Y-64901553D01*
X109812325Y-65059815D01*
X109816626Y-65066073D01*
X109896125Y-65181745D01*
X109908152Y-65199245D01*
X109913822Y-65204296D01*
X109913823Y-65204298D01*
X110028800Y-65306739D01*
X110028803Y-65306741D01*
X110034472Y-65311792D01*
X110041185Y-65315347D01*
X110041186Y-65315347D01*
X110083400Y-65337698D01*
X110183992Y-65390959D01*
X110191357Y-65392809D01*
X110340709Y-65430324D01*
X110340713Y-65430324D01*
X110348080Y-65432175D01*
X110355679Y-65432215D01*
X110355681Y-65432215D01*
X110426023Y-65432583D01*
X110517262Y-65433061D01*
X110528662Y-65430324D01*
X110674389Y-65395338D01*
X110674393Y-65395337D01*
X110681772Y-65393565D01*
X110732354Y-65367458D01*
X110802060Y-65353989D01*
X110807953Y-65354853D01*
X110811477Y-65355200D01*
X110817550Y-65356408D01*
X110835193Y-65356408D01*
X110858802Y-65358640D01*
X110913363Y-65369048D01*
X111072650Y-65359026D01*
X111078463Y-65357137D01*
X111083521Y-65356407D01*
X111089155Y-65356407D01*
X111095229Y-65355199D01*
X111095231Y-65355199D01*
X111103060Y-65353642D01*
X111115235Y-65351221D01*
X111125556Y-65344324D01*
X111137024Y-65339574D01*
X111137201Y-65340002D01*
X111149382Y-65334094D01*
X111216898Y-65312157D01*
X111216901Y-65312156D01*
X111224440Y-65309706D01*
X111294799Y-65265055D01*
X111363033Y-65245442D01*
X111431038Y-65265833D01*
X111443892Y-65275415D01*
X111480778Y-65306752D01*
X111488294Y-65313682D01*
X111716533Y-65541921D01*
X111728920Y-65556334D01*
X111741889Y-65573957D01*
X111757663Y-65587358D01*
X111782398Y-65608372D01*
X111789914Y-65615302D01*
X111795658Y-65621046D01*
X111798532Y-65623320D01*
X111798539Y-65623326D01*
X111818054Y-65638765D01*
X111821458Y-65641556D01*
X111871813Y-65684336D01*
X111871816Y-65684338D01*
X111877394Y-65689077D01*
X111883913Y-65692406D01*
X111888518Y-65695477D01*
X111934094Y-65749914D01*
X111943004Y-65820349D01*
X111912420Y-65884420D01*
X111883981Y-65908018D01*
X111844263Y-65932120D01*
X111835838Y-65939560D01*
X111835813Y-65939531D01*
X111832887Y-65942127D01*
X111829533Y-65944932D01*
X111823408Y-65948947D01*
X111818373Y-65954262D01*
X111818372Y-65954263D01*
X111769855Y-66005479D01*
X111767477Y-66007921D01*
X111574760Y-66200638D01*
X111512448Y-66234664D01*
X111462058Y-66235312D01*
X111443323Y-66231738D01*
X111371511Y-66236256D01*
X111291946Y-66241262D01*
X111291944Y-66241262D01*
X111284036Y-66241760D01*
X111278137Y-66243677D01*
X111273063Y-66244409D01*
X111267553Y-66244409D01*
X111241473Y-66249595D01*
X111231149Y-66256493D01*
X111230078Y-66256937D01*
X111159488Y-66264525D01*
X111152463Y-66262758D01*
X111150097Y-66261645D01*
X111140349Y-66259785D01*
X111122494Y-66254446D01*
X111115235Y-66249595D01*
X111103060Y-66247173D01*
X111103059Y-66247173D01*
X111100489Y-66246662D01*
X111089156Y-66244408D01*
X111071649Y-66244408D01*
X111048039Y-66242176D01*
X111001107Y-66233223D01*
X111001105Y-66233223D01*
X110993321Y-66231738D01*
X110936517Y-66235312D01*
X110866914Y-66239691D01*
X110798857Y-66224275D01*
X110798780Y-66224209D01*
X110794044Y-66221791D01*
X110794038Y-66221787D01*
X110741016Y-66194713D01*
X110735030Y-66191450D01*
X110685274Y-66162549D01*
X110678947Y-66158874D01*
X110669755Y-66156090D01*
X110648980Y-66147717D01*
X110646947Y-66146679D01*
X110646946Y-66146679D01*
X110640427Y-66143350D01*
X110577426Y-66127933D01*
X110570874Y-66126142D01*
X110508777Y-66107335D01*
X110499187Y-66106740D01*
X110477049Y-66103372D01*
X110467719Y-66101089D01*
X110462117Y-66100741D01*
X110462114Y-66100741D01*
X110458440Y-66100513D01*
X110458430Y-66100513D01*
X110456501Y-66100393D01*
X110400785Y-66100393D01*
X110392983Y-66100151D01*
X110331315Y-66096325D01*
X110318231Y-66098573D01*
X110296895Y-66100393D01*
X109965174Y-66100393D01*
X109897053Y-66080391D01*
X109876157Y-66063566D01*
X109791081Y-65978639D01*
X109791076Y-65978635D01*
X109785896Y-65973464D01*
X109777577Y-65968336D01*
X109644043Y-65886024D01*
X109644041Y-65886023D01*
X109637813Y-65882184D01*
X109472702Y-65827419D01*
X109465866Y-65826719D01*
X109465863Y-65826718D01*
X109414367Y-65821442D01*
X109369965Y-65816893D01*
X108795821Y-65816893D01*
X108792575Y-65817230D01*
X108792571Y-65817230D01*
X108698658Y-65826974D01*
X108698654Y-65826975D01*
X108691800Y-65827686D01*
X108685264Y-65829867D01*
X108685262Y-65829867D01*
X108597401Y-65859180D01*
X108526786Y-65882739D01*
X108378862Y-65974277D01*
X108373689Y-65979459D01*
X108261135Y-66092209D01*
X108261131Y-66092214D01*
X108255964Y-66097390D01*
X108252124Y-66103620D01*
X108252123Y-66103621D01*
X108171190Y-66234919D01*
X108164684Y-66245473D01*
X108109919Y-66410584D01*
X108109219Y-66417420D01*
X108109218Y-66417423D01*
X108108208Y-66427284D01*
X108099393Y-66513321D01*
X108099393Y-67212465D01*
X108099730Y-67215711D01*
X108099730Y-67215715D01*
X108107550Y-67291077D01*
X108110186Y-67316486D01*
X108112367Y-67323022D01*
X108112367Y-67323024D01*
X108132718Y-67384022D01*
X108165239Y-67481500D01*
X108256777Y-67629424D01*
X108261959Y-67634597D01*
X108374709Y-67747151D01*
X108374714Y-67747155D01*
X108379890Y-67752322D01*
X108386120Y-67756162D01*
X108386121Y-67756163D01*
X108517537Y-67837169D01*
X108527973Y-67843602D01*
X108693084Y-67898367D01*
X108699920Y-67899067D01*
X108699923Y-67899068D01*
X108751419Y-67904344D01*
X108795821Y-67908893D01*
X109369965Y-67908893D01*
X109373211Y-67908556D01*
X109373215Y-67908556D01*
X109467128Y-67898812D01*
X109467132Y-67898811D01*
X109473986Y-67898100D01*
X109480522Y-67895919D01*
X109480524Y-67895919D01*
X109613288Y-67851625D01*
X109639000Y-67843047D01*
X109786924Y-67751509D01*
X109792097Y-67746327D01*
X109792102Y-67746323D01*
X109875902Y-67662376D01*
X109938184Y-67628296D01*
X109965075Y-67625393D01*
X109997741Y-67625393D01*
X110065862Y-67645395D01*
X110112355Y-67699051D01*
X110122663Y-67767839D01*
X110116728Y-67812919D01*
X110124288Y-67881393D01*
X110134386Y-67972858D01*
X110135546Y-67983368D01*
X110138155Y-67990499D01*
X110138156Y-67990501D01*
X110159956Y-68050071D01*
X110194478Y-68144408D01*
X110198715Y-68150714D01*
X110198717Y-68150717D01*
X110205700Y-68161108D01*
X110290123Y-68286742D01*
X110416958Y-68402153D01*
X110423635Y-68405778D01*
X110423636Y-68405779D01*
X110431708Y-68410162D01*
X110482030Y-68460244D01*
X110497287Y-68529582D01*
X110472635Y-68596161D01*
X110415901Y-68638843D01*
X110371587Y-68646893D01*
X108586716Y-68646893D01*
X108561057Y-68644253D01*
X108525407Y-68636838D01*
X108525408Y-68636838D01*
X108518244Y-68635348D01*
X108340505Y-68640158D01*
X108168640Y-68685727D01*
X108162183Y-68689182D01*
X108018328Y-68766154D01*
X108018325Y-68766156D01*
X108011868Y-68769611D01*
X108006380Y-68774458D01*
X108006377Y-68774460D01*
X107958065Y-68817128D01*
X107878598Y-68887311D01*
X107843472Y-68937013D01*
X107780205Y-69026533D01*
X107780203Y-69026536D01*
X107775980Y-69032512D01*
X107709518Y-69197427D01*
X107708418Y-69204659D01*
X107687152Y-69344446D01*
X107682776Y-69373208D01*
X107683369Y-69380499D01*
X107683369Y-69380502D01*
X107686328Y-69416879D01*
X107697191Y-69550426D01*
X107699445Y-69557385D01*
X107699446Y-69557388D01*
X107743851Y-69694459D01*
X107751987Y-69719575D01*
X107783134Y-69770904D01*
X107786307Y-69777092D01*
X107789685Y-69783014D01*
X107792552Y-69789752D01*
X107796891Y-69795647D01*
X107796891Y-69795648D01*
X107800740Y-69800878D01*
X107806975Y-69810191D01*
X107844227Y-69871581D01*
X107851667Y-69880005D01*
X107872583Y-69900921D01*
X107884970Y-69915334D01*
X107897939Y-69932957D01*
X107903522Y-69937700D01*
X107938448Y-69967372D01*
X107945964Y-69974302D01*
X107951708Y-69980046D01*
X107954582Y-69982320D01*
X107954589Y-69982326D01*
X107974104Y-69997765D01*
X107977508Y-70000556D01*
X108027865Y-70043338D01*
X108027869Y-70043341D01*
X108033444Y-70048077D01*
X108039961Y-70051405D01*
X108045025Y-70054782D01*
X108050249Y-70058009D01*
X108055993Y-70062553D01*
X108122497Y-70093635D01*
X108126394Y-70095540D01*
X108169172Y-70117383D01*
X108182495Y-70124186D01*
X108234068Y-70172980D01*
X108251074Y-70241910D01*
X108228114Y-70309091D01*
X108172477Y-70353195D01*
X108125161Y-70362402D01*
X95919401Y-70358910D01*
X95851287Y-70338888D01*
X95830343Y-70322005D01*
X95372298Y-69863960D01*
X95338272Y-69801648D01*
X95335393Y-69774865D01*
X95335393Y-69401324D01*
X95355395Y-69333203D01*
X95395090Y-69294180D01*
X95445702Y-69262861D01*
X95445712Y-69262853D01*
X95451924Y-69259009D01*
X95454376Y-69256553D01*
X95518723Y-69230508D01*
X95588487Y-69243679D01*
X95597292Y-69248631D01*
X95697440Y-69310363D01*
X95722973Y-69326102D01*
X95888084Y-69380867D01*
X95894920Y-69381567D01*
X95894923Y-69381568D01*
X95946419Y-69386844D01*
X95990821Y-69391393D01*
X96564965Y-69391393D01*
X96568211Y-69391056D01*
X96568215Y-69391056D01*
X96662128Y-69381312D01*
X96662132Y-69381311D01*
X96668986Y-69380600D01*
X96675522Y-69378419D01*
X96675524Y-69378419D01*
X96817296Y-69331120D01*
X96834000Y-69325547D01*
X96981924Y-69234009D01*
X97020503Y-69195363D01*
X97099651Y-69116077D01*
X97099655Y-69116072D01*
X97104822Y-69110896D01*
X97117532Y-69090277D01*
X97192262Y-68969043D01*
X97192263Y-68969041D01*
X97196102Y-68962813D01*
X97250867Y-68797702D01*
X97253511Y-68771902D01*
X97258499Y-68723215D01*
X97261393Y-68694965D01*
X97261393Y-68095821D01*
X97257322Y-68056587D01*
X97251312Y-67998658D01*
X97251311Y-67998654D01*
X97250600Y-67991800D01*
X97244281Y-67972858D01*
X97197865Y-67833734D01*
X97195547Y-67826786D01*
X97112370Y-67692373D01*
X97093533Y-67623922D01*
X97114695Y-67556152D01*
X97169136Y-67510581D01*
X97239572Y-67501678D01*
X97259176Y-67506476D01*
X97408084Y-67555867D01*
X97414920Y-67556567D01*
X97414923Y-67556568D01*
X97466419Y-67561844D01*
X97510821Y-67566393D01*
X98084965Y-67566393D01*
X98088211Y-67566056D01*
X98088215Y-67566056D01*
X98182128Y-67556312D01*
X98182132Y-67556311D01*
X98188986Y-67555600D01*
X98195522Y-67553419D01*
X98195524Y-67553419D01*
X98347052Y-67502865D01*
X98354000Y-67500547D01*
X98501924Y-67409009D01*
X98509217Y-67401703D01*
X98619651Y-67291077D01*
X98619655Y-67291072D01*
X98624822Y-67285896D01*
X98637532Y-67265277D01*
X98712262Y-67144043D01*
X98712263Y-67144041D01*
X98716102Y-67137813D01*
X98770867Y-66972702D01*
X98773511Y-66946902D01*
X98781065Y-66873164D01*
X98781393Y-66869965D01*
X98781393Y-66270821D01*
X98781056Y-66267571D01*
X98771312Y-66173658D01*
X98771311Y-66173654D01*
X98770600Y-66166800D01*
X98767249Y-66156754D01*
X98717865Y-66008734D01*
X98715547Y-66001786D01*
X98624009Y-65853862D01*
X98616418Y-65846284D01*
X98506077Y-65736135D01*
X98506072Y-65736131D01*
X98500896Y-65730964D01*
X98485668Y-65721577D01*
X98359043Y-65643524D01*
X98359041Y-65643523D01*
X98352813Y-65639684D01*
X98187702Y-65584919D01*
X98180866Y-65584219D01*
X98180863Y-65584218D01*
X98127003Y-65578700D01*
X98084965Y-65574393D01*
X97510821Y-65574393D01*
X97507571Y-65574730D01*
X97504329Y-65574898D01*
X97504276Y-65573878D01*
X97438604Y-65561789D01*
X97386813Y-65513227D01*
X97369499Y-65444374D01*
X97370967Y-65432712D01*
X97370867Y-65432702D01*
X97373510Y-65406902D01*
X97381393Y-65329965D01*
X97381393Y-64755821D01*
X97377322Y-64716587D01*
X97371312Y-64658658D01*
X97371311Y-64658654D01*
X97370600Y-64651800D01*
X97364281Y-64632858D01*
X97317865Y-64493734D01*
X97315547Y-64486786D01*
X97224009Y-64338862D01*
X97160989Y-64275952D01*
X97106077Y-64221135D01*
X97106072Y-64221131D01*
X97100896Y-64215964D01*
X97065066Y-64193878D01*
X97022916Y-64167896D01*
X96975422Y-64115123D01*
X96963999Y-64045052D01*
X96993789Y-63978145D01*
X97034986Y-63930580D01*
X97034986Y-63930579D01*
X97040885Y-63923769D01*
X97050999Y-63901611D01*
X97099700Y-63794908D01*
X97099701Y-63794905D01*
X97101572Y-63790806D01*
X97109546Y-63763629D01*
X97120292Y-63726999D01*
X97121559Y-63722681D01*
X97142327Y-63578005D01*
X97142170Y-62875357D01*
X97141459Y-59694530D01*
X97141459Y-59694525D01*
X97141458Y-59691159D01*
X97135904Y-59639454D01*
X97148518Y-59569588D01*
X97196902Y-59517631D01*
X97261184Y-59500000D01*
X98333360Y-59500000D01*
X98401481Y-59520002D01*
G37*
%TD.AperFunction*%
%TA.AperFunction,Conductor*%
G36*
X90355146Y-63753965D02*
G01*
X90357267Y-63754469D01*
X90364666Y-63757243D01*
X90426848Y-63763998D01*
X91746173Y-63763998D01*
X91814294Y-63784000D01*
X91835268Y-63800903D01*
X92705531Y-64671166D01*
X92739557Y-64733478D01*
X92742207Y-64752674D01*
X92742331Y-64754729D01*
X92742331Y-64758519D01*
X92757522Y-64884053D01*
X92817325Y-65042315D01*
X92913152Y-65181745D01*
X92918822Y-65186796D01*
X92918823Y-65186798D01*
X93033800Y-65289239D01*
X93033803Y-65289241D01*
X93039472Y-65294292D01*
X93046185Y-65297847D01*
X93046186Y-65297847D01*
X93091796Y-65321996D01*
X93188992Y-65373459D01*
X93196357Y-65375309D01*
X93345709Y-65412824D01*
X93345713Y-65412824D01*
X93353080Y-65414675D01*
X93360679Y-65414715D01*
X93360681Y-65414715D01*
X93431023Y-65415083D01*
X93522262Y-65415561D01*
X93529643Y-65413789D01*
X93679389Y-65377838D01*
X93679393Y-65377837D01*
X93686772Y-65376065D01*
X93701332Y-65368550D01*
X93737349Y-65349961D01*
X93807056Y-65336492D01*
X93812912Y-65337350D01*
X93816451Y-65337699D01*
X93822526Y-65338907D01*
X93840187Y-65338907D01*
X93863797Y-65341139D01*
X93910577Y-65350063D01*
X93910579Y-65350063D01*
X93918363Y-65351548D01*
X94077650Y-65341526D01*
X94083472Y-65339634D01*
X94088516Y-65338906D01*
X94094131Y-65338906D01*
X94100205Y-65337698D01*
X94100207Y-65337698D01*
X94102940Y-65337154D01*
X94120211Y-65333720D01*
X94130534Y-65326822D01*
X94142000Y-65322073D01*
X94142179Y-65322505D01*
X94154332Y-65316610D01*
X94161993Y-65314121D01*
X94229440Y-65292206D01*
X94235757Y-65288197D01*
X94305713Y-65277322D01*
X94370626Y-65306075D01*
X94383642Y-65318821D01*
X94390522Y-65326610D01*
X94638333Y-65574421D01*
X94650720Y-65588834D01*
X94663689Y-65606457D01*
X94669272Y-65611200D01*
X94704198Y-65640872D01*
X94711714Y-65647802D01*
X94717458Y-65653546D01*
X94720332Y-65655820D01*
X94720339Y-65655826D01*
X94739854Y-65671265D01*
X94743258Y-65674056D01*
X94776411Y-65702222D01*
X94815375Y-65761571D01*
X94816067Y-65832564D01*
X94778268Y-65892661D01*
X94763916Y-65903618D01*
X94732511Y-65924208D01*
X94728843Y-65926523D01*
X94666062Y-65964620D01*
X94661857Y-65968334D01*
X94661854Y-65968336D01*
X94657638Y-65972060D01*
X94657612Y-65972031D01*
X94654681Y-65974631D01*
X94651327Y-65977435D01*
X94645208Y-65981447D01*
X94640176Y-65986759D01*
X94591655Y-66037979D01*
X94589277Y-66040421D01*
X94446920Y-66182778D01*
X94384608Y-66216804D01*
X94365737Y-66219434D01*
X94296950Y-66223762D01*
X94289036Y-66224260D01*
X94283145Y-66226174D01*
X94278056Y-66226908D01*
X94272529Y-66226908D01*
X94246449Y-66232094D01*
X94236129Y-66238990D01*
X94235062Y-66239432D01*
X94164472Y-66247019D01*
X94157455Y-66245255D01*
X94155097Y-66244145D01*
X94145306Y-66242277D01*
X94127466Y-66236942D01*
X94120211Y-66232094D01*
X94108036Y-66229672D01*
X94108035Y-66229672D01*
X94105465Y-66229161D01*
X94094132Y-66226907D01*
X94076643Y-66226907D01*
X94053033Y-66224675D01*
X94050591Y-66224209D01*
X94025559Y-66219434D01*
X94006106Y-66215723D01*
X94006105Y-66215723D01*
X93998321Y-66214238D01*
X93865213Y-66222613D01*
X93800000Y-66209079D01*
X93783470Y-66200638D01*
X93715594Y-66165979D01*
X93651943Y-66133477D01*
X93651941Y-66133476D01*
X93645427Y-66130150D01*
X93638322Y-66128411D01*
X93638318Y-66128410D01*
X93524309Y-66100513D01*
X93472719Y-66087889D01*
X93467117Y-66087541D01*
X93467114Y-66087541D01*
X93463440Y-66087313D01*
X93463430Y-66087313D01*
X93461501Y-66087193D01*
X92984499Y-66087193D01*
X92916378Y-66067191D01*
X92895482Y-66050366D01*
X92796081Y-65951139D01*
X92796076Y-65951135D01*
X92790896Y-65945964D01*
X92780460Y-65939531D01*
X92649043Y-65858524D01*
X92649041Y-65858523D01*
X92642813Y-65854684D01*
X92477702Y-65799919D01*
X92470866Y-65799219D01*
X92470863Y-65799218D01*
X92415382Y-65793534D01*
X92374965Y-65789393D01*
X91800821Y-65789393D01*
X91797575Y-65789730D01*
X91797571Y-65789730D01*
X91703658Y-65799474D01*
X91703654Y-65799475D01*
X91696800Y-65800186D01*
X91690264Y-65802367D01*
X91690262Y-65802367D01*
X91565117Y-65844119D01*
X91531786Y-65855239D01*
X91383862Y-65946777D01*
X91378689Y-65951959D01*
X91266135Y-66064709D01*
X91266131Y-66064714D01*
X91260964Y-66069890D01*
X91257124Y-66076120D01*
X91257123Y-66076121D01*
X91173977Y-66211009D01*
X91169684Y-66217973D01*
X91114919Y-66383084D01*
X91104393Y-66485821D01*
X91104393Y-67184965D01*
X91104730Y-67188211D01*
X91104730Y-67188215D01*
X91114219Y-67279665D01*
X91115186Y-67288986D01*
X91117367Y-67295522D01*
X91117367Y-67295524D01*
X91147907Y-67387063D01*
X91170239Y-67454000D01*
X91261777Y-67601924D01*
X91266959Y-67607097D01*
X91379709Y-67719651D01*
X91379714Y-67719655D01*
X91384890Y-67724822D01*
X91391120Y-67728662D01*
X91391121Y-67728663D01*
X91492630Y-67791234D01*
X91532973Y-67816102D01*
X91698084Y-67870867D01*
X91704920Y-67871567D01*
X91704923Y-67871568D01*
X91756419Y-67876844D01*
X91800821Y-67881393D01*
X92374965Y-67881393D01*
X92378211Y-67881056D01*
X92378215Y-67881056D01*
X92472128Y-67871312D01*
X92472132Y-67871311D01*
X92478986Y-67870600D01*
X92485522Y-67868419D01*
X92485524Y-67868419D01*
X92629247Y-67820469D01*
X92644000Y-67815547D01*
X92791924Y-67724009D01*
X92797097Y-67718827D01*
X92797102Y-67718823D01*
X92866627Y-67649176D01*
X92928909Y-67615096D01*
X92955800Y-67612193D01*
X92979675Y-67612193D01*
X93047796Y-67632195D01*
X93094289Y-67685851D01*
X93104597Y-67754639D01*
X93099228Y-67795419D01*
X93104061Y-67839191D01*
X93116217Y-67949300D01*
X93118046Y-67965868D01*
X93176978Y-68126908D01*
X93181215Y-68133214D01*
X93181217Y-68133217D01*
X93204199Y-68167417D01*
X93272623Y-68269242D01*
X93399458Y-68384653D01*
X93550161Y-68466478D01*
X93557505Y-68468405D01*
X93559779Y-68469305D01*
X93615752Y-68512980D01*
X93639393Y-68586456D01*
X93639393Y-68719965D01*
X93639730Y-68723211D01*
X93639730Y-68723215D01*
X93647459Y-68797702D01*
X93650186Y-68823986D01*
X93652367Y-68830522D01*
X93652367Y-68830524D01*
X93669695Y-68882462D01*
X93705239Y-68989000D01*
X93780671Y-69110896D01*
X93791537Y-69128456D01*
X93810393Y-69194759D01*
X93810393Y-69984653D01*
X93790391Y-70052774D01*
X93736735Y-70099267D01*
X93666461Y-70109371D01*
X93601881Y-70079877D01*
X93595374Y-70073825D01*
X93593576Y-70072030D01*
X93588396Y-70066859D01*
X93582165Y-70063018D01*
X93446543Y-69979419D01*
X93446541Y-69979418D01*
X93440313Y-69975579D01*
X93275202Y-69920814D01*
X93268366Y-69920114D01*
X93268363Y-69920113D01*
X93216867Y-69914837D01*
X93172465Y-69910288D01*
X92473321Y-69910288D01*
X92470075Y-69910625D01*
X92470071Y-69910625D01*
X92376158Y-69920369D01*
X92376154Y-69920370D01*
X92369300Y-69921081D01*
X92362764Y-69923262D01*
X92362762Y-69923262D01*
X92230549Y-69967372D01*
X92204286Y-69976134D01*
X92056362Y-70067672D01*
X92051189Y-70072854D01*
X91938635Y-70185604D01*
X91938631Y-70185609D01*
X91933464Y-70190785D01*
X91929624Y-70197015D01*
X91929623Y-70197016D01*
X91867477Y-70297835D01*
X91814704Y-70345328D01*
X91760181Y-70357719D01*
X90325964Y-70357309D01*
X90257849Y-70337287D01*
X90211371Y-70283619D01*
X90200000Y-70231309D01*
X90200000Y-63876548D01*
X90220002Y-63808427D01*
X90273658Y-63761934D01*
X90343932Y-63751830D01*
X90355146Y-63753965D01*
G37*
%TD.AperFunction*%
%TA.AperFunction,Conductor*%
G36*
X115642121Y-59520002D02*
G01*
X115688614Y-59573658D01*
X115700000Y-59626000D01*
X115700000Y-65590672D01*
X115679998Y-65658793D01*
X115626342Y-65705286D01*
X115556068Y-65715390D01*
X115497801Y-65690366D01*
X115495896Y-65688464D01*
X115417491Y-65640134D01*
X115354043Y-65601024D01*
X115354041Y-65601023D01*
X115347813Y-65597184D01*
X115182702Y-65542419D01*
X115175866Y-65541719D01*
X115175863Y-65541718D01*
X115119943Y-65535989D01*
X115079965Y-65531893D01*
X114505821Y-65531893D01*
X114502571Y-65532230D01*
X114499329Y-65532398D01*
X114499276Y-65531378D01*
X114433604Y-65519289D01*
X114381813Y-65470727D01*
X114364499Y-65401874D01*
X114365967Y-65390212D01*
X114365867Y-65390202D01*
X114367883Y-65370525D01*
X114376393Y-65287465D01*
X114376393Y-64713321D01*
X114376056Y-64710071D01*
X114366312Y-64616158D01*
X114366311Y-64616154D01*
X114365600Y-64609300D01*
X114310547Y-64444286D01*
X114219009Y-64296362D01*
X114198563Y-64275952D01*
X114101077Y-64178635D01*
X114101072Y-64178631D01*
X114095896Y-64173464D01*
X114027495Y-64131301D01*
X113980002Y-64078529D01*
X113968578Y-64008457D01*
X113998356Y-63941565D01*
X114035228Y-63898981D01*
X114064331Y-63835193D01*
X114094029Y-63770101D01*
X114094031Y-63770095D01*
X114095895Y-63766010D01*
X114102480Y-63743555D01*
X114114607Y-63702197D01*
X114114608Y-63702193D01*
X114115872Y-63697882D01*
X114136619Y-63553204D01*
X114135202Y-59697281D01*
X114128984Y-59639475D01*
X114141585Y-59569607D01*
X114189961Y-59517642D01*
X114254261Y-59500000D01*
X115574000Y-59500000D01*
X115642121Y-59520002D01*
G37*
%TD.AperFunction*%
%TD*%
%TA.AperFunction,Conductor*%
%TO.N,P{slash}L power*%
G36*
X96502091Y-59565302D02*
G01*
X96570190Y-59585376D01*
X96616627Y-59639080D01*
X96627958Y-59691274D01*
X96628827Y-63578120D01*
X96608840Y-63646245D01*
X96555195Y-63692750D01*
X96502694Y-63704148D01*
X95987880Y-63703605D01*
X93764752Y-63701260D01*
X93696652Y-63681186D01*
X93675790Y-63664355D01*
X92823787Y-62812352D01*
X92789761Y-62750040D01*
X92786882Y-62723257D01*
X92786882Y-59702164D01*
X92786513Y-59698767D01*
X92786329Y-59695370D01*
X92787815Y-59695290D01*
X92799304Y-59631237D01*
X92847630Y-59579227D01*
X92912166Y-59561524D01*
X96502091Y-59565302D01*
G37*
%TD.AperFunction*%
%TD*%
%TA.AperFunction,Conductor*%
%TO.N,P{slash}L power*%
G36*
X102803876Y-59595140D02*
G01*
X104972079Y-59597131D01*
X105040179Y-59617196D01*
X105086623Y-59670894D01*
X105097961Y-59723083D01*
X105099407Y-63556029D01*
X105079431Y-63624158D01*
X105025793Y-63670671D01*
X104973292Y-63682077D01*
X102095742Y-63679429D01*
X102027642Y-63659364D01*
X102006765Y-63642524D01*
X101300377Y-62936136D01*
X101266351Y-62873824D01*
X101263472Y-62847041D01*
X101263472Y-59736454D01*
X101263103Y-59733057D01*
X101262919Y-59729660D01*
X101263829Y-59729611D01*
X101275682Y-59663550D01*
X101324011Y-59611541D01*
X101388525Y-59593841D01*
X102803876Y-59595140D01*
G37*
%TD.AperFunction*%
%TD*%
M02*
