%TF.GenerationSoftware,KiCad,Pcbnew,(6.0.6)*%
%TF.CreationDate,2022-07-20T12:02:57+02:00*%
%TF.ProjectId,low_freq_board,6c6f775f-6672-4657-915f-626f6172642e,rev?*%
%TF.SameCoordinates,PX4f27ac0PY57bcf00*%
%TF.FileFunction,Soldermask,Bot*%
%TF.FilePolarity,Negative*%
%FSLAX46Y46*%
G04 Gerber Fmt 4.6, Leading zero omitted, Abs format (unit mm)*
G04 Created by KiCad (PCBNEW (6.0.6)) date 2022-07-20 12:02:57*
%MOMM*%
%LPD*%
G01*
G04 APERTURE LIST*
G04 Aperture macros list*
%AMRoundRect*
0 Rectangle with rounded corners*
0 $1 Rounding radius*
0 $2 $3 $4 $5 $6 $7 $8 $9 X,Y pos of 4 corners*
0 Add a 4 corners polygon primitive as box body*
4,1,4,$2,$3,$4,$5,$6,$7,$8,$9,$2,$3,0*
0 Add four circle primitives for the rounded corners*
1,1,$1+$1,$2,$3*
1,1,$1+$1,$4,$5*
1,1,$1+$1,$6,$7*
1,1,$1+$1,$8,$9*
0 Add four rect primitives between the rounded corners*
20,1,$1+$1,$2,$3,$4,$5,0*
20,1,$1+$1,$4,$5,$6,$7,0*
20,1,$1+$1,$6,$7,$8,$9,0*
20,1,$1+$1,$8,$9,$2,$3,0*%
G04 Aperture macros list end*
%ADD10R,1.700000X1.700000*%
%ADD11O,1.700000X1.700000*%
%ADD12C,6.000000*%
%ADD13R,0.350000X1.000000*%
%ADD14R,1.000000X0.350000*%
%ADD15R,2.400000X2.400000*%
%ADD16RoundRect,0.237500X0.237500X-0.300000X0.237500X0.300000X-0.237500X0.300000X-0.237500X-0.300000X0*%
%ADD17RoundRect,0.237500X0.237500X-0.250000X0.237500X0.250000X-0.237500X0.250000X-0.237500X-0.250000X0*%
%ADD18RoundRect,0.237500X-0.237500X0.250000X-0.237500X-0.250000X0.237500X-0.250000X0.237500X0.250000X0*%
%ADD19RoundRect,0.237500X-0.237500X0.300000X-0.237500X-0.300000X0.237500X-0.300000X0.237500X0.300000X0*%
%ADD20RoundRect,0.237500X-0.300000X-0.237500X0.300000X-0.237500X0.300000X0.237500X-0.300000X0.237500X0*%
%ADD21RoundRect,0.237500X-0.250000X-0.237500X0.250000X-0.237500X0.250000X0.237500X-0.250000X0.237500X0*%
%ADD22RoundRect,0.155000X0.155000X-0.212500X0.155000X0.212500X-0.155000X0.212500X-0.155000X-0.212500X0*%
%ADD23RoundRect,0.237500X0.300000X0.237500X-0.300000X0.237500X-0.300000X-0.237500X0.300000X-0.237500X0*%
%ADD24R,1.803400X3.505200*%
%ADD25RoundRect,0.160000X0.197500X0.160000X-0.197500X0.160000X-0.197500X-0.160000X0.197500X-0.160000X0*%
%ADD26R,0.254000X1.066800*%
%ADD27R,1.371600X0.635000*%
%ADD28RoundRect,0.237500X0.250000X0.237500X-0.250000X0.237500X-0.250000X-0.237500X0.250000X-0.237500X0*%
%ADD29RoundRect,0.155000X-0.212500X-0.155000X0.212500X-0.155000X0.212500X0.155000X-0.212500X0.155000X0*%
%ADD30RoundRect,0.155000X-0.155000X0.212500X-0.155000X-0.212500X0.155000X-0.212500X0.155000X0.212500X0*%
G04 APERTURE END LIST*
D10*
%TO.C,J3*%
X8569997Y3499999D03*
D11*
X11109997Y3499999D03*
X13649997Y3499999D03*
X16189997Y3499999D03*
X18729997Y3499999D03*
X21269997Y3499999D03*
X23809997Y3499999D03*
X26349997Y3499999D03*
X28889997Y3499999D03*
X31429997Y3499999D03*
%TD*%
D12*
%TO.C,H1*%
X3500001Y36500003D03*
%TD*%
%TO.C,H3*%
X3500001Y3500001D03*
%TD*%
D10*
%TO.C,J4*%
X3500000Y31500000D03*
D11*
X3500000Y28960000D03*
X3500000Y26420000D03*
%TD*%
D10*
%TO.C,J1*%
X8700000Y36500000D03*
D11*
X11240000Y36500000D03*
X13780000Y36500000D03*
X16320000Y36500000D03*
X18860000Y36500000D03*
X21400000Y36500000D03*
X23940000Y36500000D03*
X26480000Y36500000D03*
X29020000Y36500000D03*
X31560000Y36500000D03*
%TD*%
D12*
%TO.C,H4*%
X36500003Y3500001D03*
%TD*%
%TO.C,H2*%
X36500003Y36500003D03*
%TD*%
D10*
%TO.C,J2*%
X36500000Y23800000D03*
D11*
X36500000Y21260000D03*
X36500000Y18720000D03*
%TD*%
D13*
%TO.C,U4*%
X29540393Y12714607D03*
X28890393Y12714607D03*
X28240393Y12714607D03*
X27590393Y12714607D03*
D14*
X26665393Y13639607D03*
X26665393Y14289607D03*
X26665393Y14939607D03*
X26665393Y15589607D03*
D13*
X27590393Y16514607D03*
X28240393Y16514607D03*
X28890393Y16514607D03*
X29540393Y16514607D03*
D14*
X30465393Y15589607D03*
X30465393Y14939607D03*
X30465393Y14289607D03*
X30465393Y13639607D03*
D15*
X28565393Y14614607D03*
%TD*%
D16*
%TO.C,C4*%
X17569904Y25120407D03*
X17569904Y26845407D03*
%TD*%
D17*
%TO.C,R15*%
X7982893Y12382107D03*
X7982893Y14207107D03*
%TD*%
D18*
%TO.C,R7*%
X32005393Y13847107D03*
X32005393Y12022107D03*
%TD*%
D19*
%TO.C,C15*%
X29730393Y10492107D03*
X29730393Y8767107D03*
%TD*%
D16*
%TO.C,C29*%
X28960393Y18117107D03*
X28960393Y19842107D03*
%TD*%
D19*
%TO.C,C32*%
X20322893Y10399607D03*
X20322893Y8674607D03*
%TD*%
D18*
%TO.C,R16*%
X7970393Y10837107D03*
X7970393Y9012107D03*
%TD*%
D17*
%TO.C,R3*%
X30272893Y23647107D03*
X30272893Y25472107D03*
%TD*%
D20*
%TO.C,C5*%
X30080393Y28799607D03*
X31805393Y28799607D03*
%TD*%
D18*
%TO.C,R19*%
X14870393Y10847107D03*
X14870393Y9022107D03*
%TD*%
D20*
%TO.C,C6*%
X30330393Y26999607D03*
X32055393Y26999607D03*
%TD*%
D21*
%TO.C,R21*%
X8047893Y18606212D03*
X9872893Y18606212D03*
%TD*%
D17*
%TO.C,R14*%
X23392893Y7934607D03*
X23392893Y9759607D03*
%TD*%
D22*
%TO.C,C14*%
X27180393Y17842107D03*
X27180393Y18977107D03*
%TD*%
D19*
%TO.C,C13*%
X28190393Y10492107D03*
X28190393Y8767107D03*
%TD*%
D17*
%TO.C,R9*%
X25125393Y11342107D03*
X25125393Y13167107D03*
%TD*%
D23*
%TO.C,C7*%
X28692893Y23519607D03*
X26967893Y23519607D03*
%TD*%
%TO.C,C11*%
X11685393Y23567107D03*
X9960393Y23567107D03*
%TD*%
D17*
%TO.C,R17*%
X9500393Y7962107D03*
X9500393Y9787107D03*
%TD*%
D23*
%TO.C,C30*%
X21315393Y17347107D03*
X19590393Y17347107D03*
%TD*%
D18*
%TO.C,R24*%
X16472893Y13779607D03*
X16472893Y11954607D03*
%TD*%
D20*
%TO.C,C2*%
X21817404Y26982907D03*
X23542404Y26982907D03*
%TD*%
D19*
%TO.C,C28*%
X26650393Y11122107D03*
X26650393Y9397107D03*
%TD*%
D20*
%TO.C,C10*%
X13335393Y26957107D03*
X15060393Y26957107D03*
%TD*%
D13*
%TO.C,U5*%
X20917893Y11997107D03*
X20267893Y11997107D03*
X19617893Y11997107D03*
X18967893Y11997107D03*
D14*
X18042893Y12922107D03*
X18042893Y13572107D03*
X18042893Y14222107D03*
X18042893Y14872107D03*
D13*
X18967893Y15797107D03*
X19617893Y15797107D03*
X20267893Y15797107D03*
X20917893Y15797107D03*
D14*
X21842893Y14872107D03*
X21842893Y14222107D03*
X21842893Y13572107D03*
X21842893Y12922107D03*
D15*
X19942893Y13897107D03*
%TD*%
D23*
%TO.C,C23*%
X9822893Y21106212D03*
X8097893Y21106212D03*
%TD*%
D17*
%TO.C,R1*%
X21759904Y23630407D03*
X21759904Y25455407D03*
%TD*%
D24*
%TO.C,L3*%
X11069082Y30497102D03*
X8376682Y30497102D03*
%TD*%
D18*
%TO.C,R6*%
X14797893Y25429607D03*
X14797893Y23604607D03*
%TD*%
D22*
%TO.C,C19*%
X17752893Y17129607D03*
X17752893Y18264607D03*
%TD*%
D23*
%TO.C,C3*%
X20169205Y23522907D03*
X18444205Y23522907D03*
%TD*%
D17*
%TO.C,R20*%
X13350393Y7972107D03*
X13350393Y9797107D03*
%TD*%
D20*
%TO.C,C1*%
X21567404Y28830307D03*
X23292404Y28830307D03*
%TD*%
D24*
%TO.C,L2*%
X28061580Y30469619D03*
X25369180Y30469619D03*
%TD*%
D20*
%TO.C,C24*%
X21567404Y30352907D03*
X23292404Y30352907D03*
%TD*%
D17*
%TO.C,R10*%
X25125393Y14702107D03*
X25125393Y16527107D03*
%TD*%
D19*
%TO.C,C31*%
X16472893Y10369607D03*
X16472893Y8644607D03*
%TD*%
D17*
%TO.C,R18*%
X14862893Y12382107D03*
X14862893Y14207107D03*
%TD*%
D18*
%TO.C,R26*%
X23382893Y16499607D03*
X23382893Y14674607D03*
%TD*%
D19*
%TO.C,C20*%
X21852893Y10399607D03*
X21852893Y8674607D03*
%TD*%
D16*
%TO.C,C16*%
X30490393Y18117107D03*
X30490393Y19842107D03*
%TD*%
D23*
%TO.C,C26*%
X9765393Y16687107D03*
X8040393Y16687107D03*
%TD*%
D16*
%TO.C,C8*%
X26082893Y25137107D03*
X26082893Y26862107D03*
%TD*%
D17*
%TO.C,R8*%
X32010393Y8657107D03*
X32010393Y10482107D03*
%TD*%
D25*
%TO.C,R23*%
X10107893Y19856212D03*
X8912893Y19856212D03*
%TD*%
D19*
%TO.C,C18*%
X18772893Y10399607D03*
X18772893Y8674607D03*
%TD*%
D14*
%TO.C,U6*%
X9520393Y12269607D03*
X9520393Y12919607D03*
X9520393Y13569607D03*
X9520393Y14219607D03*
D13*
X10445393Y15144607D03*
X11095393Y15144607D03*
X11745393Y15144607D03*
X12395393Y15144607D03*
D14*
X13320393Y14219607D03*
X13320393Y13569607D03*
X13320393Y12919607D03*
X13320393Y12269607D03*
D13*
X12395393Y11344607D03*
X11745393Y11344607D03*
X11095393Y11344607D03*
X10445393Y11344607D03*
D15*
X11420393Y13244607D03*
%TD*%
D18*
%TO.C,R12*%
X32010393Y20562107D03*
X32010393Y18737107D03*
%TD*%
D17*
%TO.C,R5*%
X13277893Y23604607D03*
X13277893Y25429607D03*
%TD*%
D20*
%TO.C,C9*%
X13092893Y28817107D03*
X14817893Y28817107D03*
%TD*%
D19*
%TO.C,C17*%
X25130393Y9752107D03*
X25130393Y8027107D03*
%TD*%
D20*
%TO.C,C25*%
X30080393Y30319607D03*
X31805393Y30319607D03*
%TD*%
D26*
%TO.C,U1*%
X18989898Y27247088D03*
X19439897Y27247088D03*
X19889899Y27247088D03*
X20339898Y27247088D03*
X20339898Y25113488D03*
X19889899Y25113488D03*
X19439897Y25113488D03*
X18989898Y25113488D03*
D27*
X19664898Y26180288D03*
%TD*%
D23*
%TO.C,C33*%
X21312500Y18900000D03*
X19587500Y18900000D03*
%TD*%
D18*
%TO.C,R2*%
X23279904Y25455407D03*
X23279904Y23630407D03*
%TD*%
D28*
%TO.C,R27*%
X25275393Y18067107D03*
X23450393Y18067107D03*
%TD*%
D18*
%TO.C,R4*%
X31792893Y25472107D03*
X31792893Y23647107D03*
%TD*%
D29*
%TO.C,C22*%
X11152893Y16950000D03*
X12287893Y16950000D03*
%TD*%
D20*
%TO.C,C27*%
X13092893Y30327107D03*
X14817893Y30327107D03*
%TD*%
D16*
%TO.C,C12*%
X9087893Y25164607D03*
X9087893Y26889607D03*
%TD*%
D26*
%TO.C,U2*%
X27503354Y27266392D03*
X27953353Y27266392D03*
X28403355Y27266392D03*
X28853354Y27266392D03*
X28853354Y25132792D03*
X28403355Y25132792D03*
X27953353Y25132792D03*
X27503354Y25132792D03*
D27*
X28178354Y26199592D03*
%TD*%
D25*
%TO.C,R22*%
X12397500Y19850000D03*
X11202500Y19850000D03*
%TD*%
D30*
%TO.C,C21*%
X10760393Y10012107D03*
X10760393Y8877107D03*
%TD*%
D24*
%TO.C,L1*%
X19545672Y30462812D03*
X16853272Y30462812D03*
%TD*%
D18*
%TO.C,R25*%
X16472893Y17149607D03*
X16472893Y15324607D03*
%TD*%
D26*
%TO.C,U3*%
X10508330Y27283893D03*
X10958329Y27283893D03*
X11408331Y27283893D03*
X11858330Y27283893D03*
X11858330Y25150293D03*
X11408331Y25150293D03*
X10958329Y25150293D03*
X10508330Y25150293D03*
D27*
X11183330Y26217093D03*
%TD*%
D17*
%TO.C,R11*%
X32005393Y15382107D03*
X32005393Y17207107D03*
%TD*%
D18*
%TO.C,R13*%
X23382893Y13129607D03*
X23382893Y11304607D03*
%TD*%
G36*
X34842121Y34979998D02*
G01*
X34888614Y34926342D01*
X34900000Y34874000D01*
X34900000Y5226000D01*
X34879998Y5157879D01*
X34826342Y5111386D01*
X34774000Y5100000D01*
X5226000Y5100000D01*
X5157879Y5120002D01*
X5111386Y5173658D01*
X5100000Y5226000D01*
X5100000Y6218117D01*
X6300000Y6218117D01*
X6304475Y6202877D01*
X6305866Y6201672D01*
X6313545Y6200001D01*
X33681885Y6199999D01*
X33697124Y6204474D01*
X33698329Y6205864D01*
X33700000Y6213547D01*
X33700108Y33781883D01*
X33695633Y33797123D01*
X33694236Y33798334D01*
X33686569Y33800003D01*
X6318225Y33807204D01*
X6302982Y33802733D01*
X6301783Y33801350D01*
X6300108Y33793654D01*
X6300000Y6218117D01*
X5100000Y6218117D01*
X5100000Y34874000D01*
X5120002Y34942121D01*
X5173658Y34988614D01*
X5226000Y35000000D01*
X34774000Y35000000D01*
X34842121Y34979998D01*
G37*
M02*
