%TF.GenerationSoftware,KiCad,Pcbnew,(6.0.6)*%
%TF.CreationDate,2022-07-20T12:02:57+02:00*%
%TF.ProjectId,low_freq_board,6c6f775f-6672-4657-915f-626f6172642e,rev?*%
%TF.SameCoordinates,PX4f27ac0PY57bcf00*%
%TF.FileFunction,Profile,NP*%
%FSLAX46Y46*%
G04 Gerber Fmt 4.6, Leading zero omitted, Abs format (unit mm)*
G04 Created by KiCad (PCBNEW (6.0.6)) date 2022-07-20 12:02:57*
%MOMM*%
%LPD*%
G01*
G04 APERTURE LIST*
%TA.AperFunction,Profile*%
%ADD10C,0.250000*%
%TD*%
G04 APERTURE END LIST*
D10*
X17854000Y38999000D02*
X20000000Y38999000D01*
X40000000Y5000000D02*
X40000000Y1000000D01*
X20000000Y38999000D02*
X33000000Y38999000D01*
X7000000Y38999000D02*
X17854000Y38999000D01*
X40000000Y35000000D02*
X39000000Y33000000D01*
X39000000Y40000000D02*
X35000000Y40000000D01*
X33000000Y1000000D02*
X35000000Y0D01*
X40000000Y38999791D02*
G75*
G03*
X39000000Y40000000I-1000100J109D01*
G01*
X35000000Y40000000D02*
X33000000Y38999000D01*
X0Y39000000D02*
X0Y35000000D01*
X1000000Y7000000D02*
X1000000Y33000000D01*
X7000000Y1000000D02*
X5000000Y0D01*
X5001000Y40000000D02*
X7000000Y38999000D01*
X1001000Y39999999D02*
G75*
G03*
X0Y39000000I-1400J-999599D01*
G01*
X0Y5000000D02*
X1000000Y7000000D01*
X5000000Y0D02*
X1000000Y0D01*
X0Y1000000D02*
G75*
G03*
X1000000Y0I1000000J0D01*
G01*
X40000000Y35000000D02*
X40000000Y38999791D01*
X1000000Y33000000D02*
X0Y35000000D01*
X35000000Y0D02*
X39000000Y0D01*
X1001000Y40000000D02*
X5001000Y40000000D01*
X39000000Y7000000D02*
X40000000Y5000000D01*
X39000000Y33000000D02*
X39000000Y7000000D01*
X33000000Y1000000D02*
X7000000Y1000000D01*
X39000000Y0D02*
G75*
G03*
X40000000Y1000000I0J1000000D01*
G01*
X0Y1000000D02*
X0Y5000000D01*
M02*
