%TF.GenerationSoftware,KiCad,Pcbnew,(6.0.6)*%
%TF.CreationDate,2022-07-20T12:02:56+02:00*%
%TF.ProjectId,low_freq_board,6c6f775f-6672-4657-915f-626f6172642e,rev?*%
%TF.SameCoordinates,PX4f27ac0PY57bcf00*%
%TF.FileFunction,Copper,L2,Inr*%
%TF.FilePolarity,Positive*%
%FSLAX46Y46*%
G04 Gerber Fmt 4.6, Leading zero omitted, Abs format (unit mm)*
G04 Created by KiCad (PCBNEW (6.0.6)) date 2022-07-20 12:02:56*
%MOMM*%
%LPD*%
G01*
G04 APERTURE LIST*
%TA.AperFunction,ComponentPad*%
%ADD10R,1.700000X1.700000*%
%TD*%
%TA.AperFunction,ComponentPad*%
%ADD11O,1.700000X1.700000*%
%TD*%
%TA.AperFunction,ComponentPad*%
%ADD12C,6.000000*%
%TD*%
%TA.AperFunction,ViaPad*%
%ADD13C,0.450000*%
%TD*%
%TA.AperFunction,Conductor*%
%ADD14C,0.508000*%
%TD*%
G04 APERTURE END LIST*
D10*
%TO.N,Vtune1*%
%TO.C,J3*%
X8569997Y3499999D03*
D11*
%TO.N,2V75*%
X11109997Y3499999D03*
%TO.N,Vtune2*%
X13649997Y3499999D03*
%TO.N,2V5*%
X16189997Y3499999D03*
%TO.N,P{slash}L power*%
X18729997Y3499999D03*
%TO.N,LEE1_Vcc*%
X21269997Y3499999D03*
%TO.N,LEE2_Vcc*%
X23809997Y3499999D03*
%TO.N,3V*%
X26349997Y3499999D03*
%TO.N,RSSI*%
X28889997Y3499999D03*
%TO.N,GND*%
X31429997Y3499999D03*
%TD*%
D12*
%TO.N,GND*%
%TO.C,H1*%
X3500001Y36500003D03*
%TD*%
%TO.N,GND*%
%TO.C,H3*%
X3500001Y3500001D03*
%TD*%
D10*
%TO.N,3V*%
%TO.C,J4*%
X3500000Y31500000D03*
D11*
%TO.N,ADC_PL2*%
X3500000Y28960000D03*
%TO.N,DAC_PL2*%
X3500000Y26420000D03*
%TD*%
D10*
%TO.N,SDA*%
%TO.C,J1*%
X8700000Y36500000D03*
D11*
%TO.N,SCL*%
X11240000Y36500000D03*
%TO.N,GND*%
X13780000Y36500000D03*
%TO.N,unconnected-(J1-Pad4)*%
X16320000Y36500000D03*
%TO.N,unconnected-(J1-Pad5)*%
X18860000Y36500000D03*
%TO.N,unconnected-(J1-Pad6)*%
X21400000Y36500000D03*
%TO.N,unconnected-(J1-Pad7)*%
X23940000Y36500000D03*
%TO.N,unconnected-(J1-Pad8)*%
X26480000Y36500000D03*
%TO.N,unconnected-(J1-Pad9)*%
X29020000Y36500000D03*
%TO.N,unconnected-(J1-Pad10)*%
X31560000Y36500000D03*
%TD*%
D12*
%TO.N,GND*%
%TO.C,H4*%
X36500003Y3500001D03*
%TD*%
%TO.N,GND*%
%TO.C,H2*%
X36500003Y36500003D03*
%TD*%
D10*
%TO.N,LDO_extra1*%
%TO.C,J2*%
X36500000Y23800000D03*
D11*
%TO.N,LDO_extra2*%
X36500000Y21260000D03*
%TO.N,2V7*%
X36500000Y18720000D03*
%TD*%
D13*
%TO.N,GND*%
X5700000Y13971440D03*
X5700000Y19419056D03*
X15500000Y17114202D03*
X24682893Y27067107D03*
X9100000Y22300000D03*
X5700000Y8523824D03*
X26650393Y8499607D03*
X15233328Y34400000D03*
X34300000Y11147616D03*
X31576176Y5700000D03*
X11642893Y26200000D03*
X34300000Y17957136D03*
X23274455Y31430307D03*
X27950000Y19000000D03*
X8423808Y34400000D03*
X23404752Y34400000D03*
X19650000Y26200000D03*
X18700000Y18900000D03*
X34300000Y32938080D03*
X34300000Y22042848D03*
X5700000Y23504768D03*
X5700000Y22142864D03*
X24682893Y26377107D03*
X13300000Y22200000D03*
X21150000Y7950000D03*
X27450000Y26200000D03*
X19350000Y7947107D03*
X5700000Y5700000D03*
X31576176Y34400000D03*
X24766656Y5700000D03*
X34300000Y12509520D03*
X16450000Y7900000D03*
X34300000Y24766656D03*
X20451769Y16695983D03*
X5700000Y30314288D03*
X22042848Y5700000D03*
X5700000Y24866672D03*
X16595232Y34400000D03*
X17957136Y34400000D03*
X28642893Y26200000D03*
X13871424Y5700000D03*
X28100000Y26200000D03*
X5700000Y31676192D03*
X5700000Y11247632D03*
X7982893Y22327107D03*
X17569455Y27727807D03*
X34300000Y31576176D03*
X30490393Y20749607D03*
X34300000Y13871424D03*
X27490464Y5700000D03*
X24766656Y34400000D03*
X24682893Y25687107D03*
X16242893Y26367107D03*
X15233328Y5700000D03*
X30214272Y34400000D03*
X12980393Y11344607D03*
X5700000Y12609536D03*
X34300000Y7061904D03*
X9785712Y34400000D03*
X22042848Y34400000D03*
X34300000Y19319040D03*
X7740393Y7974607D03*
X34300000Y28852368D03*
X34300000Y26128560D03*
X7061904Y34400000D03*
X19000000Y26200000D03*
X16242893Y27057107D03*
X32000000Y8000000D03*
X14807893Y31327107D03*
X32900000Y20550000D03*
X28190393Y7939607D03*
X32938080Y34400000D03*
X29730393Y7889607D03*
X5700000Y33038096D03*
X34300000Y30214272D03*
X8000000Y17500000D03*
X8300000Y19850000D03*
X15070393Y7994607D03*
X24662893Y23660000D03*
X28852368Y34400000D03*
X7982893Y23707107D03*
X34300000Y9785712D03*
X26128560Y5700000D03*
X16242893Y25677107D03*
X5700000Y7161920D03*
X25300000Y18800000D03*
X7061904Y5700000D03*
X32362893Y31967107D03*
X34300000Y34400000D03*
X19319040Y34400000D03*
X20300000Y7950000D03*
X25650393Y15659607D03*
X10750000Y8300000D03*
X11147616Y34400000D03*
X34300000Y8423808D03*
X20680944Y34400000D03*
X23900000Y7250000D03*
X5700000Y34400000D03*
X34300000Y16595232D03*
X5700000Y9885728D03*
X8423808Y5700000D03*
X9785712Y5700000D03*
X18746500Y17400000D03*
X31778343Y31374607D03*
X7300000Y21100000D03*
X5700000Y16695248D03*
X34300000Y27490464D03*
X32000000Y22150000D03*
X5700000Y20780960D03*
X20192893Y26200000D03*
X34300000Y5700000D03*
X5700000Y15333344D03*
X17957136Y5700000D03*
X31582893Y31967107D03*
X5700000Y26228576D03*
X11750000Y16100000D03*
X17800000Y18900000D03*
X9088855Y27880819D03*
X28250000Y17250000D03*
X26080393Y27839607D03*
X10450000Y26200000D03*
X27490464Y34400000D03*
X16212893Y23657107D03*
X30214272Y5700000D03*
X13871424Y34400000D03*
X26128560Y34400000D03*
X24662893Y24350000D03*
X11147616Y5700000D03*
X24600000Y7250000D03*
X12509520Y34400000D03*
X11100000Y26200000D03*
X30500000Y22150000D03*
%TO.N,LEE1_Vcc*%
X21700000Y22900000D03*
%TO.N,LEE2_Vcc*%
X25450000Y22600000D03*
%TO.N,3V*%
X29730393Y11400000D03*
%TO.N,2V75*%
X29750393Y18979607D03*
%TO.N,2V7*%
X26400000Y12714607D03*
%TO.N,2V5*%
X21535393Y11379607D03*
%TO.N,Vtune1*%
X9800000Y17800000D03*
%TO.N,P{slash}L power*%
X8570393Y7964607D03*
X29695393Y31416274D03*
X28820393Y9729607D03*
X21749463Y31419479D03*
X21112893Y9537107D03*
X21169463Y31992813D03*
X12642893Y32020441D03*
X27830393Y24179607D03*
X21169463Y31409480D03*
X13222893Y31447107D03*
X21749463Y32002813D03*
X26030393Y10389607D03*
X29695393Y31999607D03*
X28150000Y18159607D03*
X10812893Y24197107D03*
X19296705Y24162907D03*
X12642893Y31437108D03*
X18000000Y10400000D03*
X13350000Y7300000D03*
X30275393Y32009607D03*
X15500000Y16200000D03*
X8850000Y18600000D03*
X30275393Y31426273D03*
X13222893Y32030441D03*
X21572893Y15797107D03*
X26665393Y16539607D03*
%TO.N,ADC_PL2*%
X12260393Y10334607D03*
%TO.N,DAC_PL2*%
X7950000Y15350000D03*
%TO.N,LDO_extra1*%
X17900393Y11954607D03*
X25300000Y20600000D03*
X22700000Y20600000D03*
%TO.N,LDO_extra2*%
X25300000Y19600000D03*
%TO.N,RSSI*%
X15500000Y15200000D03*
%TO.N,Vtune2*%
X11800000Y8600000D03*
%TD*%
D14*
%TO.N,2V75*%
X32150000Y1700000D02*
X12909996Y1700000D01*
X12909996Y1700000D02*
X11109997Y3499999D01*
X32900000Y2450000D02*
X32150000Y1700000D01*
X29970393Y18979607D02*
X32900000Y16050000D01*
X32900000Y16050000D02*
X32900000Y2450000D01*
X29750393Y18979607D02*
X29970393Y18979607D01*
%TO.N,2V5*%
X21535393Y11379607D02*
X21029607Y11379607D01*
X16189997Y6539997D02*
X16189997Y3499999D01*
X21029607Y11379607D02*
X16189997Y6539997D01*
%TD*%
%TA.AperFunction,Conductor*%
%TO.N,P{slash}L power*%
G36*
X33702118Y33964338D02*
G01*
X33714032Y33951521D01*
X33715179Y33949627D01*
X33720068Y33944564D01*
X33720070Y33944562D01*
X33738447Y33925532D01*
X33829491Y33831253D01*
X33835383Y33827398D01*
X33835387Y33827394D01*
X33916504Y33774313D01*
X33962553Y33720276D01*
X33972076Y33649921D01*
X33942051Y33585585D01*
X33913535Y33561564D01*
X33845555Y33519743D01*
X33727982Y33404607D01*
X33638838Y33266283D01*
X33636427Y33259660D01*
X33636426Y33259657D01*
X33584966Y33118271D01*
X33584965Y33118266D01*
X33582556Y33111648D01*
X33561931Y32948386D01*
X33577989Y32784612D01*
X33629932Y32628465D01*
X33633581Y32622440D01*
X33678198Y32548770D01*
X33715179Y32487707D01*
X33720070Y32482642D01*
X33720071Y32482641D01*
X33767396Y32433634D01*
X33829491Y32369333D01*
X33838975Y32363127D01*
X33840766Y32361025D01*
X33840812Y32360987D01*
X33840805Y32360979D01*
X33885023Y32309091D01*
X33894548Y32238736D01*
X33864523Y32174401D01*
X33849581Y32160316D01*
X33845555Y32157839D01*
X33836487Y32148959D01*
X33733421Y32048029D01*
X33727982Y32042703D01*
X33638838Y31904379D01*
X33636427Y31897756D01*
X33636426Y31897753D01*
X33584966Y31756367D01*
X33584965Y31756362D01*
X33582556Y31749744D01*
X33561931Y31586482D01*
X33577989Y31422708D01*
X33629932Y31266561D01*
X33633581Y31260536D01*
X33704438Y31143539D01*
X33715179Y31125803D01*
X33720070Y31120738D01*
X33720071Y31120737D01*
X33767447Y31071678D01*
X33829491Y31007429D01*
X33838975Y31001223D01*
X33840766Y30999121D01*
X33840812Y30999083D01*
X33840805Y30999075D01*
X33885023Y30947187D01*
X33894548Y30876832D01*
X33864523Y30812497D01*
X33849581Y30798412D01*
X33845555Y30795935D01*
X33830115Y30780815D01*
X33740407Y30692966D01*
X33727982Y30680799D01*
X33638838Y30542475D01*
X33636427Y30535852D01*
X33636426Y30535849D01*
X33584966Y30394463D01*
X33584965Y30394458D01*
X33582556Y30387840D01*
X33561931Y30224578D01*
X33577989Y30060804D01*
X33629932Y29904657D01*
X33633581Y29898632D01*
X33654607Y29863915D01*
X33715179Y29763899D01*
X33829491Y29645525D01*
X33838975Y29639319D01*
X33840766Y29637217D01*
X33840812Y29637179D01*
X33840805Y29637171D01*
X33885023Y29585283D01*
X33894548Y29514928D01*
X33864523Y29450593D01*
X33849581Y29436508D01*
X33845555Y29434031D01*
X33727982Y29318895D01*
X33638838Y29180571D01*
X33636427Y29173948D01*
X33636426Y29173945D01*
X33584966Y29032559D01*
X33584965Y29032554D01*
X33582556Y29025936D01*
X33561931Y28862674D01*
X33577989Y28698900D01*
X33629932Y28542753D01*
X33633581Y28536728D01*
X33710410Y28409870D01*
X33715179Y28401995D01*
X33829491Y28283621D01*
X33838975Y28277415D01*
X33840766Y28275313D01*
X33840812Y28275275D01*
X33840805Y28275267D01*
X33885023Y28223379D01*
X33894548Y28153024D01*
X33864523Y28088689D01*
X33849581Y28074604D01*
X33845555Y28072127D01*
X33727982Y27956991D01*
X33638838Y27818667D01*
X33636427Y27812044D01*
X33636426Y27812041D01*
X33584966Y27670655D01*
X33584965Y27670650D01*
X33582556Y27664032D01*
X33561931Y27500770D01*
X33577989Y27336996D01*
X33629932Y27180849D01*
X33633581Y27174824D01*
X33704874Y27057107D01*
X33715179Y27040091D01*
X33829491Y26921717D01*
X33838975Y26915511D01*
X33840766Y26913409D01*
X33840812Y26913371D01*
X33840805Y26913363D01*
X33885023Y26861475D01*
X33894548Y26791120D01*
X33864523Y26726785D01*
X33849581Y26712700D01*
X33845555Y26710223D01*
X33727982Y26595087D01*
X33638838Y26456763D01*
X33636427Y26450140D01*
X33636426Y26450137D01*
X33584966Y26308751D01*
X33584965Y26308746D01*
X33582556Y26302128D01*
X33561931Y26138866D01*
X33577989Y25975092D01*
X33629932Y25818945D01*
X33633581Y25812920D01*
X33705356Y25694407D01*
X33715179Y25678187D01*
X33720070Y25673122D01*
X33720071Y25673121D01*
X33732778Y25659963D01*
X33829491Y25559813D01*
X33838975Y25553607D01*
X33840766Y25551505D01*
X33840812Y25551467D01*
X33840805Y25551459D01*
X33885023Y25499571D01*
X33894548Y25429216D01*
X33864523Y25364881D01*
X33849581Y25350796D01*
X33845555Y25348319D01*
X33830115Y25333199D01*
X33737759Y25242757D01*
X33727982Y25233183D01*
X33638838Y25094859D01*
X33636427Y25088236D01*
X33636426Y25088233D01*
X33584966Y24946847D01*
X33584965Y24946842D01*
X33582556Y24940224D01*
X33561931Y24776962D01*
X33577989Y24613188D01*
X33629932Y24457041D01*
X33648380Y24426580D01*
X33710507Y24323998D01*
X33715179Y24316283D01*
X33720070Y24311218D01*
X33720071Y24311217D01*
X33738447Y24292188D01*
X33829491Y24197909D01*
X33967189Y24107802D01*
X34121428Y24050441D01*
X34128409Y24049510D01*
X34128411Y24049509D01*
X34277561Y24029608D01*
X34277565Y24029608D01*
X34284542Y24028677D01*
X34291553Y24029315D01*
X34291557Y24029315D01*
X34441403Y24042952D01*
X34441404Y24042952D01*
X34448424Y24043591D01*
X34477062Y24052896D01*
X34598230Y24092266D01*
X34598233Y24092267D01*
X34604929Y24094443D01*
X34746279Y24178705D01*
X34865449Y24292188D01*
X34910553Y24360075D01*
X34964910Y24405744D01*
X35035330Y24414776D01*
X35099454Y24384302D01*
X35136923Y24323998D01*
X35141500Y24290346D01*
X35141500Y22901866D01*
X35148255Y22839684D01*
X35199385Y22703295D01*
X35286739Y22586739D01*
X35403295Y22499385D01*
X35411704Y22496233D01*
X35411705Y22496232D01*
X35520451Y22455465D01*
X35577216Y22412824D01*
X35601916Y22346262D01*
X35586709Y22276913D01*
X35567316Y22250432D01*
X35447896Y22125466D01*
X35440629Y22117862D01*
X35437715Y22113590D01*
X35437714Y22113589D01*
X35357863Y21996532D01*
X35314743Y21933320D01*
X35312565Y21928627D01*
X35312560Y21928619D01*
X35256792Y21808477D01*
X35209968Y21755110D01*
X35147206Y21737103D01*
X35183005Y21691698D01*
X35189843Y21621031D01*
X35187509Y21611059D01*
X35160989Y21515430D01*
X35137251Y21293305D01*
X35137548Y21288152D01*
X35137548Y21288149D01*
X35146855Y21126734D01*
X35150110Y21070285D01*
X35151247Y21065239D01*
X35151248Y21065233D01*
X35162225Y21016527D01*
X35199222Y20852361D01*
X35253172Y20719498D01*
X35279095Y20655657D01*
X35283266Y20645384D01*
X35318867Y20587289D01*
X35385820Y20478031D01*
X35399987Y20454912D01*
X35546250Y20286062D01*
X35718126Y20143368D01*
X35738602Y20131403D01*
X35791445Y20100524D01*
X35840169Y20048886D01*
X35853240Y19979103D01*
X35826509Y19913331D01*
X35786055Y19879973D01*
X35778992Y19876296D01*
X35773607Y19873493D01*
X35769474Y19870390D01*
X35769471Y19870388D01*
X35599100Y19742470D01*
X35594965Y19739365D01*
X35565041Y19708051D01*
X35461785Y19600000D01*
X35440629Y19577862D01*
X35437715Y19573590D01*
X35437714Y19573589D01*
X35373214Y19479035D01*
X35314743Y19393320D01*
X35274630Y19306903D01*
X35227806Y19253537D01*
X35159562Y19233956D01*
X35091567Y19254380D01*
X35045407Y19308322D01*
X35035127Y19345909D01*
X35034386Y19352521D01*
X35019798Y19482574D01*
X35013998Y19499231D01*
X34989297Y19570160D01*
X34965680Y19637980D01*
X34949522Y19663839D01*
X34882209Y19771561D01*
X34878476Y19777535D01*
X34820179Y19836240D01*
X34767486Y19889303D01*
X34767482Y19889306D01*
X34762522Y19894301D01*
X34623580Y19982477D01*
X34569239Y20001827D01*
X34475189Y20035317D01*
X34475187Y20035318D01*
X34468555Y20037679D01*
X34461569Y20038512D01*
X34461565Y20038513D01*
X34347071Y20052165D01*
X34305153Y20057163D01*
X34298150Y20056427D01*
X34298149Y20056427D01*
X34254935Y20051885D01*
X34141495Y20039962D01*
X34134827Y20037692D01*
X33992382Y19989200D01*
X33992379Y19989199D01*
X33985715Y19986930D01*
X33917569Y19945006D01*
X33866082Y19913331D01*
X33845555Y19900703D01*
X33811445Y19867300D01*
X33755947Y19812952D01*
X33727982Y19785567D01*
X33638838Y19647243D01*
X33636427Y19640620D01*
X33636426Y19640617D01*
X33584966Y19499231D01*
X33584965Y19499226D01*
X33582556Y19492608D01*
X33561931Y19329346D01*
X33577989Y19165572D01*
X33629932Y19009425D01*
X33633581Y19003400D01*
X33694209Y18903293D01*
X33715179Y18868667D01*
X33720070Y18863602D01*
X33720071Y18863601D01*
X33732907Y18850309D01*
X33829491Y18750293D01*
X33838975Y18744087D01*
X33840766Y18741985D01*
X33840812Y18741947D01*
X33840805Y18741939D01*
X33885023Y18690051D01*
X33894548Y18619696D01*
X33864523Y18555361D01*
X33849581Y18541276D01*
X33845555Y18538799D01*
X33825820Y18519473D01*
X33735733Y18431253D01*
X33727982Y18423663D01*
X33638838Y18285339D01*
X33636427Y18278716D01*
X33636426Y18278713D01*
X33584966Y18137327D01*
X33584965Y18137322D01*
X33582556Y18130704D01*
X33561931Y17967442D01*
X33577989Y17803668D01*
X33629932Y17647521D01*
X33633581Y17641496D01*
X33681555Y17562283D01*
X33715179Y17506763D01*
X33720070Y17501698D01*
X33720071Y17501697D01*
X33770632Y17449339D01*
X33829491Y17388389D01*
X33838975Y17382183D01*
X33840766Y17380081D01*
X33840812Y17380043D01*
X33840805Y17380035D01*
X33885023Y17328147D01*
X33894548Y17257792D01*
X33864523Y17193457D01*
X33849581Y17179372D01*
X33845555Y17176895D01*
X33830866Y17162510D01*
X33739877Y17073407D01*
X33727982Y17061759D01*
X33638838Y16923435D01*
X33636427Y16916812D01*
X33636426Y16916809D01*
X33584966Y16775423D01*
X33584965Y16775418D01*
X33582556Y16768800D01*
X33580509Y16752595D01*
X33578561Y16737179D01*
X33550178Y16672103D01*
X33491117Y16632702D01*
X33420131Y16631487D01*
X33364460Y16663878D01*
X30557203Y19471135D01*
X30544816Y19485548D01*
X30536188Y19497272D01*
X30531847Y19503171D01*
X30491338Y19537586D01*
X30483822Y19544516D01*
X30478078Y19550260D01*
X30475204Y19552534D01*
X30475197Y19552540D01*
X30455682Y19567979D01*
X30452278Y19570770D01*
X30401921Y19613552D01*
X30401917Y19613555D01*
X30396342Y19618291D01*
X30389825Y19621619D01*
X30384761Y19624996D01*
X30379537Y19628223D01*
X30373793Y19632767D01*
X30315854Y19659846D01*
X30307311Y19663839D01*
X30303360Y19665770D01*
X30244510Y19695820D01*
X30237989Y19699150D01*
X30230874Y19700891D01*
X30225128Y19703028D01*
X30219345Y19704952D01*
X30212714Y19708051D01*
X30140836Y19723001D01*
X30136564Y19723968D01*
X30065281Y19741411D01*
X30059682Y19741758D01*
X30059678Y19741759D01*
X30054063Y19742107D01*
X30054065Y19742146D01*
X30050164Y19742379D01*
X30045805Y19742768D01*
X30038637Y19744259D01*
X30031320Y19744061D01*
X29960816Y19742153D01*
X29957407Y19742107D01*
X29705868Y19742107D01*
X29613508Y19731339D01*
X29581058Y19727556D01*
X29581056Y19727556D01*
X29573786Y19726708D01*
X29566909Y19724212D01*
X29566906Y19724211D01*
X29413531Y19668538D01*
X29406652Y19666041D01*
X29257958Y19568553D01*
X29135679Y19439472D01*
X29046374Y19285723D01*
X28994835Y19115553D01*
X28983825Y18938091D01*
X28985065Y18930875D01*
X28985065Y18930873D01*
X29006877Y18803938D01*
X29013936Y18762856D01*
X29083552Y18599248D01*
X29188939Y18456043D01*
X29194522Y18451300D01*
X29318865Y18345662D01*
X29318869Y18345659D01*
X29324444Y18340923D01*
X29482797Y18260064D01*
X29489902Y18258325D01*
X29489906Y18258324D01*
X29544334Y18245006D01*
X29619098Y18226712D01*
X29678244Y18193418D01*
X32100595Y15771067D01*
X32134621Y15708755D01*
X32137500Y15681972D01*
X32137500Y8863297D01*
X32117498Y8795176D01*
X32063842Y8748683D01*
X32011135Y8737410D01*
X32005153Y8738123D01*
X31998150Y8737387D01*
X31985820Y8736091D01*
X31841495Y8720922D01*
X31834827Y8718652D01*
X31692382Y8670160D01*
X31692379Y8670159D01*
X31685715Y8667890D01*
X31545555Y8581663D01*
X31487959Y8525261D01*
X31436596Y8474962D01*
X31427982Y8466527D01*
X31338838Y8328203D01*
X31336427Y8321580D01*
X31336426Y8321577D01*
X31284966Y8180191D01*
X31284965Y8180186D01*
X31282556Y8173568D01*
X31261931Y8010306D01*
X31277989Y7846532D01*
X31329932Y7690385D01*
X31345311Y7664992D01*
X31403483Y7568940D01*
X31415179Y7549627D01*
X31420070Y7544562D01*
X31420071Y7544561D01*
X31467661Y7495280D01*
X31529491Y7431253D01*
X31667189Y7341146D01*
X31821428Y7283785D01*
X31828409Y7282854D01*
X31828411Y7282853D01*
X31977561Y7262952D01*
X31977565Y7262952D01*
X31984542Y7262021D01*
X32000085Y7263435D01*
X32069735Y7249689D01*
X32120899Y7200467D01*
X32137500Y7137954D01*
X32137500Y6441753D01*
X32117498Y6373632D01*
X32063842Y6327139D01*
X31993568Y6317035D01*
X31943985Y6335368D01*
X31933010Y6342333D01*
X31899756Y6363437D01*
X31810884Y6395083D01*
X31751365Y6416277D01*
X31751363Y6416278D01*
X31744731Y6418639D01*
X31737745Y6419472D01*
X31737741Y6419473D01*
X31620720Y6433426D01*
X31581329Y6438123D01*
X31574326Y6437387D01*
X31574325Y6437387D01*
X31531111Y6432845D01*
X31417671Y6420922D01*
X31411003Y6418652D01*
X31268558Y6370160D01*
X31268555Y6370159D01*
X31261891Y6367890D01*
X31195651Y6327139D01*
X31127736Y6285357D01*
X31121731Y6281663D01*
X31110090Y6270263D01*
X31013594Y6175767D01*
X31004158Y6166527D01*
X31000341Y6160605D01*
X30995893Y6155150D01*
X30994509Y6156279D01*
X30947669Y6115796D01*
X30877383Y6105781D01*
X30812839Y6135356D01*
X30796727Y6152211D01*
X30796480Y6152523D01*
X30792748Y6158495D01*
X30727541Y6224159D01*
X30681758Y6270263D01*
X30681754Y6270266D01*
X30676794Y6275261D01*
X30537852Y6363437D01*
X30448980Y6395083D01*
X30389461Y6416277D01*
X30389459Y6416278D01*
X30382827Y6418639D01*
X30375841Y6419472D01*
X30375837Y6419473D01*
X30258816Y6433426D01*
X30219425Y6438123D01*
X30212422Y6437387D01*
X30212421Y6437387D01*
X30169207Y6432845D01*
X30055767Y6420922D01*
X30049099Y6418652D01*
X29906654Y6370160D01*
X29906651Y6370159D01*
X29899987Y6367890D01*
X29833747Y6327139D01*
X29765832Y6285357D01*
X29759827Y6281663D01*
X29748186Y6270263D01*
X29651690Y6175767D01*
X29642254Y6166527D01*
X29553110Y6028203D01*
X29550699Y6021580D01*
X29550698Y6021577D01*
X29499238Y5880191D01*
X29499237Y5880186D01*
X29496828Y5873568D01*
X29476203Y5710306D01*
X29492261Y5546532D01*
X29544204Y5390385D01*
X29629451Y5249627D01*
X29634342Y5244562D01*
X29634343Y5244561D01*
X29682445Y5194750D01*
X29743763Y5131253D01*
X29881461Y5041146D01*
X30035700Y4983785D01*
X30042681Y4982854D01*
X30042683Y4982853D01*
X30191833Y4962952D01*
X30191837Y4962952D01*
X30198814Y4962021D01*
X30205825Y4962659D01*
X30205829Y4962659D01*
X30355675Y4976296D01*
X30355676Y4976296D01*
X30362696Y4976935D01*
X30408442Y4991799D01*
X30512502Y5025610D01*
X30512505Y5025611D01*
X30519201Y5027787D01*
X30660551Y5112049D01*
X30779721Y5225532D01*
X30789399Y5240099D01*
X30843755Y5285769D01*
X30914174Y5294802D01*
X30978299Y5264330D01*
X30990211Y5251516D01*
X30991355Y5249627D01*
X31105667Y5131253D01*
X31111557Y5127399D01*
X31111563Y5127394D01*
X31209898Y5063046D01*
X31255947Y5009009D01*
X31265470Y4938654D01*
X31235445Y4874319D01*
X31175405Y4836429D01*
X31159964Y4833064D01*
X31114088Y4826044D01*
X30901753Y4756642D01*
X30875249Y4742845D01*
X30718540Y4661267D01*
X30703604Y4653492D01*
X30699471Y4650389D01*
X30699468Y4650387D01*
X30613280Y4585675D01*
X30524962Y4519364D01*
X30521390Y4515626D01*
X30413726Y4402962D01*
X30370626Y4357861D01*
X30263198Y4200378D01*
X30208290Y4155378D01*
X30137765Y4147207D01*
X30074018Y4178461D01*
X30053321Y4202945D01*
X29972819Y4327382D01*
X29972817Y4327385D01*
X29970011Y4331722D01*
X29819667Y4496948D01*
X29815616Y4500147D01*
X29815612Y4500151D01*
X29648411Y4632199D01*
X29648407Y4632201D01*
X29644356Y4635401D01*
X29448786Y4743361D01*
X29443917Y4745085D01*
X29443913Y4745087D01*
X29243084Y4816204D01*
X29243080Y4816205D01*
X29238209Y4817930D01*
X29233116Y4818837D01*
X29233113Y4818838D01*
X29023370Y4856199D01*
X29023364Y4856200D01*
X29018281Y4857105D01*
X28944449Y4858007D01*
X28800078Y4859771D01*
X28800076Y4859771D01*
X28794908Y4859834D01*
X28574088Y4826044D01*
X28361753Y4756642D01*
X28335249Y4742845D01*
X28178540Y4661267D01*
X28163604Y4653492D01*
X28159471Y4650389D01*
X28159468Y4650387D01*
X28073280Y4585675D01*
X27984962Y4519364D01*
X27981390Y4515626D01*
X27873726Y4402962D01*
X27830626Y4357861D01*
X27723198Y4200378D01*
X27668290Y4155378D01*
X27597765Y4147207D01*
X27534018Y4178461D01*
X27513321Y4202945D01*
X27432819Y4327382D01*
X27432817Y4327385D01*
X27430011Y4331722D01*
X27279667Y4496948D01*
X27275616Y4500147D01*
X27275612Y4500151D01*
X27108411Y4632199D01*
X27108407Y4632201D01*
X27104356Y4635401D01*
X26908786Y4743361D01*
X26903917Y4745085D01*
X26903913Y4745087D01*
X26703084Y4816204D01*
X26703080Y4816205D01*
X26698209Y4817930D01*
X26693116Y4818837D01*
X26693113Y4818838D01*
X26556009Y4843260D01*
X26492451Y4874898D01*
X26456088Y4935876D01*
X26458465Y5006832D01*
X26498826Y5065240D01*
X26513588Y5075536D01*
X26568790Y5108442D01*
X26568796Y5108447D01*
X26574839Y5112049D01*
X26694009Y5225532D01*
X26703687Y5240099D01*
X26758043Y5285769D01*
X26828462Y5294802D01*
X26892587Y5264330D01*
X26904499Y5251516D01*
X26905643Y5249627D01*
X27019955Y5131253D01*
X27157653Y5041146D01*
X27311892Y4983785D01*
X27318873Y4982854D01*
X27318875Y4982853D01*
X27468025Y4962952D01*
X27468029Y4962952D01*
X27475006Y4962021D01*
X27482017Y4962659D01*
X27482021Y4962659D01*
X27631867Y4976296D01*
X27631868Y4976296D01*
X27638888Y4976935D01*
X27684634Y4991799D01*
X27788694Y5025610D01*
X27788697Y5025611D01*
X27795393Y5027787D01*
X27936743Y5112049D01*
X28055913Y5225532D01*
X28068558Y5244564D01*
X28143078Y5356725D01*
X28143079Y5356727D01*
X28146979Y5362597D01*
X28205415Y5516432D01*
X28228317Y5679390D01*
X28228605Y5700000D01*
X28210262Y5863534D01*
X28204462Y5880191D01*
X28158462Y6012283D01*
X28156144Y6018940D01*
X28101880Y6105781D01*
X28072673Y6152521D01*
X28068940Y6158495D01*
X28003733Y6224159D01*
X27957950Y6270263D01*
X27957946Y6270266D01*
X27952986Y6275261D01*
X27814044Y6363437D01*
X27725172Y6395083D01*
X27665653Y6416277D01*
X27665651Y6416278D01*
X27659019Y6418639D01*
X27652033Y6419472D01*
X27652029Y6419473D01*
X27535008Y6433426D01*
X27495617Y6438123D01*
X27488614Y6437387D01*
X27488613Y6437387D01*
X27445399Y6432845D01*
X27331959Y6420922D01*
X27325291Y6418652D01*
X27182846Y6370160D01*
X27182843Y6370159D01*
X27176179Y6367890D01*
X27109939Y6327139D01*
X27042024Y6285357D01*
X27036019Y6281663D01*
X27024378Y6270263D01*
X26927882Y6175767D01*
X26918446Y6166527D01*
X26914629Y6160605D01*
X26910181Y6155150D01*
X26908797Y6156279D01*
X26861957Y6115796D01*
X26791671Y6105781D01*
X26727127Y6135356D01*
X26711015Y6152211D01*
X26710768Y6152523D01*
X26707036Y6158495D01*
X26641829Y6224159D01*
X26596046Y6270263D01*
X26596042Y6270266D01*
X26591082Y6275261D01*
X26452140Y6363437D01*
X26363268Y6395083D01*
X26303749Y6416277D01*
X26303747Y6416278D01*
X26297115Y6418639D01*
X26290129Y6419472D01*
X26290125Y6419473D01*
X26173104Y6433426D01*
X26133713Y6438123D01*
X26126710Y6437387D01*
X26126709Y6437387D01*
X26083495Y6432845D01*
X25970055Y6420922D01*
X25963387Y6418652D01*
X25820942Y6370160D01*
X25820939Y6370159D01*
X25814275Y6367890D01*
X25748035Y6327139D01*
X25680120Y6285357D01*
X25674115Y6281663D01*
X25662474Y6270263D01*
X25565978Y6175767D01*
X25556542Y6166527D01*
X25552725Y6160605D01*
X25548277Y6155150D01*
X25546893Y6156279D01*
X25500053Y6115796D01*
X25429767Y6105781D01*
X25365223Y6135356D01*
X25349111Y6152211D01*
X25348864Y6152523D01*
X25345132Y6158495D01*
X25279925Y6224159D01*
X25234142Y6270263D01*
X25234138Y6270266D01*
X25229178Y6275261D01*
X25090236Y6363437D01*
X25061605Y6373632D01*
X25001365Y6395083D01*
X24943901Y6436778D01*
X24918101Y6502920D01*
X24932156Y6572512D01*
X24979115Y6622011D01*
X25040230Y6658442D01*
X25040236Y6658447D01*
X25046279Y6662049D01*
X25165449Y6775532D01*
X25178092Y6794561D01*
X25252614Y6906725D01*
X25252615Y6906727D01*
X25256515Y6912597D01*
X25314951Y7066432D01*
X25326031Y7145271D01*
X25337302Y7225466D01*
X25337303Y7225473D01*
X25337853Y7229390D01*
X25338141Y7250000D01*
X25319798Y7413534D01*
X25313998Y7430191D01*
X25288727Y7502757D01*
X25265680Y7568940D01*
X25261084Y7576296D01*
X25182209Y7702521D01*
X25178476Y7708495D01*
X25110902Y7776542D01*
X25067486Y7820263D01*
X25067482Y7820266D01*
X25062522Y7825261D01*
X24923580Y7913437D01*
X24862993Y7935011D01*
X24775189Y7966277D01*
X24775187Y7966278D01*
X24768555Y7968639D01*
X24761569Y7969472D01*
X24761565Y7969473D01*
X24636711Y7984360D01*
X24605153Y7988123D01*
X24598150Y7987387D01*
X24598149Y7987387D01*
X24569350Y7984360D01*
X24441495Y7970922D01*
X24434827Y7968652D01*
X24289093Y7919040D01*
X24218160Y7916022D01*
X24206220Y7919619D01*
X24075190Y7966277D01*
X24075185Y7966278D01*
X24068555Y7968639D01*
X24061569Y7969472D01*
X24061565Y7969473D01*
X23936711Y7984360D01*
X23905153Y7988123D01*
X23898150Y7987387D01*
X23898149Y7987387D01*
X23869350Y7984360D01*
X23741495Y7970922D01*
X23734827Y7968652D01*
X23592382Y7920160D01*
X23592379Y7920159D01*
X23585715Y7917890D01*
X23512679Y7872958D01*
X23460331Y7840753D01*
X23445555Y7831663D01*
X23398769Y7785847D01*
X23336983Y7725341D01*
X23327982Y7716527D01*
X23238838Y7578203D01*
X23236427Y7571580D01*
X23236426Y7571577D01*
X23184966Y7430191D01*
X23184965Y7430186D01*
X23182556Y7423568D01*
X23161931Y7260306D01*
X23177989Y7096532D01*
X23229932Y6940385D01*
X23233581Y6934360D01*
X23310355Y6807593D01*
X23315179Y6799627D01*
X23320070Y6794562D01*
X23320071Y6794561D01*
X23364917Y6748122D01*
X23429491Y6681253D01*
X23567189Y6591146D01*
X23721428Y6533785D01*
X23728409Y6532854D01*
X23728411Y6532853D01*
X23877561Y6512952D01*
X23877565Y6512952D01*
X23884542Y6512021D01*
X23891553Y6512659D01*
X23891557Y6512659D01*
X24041403Y6526296D01*
X24041404Y6526296D01*
X24048424Y6526935D01*
X24204929Y6577787D01*
X24205060Y6577385D01*
X24271123Y6586710D01*
X24296791Y6580137D01*
X24366639Y6554161D01*
X24423515Y6511668D01*
X24448389Y6445172D01*
X24433364Y6375783D01*
X24388742Y6328746D01*
X24318215Y6285357D01*
X24318213Y6285356D01*
X24312211Y6281663D01*
X24300570Y6270263D01*
X24204074Y6175767D01*
X24194638Y6166527D01*
X24105494Y6028203D01*
X24103083Y6021580D01*
X24103082Y6021577D01*
X24051622Y5880191D01*
X24051621Y5880186D01*
X24049212Y5873568D01*
X24028587Y5710306D01*
X24044645Y5546532D01*
X24096588Y5390385D01*
X24181835Y5249627D01*
X24186726Y5244562D01*
X24186727Y5244561D01*
X24234829Y5194750D01*
X24296147Y5131253D01*
X24433845Y5041146D01*
X24588084Y4983785D01*
X24595065Y4982854D01*
X24595067Y4982853D01*
X24744217Y4962952D01*
X24744221Y4962952D01*
X24751198Y4962021D01*
X24758209Y4962659D01*
X24758213Y4962659D01*
X24908059Y4976296D01*
X24908060Y4976296D01*
X24915080Y4976935D01*
X24960826Y4991799D01*
X25064886Y5025610D01*
X25064889Y5025611D01*
X25071585Y5027787D01*
X25212935Y5112049D01*
X25332105Y5225532D01*
X25341783Y5240099D01*
X25396139Y5285769D01*
X25466558Y5294802D01*
X25530683Y5264330D01*
X25542595Y5251516D01*
X25543739Y5249627D01*
X25658051Y5131253D01*
X25795749Y5041146D01*
X25876897Y5010967D01*
X25933772Y4968475D01*
X25958646Y4901979D01*
X25943621Y4832590D01*
X25893467Y4782340D01*
X25872124Y4773106D01*
X25821753Y4756642D01*
X25795249Y4742845D01*
X25638540Y4661267D01*
X25623604Y4653492D01*
X25619471Y4650389D01*
X25619468Y4650387D01*
X25533280Y4585675D01*
X25444962Y4519364D01*
X25441390Y4515626D01*
X25333726Y4402962D01*
X25290626Y4357861D01*
X25183198Y4200378D01*
X25128290Y4155378D01*
X25057765Y4147207D01*
X24994018Y4178461D01*
X24973321Y4202945D01*
X24892819Y4327382D01*
X24892817Y4327385D01*
X24890011Y4331722D01*
X24739667Y4496948D01*
X24735616Y4500147D01*
X24735612Y4500151D01*
X24568411Y4632199D01*
X24568407Y4632201D01*
X24564356Y4635401D01*
X24368786Y4743361D01*
X24363917Y4745085D01*
X24363913Y4745087D01*
X24163084Y4816204D01*
X24163080Y4816205D01*
X24158209Y4817930D01*
X24153116Y4818837D01*
X24153113Y4818838D01*
X23943370Y4856199D01*
X23943364Y4856200D01*
X23938281Y4857105D01*
X23864449Y4858007D01*
X23720078Y4859771D01*
X23720076Y4859771D01*
X23714908Y4859834D01*
X23494088Y4826044D01*
X23281753Y4756642D01*
X23255249Y4742845D01*
X23098540Y4661267D01*
X23083604Y4653492D01*
X23079471Y4650389D01*
X23079468Y4650387D01*
X22993280Y4585675D01*
X22904962Y4519364D01*
X22901390Y4515626D01*
X22793726Y4402962D01*
X22750626Y4357861D01*
X22643198Y4200378D01*
X22588290Y4155378D01*
X22517765Y4147207D01*
X22454018Y4178461D01*
X22433321Y4202945D01*
X22352819Y4327382D01*
X22352817Y4327385D01*
X22350011Y4331722D01*
X22199667Y4496948D01*
X22195616Y4500147D01*
X22195612Y4500151D01*
X22028411Y4632199D01*
X22028407Y4632201D01*
X22024356Y4635401D01*
X21987257Y4655881D01*
X21925415Y4690019D01*
X21829719Y4742846D01*
X21779749Y4793278D01*
X21764977Y4862721D01*
X21790093Y4929126D01*
X21847124Y4971411D01*
X21907277Y4978047D01*
X21967215Y4970050D01*
X22027390Y4962021D01*
X22034401Y4962659D01*
X22034405Y4962659D01*
X22184251Y4976296D01*
X22184252Y4976296D01*
X22191272Y4976935D01*
X22237018Y4991799D01*
X22341078Y5025610D01*
X22341081Y5025611D01*
X22347777Y5027787D01*
X22489127Y5112049D01*
X22608297Y5225532D01*
X22620942Y5244564D01*
X22695462Y5356725D01*
X22695463Y5356727D01*
X22699363Y5362597D01*
X22757799Y5516432D01*
X22780701Y5679390D01*
X22780989Y5700000D01*
X22762646Y5863534D01*
X22756846Y5880191D01*
X22710846Y6012283D01*
X22708528Y6018940D01*
X22654264Y6105781D01*
X22625057Y6152521D01*
X22621324Y6158495D01*
X22556117Y6224159D01*
X22510334Y6270263D01*
X22510330Y6270266D01*
X22505370Y6275261D01*
X22366428Y6363437D01*
X22277556Y6395083D01*
X22218037Y6416277D01*
X22218035Y6416278D01*
X22211403Y6418639D01*
X22204417Y6419472D01*
X22204413Y6419473D01*
X22087392Y6433426D01*
X22048001Y6438123D01*
X22040998Y6437387D01*
X22040997Y6437387D01*
X21997783Y6432845D01*
X21884343Y6420922D01*
X21877675Y6418652D01*
X21735230Y6370160D01*
X21735227Y6370159D01*
X21728563Y6367890D01*
X21662323Y6327139D01*
X21594408Y6285357D01*
X21588403Y6281663D01*
X21576762Y6270263D01*
X21480266Y6175767D01*
X21470830Y6166527D01*
X21381686Y6028203D01*
X21379275Y6021580D01*
X21379274Y6021577D01*
X21327814Y5880191D01*
X21327813Y5880186D01*
X21325404Y5873568D01*
X21304779Y5710306D01*
X21320837Y5546532D01*
X21372780Y5390385D01*
X21458027Y5249627D01*
X21462918Y5244562D01*
X21462919Y5244561D01*
X21511021Y5194750D01*
X21572339Y5131253D01*
X21697166Y5049569D01*
X21743211Y4995534D01*
X21752735Y4925179D01*
X21722711Y4860844D01*
X21662670Y4822954D01*
X21606074Y4820092D01*
X21403370Y4856199D01*
X21403364Y4856200D01*
X21398281Y4857105D01*
X21324449Y4858007D01*
X21180078Y4859771D01*
X21180076Y4859771D01*
X21174908Y4859834D01*
X20954088Y4826044D01*
X20741753Y4756642D01*
X20715249Y4742845D01*
X20558540Y4661267D01*
X20543604Y4653492D01*
X20539471Y4650389D01*
X20539468Y4650387D01*
X20453280Y4585675D01*
X20364962Y4519364D01*
X20361390Y4515626D01*
X20253726Y4402962D01*
X20210626Y4357861D01*
X20084740Y4173319D01*
X19990685Y3970694D01*
X19930986Y3755429D01*
X19907248Y3533304D01*
X19907545Y3528151D01*
X19907545Y3528148D01*
X19913008Y3433409D01*
X19920107Y3310284D01*
X19921244Y3305238D01*
X19921245Y3305232D01*
X19941116Y3217060D01*
X19969219Y3092360D01*
X20053263Y2885383D01*
X20104016Y2802561D01*
X20167288Y2699311D01*
X20169984Y2694911D01*
X20173362Y2691011D01*
X20173363Y2691010D01*
X20190699Y2670997D01*
X20220181Y2606412D01*
X20210066Y2536139D01*
X20163565Y2482491D01*
X20095461Y2462500D01*
X17363122Y2462500D01*
X17295001Y2482502D01*
X17248508Y2536158D01*
X17238404Y2606432D01*
X17260799Y2662026D01*
X17267246Y2670997D01*
X17358450Y2797922D01*
X17379317Y2840142D01*
X17455133Y2993546D01*
X17455134Y2993548D01*
X17457427Y2998188D01*
X17522367Y3211930D01*
X17551526Y3433409D01*
X17553153Y3499999D01*
X17534849Y3722638D01*
X17480428Y3939297D01*
X17391351Y4144159D01*
X17270011Y4331722D01*
X17119667Y4496948D01*
X17115612Y4500151D01*
X17000404Y4591137D01*
X16959342Y4649055D01*
X16952497Y4690019D01*
X16952497Y5710306D01*
X17219067Y5710306D01*
X17235125Y5546532D01*
X17287068Y5390385D01*
X17372315Y5249627D01*
X17377206Y5244562D01*
X17377207Y5244561D01*
X17425309Y5194750D01*
X17486627Y5131253D01*
X17624325Y5041146D01*
X17778564Y4983785D01*
X17785545Y4982854D01*
X17785547Y4982853D01*
X17934697Y4962952D01*
X17934701Y4962952D01*
X17941678Y4962021D01*
X17948689Y4962659D01*
X17948693Y4962659D01*
X18098539Y4976296D01*
X18098540Y4976296D01*
X18105560Y4976935D01*
X18151306Y4991799D01*
X18255366Y5025610D01*
X18255369Y5025611D01*
X18262065Y5027787D01*
X18403415Y5112049D01*
X18522585Y5225532D01*
X18535230Y5244564D01*
X18609750Y5356725D01*
X18609751Y5356727D01*
X18613651Y5362597D01*
X18672087Y5516432D01*
X18694989Y5679390D01*
X18695277Y5700000D01*
X18676934Y5863534D01*
X18671134Y5880191D01*
X18625134Y6012283D01*
X18622816Y6018940D01*
X18568552Y6105781D01*
X18539345Y6152521D01*
X18535612Y6158495D01*
X18470405Y6224159D01*
X18424622Y6270263D01*
X18424618Y6270266D01*
X18419658Y6275261D01*
X18280716Y6363437D01*
X18191844Y6395083D01*
X18132325Y6416277D01*
X18132323Y6416278D01*
X18125691Y6418639D01*
X18118705Y6419472D01*
X18118701Y6419473D01*
X18001680Y6433426D01*
X17962289Y6438123D01*
X17955286Y6437387D01*
X17955285Y6437387D01*
X17912071Y6432845D01*
X17798631Y6420922D01*
X17791963Y6418652D01*
X17649518Y6370160D01*
X17649515Y6370159D01*
X17642851Y6367890D01*
X17576611Y6327139D01*
X17508696Y6285357D01*
X17502691Y6281663D01*
X17491050Y6270263D01*
X17394554Y6175767D01*
X17385118Y6166527D01*
X17295974Y6028203D01*
X17293563Y6021580D01*
X17293562Y6021577D01*
X17242102Y5880191D01*
X17242101Y5880186D01*
X17239692Y5873568D01*
X17219067Y5710306D01*
X16952497Y5710306D01*
X16952497Y6171969D01*
X16972499Y6240090D01*
X16989402Y6261064D01*
X18457269Y7728931D01*
X18519581Y7762957D01*
X18590396Y7757892D01*
X18647232Y7715345D01*
X18665922Y7679607D01*
X18679932Y7637492D01*
X18683581Y7631467D01*
X18744877Y7530257D01*
X18765179Y7496734D01*
X18770070Y7491669D01*
X18770071Y7491668D01*
X18814890Y7445257D01*
X18879491Y7378360D01*
X19017189Y7288253D01*
X19171428Y7230892D01*
X19178409Y7229961D01*
X19178411Y7229960D01*
X19327561Y7210059D01*
X19327565Y7210059D01*
X19334542Y7209128D01*
X19341553Y7209766D01*
X19341557Y7209766D01*
X19491403Y7223403D01*
X19491404Y7223403D01*
X19498424Y7224042D01*
X19535965Y7236240D01*
X19648230Y7272717D01*
X19648233Y7272718D01*
X19654929Y7274894D01*
X19763700Y7339735D01*
X19832455Y7357435D01*
X19897209Y7336940D01*
X19967189Y7291146D01*
X20121428Y7233785D01*
X20128409Y7232854D01*
X20128411Y7232853D01*
X20277561Y7212952D01*
X20277565Y7212952D01*
X20284542Y7212021D01*
X20291553Y7212659D01*
X20291557Y7212659D01*
X20441403Y7226296D01*
X20441404Y7226296D01*
X20448424Y7226935D01*
X20481121Y7237559D01*
X20598230Y7275610D01*
X20598233Y7275611D01*
X20604929Y7277787D01*
X20659057Y7310054D01*
X20727812Y7327754D01*
X20792569Y7307256D01*
X20811291Y7295004D01*
X20811301Y7294999D01*
X20817189Y7291146D01*
X20823785Y7288693D01*
X20823787Y7288692D01*
X20858074Y7275941D01*
X20971428Y7233785D01*
X20978409Y7232854D01*
X20978411Y7232853D01*
X21127561Y7212952D01*
X21127565Y7212952D01*
X21134542Y7212021D01*
X21141553Y7212659D01*
X21141557Y7212659D01*
X21291403Y7226296D01*
X21291404Y7226296D01*
X21298424Y7226935D01*
X21331121Y7237559D01*
X21448230Y7275610D01*
X21448233Y7275611D01*
X21454929Y7277787D01*
X21596279Y7362049D01*
X21715449Y7475532D01*
X21721187Y7484168D01*
X21802614Y7606725D01*
X21802615Y7606727D01*
X21806515Y7612597D01*
X21864951Y7766432D01*
X21878516Y7862952D01*
X21887302Y7925466D01*
X21887303Y7925473D01*
X21887853Y7929390D01*
X21888141Y7950000D01*
X21869798Y8113534D01*
X21863576Y8131403D01*
X21823245Y8247215D01*
X21815680Y8268940D01*
X21787807Y8313547D01*
X21732209Y8402521D01*
X21728476Y8408495D01*
X21655817Y8481663D01*
X21627764Y8509913D01*
X25912324Y8509913D01*
X25928382Y8346139D01*
X25980325Y8189992D01*
X25983974Y8183967D01*
X26053974Y8068385D01*
X26065572Y8049234D01*
X26070463Y8044169D01*
X26070464Y8044168D01*
X26114198Y7998880D01*
X26179884Y7930860D01*
X26317582Y7840753D01*
X26471821Y7783392D01*
X26478802Y7782461D01*
X26478804Y7782460D01*
X26627954Y7762559D01*
X26627958Y7762559D01*
X26634935Y7761628D01*
X26641946Y7762266D01*
X26641950Y7762266D01*
X26791796Y7775903D01*
X26791797Y7775903D01*
X26798817Y7776542D01*
X26851436Y7793639D01*
X26948623Y7825217D01*
X26948626Y7825218D01*
X26955322Y7827394D01*
X27096672Y7911656D01*
X27215842Y8025139D01*
X27222363Y8034954D01*
X27276720Y8080624D01*
X27347140Y8089657D01*
X27411264Y8059184D01*
X27448734Y7998880D01*
X27453299Y7963466D01*
X27453207Y7956903D01*
X27452324Y7949913D01*
X27453011Y7942906D01*
X27453011Y7942901D01*
X27460879Y7862659D01*
X27468382Y7786139D01*
X27520325Y7629992D01*
X27523974Y7623967D01*
X27601030Y7496734D01*
X27605572Y7489234D01*
X27610463Y7484169D01*
X27610464Y7484168D01*
X27623496Y7470673D01*
X27719884Y7370860D01*
X27857582Y7280753D01*
X28011821Y7223392D01*
X28018802Y7222461D01*
X28018804Y7222460D01*
X28167954Y7202559D01*
X28167958Y7202559D01*
X28174935Y7201628D01*
X28181946Y7202266D01*
X28181950Y7202266D01*
X28331796Y7215903D01*
X28331797Y7215903D01*
X28338817Y7216542D01*
X28368603Y7226220D01*
X28488623Y7265217D01*
X28488626Y7265218D01*
X28495322Y7267394D01*
X28636672Y7351656D01*
X28755842Y7465139D01*
X28842479Y7595538D01*
X28896836Y7641207D01*
X28967256Y7650239D01*
X29031380Y7619765D01*
X29059923Y7581202D01*
X29060325Y7579992D01*
X29063974Y7573967D01*
X29139278Y7449627D01*
X29145572Y7439234D01*
X29259884Y7320860D01*
X29397582Y7230753D01*
X29551821Y7173392D01*
X29558802Y7172461D01*
X29558804Y7172460D01*
X29707954Y7152559D01*
X29707958Y7152559D01*
X29714935Y7151628D01*
X29721946Y7152266D01*
X29721950Y7152266D01*
X29871796Y7165903D01*
X29871797Y7165903D01*
X29878817Y7166542D01*
X29986800Y7201628D01*
X30028623Y7215217D01*
X30028626Y7215218D01*
X30035322Y7217394D01*
X30176672Y7301656D01*
X30295842Y7415139D01*
X30300402Y7422002D01*
X30383007Y7546332D01*
X30383008Y7546334D01*
X30386908Y7552204D01*
X30445344Y7706039D01*
X30462093Y7825217D01*
X30467695Y7865073D01*
X30467696Y7865080D01*
X30468246Y7868997D01*
X30468534Y7889607D01*
X30450191Y8053141D01*
X30444883Y8068385D01*
X30408254Y8173568D01*
X30396073Y8208547D01*
X30380385Y8233654D01*
X30312602Y8342128D01*
X30308869Y8348102D01*
X30234088Y8423407D01*
X30197879Y8459870D01*
X30197875Y8459873D01*
X30192915Y8464868D01*
X30053973Y8553044D01*
X29968861Y8583351D01*
X29905582Y8605884D01*
X29905580Y8605885D01*
X29898948Y8608246D01*
X29891962Y8609079D01*
X29891958Y8609080D01*
X29777464Y8622732D01*
X29735546Y8627730D01*
X29728543Y8626994D01*
X29728542Y8626994D01*
X29685328Y8622452D01*
X29571888Y8610529D01*
X29565220Y8608259D01*
X29422775Y8559767D01*
X29422772Y8559766D01*
X29416108Y8557497D01*
X29334311Y8507175D01*
X29284825Y8476731D01*
X29275948Y8471270D01*
X29245174Y8441134D01*
X29166072Y8363671D01*
X29158375Y8356134D01*
X29083686Y8240240D01*
X29079792Y8234197D01*
X29026077Y8187773D01*
X28955791Y8177758D01*
X28891247Y8207334D01*
X28860249Y8248013D01*
X28858391Y8251892D01*
X28856073Y8258547D01*
X28768869Y8398102D01*
X28707531Y8459870D01*
X28657879Y8509870D01*
X28657875Y8509873D01*
X28652915Y8514868D01*
X28513973Y8603044D01*
X28444647Y8627730D01*
X28365582Y8655884D01*
X28365580Y8655885D01*
X28358948Y8658246D01*
X28351962Y8659079D01*
X28351958Y8659080D01*
X28232983Y8673266D01*
X28195546Y8677730D01*
X28188543Y8676994D01*
X28188542Y8676994D01*
X28145328Y8672452D01*
X28031888Y8660529D01*
X28025220Y8658259D01*
X27882775Y8609767D01*
X27882772Y8609766D01*
X27876108Y8607497D01*
X27798841Y8559962D01*
X27746501Y8527762D01*
X27735948Y8521270D01*
X27713503Y8499290D01*
X27625890Y8413493D01*
X27618375Y8406134D01*
X27614556Y8400209D01*
X27611824Y8396858D01*
X27553271Y8356707D01*
X27482306Y8354586D01*
X27421460Y8391169D01*
X27390051Y8454839D01*
X27388884Y8478988D01*
X27388246Y8478997D01*
X27388479Y8495645D01*
X27388479Y8495651D01*
X27388534Y8499607D01*
X27370191Y8663141D01*
X27367482Y8670922D01*
X27336251Y8760604D01*
X27316073Y8818547D01*
X27303065Y8839365D01*
X27232602Y8952128D01*
X27228869Y8958102D01*
X27150233Y9037289D01*
X27117879Y9069870D01*
X27117875Y9069873D01*
X27112915Y9074868D01*
X26973973Y9163044D01*
X26905964Y9187261D01*
X26825582Y9215884D01*
X26825580Y9215885D01*
X26818948Y9218246D01*
X26811962Y9219079D01*
X26811958Y9219080D01*
X26697464Y9232732D01*
X26655546Y9237730D01*
X26648543Y9236994D01*
X26648542Y9236994D01*
X26605328Y9232452D01*
X26491888Y9220529D01*
X26485220Y9218259D01*
X26342775Y9169767D01*
X26342772Y9169766D01*
X26336108Y9167497D01*
X26195948Y9081270D01*
X26151888Y9038123D01*
X26083815Y8971461D01*
X26078375Y8966134D01*
X25989231Y8827810D01*
X25986820Y8821187D01*
X25986819Y8821184D01*
X25935359Y8679798D01*
X25935358Y8679793D01*
X25932949Y8673175D01*
X25912324Y8509913D01*
X21627764Y8509913D01*
X21617486Y8520263D01*
X21617482Y8520266D01*
X21612522Y8525261D01*
X21473580Y8613437D01*
X21391970Y8642497D01*
X21325189Y8666277D01*
X21325187Y8666278D01*
X21318555Y8668639D01*
X21311569Y8669472D01*
X21311565Y8669473D01*
X21197071Y8683125D01*
X21155153Y8688123D01*
X21148150Y8687387D01*
X21148149Y8687387D01*
X21104935Y8682845D01*
X20991495Y8670922D01*
X20984827Y8668652D01*
X20842382Y8620160D01*
X20842379Y8620159D01*
X20835715Y8617890D01*
X20813036Y8603938D01*
X20791497Y8590687D01*
X20722996Y8572028D01*
X20657959Y8591619D01*
X20623580Y8613437D01*
X20541970Y8642497D01*
X20475189Y8666277D01*
X20475187Y8666278D01*
X20468555Y8668639D01*
X20461569Y8669472D01*
X20461565Y8669473D01*
X20347071Y8683125D01*
X20305153Y8688123D01*
X20298150Y8687387D01*
X20298149Y8687387D01*
X20254935Y8682845D01*
X20141495Y8670922D01*
X20134827Y8668652D01*
X19992382Y8620160D01*
X19992379Y8620159D01*
X19985715Y8617890D01*
X19955444Y8599267D01*
X19888404Y8558024D01*
X19819903Y8539366D01*
X19754867Y8558957D01*
X19673580Y8610544D01*
X19650810Y8618652D01*
X19614530Y8631571D01*
X19557066Y8673266D01*
X19531267Y8739409D01*
X19545323Y8809000D01*
X19567703Y8839365D01*
X21308540Y10580202D01*
X21370852Y10614228D01*
X21397635Y10617107D01*
X21579918Y10617107D01*
X21672795Y10627935D01*
X21704728Y10631658D01*
X21704730Y10631658D01*
X21712000Y10632506D01*
X21718877Y10635002D01*
X21718880Y10635003D01*
X21872255Y10690676D01*
X21879134Y10693173D01*
X22027828Y10790661D01*
X22150107Y10919742D01*
X22239412Y11073491D01*
X22290951Y11243661D01*
X22301290Y11410306D01*
X28992324Y11410306D01*
X29008382Y11246532D01*
X29060325Y11090385D01*
X29145572Y10949627D01*
X29150463Y10944562D01*
X29150464Y10944561D01*
X29216663Y10876010D01*
X29259884Y10831253D01*
X29397582Y10741146D01*
X29551821Y10683785D01*
X29558802Y10682854D01*
X29558804Y10682853D01*
X29707954Y10662952D01*
X29707958Y10662952D01*
X29714935Y10662021D01*
X29721946Y10662659D01*
X29721950Y10662659D01*
X29871796Y10676296D01*
X29871797Y10676296D01*
X29878817Y10676935D01*
X29941318Y10697243D01*
X30028623Y10725610D01*
X30028626Y10725611D01*
X30035322Y10727787D01*
X30176672Y10812049D01*
X30295842Y10925532D01*
X30308485Y10944561D01*
X30383007Y11056725D01*
X30383008Y11056727D01*
X30386908Y11062597D01*
X30445344Y11216432D01*
X30463358Y11344607D01*
X30467695Y11375466D01*
X30467696Y11375473D01*
X30468246Y11379390D01*
X30468534Y11400000D01*
X30450191Y11563534D01*
X30444391Y11580191D01*
X30415363Y11663547D01*
X30396073Y11718940D01*
X30389613Y11729279D01*
X30312602Y11852521D01*
X30308869Y11858495D01*
X30229959Y11937958D01*
X30197879Y11970263D01*
X30197875Y11970266D01*
X30192915Y11975261D01*
X30053973Y12063437D01*
X29999792Y12082730D01*
X29905582Y12116277D01*
X29905580Y12116278D01*
X29898948Y12118639D01*
X29891962Y12119472D01*
X29891958Y12119473D01*
X29777464Y12133125D01*
X29735546Y12138123D01*
X29728543Y12137387D01*
X29728542Y12137387D01*
X29706479Y12135068D01*
X29571888Y12120922D01*
X29565220Y12118652D01*
X29422775Y12070160D01*
X29422772Y12070159D01*
X29416108Y12067890D01*
X29347679Y12025792D01*
X29303141Y11998392D01*
X29275948Y11981663D01*
X29158375Y11866527D01*
X29069231Y11728203D01*
X29066820Y11721580D01*
X29066819Y11721577D01*
X29015359Y11580191D01*
X29015358Y11580186D01*
X29012949Y11573568D01*
X28992324Y11410306D01*
X22301290Y11410306D01*
X22301961Y11421123D01*
X22293128Y11472532D01*
X22273090Y11589142D01*
X22271850Y11596358D01*
X22202234Y11759966D01*
X22096847Y11903171D01*
X22067663Y11927965D01*
X21966921Y12013552D01*
X21966917Y12013555D01*
X21961342Y12018291D01*
X21802989Y12099150D01*
X21795884Y12100889D01*
X21795880Y12100890D01*
X21700580Y12124209D01*
X21630281Y12141411D01*
X21624679Y12141759D01*
X21624676Y12141759D01*
X21621002Y12141987D01*
X21620992Y12141987D01*
X21619063Y12142107D01*
X21096983Y12142107D01*
X21078033Y12143540D01*
X21063634Y12145731D01*
X21063628Y12145731D01*
X21056399Y12146831D01*
X21049107Y12146238D01*
X21049104Y12146238D01*
X21003424Y12142522D01*
X20993209Y12142107D01*
X20985082Y12142107D01*
X20981446Y12141683D01*
X20981444Y12141683D01*
X20977992Y12141280D01*
X20956683Y12138796D01*
X20952363Y12138369D01*
X20879181Y12132416D01*
X20872219Y12130160D01*
X20866231Y12128964D01*
X20860274Y12127556D01*
X20853000Y12126708D01*
X20846118Y12124210D01*
X20846114Y12124209D01*
X20784000Y12101662D01*
X20779896Y12100252D01*
X20710032Y12077620D01*
X20703769Y12073820D01*
X20698227Y12071282D01*
X20692751Y12068540D01*
X20685866Y12066041D01*
X20679742Y12062026D01*
X20624475Y12025792D01*
X20620807Y12023477D01*
X20558026Y11985380D01*
X20549602Y11977939D01*
X20549576Y11977969D01*
X20546648Y11975371D01*
X20543294Y11972567D01*
X20537172Y11968553D01*
X20532139Y11963240D01*
X20483602Y11912003D01*
X20481224Y11909561D01*
X17066123Y8494461D01*
X17003811Y8460435D01*
X16932995Y8465500D01*
X16909514Y8477171D01*
X16779536Y8559658D01*
X16779530Y8559661D01*
X16773580Y8563437D01*
X16694436Y8591619D01*
X16625189Y8616277D01*
X16625187Y8616278D01*
X16618555Y8618639D01*
X16611569Y8619472D01*
X16611565Y8619473D01*
X16487491Y8634267D01*
X16455153Y8638123D01*
X16448150Y8637387D01*
X16448149Y8637387D01*
X16404935Y8632845D01*
X16291495Y8620922D01*
X16284827Y8618652D01*
X16142382Y8570160D01*
X16142379Y8570159D01*
X16135715Y8567890D01*
X16057647Y8519862D01*
X16024723Y8499607D01*
X15995555Y8481663D01*
X15990525Y8476737D01*
X15990517Y8476731D01*
X15881372Y8369848D01*
X15818707Y8336478D01*
X15747949Y8342284D01*
X15691562Y8385424D01*
X15686361Y8393102D01*
X15682505Y8399274D01*
X15648869Y8453102D01*
X15573464Y8529035D01*
X15537879Y8564870D01*
X15537875Y8564873D01*
X15532915Y8569868D01*
X15393973Y8658044D01*
X15311650Y8687358D01*
X15245582Y8710884D01*
X15245580Y8710885D01*
X15238948Y8713246D01*
X15231962Y8714079D01*
X15231958Y8714080D01*
X15117464Y8727732D01*
X15075546Y8732730D01*
X15068543Y8731994D01*
X15068542Y8731994D01*
X15025328Y8727452D01*
X14911888Y8715529D01*
X14905220Y8713259D01*
X14762775Y8664767D01*
X14762772Y8664766D01*
X14756108Y8662497D01*
X14677601Y8614199D01*
X14622569Y8580343D01*
X14615948Y8576270D01*
X14580058Y8541124D01*
X14508726Y8471270D01*
X14498375Y8461134D01*
X14409231Y8322810D01*
X14406820Y8316187D01*
X14406819Y8316184D01*
X14355359Y8174798D01*
X14355358Y8174793D01*
X14352949Y8168175D01*
X14332324Y8004913D01*
X14348382Y7841139D01*
X14400325Y7684992D01*
X14417154Y7657204D01*
X14479332Y7554538D01*
X14485572Y7544234D01*
X14490463Y7539169D01*
X14490464Y7539168D01*
X14504886Y7524234D01*
X14599884Y7425860D01*
X14737582Y7335753D01*
X14891821Y7278392D01*
X14898802Y7277461D01*
X14898804Y7277460D01*
X15047954Y7257559D01*
X15047958Y7257559D01*
X15054935Y7256628D01*
X15061946Y7257266D01*
X15061950Y7257266D01*
X15211796Y7270903D01*
X15211797Y7270903D01*
X15218817Y7271542D01*
X15262689Y7285797D01*
X15368623Y7320217D01*
X15368626Y7320218D01*
X15375322Y7322394D01*
X15516672Y7406656D01*
X15635842Y7520139D01*
X15636713Y7519224D01*
X15689794Y7554538D01*
X15760781Y7555664D01*
X15821108Y7518232D01*
X15834980Y7499491D01*
X15865179Y7449627D01*
X15866792Y7447957D01*
X15891833Y7383523D01*
X15877692Y7313949D01*
X15855384Y7283722D01*
X15698469Y7126807D01*
X15684056Y7114420D01*
X15666433Y7101451D01*
X15661689Y7095868D01*
X15661690Y7095868D01*
X15632018Y7060942D01*
X15625088Y7053426D01*
X15619344Y7047682D01*
X15617070Y7044808D01*
X15617064Y7044801D01*
X15601625Y7025286D01*
X15598834Y7021882D01*
X15556052Y6971525D01*
X15556049Y6971521D01*
X15551313Y6965946D01*
X15547985Y6959429D01*
X15544608Y6954365D01*
X15541381Y6949141D01*
X15536837Y6943397D01*
X15533738Y6936766D01*
X15505765Y6876915D01*
X15503834Y6872964D01*
X15488134Y6842217D01*
X15470454Y6807593D01*
X15468713Y6800478D01*
X15466576Y6794732D01*
X15464652Y6788949D01*
X15461553Y6782318D01*
X15449261Y6723218D01*
X15446605Y6710450D01*
X15445636Y6706168D01*
X15428193Y6634885D01*
X15427497Y6623667D01*
X15427458Y6623669D01*
X15427225Y6619768D01*
X15426836Y6615409D01*
X15425345Y6608241D01*
X15425543Y6600923D01*
X15426623Y6561009D01*
X15408471Y6492372D01*
X15356092Y6444445D01*
X15285751Y6432487D01*
X15245475Y6437289D01*
X15238481Y6438123D01*
X15231478Y6437387D01*
X15231477Y6437387D01*
X15188263Y6432845D01*
X15074823Y6420922D01*
X15068155Y6418652D01*
X14925710Y6370160D01*
X14925707Y6370159D01*
X14919043Y6367890D01*
X14852803Y6327139D01*
X14784888Y6285357D01*
X14778883Y6281663D01*
X14767242Y6270263D01*
X14670746Y6175767D01*
X14661310Y6166527D01*
X14657493Y6160605D01*
X14653045Y6155150D01*
X14651661Y6156279D01*
X14604821Y6115796D01*
X14534535Y6105781D01*
X14469991Y6135356D01*
X14453879Y6152211D01*
X14453632Y6152523D01*
X14449900Y6158495D01*
X14384693Y6224159D01*
X14338910Y6270263D01*
X14338906Y6270266D01*
X14333946Y6275261D01*
X14195004Y6363437D01*
X14106132Y6395083D01*
X14046613Y6416277D01*
X14046611Y6416278D01*
X14039979Y6418639D01*
X14032993Y6419472D01*
X14032989Y6419473D01*
X13915968Y6433426D01*
X13876577Y6438123D01*
X13869574Y6437387D01*
X13869573Y6437387D01*
X13826359Y6432845D01*
X13712919Y6420922D01*
X13706251Y6418652D01*
X13563806Y6370160D01*
X13563803Y6370159D01*
X13557139Y6367890D01*
X13490899Y6327139D01*
X13422984Y6285357D01*
X13416979Y6281663D01*
X13405338Y6270263D01*
X13308842Y6175767D01*
X13299406Y6166527D01*
X13210262Y6028203D01*
X13207851Y6021580D01*
X13207850Y6021577D01*
X13156390Y5880191D01*
X13156389Y5880186D01*
X13153980Y5873568D01*
X13133355Y5710306D01*
X13149413Y5546532D01*
X13201356Y5390385D01*
X13286603Y5249627D01*
X13291494Y5244562D01*
X13291495Y5244561D01*
X13339597Y5194750D01*
X13400915Y5131253D01*
X13406805Y5127399D01*
X13406811Y5127394D01*
X13490885Y5072378D01*
X13536934Y5018341D01*
X13546457Y4947986D01*
X13516432Y4883650D01*
X13456391Y4845761D01*
X13440951Y4842396D01*
X13425181Y4839983D01*
X13339202Y4826827D01*
X13339197Y4826826D01*
X13334088Y4826044D01*
X13121753Y4756642D01*
X13095249Y4742845D01*
X12938540Y4661267D01*
X12923604Y4653492D01*
X12919471Y4650389D01*
X12919468Y4650387D01*
X12833280Y4585675D01*
X12744962Y4519364D01*
X12741390Y4515626D01*
X12633726Y4402962D01*
X12590626Y4357861D01*
X12483198Y4200378D01*
X12428290Y4155378D01*
X12357765Y4147207D01*
X12294018Y4178461D01*
X12273321Y4202945D01*
X12192819Y4327382D01*
X12192817Y4327385D01*
X12190011Y4331722D01*
X12039667Y4496948D01*
X12035616Y4500147D01*
X12035612Y4500151D01*
X11868411Y4632199D01*
X11868407Y4632201D01*
X11864356Y4635401D01*
X11668786Y4743361D01*
X11663917Y4745085D01*
X11663913Y4745087D01*
X11486787Y4807810D01*
X11429251Y4849404D01*
X11403335Y4915502D01*
X11417269Y4985118D01*
X11464329Y5034812D01*
X11466145Y5035894D01*
X11593895Y5112049D01*
X11713065Y5225532D01*
X11725710Y5244564D01*
X11800230Y5356725D01*
X11800231Y5356727D01*
X11804131Y5362597D01*
X11862567Y5516432D01*
X11885469Y5679390D01*
X11885757Y5700000D01*
X11867414Y5863534D01*
X11861614Y5880191D01*
X11815614Y6012283D01*
X11813296Y6018940D01*
X11759032Y6105781D01*
X11729825Y6152521D01*
X11726092Y6158495D01*
X11660885Y6224159D01*
X11615102Y6270263D01*
X11615098Y6270266D01*
X11610138Y6275261D01*
X11471196Y6363437D01*
X11382324Y6395083D01*
X11322805Y6416277D01*
X11322803Y6416278D01*
X11316171Y6418639D01*
X11309185Y6419472D01*
X11309181Y6419473D01*
X11192160Y6433426D01*
X11152769Y6438123D01*
X11145766Y6437387D01*
X11145765Y6437387D01*
X11102551Y6432845D01*
X10989111Y6420922D01*
X10982443Y6418652D01*
X10839998Y6370160D01*
X10839995Y6370159D01*
X10833331Y6367890D01*
X10767091Y6327139D01*
X10699176Y6285357D01*
X10693171Y6281663D01*
X10681530Y6270263D01*
X10585034Y6175767D01*
X10575598Y6166527D01*
X10571781Y6160605D01*
X10567333Y6155150D01*
X10565949Y6156279D01*
X10519109Y6115796D01*
X10448823Y6105781D01*
X10384279Y6135356D01*
X10368167Y6152211D01*
X10367920Y6152523D01*
X10364188Y6158495D01*
X10298981Y6224159D01*
X10253198Y6270263D01*
X10253194Y6270266D01*
X10248234Y6275261D01*
X10109292Y6363437D01*
X10020420Y6395083D01*
X9960901Y6416277D01*
X9960899Y6416278D01*
X9954267Y6418639D01*
X9947281Y6419472D01*
X9947277Y6419473D01*
X9830256Y6433426D01*
X9790865Y6438123D01*
X9783862Y6437387D01*
X9783861Y6437387D01*
X9740647Y6432845D01*
X9627207Y6420922D01*
X9620539Y6418652D01*
X9478094Y6370160D01*
X9478091Y6370159D01*
X9471427Y6367890D01*
X9405187Y6327139D01*
X9337272Y6285357D01*
X9331267Y6281663D01*
X9319626Y6270263D01*
X9223130Y6175767D01*
X9213694Y6166527D01*
X9209877Y6160605D01*
X9205429Y6155150D01*
X9204045Y6156279D01*
X9157205Y6115796D01*
X9086919Y6105781D01*
X9022375Y6135356D01*
X9006263Y6152211D01*
X9006016Y6152523D01*
X9002284Y6158495D01*
X8937077Y6224159D01*
X8891294Y6270263D01*
X8891290Y6270266D01*
X8886330Y6275261D01*
X8747388Y6363437D01*
X8658516Y6395083D01*
X8598997Y6416277D01*
X8598995Y6416278D01*
X8592363Y6418639D01*
X8585377Y6419472D01*
X8585373Y6419473D01*
X8468352Y6433426D01*
X8428961Y6438123D01*
X8421958Y6437387D01*
X8421957Y6437387D01*
X8378743Y6432845D01*
X8265303Y6420922D01*
X8258635Y6418652D01*
X8116190Y6370160D01*
X8116187Y6370159D01*
X8109523Y6367890D01*
X8043283Y6327139D01*
X7975368Y6285357D01*
X7969363Y6281663D01*
X7957722Y6270263D01*
X7861226Y6175767D01*
X7851790Y6166527D01*
X7847973Y6160605D01*
X7843525Y6155150D01*
X7842141Y6156279D01*
X7795301Y6115796D01*
X7725015Y6105781D01*
X7660471Y6135356D01*
X7644359Y6152211D01*
X7644112Y6152523D01*
X7640380Y6158495D01*
X7575173Y6224159D01*
X7529390Y6270263D01*
X7529386Y6270266D01*
X7524426Y6275261D01*
X7385484Y6363437D01*
X7296612Y6395083D01*
X7237093Y6416277D01*
X7237091Y6416278D01*
X7230459Y6418639D01*
X7223473Y6419472D01*
X7223469Y6419473D01*
X7106448Y6433426D01*
X7067057Y6438123D01*
X7060054Y6437387D01*
X7060053Y6437387D01*
X7016839Y6432845D01*
X6903399Y6420922D01*
X6896731Y6418652D01*
X6754286Y6370160D01*
X6754283Y6370159D01*
X6747619Y6367890D01*
X6681379Y6327139D01*
X6613464Y6285357D01*
X6607459Y6281663D01*
X6595818Y6270263D01*
X6499322Y6175767D01*
X6489886Y6166527D01*
X6486069Y6160605D01*
X6481621Y6155150D01*
X6480237Y6156279D01*
X6433397Y6115796D01*
X6363111Y6105781D01*
X6298567Y6135356D01*
X6282455Y6152211D01*
X6282208Y6152523D01*
X6278476Y6158495D01*
X6213269Y6224159D01*
X6167486Y6270263D01*
X6167482Y6270266D01*
X6162522Y6275261D01*
X6156573Y6279036D01*
X6156571Y6279038D01*
X6084876Y6324537D01*
X6038077Y6377926D01*
X6027572Y6448141D01*
X6056696Y6512889D01*
X6087872Y6539151D01*
X6119173Y6557810D01*
X6146279Y6573969D01*
X6265449Y6687452D01*
X6279152Y6708076D01*
X6352614Y6818645D01*
X6352615Y6818647D01*
X6356515Y6824517D01*
X6414951Y6978352D01*
X6424323Y7045037D01*
X6437302Y7137386D01*
X6437303Y7137393D01*
X6437853Y7141310D01*
X6438141Y7161920D01*
X6419798Y7325454D01*
X6414334Y7341146D01*
X6391563Y7406535D01*
X6365680Y7480860D01*
X6360448Y7489234D01*
X6282209Y7614441D01*
X6278476Y7620415D01*
X6162522Y7737181D01*
X6156572Y7740957D01*
X6151928Y7744691D01*
X6111372Y7802964D01*
X6108759Y7873913D01*
X6144919Y7935011D01*
X6145127Y7935186D01*
X6146279Y7935873D01*
X6197777Y7984913D01*
X7002324Y7984913D01*
X7018382Y7821139D01*
X7070325Y7664992D01*
X7090710Y7631332D01*
X7146528Y7539168D01*
X7155572Y7524234D01*
X7269884Y7405860D01*
X7407582Y7315753D01*
X7561821Y7258392D01*
X7568802Y7257461D01*
X7568804Y7257460D01*
X7717954Y7237559D01*
X7717958Y7237559D01*
X7724935Y7236628D01*
X7731946Y7237266D01*
X7731950Y7237266D01*
X7881796Y7250903D01*
X7881797Y7250903D01*
X7888817Y7251542D01*
X7950370Y7271542D01*
X8038623Y7300217D01*
X8038626Y7300218D01*
X8045322Y7302394D01*
X8186672Y7386656D01*
X8305842Y7500139D01*
X8321851Y7524234D01*
X8393007Y7631332D01*
X8393008Y7631334D01*
X8396908Y7637204D01*
X8455344Y7791039D01*
X8467890Y7880308D01*
X8477695Y7950073D01*
X8477696Y7950080D01*
X8478246Y7953997D01*
X8478451Y7968652D01*
X8478479Y7970645D01*
X8478479Y7970651D01*
X8478534Y7974607D01*
X8460191Y8138141D01*
X8454391Y8154798D01*
X8422207Y8247215D01*
X8406073Y8293547D01*
X8395601Y8310306D01*
X10011931Y8310306D01*
X10027989Y8146532D01*
X10079932Y7990385D01*
X10096235Y7963466D01*
X10150471Y7873913D01*
X10165179Y7849627D01*
X10170070Y7844562D01*
X10170071Y7844561D01*
X10182778Y7831403D01*
X10279491Y7731253D01*
X10417189Y7641146D01*
X10571428Y7583785D01*
X10578409Y7582854D01*
X10578411Y7582853D01*
X10727561Y7562952D01*
X10727565Y7562952D01*
X10734542Y7562021D01*
X10741553Y7562659D01*
X10741557Y7562659D01*
X10891403Y7576296D01*
X10891404Y7576296D01*
X10898424Y7576935D01*
X10927062Y7586240D01*
X11048230Y7625610D01*
X11048233Y7625611D01*
X11054929Y7627787D01*
X11196279Y7712049D01*
X11315449Y7825532D01*
X11351842Y7880308D01*
X11406199Y7925979D01*
X11476619Y7935011D01*
X11500710Y7928679D01*
X11539647Y7914199D01*
X11621428Y7883785D01*
X11628409Y7882854D01*
X11628411Y7882853D01*
X11777561Y7862952D01*
X11777565Y7862952D01*
X11784542Y7862021D01*
X11791553Y7862659D01*
X11791557Y7862659D01*
X11941403Y7876296D01*
X11941404Y7876296D01*
X11948424Y7876935D01*
X12007986Y7896288D01*
X12098230Y7925610D01*
X12098233Y7925611D01*
X12104929Y7927787D01*
X12246279Y8012049D01*
X12365449Y8125532D01*
X12369350Y8131403D01*
X12452614Y8256725D01*
X12452615Y8256727D01*
X12456515Y8262597D01*
X12514951Y8416432D01*
X12529487Y8519862D01*
X12537302Y8575466D01*
X12537303Y8575473D01*
X12537853Y8579390D01*
X12538141Y8600000D01*
X12519798Y8763534D01*
X12500641Y8818547D01*
X12490126Y8848740D01*
X12465680Y8918940D01*
X12424759Y8984428D01*
X12382209Y9052521D01*
X12378476Y9058495D01*
X12315364Y9122049D01*
X12267486Y9170263D01*
X12267482Y9170266D01*
X12262522Y9175261D01*
X12123580Y9263437D01*
X12029563Y9296915D01*
X11975189Y9316277D01*
X11975187Y9316278D01*
X11968555Y9318639D01*
X11961569Y9319472D01*
X11961565Y9319473D01*
X11847071Y9333125D01*
X11805153Y9338123D01*
X11798150Y9337387D01*
X11798149Y9337387D01*
X11754935Y9332845D01*
X11641495Y9320922D01*
X11634827Y9318652D01*
X11492382Y9270160D01*
X11492379Y9270159D01*
X11485715Y9267890D01*
X11397330Y9213515D01*
X11361893Y9191714D01*
X11345555Y9181663D01*
X11333914Y9170263D01*
X11236500Y9074868D01*
X11227982Y9066527D01*
X11209139Y9037289D01*
X11199225Y9021905D01*
X11145511Y8975480D01*
X11075224Y8965465D01*
X11051047Y8971461D01*
X10925190Y9016277D01*
X10925185Y9016278D01*
X10918555Y9018639D01*
X10911569Y9019472D01*
X10911565Y9019473D01*
X10797071Y9033125D01*
X10755153Y9038123D01*
X10748150Y9037387D01*
X10748149Y9037387D01*
X10704935Y9032845D01*
X10591495Y9020922D01*
X10584827Y9018652D01*
X10442382Y8970160D01*
X10442379Y8970159D01*
X10435715Y8967890D01*
X10295555Y8881663D01*
X10177982Y8766527D01*
X10088838Y8628203D01*
X10086427Y8621580D01*
X10086426Y8621577D01*
X10034966Y8480191D01*
X10034965Y8480186D01*
X10032556Y8473568D01*
X10011931Y8310306D01*
X8395601Y8310306D01*
X8392019Y8316039D01*
X8322602Y8427128D01*
X8318869Y8433102D01*
X8253141Y8499290D01*
X8207879Y8544870D01*
X8207875Y8544873D01*
X8202915Y8549868D01*
X8063973Y8638044D01*
X7993493Y8663141D01*
X7915582Y8690884D01*
X7915580Y8690885D01*
X7908948Y8693246D01*
X7901962Y8694079D01*
X7901958Y8694080D01*
X7787464Y8707732D01*
X7745546Y8712730D01*
X7738543Y8711994D01*
X7738542Y8711994D01*
X7695328Y8707452D01*
X7581888Y8695529D01*
X7575220Y8693259D01*
X7432775Y8644767D01*
X7432772Y8644766D01*
X7426108Y8642497D01*
X7363431Y8603938D01*
X7310446Y8571341D01*
X7285948Y8556270D01*
X7247524Y8518642D01*
X7187508Y8459870D01*
X7168375Y8441134D01*
X7079231Y8302810D01*
X7076820Y8296187D01*
X7076819Y8296184D01*
X7025359Y8154798D01*
X7025358Y8154793D01*
X7022949Y8148175D01*
X7002324Y7984913D01*
X6197777Y7984913D01*
X6265449Y8049356D01*
X6272798Y8060417D01*
X6352614Y8180549D01*
X6352615Y8180551D01*
X6356515Y8186421D01*
X6414951Y8340256D01*
X6424209Y8406134D01*
X6437302Y8499290D01*
X6437303Y8499297D01*
X6437853Y8503214D01*
X6438016Y8514868D01*
X6438086Y8519862D01*
X6438086Y8519868D01*
X6438141Y8523824D01*
X6419798Y8687358D01*
X6413998Y8704015D01*
X6372032Y8824523D01*
X6365680Y8842764D01*
X6282750Y8975480D01*
X6282209Y8976345D01*
X6278476Y8982319D01*
X6162522Y9099085D01*
X6156572Y9102861D01*
X6151928Y9106595D01*
X6111372Y9164868D01*
X6108759Y9235817D01*
X6144919Y9296915D01*
X6145127Y9297090D01*
X6146279Y9297777D01*
X6265449Y9411260D01*
X6281458Y9435355D01*
X6352614Y9542453D01*
X6352615Y9542455D01*
X6356515Y9548325D01*
X6414951Y9702160D01*
X6423903Y9765860D01*
X6437302Y9861194D01*
X6437303Y9861201D01*
X6437853Y9865118D01*
X6437995Y9875298D01*
X6438086Y9881766D01*
X6438086Y9881772D01*
X6438141Y9885728D01*
X6419798Y10049262D01*
X6413998Y10065919D01*
X6384498Y10150631D01*
X6365680Y10204668D01*
X6278476Y10344223D01*
X6277791Y10344913D01*
X11522324Y10344913D01*
X11538382Y10181139D01*
X11590325Y10024992D01*
X11593974Y10018967D01*
X11668426Y9896034D01*
X11675572Y9884234D01*
X11789884Y9765860D01*
X11927582Y9675753D01*
X12081821Y9618392D01*
X12088802Y9617461D01*
X12088804Y9617460D01*
X12237954Y9597559D01*
X12237958Y9597559D01*
X12244935Y9596628D01*
X12251946Y9597266D01*
X12251950Y9597266D01*
X12401796Y9610903D01*
X12401797Y9610903D01*
X12408817Y9611542D01*
X12437455Y9620847D01*
X12558623Y9660217D01*
X12558626Y9660218D01*
X12565322Y9662394D01*
X12706672Y9746656D01*
X12825842Y9860139D01*
X12841851Y9884234D01*
X12913007Y9991332D01*
X12913008Y9991334D01*
X12916908Y9997204D01*
X12975344Y10151039D01*
X12998246Y10313997D01*
X12998534Y10334607D01*
X12982333Y10479042D01*
X12994617Y10548967D01*
X13042756Y10601151D01*
X13096128Y10618567D01*
X13121797Y10620903D01*
X13121798Y10620903D01*
X13128817Y10621542D01*
X13159951Y10631658D01*
X13278623Y10670217D01*
X13278626Y10670218D01*
X13285322Y10672394D01*
X13426672Y10756656D01*
X13545842Y10870139D01*
X13549743Y10876010D01*
X13633007Y11001332D01*
X13633008Y11001334D01*
X13636908Y11007204D01*
X13695344Y11161039D01*
X13712906Y11286000D01*
X13717695Y11320073D01*
X13717696Y11320080D01*
X13718246Y11323997D01*
X13718534Y11344607D01*
X13700191Y11508141D01*
X13694391Y11524798D01*
X13675101Y11580191D01*
X13646073Y11663547D01*
X13611460Y11718940D01*
X13562602Y11797128D01*
X13558869Y11803102D01*
X13459496Y11903171D01*
X13447879Y11914870D01*
X13447875Y11914873D01*
X13442915Y11919868D01*
X13371936Y11964913D01*
X17162324Y11964913D01*
X17178382Y11801139D01*
X17230325Y11644992D01*
X17251980Y11609236D01*
X17310545Y11512535D01*
X17315572Y11504234D01*
X17429884Y11385860D01*
X17567582Y11295753D01*
X17721821Y11238392D01*
X17728802Y11237461D01*
X17728804Y11237460D01*
X17877954Y11217559D01*
X17877958Y11217559D01*
X17884935Y11216628D01*
X17891946Y11217266D01*
X17891950Y11217266D01*
X18041796Y11230903D01*
X18041797Y11230903D01*
X18048817Y11231542D01*
X18094951Y11246532D01*
X18198623Y11280217D01*
X18198626Y11280218D01*
X18205322Y11282394D01*
X18346672Y11366656D01*
X18465842Y11480139D01*
X18478485Y11499168D01*
X18553007Y11611332D01*
X18553008Y11611334D01*
X18556908Y11617204D01*
X18615344Y11771039D01*
X18626535Y11850666D01*
X18637695Y11930073D01*
X18637696Y11930080D01*
X18638246Y11933997D01*
X18638534Y11954607D01*
X18620191Y12118141D01*
X18615989Y12130209D01*
X18568391Y12266890D01*
X18566073Y12273547D01*
X18553358Y12293896D01*
X18482602Y12407128D01*
X18478869Y12413102D01*
X18387056Y12505558D01*
X18367879Y12524870D01*
X18367875Y12524873D01*
X18362915Y12529868D01*
X18223973Y12618044D01*
X18089143Y12666055D01*
X18075582Y12670884D01*
X18075580Y12670885D01*
X18068948Y12673246D01*
X18061962Y12674079D01*
X18061958Y12674080D01*
X17947464Y12687732D01*
X17905546Y12692730D01*
X17898543Y12691994D01*
X17898542Y12691994D01*
X17855328Y12687452D01*
X17741888Y12675529D01*
X17735220Y12673259D01*
X17592775Y12624767D01*
X17592772Y12624766D01*
X17586108Y12622497D01*
X17445948Y12536270D01*
X17328375Y12421134D01*
X17239231Y12282810D01*
X17236820Y12276187D01*
X17236819Y12276184D01*
X17185359Y12134798D01*
X17185358Y12134793D01*
X17182949Y12128175D01*
X17162324Y11964913D01*
X13371936Y11964913D01*
X13303973Y12008044D01*
X13254131Y12025792D01*
X13155582Y12060884D01*
X13155580Y12060885D01*
X13148948Y12063246D01*
X13141962Y12064079D01*
X13141958Y12064080D01*
X13027464Y12077732D01*
X12985546Y12082730D01*
X12978543Y12081994D01*
X12978542Y12081994D01*
X12936927Y12077620D01*
X12821888Y12065529D01*
X12815220Y12063259D01*
X12672775Y12014767D01*
X12672772Y12014766D01*
X12666108Y12012497D01*
X12609984Y11977969D01*
X12532130Y11930073D01*
X12525948Y11926270D01*
X12502360Y11903171D01*
X12426637Y11829017D01*
X12408375Y11811134D01*
X12319231Y11672810D01*
X12316820Y11666187D01*
X12316819Y11666184D01*
X12265359Y11524798D01*
X12265358Y11524793D01*
X12262949Y11518175D01*
X12242324Y11354913D01*
X12255792Y11217559D01*
X12257737Y11197719D01*
X12244477Y11127972D01*
X12195615Y11076465D01*
X12145510Y11060114D01*
X12125010Y11057959D01*
X12101888Y11055529D01*
X12095220Y11053259D01*
X11952775Y11004767D01*
X11952772Y11004766D01*
X11946108Y11002497D01*
X11894948Y10971023D01*
X11821883Y10926073D01*
X11805948Y10916270D01*
X11800915Y10911341D01*
X11695841Y10808445D01*
X11688375Y10801134D01*
X11599231Y10662810D01*
X11596820Y10656187D01*
X11596819Y10656184D01*
X11545359Y10514798D01*
X11545358Y10514793D01*
X11542949Y10508175D01*
X11522324Y10344913D01*
X6277791Y10344913D01*
X6162522Y10460989D01*
X6156572Y10464765D01*
X6151928Y10468499D01*
X6111372Y10526772D01*
X6108759Y10597721D01*
X6144919Y10658819D01*
X6145127Y10658994D01*
X6146279Y10659681D01*
X6265449Y10773164D01*
X6272798Y10784225D01*
X6352614Y10904357D01*
X6352615Y10904359D01*
X6356515Y10910229D01*
X6414951Y11064064D01*
X6423933Y11127972D01*
X6437302Y11223098D01*
X6437303Y11223105D01*
X6437853Y11227022D01*
X6438141Y11247632D01*
X6419798Y11411166D01*
X6413998Y11427823D01*
X6393735Y11486010D01*
X6365680Y11566572D01*
X6361309Y11573568D01*
X6282209Y11700153D01*
X6278476Y11706127D01*
X6162522Y11822893D01*
X6156572Y11826669D01*
X6151928Y11830403D01*
X6111372Y11888676D01*
X6108759Y11959625D01*
X6144919Y12020723D01*
X6145127Y12020898D01*
X6146279Y12021585D01*
X6265449Y12135068D01*
X6269350Y12140939D01*
X6352614Y12266261D01*
X6352615Y12266263D01*
X6356515Y12272133D01*
X6414951Y12425968D01*
X6423797Y12488910D01*
X6437302Y12585002D01*
X6437303Y12585009D01*
X6437853Y12588926D01*
X6438141Y12609536D01*
X6425200Y12724913D01*
X25661931Y12724913D01*
X25677989Y12561139D01*
X25729932Y12404992D01*
X25733581Y12398967D01*
X25809539Y12273547D01*
X25815179Y12264234D01*
X25929491Y12145860D01*
X26067189Y12055753D01*
X26221428Y11998392D01*
X26228409Y11997461D01*
X26228411Y11997460D01*
X26377561Y11977559D01*
X26377565Y11977559D01*
X26384542Y11976628D01*
X26391553Y11977266D01*
X26391557Y11977266D01*
X26541403Y11990903D01*
X26541404Y11990903D01*
X26548424Y11991542D01*
X26587587Y12004267D01*
X26698230Y12040217D01*
X26698233Y12040218D01*
X26704929Y12042394D01*
X26846279Y12126656D01*
X26965449Y12240139D01*
X26981458Y12264234D01*
X27052614Y12371332D01*
X27052615Y12371334D01*
X27056515Y12377204D01*
X27114951Y12531039D01*
X27127511Y12620409D01*
X27137302Y12690073D01*
X27137303Y12690080D01*
X27137853Y12693997D01*
X27138141Y12714607D01*
X27119798Y12878141D01*
X27113998Y12894798D01*
X27067998Y13026890D01*
X27065680Y13033547D01*
X26978476Y13173102D01*
X26901537Y13250580D01*
X26867486Y13284870D01*
X26867482Y13284873D01*
X26862522Y13289868D01*
X26723580Y13378044D01*
X26654358Y13402693D01*
X26575189Y13430884D01*
X26575187Y13430885D01*
X26568555Y13433246D01*
X26561569Y13434079D01*
X26561565Y13434080D01*
X26447071Y13447732D01*
X26405153Y13452730D01*
X26398150Y13451994D01*
X26398149Y13451994D01*
X26354935Y13447452D01*
X26241495Y13435529D01*
X26234827Y13433259D01*
X26092382Y13384767D01*
X26092379Y13384766D01*
X26085715Y13382497D01*
X25945555Y13296270D01*
X25898898Y13250580D01*
X25836886Y13189853D01*
X25827982Y13181134D01*
X25738838Y13042810D01*
X25736427Y13036187D01*
X25736426Y13036184D01*
X25684966Y12894798D01*
X25684965Y12894793D01*
X25682556Y12888175D01*
X25661931Y12724913D01*
X6425200Y12724913D01*
X6419798Y12773070D01*
X6413998Y12789727D01*
X6367998Y12921819D01*
X6365680Y12928476D01*
X6278476Y13068031D01*
X6162522Y13184797D01*
X6156572Y13188573D01*
X6151928Y13192307D01*
X6111372Y13250580D01*
X6108759Y13321529D01*
X6144919Y13382627D01*
X6145127Y13382802D01*
X6146279Y13383489D01*
X6265449Y13496972D01*
X6281458Y13521067D01*
X6352614Y13628165D01*
X6352615Y13628167D01*
X6356515Y13634037D01*
X6414951Y13787872D01*
X6423797Y13850814D01*
X6437302Y13946906D01*
X6437303Y13946913D01*
X6437853Y13950830D01*
X6438141Y13971440D01*
X6419798Y14134974D01*
X6413998Y14151631D01*
X6367998Y14283723D01*
X6365680Y14290380D01*
X6278476Y14429935D01*
X6162522Y14546701D01*
X6156572Y14550477D01*
X6151928Y14554211D01*
X6111372Y14612484D01*
X6108759Y14683433D01*
X6144919Y14744531D01*
X6145127Y14744706D01*
X6146279Y14745393D01*
X6265449Y14858876D01*
X6273287Y14870673D01*
X6352614Y14990069D01*
X6352615Y14990071D01*
X6356515Y14995941D01*
X6414951Y15149776D01*
X6437853Y15312734D01*
X6438031Y15325466D01*
X6438086Y15329382D01*
X6438086Y15329390D01*
X6438141Y15333344D01*
X6435117Y15360306D01*
X7211931Y15360306D01*
X7227989Y15196532D01*
X7279932Y15040385D01*
X7283581Y15034360D01*
X7351855Y14921628D01*
X7365179Y14899627D01*
X7370070Y14894562D01*
X7370071Y14894561D01*
X7388447Y14875532D01*
X7479491Y14781253D01*
X7617189Y14691146D01*
X7771428Y14633785D01*
X7778409Y14632854D01*
X7778411Y14632853D01*
X7927561Y14612952D01*
X7927565Y14612952D01*
X7934542Y14612021D01*
X7941553Y14612659D01*
X7941557Y14612659D01*
X8091403Y14626296D01*
X8091404Y14626296D01*
X8098424Y14626935D01*
X8203668Y14661131D01*
X8248230Y14675610D01*
X8248233Y14675611D01*
X8254929Y14677787D01*
X8396279Y14762049D01*
X8515449Y14875532D01*
X8519350Y14881403D01*
X8602614Y15006725D01*
X8602615Y15006727D01*
X8606515Y15012597D01*
X8664951Y15166432D01*
X8671117Y15210306D01*
X14761931Y15210306D01*
X14777989Y15046532D01*
X14829932Y14890385D01*
X14833581Y14884360D01*
X14909871Y14758392D01*
X14915179Y14749627D01*
X15029491Y14631253D01*
X15167189Y14541146D01*
X15321428Y14483785D01*
X15328409Y14482854D01*
X15328411Y14482853D01*
X15477561Y14462952D01*
X15477565Y14462952D01*
X15484542Y14462021D01*
X15491553Y14462659D01*
X15491557Y14462659D01*
X15641403Y14476296D01*
X15641404Y14476296D01*
X15648424Y14476935D01*
X15768176Y14515845D01*
X15798230Y14525610D01*
X15798233Y14525611D01*
X15804929Y14527787D01*
X15946279Y14612049D01*
X16065449Y14725532D01*
X16081458Y14749627D01*
X16152614Y14856725D01*
X16152615Y14856727D01*
X16156515Y14862597D01*
X16214951Y15016432D01*
X16226123Y15095928D01*
X16237302Y15175466D01*
X16237303Y15175473D01*
X16237853Y15179390D01*
X16238141Y15200000D01*
X16219798Y15363534D01*
X16213998Y15380191D01*
X16172303Y15499920D01*
X16165680Y15518940D01*
X16078476Y15658495D01*
X16067137Y15669913D01*
X24912324Y15669913D01*
X24928382Y15506139D01*
X24980325Y15349992D01*
X25065572Y15209234D01*
X25070463Y15204169D01*
X25070464Y15204168D01*
X25094392Y15179390D01*
X25179884Y15090860D01*
X25317582Y15000753D01*
X25471821Y14943392D01*
X25478802Y14942461D01*
X25478804Y14942460D01*
X25627954Y14922559D01*
X25627958Y14922559D01*
X25634935Y14921628D01*
X25641946Y14922266D01*
X25641950Y14922266D01*
X25791796Y14935903D01*
X25791797Y14935903D01*
X25798817Y14936542D01*
X25827455Y14945847D01*
X25948623Y14985217D01*
X25948626Y14985218D01*
X25955322Y14987394D01*
X26096672Y15071656D01*
X26215842Y15185139D01*
X26219743Y15191010D01*
X26303007Y15316332D01*
X26303008Y15316334D01*
X26306908Y15322204D01*
X26365344Y15476039D01*
X26388246Y15638997D01*
X26388534Y15659607D01*
X26370191Y15823141D01*
X26364391Y15839798D01*
X26342476Y15902729D01*
X26316073Y15978547D01*
X26296632Y16009660D01*
X26232602Y16112128D01*
X26228869Y16118102D01*
X26170892Y16176485D01*
X26117879Y16229870D01*
X26117875Y16229873D01*
X26112915Y16234868D01*
X25973973Y16323044D01*
X25876241Y16357845D01*
X25825582Y16375884D01*
X25825580Y16375885D01*
X25818948Y16378246D01*
X25811962Y16379079D01*
X25811958Y16379080D01*
X25692572Y16393315D01*
X25655546Y16397730D01*
X25648543Y16396994D01*
X25648542Y16396994D01*
X25611056Y16393054D01*
X25491888Y16380529D01*
X25485220Y16378259D01*
X25342775Y16329767D01*
X25342772Y16329766D01*
X25336108Y16327497D01*
X25287607Y16297659D01*
X25203003Y16245610D01*
X25195948Y16241270D01*
X25133459Y16180076D01*
X25084676Y16132304D01*
X25078375Y16126134D01*
X24989231Y15987810D01*
X24986820Y15981187D01*
X24986819Y15981184D01*
X24935359Y15839798D01*
X24935358Y15839793D01*
X24932949Y15833175D01*
X24912324Y15669913D01*
X16067137Y15669913D01*
X16003335Y15734162D01*
X15967486Y15770263D01*
X15967482Y15770266D01*
X15962522Y15775261D01*
X15823580Y15863437D01*
X15772932Y15881472D01*
X15675189Y15916277D01*
X15675187Y15916278D01*
X15668555Y15918639D01*
X15661569Y15919472D01*
X15661565Y15919473D01*
X15547071Y15933125D01*
X15505153Y15938123D01*
X15498150Y15937387D01*
X15498149Y15937387D01*
X15454935Y15932845D01*
X15341495Y15920922D01*
X15334827Y15918652D01*
X15192382Y15870160D01*
X15192379Y15870159D01*
X15185715Y15867890D01*
X15045555Y15781663D01*
X15020089Y15756725D01*
X14936549Y15674916D01*
X14927982Y15666527D01*
X14838838Y15528203D01*
X14836427Y15521580D01*
X14836426Y15521577D01*
X14784966Y15380191D01*
X14784965Y15380186D01*
X14782556Y15373568D01*
X14761931Y15210306D01*
X8671117Y15210306D01*
X8684961Y15308810D01*
X8687302Y15325466D01*
X8687303Y15325473D01*
X8687853Y15329390D01*
X8688141Y15350000D01*
X8669798Y15513534D01*
X8665835Y15524916D01*
X8624728Y15642958D01*
X8615680Y15668940D01*
X8553039Y15769187D01*
X8532209Y15802521D01*
X8528476Y15808495D01*
X8459370Y15878085D01*
X8417486Y15920263D01*
X8417482Y15920266D01*
X8412522Y15925261D01*
X8273580Y16013437D01*
X8224447Y16030932D01*
X8125189Y16066277D01*
X8125187Y16066278D01*
X8118555Y16068639D01*
X8111569Y16069472D01*
X8111565Y16069473D01*
X7995173Y16083351D01*
X7955153Y16088123D01*
X7948150Y16087387D01*
X7948149Y16087387D01*
X7909750Y16083351D01*
X7791495Y16070922D01*
X7784827Y16068652D01*
X7642382Y16020160D01*
X7642379Y16020159D01*
X7635715Y16017890D01*
X7560943Y15971890D01*
X7506056Y15938123D01*
X7495555Y15931663D01*
X7473517Y15910082D01*
X7401746Y15839798D01*
X7377982Y15816527D01*
X7288838Y15678203D01*
X7286427Y15671580D01*
X7286426Y15671577D01*
X7234966Y15530191D01*
X7234965Y15530186D01*
X7232556Y15523568D01*
X7211931Y15360306D01*
X6435117Y15360306D01*
X6419798Y15496878D01*
X6414434Y15512283D01*
X6374996Y15625532D01*
X6365680Y15652284D01*
X6359047Y15662900D01*
X6282209Y15785865D01*
X6278476Y15791839D01*
X6162522Y15908605D01*
X6156572Y15912381D01*
X6151928Y15916115D01*
X6111372Y15974388D01*
X6108759Y16045337D01*
X6144919Y16106435D01*
X6145127Y16106610D01*
X6146279Y16107297D01*
X6149439Y16110306D01*
X11011931Y16110306D01*
X11027989Y15946532D01*
X11079932Y15790385D01*
X11083581Y15784360D01*
X11159951Y15658260D01*
X11165179Y15649627D01*
X11170070Y15644562D01*
X11170071Y15644561D01*
X11182778Y15631403D01*
X11279491Y15531253D01*
X11417189Y15441146D01*
X11571428Y15383785D01*
X11578409Y15382854D01*
X11578411Y15382853D01*
X11727561Y15362952D01*
X11727565Y15362952D01*
X11734542Y15362021D01*
X11741553Y15362659D01*
X11741557Y15362659D01*
X11891403Y15376296D01*
X11891404Y15376296D01*
X11898424Y15376935D01*
X11927062Y15386240D01*
X12048230Y15425610D01*
X12048233Y15425611D01*
X12054929Y15427787D01*
X12196279Y15512049D01*
X12315449Y15625532D01*
X12333223Y15652284D01*
X12402614Y15756725D01*
X12402615Y15756727D01*
X12406515Y15762597D01*
X12464951Y15916432D01*
X12478768Y16014745D01*
X12487302Y16075466D01*
X12487303Y16075473D01*
X12487853Y16079390D01*
X12487995Y16089570D01*
X12488086Y16096038D01*
X12488086Y16096044D01*
X12488141Y16100000D01*
X12469798Y16263534D01*
X12463998Y16280191D01*
X12436955Y16357845D01*
X12415680Y16418940D01*
X12401278Y16441989D01*
X12332209Y16552521D01*
X12328476Y16558495D01*
X12241972Y16645605D01*
X12217486Y16670263D01*
X12217482Y16670266D01*
X12212522Y16675261D01*
X12073580Y16763437D01*
X11958018Y16804587D01*
X11925189Y16816277D01*
X11925187Y16816278D01*
X11918555Y16818639D01*
X11911569Y16819472D01*
X11911565Y16819473D01*
X11797071Y16833125D01*
X11755153Y16838123D01*
X11748150Y16837387D01*
X11748149Y16837387D01*
X11704935Y16832845D01*
X11591495Y16820922D01*
X11584827Y16818652D01*
X11442382Y16770160D01*
X11442379Y16770159D01*
X11435715Y16767890D01*
X11366990Y16725610D01*
X11324185Y16699276D01*
X11295555Y16681663D01*
X11271846Y16658445D01*
X11193163Y16581393D01*
X11177982Y16566527D01*
X11088838Y16428203D01*
X11086427Y16421580D01*
X11086426Y16421577D01*
X11034966Y16280191D01*
X11034965Y16280186D01*
X11032556Y16273568D01*
X11011931Y16110306D01*
X6149439Y16110306D01*
X6265449Y16220780D01*
X6269838Y16227386D01*
X6352614Y16351973D01*
X6352615Y16351975D01*
X6356515Y16357845D01*
X6414951Y16511680D01*
X6424242Y16577787D01*
X6437302Y16670714D01*
X6437303Y16670721D01*
X6437853Y16674638D01*
X6438141Y16695248D01*
X6419798Y16858782D01*
X6413998Y16875439D01*
X6367998Y17007531D01*
X6365680Y17014188D01*
X6361487Y17020899D01*
X6282209Y17147769D01*
X6278476Y17153743D01*
X6215754Y17216904D01*
X6167486Y17265511D01*
X6167482Y17265514D01*
X6162522Y17270509D01*
X6023580Y17358685D01*
X5954310Y17383351D01*
X5875189Y17411525D01*
X5875187Y17411526D01*
X5868555Y17413887D01*
X5861569Y17414720D01*
X5861565Y17414721D01*
X5747071Y17428373D01*
X5705153Y17433371D01*
X5698150Y17432635D01*
X5698149Y17432635D01*
X5654935Y17428093D01*
X5541495Y17416170D01*
X5527850Y17411525D01*
X5392382Y17365408D01*
X5392379Y17365407D01*
X5385715Y17363138D01*
X5299090Y17309846D01*
X5251841Y17280778D01*
X5245555Y17276911D01*
X5204106Y17236321D01*
X5136885Y17170493D01*
X5127982Y17161775D01*
X5038838Y17023451D01*
X5036427Y17016828D01*
X5036426Y17016825D01*
X4984966Y16875439D01*
X4984965Y16875434D01*
X4982556Y16868816D01*
X4961931Y16705554D01*
X4977989Y16541780D01*
X5029932Y16385633D01*
X5033581Y16379608D01*
X5107334Y16257829D01*
X5115179Y16244875D01*
X5120070Y16239810D01*
X5120071Y16239809D01*
X5129669Y16229870D01*
X5229491Y16126501D01*
X5238975Y16120295D01*
X5240766Y16118193D01*
X5240812Y16118155D01*
X5240805Y16118147D01*
X5285023Y16066259D01*
X5294548Y15995904D01*
X5264523Y15931569D01*
X5249581Y15917484D01*
X5245555Y15915007D01*
X5204032Y15874345D01*
X5136789Y15808495D01*
X5127982Y15799871D01*
X5038838Y15661547D01*
X5036427Y15654924D01*
X5036426Y15654921D01*
X4984966Y15513535D01*
X4984966Y15513534D01*
X4982556Y15506912D01*
X4961931Y15343650D01*
X4977989Y15179876D01*
X5029932Y15023729D01*
X5033581Y15017704D01*
X5108160Y14894561D01*
X5115179Y14882971D01*
X5229491Y14764597D01*
X5238975Y14758391D01*
X5240766Y14756289D01*
X5240812Y14756251D01*
X5240805Y14756243D01*
X5285023Y14704355D01*
X5294548Y14634000D01*
X5264523Y14569665D01*
X5249581Y14555580D01*
X5245555Y14553103D01*
X5223070Y14531084D01*
X5136885Y14446685D01*
X5127982Y14437967D01*
X5038838Y14299643D01*
X5036427Y14293020D01*
X5036426Y14293017D01*
X4984966Y14151631D01*
X4984965Y14151626D01*
X4982556Y14145008D01*
X4961931Y13981746D01*
X4977989Y13817972D01*
X5029932Y13661825D01*
X5033581Y13655800D01*
X5107334Y13534021D01*
X5115179Y13521067D01*
X5229491Y13402693D01*
X5238975Y13396487D01*
X5240766Y13394385D01*
X5240812Y13394347D01*
X5240805Y13394339D01*
X5285023Y13342451D01*
X5294548Y13272096D01*
X5264523Y13207761D01*
X5249581Y13193676D01*
X5245555Y13191199D01*
X5235277Y13181134D01*
X5136885Y13084781D01*
X5127982Y13076063D01*
X5038838Y12937739D01*
X5036427Y12931116D01*
X5036426Y12931113D01*
X4984966Y12789727D01*
X4984965Y12789722D01*
X4982556Y12783104D01*
X4961931Y12619842D01*
X4977989Y12456068D01*
X5029932Y12299921D01*
X5033581Y12293896D01*
X5107334Y12172117D01*
X5115179Y12159163D01*
X5120070Y12154098D01*
X5120071Y12154097D01*
X5150051Y12123052D01*
X5229491Y12040789D01*
X5238975Y12034583D01*
X5240766Y12032481D01*
X5240812Y12032443D01*
X5240805Y12032435D01*
X5285023Y11980547D01*
X5294548Y11910192D01*
X5264523Y11845857D01*
X5249581Y11831772D01*
X5245555Y11829295D01*
X5220961Y11805211D01*
X5136885Y11722877D01*
X5127982Y11714159D01*
X5038838Y11575835D01*
X5036427Y11569212D01*
X5036426Y11569209D01*
X4984966Y11427823D01*
X4984965Y11427818D01*
X4982556Y11421200D01*
X4961931Y11257938D01*
X4977989Y11094164D01*
X5029932Y10938017D01*
X5033581Y10931992D01*
X5107334Y10810213D01*
X5115179Y10797259D01*
X5120070Y10792194D01*
X5120071Y10792193D01*
X5125425Y10786649D01*
X5229491Y10678885D01*
X5238975Y10672679D01*
X5240766Y10670577D01*
X5240812Y10670539D01*
X5240805Y10670531D01*
X5285023Y10618643D01*
X5294548Y10548288D01*
X5264523Y10483953D01*
X5249581Y10469868D01*
X5245555Y10467391D01*
X5233912Y10455989D01*
X5136885Y10360973D01*
X5127982Y10352255D01*
X5038838Y10213931D01*
X5036427Y10207308D01*
X5036426Y10207305D01*
X4984966Y10065919D01*
X4984965Y10065914D01*
X4982556Y10059296D01*
X4961931Y9896034D01*
X4977989Y9732260D01*
X5029932Y9576113D01*
X5033581Y9570088D01*
X5107334Y9448309D01*
X5115179Y9435355D01*
X5229491Y9316981D01*
X5238975Y9310775D01*
X5240766Y9308673D01*
X5240812Y9308635D01*
X5240805Y9308627D01*
X5285023Y9256739D01*
X5294548Y9186384D01*
X5264523Y9122049D01*
X5249581Y9107964D01*
X5245555Y9105487D01*
X5218142Y9078642D01*
X5136885Y8999069D01*
X5127982Y8990351D01*
X5038838Y8852027D01*
X5036427Y8845404D01*
X5036426Y8845401D01*
X4984966Y8704015D01*
X4984965Y8704010D01*
X4982556Y8697392D01*
X4961931Y8534130D01*
X4977989Y8370356D01*
X5029932Y8214209D01*
X5045942Y8187773D01*
X5107334Y8086405D01*
X5115179Y8073451D01*
X5229491Y7955077D01*
X5238975Y7948871D01*
X5240766Y7946769D01*
X5240812Y7946731D01*
X5240805Y7946723D01*
X5285023Y7894835D01*
X5294548Y7824480D01*
X5264523Y7760145D01*
X5249581Y7746060D01*
X5245555Y7743583D01*
X5226927Y7725341D01*
X5136885Y7637165D01*
X5127982Y7628447D01*
X5038838Y7490123D01*
X5036427Y7483500D01*
X5036426Y7483497D01*
X4984966Y7342111D01*
X4984965Y7342106D01*
X4982556Y7335488D01*
X4961931Y7172226D01*
X4977989Y7008452D01*
X4998408Y6947071D01*
X5015001Y6897189D01*
X5017524Y6826237D01*
X4981287Y6765184D01*
X4917795Y6733415D01*
X4850290Y6739786D01*
X4585675Y6841362D01*
X4230460Y6936542D01*
X4009586Y6971525D01*
X3870490Y6993556D01*
X3870482Y6993557D01*
X3867242Y6994070D01*
X3500001Y7013316D01*
X3132760Y6994070D01*
X3129520Y6993557D01*
X3129512Y6993556D01*
X2990416Y6971525D01*
X2769542Y6936542D01*
X2414327Y6841362D01*
X2411243Y6840178D01*
X2411237Y6840176D01*
X2292406Y6794561D01*
X2071007Y6709574D01*
X2068067Y6708076D01*
X1746285Y6544120D01*
X1746278Y6544116D01*
X1743344Y6542621D01*
X1740578Y6540825D01*
X1740575Y6540823D01*
X1534280Y6406854D01*
X1466255Y6386528D01*
X1398040Y6406206D01*
X1351293Y6459640D01*
X1340855Y6529865D01*
X1352958Y6568876D01*
X1423038Y6709036D01*
X1425911Y6714025D01*
X1429378Y6717951D01*
X1457686Y6778246D01*
X1459043Y6781047D01*
X1469138Y6801236D01*
X1469138Y6801237D01*
X1471145Y6805250D01*
X1472564Y6809513D01*
X1472927Y6810390D01*
X1475271Y6815700D01*
X1491281Y6849800D01*
X1494317Y6869300D01*
X1499270Y6889722D01*
X1502671Y6899937D01*
X1505507Y6908453D01*
X1506816Y6943921D01*
X1507469Y6950712D01*
X1507375Y6950719D01*
X1507751Y6955577D01*
X1508500Y6960386D01*
X1508500Y6987184D01*
X1508586Y6991834D01*
X1510551Y7045037D01*
X1510551Y7045040D01*
X1510882Y7054011D01*
X1509009Y7061422D01*
X1508500Y7071078D01*
X1508500Y17510306D01*
X7261931Y17510306D01*
X7277989Y17346532D01*
X7329932Y17190385D01*
X7350317Y17156725D01*
X7411419Y17055836D01*
X7415179Y17049627D01*
X7529491Y16931253D01*
X7667189Y16841146D01*
X7821428Y16783785D01*
X7828409Y16782854D01*
X7828411Y16782853D01*
X7977561Y16762952D01*
X7977565Y16762952D01*
X7984542Y16762021D01*
X7991553Y16762659D01*
X7991557Y16762659D01*
X8141403Y16776296D01*
X8141404Y16776296D01*
X8148424Y16776935D01*
X8202671Y16794561D01*
X8298230Y16825610D01*
X8298233Y16825611D01*
X8304929Y16827787D01*
X8446279Y16912049D01*
X8565449Y17025532D01*
X8584182Y17053727D01*
X8652614Y17156725D01*
X8652615Y17156727D01*
X8656515Y17162597D01*
X8714951Y17316432D01*
X8726696Y17400000D01*
X8737302Y17475466D01*
X8737303Y17475473D01*
X8737853Y17479390D01*
X8738141Y17500000D01*
X8719798Y17663534D01*
X8715517Y17675829D01*
X8680819Y17775466D01*
X8668687Y17810306D01*
X9061931Y17810306D01*
X9077989Y17646532D01*
X9129932Y17490385D01*
X9133581Y17484360D01*
X9209232Y17359447D01*
X9215179Y17349627D01*
X9329491Y17231253D01*
X9467189Y17141146D01*
X9621428Y17083785D01*
X9628409Y17082854D01*
X9628411Y17082853D01*
X9777561Y17062952D01*
X9777565Y17062952D01*
X9784542Y17062021D01*
X9791553Y17062659D01*
X9791557Y17062659D01*
X9941403Y17076296D01*
X9941404Y17076296D01*
X9948424Y17076935D01*
X9988163Y17089847D01*
X10094838Y17124508D01*
X14761931Y17124508D01*
X14777989Y16960734D01*
X14829932Y16804587D01*
X14842530Y16783785D01*
X14908633Y16674638D01*
X14915179Y16663829D01*
X15029491Y16545455D01*
X15167189Y16455348D01*
X15321428Y16397987D01*
X15328409Y16397056D01*
X15328411Y16397055D01*
X15477561Y16377154D01*
X15477565Y16377154D01*
X15484542Y16376223D01*
X15491553Y16376861D01*
X15491557Y16376861D01*
X15641403Y16390498D01*
X15641404Y16390498D01*
X15648424Y16391137D01*
X15733066Y16418639D01*
X15798230Y16439812D01*
X15798233Y16439813D01*
X15804929Y16441989D01*
X15946279Y16526251D01*
X16065449Y16639734D01*
X16078092Y16658763D01*
X16152614Y16770927D01*
X16152615Y16770929D01*
X16156515Y16776799D01*
X16214951Y16930634D01*
X16227168Y17017560D01*
X16237302Y17089668D01*
X16237303Y17089675D01*
X16237853Y17093592D01*
X16238141Y17114202D01*
X16219798Y17277736D01*
X16213998Y17294393D01*
X16192668Y17355643D01*
X16165680Y17433142D01*
X16147275Y17462597D01*
X16082209Y17566723D01*
X16078476Y17572697D01*
X16011793Y17639847D01*
X15967486Y17684465D01*
X15967482Y17684468D01*
X15962522Y17689463D01*
X15823580Y17777639D01*
X15730799Y17810677D01*
X15675189Y17830479D01*
X15675187Y17830480D01*
X15668555Y17832841D01*
X15661569Y17833674D01*
X15661565Y17833675D01*
X15547071Y17847327D01*
X15505153Y17852325D01*
X15498150Y17851589D01*
X15498149Y17851589D01*
X15454935Y17847047D01*
X15341495Y17835124D01*
X15334827Y17832854D01*
X15192382Y17784362D01*
X15192379Y17784361D01*
X15185715Y17782092D01*
X15045555Y17695865D01*
X15025095Y17675829D01*
X14967812Y17619733D01*
X14927982Y17580729D01*
X14838838Y17442405D01*
X14836427Y17435782D01*
X14836426Y17435779D01*
X14784966Y17294393D01*
X14784965Y17294388D01*
X14782556Y17287770D01*
X14761931Y17124508D01*
X10094838Y17124508D01*
X10098230Y17125610D01*
X10098233Y17125611D01*
X10104929Y17127787D01*
X10246279Y17212049D01*
X10365449Y17325532D01*
X10378092Y17344561D01*
X10452614Y17456725D01*
X10452615Y17456727D01*
X10456515Y17462597D01*
X10514951Y17616432D01*
X10525745Y17693237D01*
X10537302Y17775466D01*
X10537303Y17775473D01*
X10537853Y17779390D01*
X10538141Y17800000D01*
X10519798Y17963534D01*
X10513998Y17980191D01*
X10482631Y18070263D01*
X10465680Y18118940D01*
X10457899Y18131393D01*
X10382209Y18252521D01*
X10378476Y18258495D01*
X10298839Y18338690D01*
X10267486Y18370263D01*
X10267482Y18370266D01*
X10262522Y18375261D01*
X10123580Y18463437D01*
X10074447Y18480932D01*
X9975189Y18516277D01*
X9975187Y18516278D01*
X9968555Y18518639D01*
X9961569Y18519472D01*
X9961565Y18519473D01*
X9840787Y18533874D01*
X9805153Y18538123D01*
X9798150Y18537387D01*
X9798149Y18537387D01*
X9779749Y18535453D01*
X9641495Y18520922D01*
X9634827Y18518652D01*
X9492382Y18470160D01*
X9492379Y18470159D01*
X9485715Y18467890D01*
X9345555Y18381663D01*
X9300554Y18337595D01*
X9234675Y18273081D01*
X9227982Y18266527D01*
X9138838Y18128203D01*
X9136427Y18121580D01*
X9136426Y18121577D01*
X9084966Y17980191D01*
X9084965Y17980186D01*
X9082556Y17973568D01*
X9061931Y17810306D01*
X8668687Y17810306D01*
X8665680Y17818940D01*
X8654701Y17836511D01*
X8582209Y17952521D01*
X8578476Y17958495D01*
X8510108Y18027342D01*
X8467486Y18070263D01*
X8467482Y18070266D01*
X8462522Y18075261D01*
X8323580Y18163437D01*
X8224924Y18198567D01*
X8175189Y18216277D01*
X8175187Y18216278D01*
X8168555Y18218639D01*
X8161569Y18219472D01*
X8161565Y18219473D01*
X8047071Y18233125D01*
X8005153Y18238123D01*
X7998150Y18237387D01*
X7998149Y18237387D01*
X7954935Y18232845D01*
X7841495Y18220922D01*
X7834827Y18218652D01*
X7692382Y18170160D01*
X7692379Y18170159D01*
X7685715Y18167890D01*
X7616990Y18125610D01*
X7555596Y18087840D01*
X7545555Y18081663D01*
X7526943Y18063437D01*
X7433222Y17971658D01*
X7427982Y17966527D01*
X7338838Y17828203D01*
X7336427Y17821580D01*
X7336426Y17821577D01*
X7284966Y17680191D01*
X7284965Y17680186D01*
X7282556Y17673568D01*
X7261931Y17510306D01*
X1508500Y17510306D01*
X1508500Y32928928D01*
X1508839Y32934692D01*
X1510184Y32939751D01*
X1508538Y33006385D01*
X1508500Y33009497D01*
X1508500Y33036513D01*
X1507867Y33040938D01*
X1507797Y33041916D01*
X1507517Y33047746D01*
X1506809Y33076392D01*
X1506809Y33076394D01*
X1506587Y33085365D01*
X1500580Y33104171D01*
X1495880Y33124637D01*
X1493080Y33144187D01*
X1478386Y33176504D01*
X1475933Y33182868D01*
X1475846Y33182833D01*
X1474014Y33187336D01*
X1472532Y33191976D01*
X1460546Y33215949D01*
X1458545Y33220143D01*
X1443270Y33253738D01*
X1432792Y33276782D01*
X1427803Y33282571D01*
X1423030Y33290979D01*
X1352955Y33431130D01*
X1340381Y33501005D01*
X1367580Y33566585D01*
X1425917Y33607049D01*
X1496869Y33609551D01*
X1534274Y33593154D01*
X1743343Y33457383D01*
X1746277Y33455888D01*
X1746284Y33455884D01*
X1940285Y33357036D01*
X2071007Y33290430D01*
X2151174Y33259657D01*
X2381907Y33171087D01*
X2414327Y33158642D01*
X2615105Y33104844D01*
X2675727Y33067892D01*
X2706748Y33004032D01*
X2698320Y32933537D01*
X2653117Y32878790D01*
X2596101Y32857874D01*
X2577163Y32855816D01*
X2539684Y32851745D01*
X2403295Y32800615D01*
X2286739Y32713261D01*
X2199385Y32596705D01*
X2148255Y32460316D01*
X2141500Y32398134D01*
X2141500Y30601866D01*
X2148255Y30539684D01*
X2199385Y30403295D01*
X2286739Y30286739D01*
X2403295Y30199385D01*
X2411704Y30196233D01*
X2411705Y30196232D01*
X2520451Y30155465D01*
X2577216Y30112824D01*
X2601916Y30046262D01*
X2586709Y29976913D01*
X2567316Y29950432D01*
X2461613Y29839820D01*
X2440629Y29817862D01*
X2437715Y29813590D01*
X2437714Y29813589D01*
X2403818Y29763899D01*
X2314743Y29633320D01*
X2220688Y29430695D01*
X2160989Y29215430D01*
X2137251Y28993305D01*
X2137548Y28988152D01*
X2137548Y28988149D01*
X2146792Y28827834D01*
X2150110Y28770285D01*
X2151247Y28765239D01*
X2151248Y28765233D01*
X2167704Y28692215D01*
X2199222Y28552361D01*
X2250953Y28424962D01*
X2280469Y28352273D01*
X2283266Y28345384D01*
X2307318Y28306134D01*
X2396144Y28161184D01*
X2399987Y28154912D01*
X2546250Y27986062D01*
X2718126Y27843368D01*
X2750254Y27824594D01*
X2791445Y27800524D01*
X2840169Y27748886D01*
X2853240Y27679103D01*
X2826509Y27613331D01*
X2786055Y27579973D01*
X2782054Y27577890D01*
X2773607Y27573493D01*
X2769474Y27570390D01*
X2769471Y27570388D01*
X2630346Y27465930D01*
X2594965Y27439365D01*
X2591393Y27435627D01*
X2459609Y27297723D01*
X2440629Y27277862D01*
X2437715Y27273590D01*
X2437714Y27273589D01*
X2422798Y27251723D01*
X2314743Y27093320D01*
X2282082Y27022958D01*
X2223367Y26896466D01*
X2220688Y26890695D01*
X2160989Y26675430D01*
X2137251Y26453305D01*
X2137548Y26448152D01*
X2137548Y26448149D01*
X2146371Y26295136D01*
X2150110Y26230285D01*
X2151247Y26225239D01*
X2151248Y26225233D01*
X2172275Y26131931D01*
X2199222Y26012361D01*
X2258126Y25867298D01*
X2275045Y25825631D01*
X2283266Y25805384D01*
X2320538Y25744561D01*
X2386868Y25636321D01*
X2399987Y25614912D01*
X2546250Y25446062D01*
X2718126Y25303368D01*
X2911000Y25190662D01*
X2915825Y25188820D01*
X2915826Y25188819D01*
X2941657Y25178955D01*
X3119692Y25110970D01*
X3124760Y25109939D01*
X3124763Y25109938D01*
X3226911Y25089156D01*
X3338597Y25066433D01*
X3343772Y25066243D01*
X3343774Y25066243D01*
X3556673Y25058436D01*
X3556677Y25058436D01*
X3561837Y25058247D01*
X3566957Y25058903D01*
X3566959Y25058903D01*
X3778288Y25085975D01*
X3778289Y25085975D01*
X3783416Y25086632D01*
X3788366Y25088117D01*
X3992429Y25149339D01*
X3992434Y25149341D01*
X3997384Y25150826D01*
X4197994Y25249104D01*
X4379860Y25378827D01*
X4431306Y25430093D01*
X4487649Y25486240D01*
X4538096Y25536511D01*
X4550382Y25553608D01*
X4665435Y25713723D01*
X4668453Y25717923D01*
X4681619Y25744561D01*
X4765136Y25913547D01*
X4765137Y25913549D01*
X4767430Y25918189D01*
X4777739Y25952121D01*
X4816679Y26011484D01*
X4881533Y26040372D01*
X4951709Y26029611D01*
X5004927Y25982618D01*
X5017855Y25955266D01*
X5029932Y25918961D01*
X5033581Y25912936D01*
X5107334Y25791157D01*
X5115179Y25778203D01*
X5120070Y25773138D01*
X5120071Y25773137D01*
X5160373Y25731403D01*
X5229491Y25659829D01*
X5238975Y25653623D01*
X5240766Y25651521D01*
X5240812Y25651483D01*
X5240805Y25651475D01*
X5285023Y25599587D01*
X5294548Y25529232D01*
X5264523Y25464897D01*
X5249581Y25450812D01*
X5245555Y25448335D01*
X5233912Y25436933D01*
X5134625Y25339704D01*
X5127982Y25333199D01*
X5038838Y25194875D01*
X5036427Y25188252D01*
X5036426Y25188249D01*
X4984966Y25046863D01*
X4984965Y25046858D01*
X4982556Y25040240D01*
X4961931Y24876978D01*
X4977989Y24713204D01*
X5029932Y24557057D01*
X5033581Y24551032D01*
X5109458Y24425746D01*
X5115179Y24416299D01*
X5229491Y24297925D01*
X5238975Y24291719D01*
X5240766Y24289617D01*
X5240812Y24289579D01*
X5240805Y24289571D01*
X5285023Y24237683D01*
X5294548Y24167328D01*
X5264523Y24102993D01*
X5249581Y24088908D01*
X5245555Y24086431D01*
X5204032Y24045769D01*
X5142294Y23985310D01*
X5127982Y23971295D01*
X5038838Y23832971D01*
X5036427Y23826348D01*
X5036426Y23826345D01*
X4984966Y23684959D01*
X4984965Y23684954D01*
X4982556Y23678336D01*
X4961931Y23515074D01*
X4977989Y23351300D01*
X5029932Y23195153D01*
X5033581Y23189128D01*
X5091540Y23093428D01*
X5115179Y23054395D01*
X5120070Y23049330D01*
X5120071Y23049329D01*
X5131603Y23037387D01*
X5229491Y22936021D01*
X5238975Y22929815D01*
X5240766Y22927713D01*
X5240812Y22927675D01*
X5240805Y22927667D01*
X5285023Y22875779D01*
X5294548Y22805424D01*
X5264523Y22741089D01*
X5249581Y22727004D01*
X5245555Y22724527D01*
X5191359Y22671454D01*
X5136885Y22618109D01*
X5127982Y22609391D01*
X5038838Y22471067D01*
X5036427Y22464444D01*
X5036426Y22464441D01*
X4984966Y22323055D01*
X4984965Y22323050D01*
X4982556Y22316432D01*
X4961931Y22153170D01*
X4977989Y21989396D01*
X5029932Y21833249D01*
X5033581Y21827224D01*
X5110888Y21699577D01*
X5115179Y21692491D01*
X5120070Y21687426D01*
X5120071Y21687425D01*
X5174180Y21631393D01*
X5229491Y21574117D01*
X5238975Y21567911D01*
X5240766Y21565809D01*
X5240812Y21565771D01*
X5240805Y21565763D01*
X5285023Y21513875D01*
X5294548Y21443520D01*
X5264523Y21379185D01*
X5249581Y21365100D01*
X5245555Y21362623D01*
X5207001Y21324868D01*
X5137222Y21256535D01*
X5127982Y21247487D01*
X5038838Y21109163D01*
X5036427Y21102540D01*
X5036426Y21102537D01*
X4984966Y20961151D01*
X4984965Y20961146D01*
X4982556Y20954528D01*
X4961931Y20791266D01*
X4977989Y20627492D01*
X5029932Y20471345D01*
X5033581Y20465320D01*
X5096142Y20362021D01*
X5115179Y20330587D01*
X5120070Y20325522D01*
X5120071Y20325521D01*
X5131686Y20313493D01*
X5229491Y20212213D01*
X5238975Y20206007D01*
X5240766Y20203905D01*
X5240812Y20203867D01*
X5240805Y20203859D01*
X5285023Y20151971D01*
X5294548Y20081616D01*
X5264523Y20017281D01*
X5249581Y20003196D01*
X5245555Y20000719D01*
X5211024Y19966904D01*
X5133663Y19891146D01*
X5127982Y19885583D01*
X5038838Y19747259D01*
X5036427Y19740636D01*
X5036426Y19740633D01*
X4984966Y19599247D01*
X4984965Y19599242D01*
X4982556Y19592624D01*
X4961931Y19429362D01*
X4977989Y19265588D01*
X5029932Y19109441D01*
X5033581Y19103416D01*
X5108695Y18979390D01*
X5115179Y18968683D01*
X5120070Y18963618D01*
X5120071Y18963617D01*
X5161524Y18920691D01*
X5229491Y18850309D01*
X5367189Y18760202D01*
X5521428Y18702841D01*
X5528409Y18701910D01*
X5528411Y18701909D01*
X5677561Y18682008D01*
X5677565Y18682008D01*
X5684542Y18681077D01*
X5691553Y18681715D01*
X5691557Y18681715D01*
X5841403Y18695352D01*
X5841404Y18695352D01*
X5848424Y18695991D01*
X5891065Y18709846D01*
X5998230Y18744666D01*
X5998233Y18744667D01*
X6004929Y18746843D01*
X6146279Y18831105D01*
X6229449Y18910306D01*
X17061931Y18910306D01*
X17077989Y18746532D01*
X17129932Y18590385D01*
X17133581Y18584360D01*
X17209103Y18459660D01*
X17215179Y18449627D01*
X17220070Y18444562D01*
X17220071Y18444561D01*
X17280811Y18381663D01*
X17329491Y18331253D01*
X17467189Y18241146D01*
X17621428Y18183785D01*
X17628409Y18182854D01*
X17628411Y18182853D01*
X17777561Y18162952D01*
X17777565Y18162952D01*
X17784542Y18162021D01*
X17791553Y18162659D01*
X17791557Y18162659D01*
X17941403Y18176296D01*
X17941404Y18176296D01*
X17948424Y18176935D01*
X18036990Y18205712D01*
X18098230Y18225610D01*
X18098233Y18225611D01*
X18104929Y18227787D01*
X18110980Y18231394D01*
X18110984Y18231396D01*
X18185222Y18275651D01*
X18253977Y18293352D01*
X18318732Y18272855D01*
X18340677Y18258495D01*
X18367189Y18241146D01*
X18365773Y18238983D01*
X18408873Y18198567D01*
X18426186Y18129714D01*
X18403525Y18062431D01*
X18366305Y18027342D01*
X18302556Y17988123D01*
X18292055Y17981663D01*
X18245963Y17936526D01*
X18219907Y17911010D01*
X18174482Y17866527D01*
X18085338Y17728203D01*
X18082927Y17721580D01*
X18082926Y17721577D01*
X18031466Y17580191D01*
X18031465Y17580186D01*
X18029056Y17573568D01*
X18008431Y17410306D01*
X18024489Y17246532D01*
X18076432Y17090385D01*
X18080081Y17084360D01*
X18126166Y17008266D01*
X18161679Y16949627D01*
X18166570Y16944562D01*
X18166571Y16944561D01*
X18201448Y16908445D01*
X18275991Y16831253D01*
X18413689Y16741146D01*
X18567928Y16683785D01*
X18574909Y16682854D01*
X18574911Y16682853D01*
X18724061Y16662952D01*
X18724065Y16662952D01*
X18731042Y16662021D01*
X18738053Y16662659D01*
X18738057Y16662659D01*
X18887903Y16676296D01*
X18887904Y16676296D01*
X18894924Y16676935D01*
X18923811Y16686321D01*
X18985266Y16706289D01*
X19713700Y16706289D01*
X19729758Y16542515D01*
X19781701Y16386368D01*
X19785350Y16380343D01*
X19860332Y16256535D01*
X19866948Y16245610D01*
X19871839Y16240545D01*
X19871840Y16240544D01*
X19938330Y16171692D01*
X19981260Y16127236D01*
X20118958Y16037129D01*
X20273197Y15979768D01*
X20280178Y15978837D01*
X20280180Y15978836D01*
X20429330Y15958935D01*
X20429334Y15958935D01*
X20436311Y15958004D01*
X20443322Y15958642D01*
X20443326Y15958642D01*
X20593172Y15972279D01*
X20593173Y15972279D01*
X20600193Y15972918D01*
X20635909Y15984523D01*
X20749999Y16021593D01*
X20750002Y16021594D01*
X20756698Y16023770D01*
X20898048Y16108032D01*
X21017218Y16221515D01*
X21026090Y16234868D01*
X21104383Y16352708D01*
X21104384Y16352710D01*
X21108284Y16358580D01*
X21166720Y16512415D01*
X21178627Y16597139D01*
X21189071Y16671449D01*
X21189072Y16671456D01*
X21189622Y16675373D01*
X21189775Y16686321D01*
X21189855Y16692021D01*
X21189855Y16692027D01*
X21189910Y16695983D01*
X21171567Y16859517D01*
X21166023Y16875439D01*
X21141952Y16944561D01*
X21117449Y17014923D01*
X21108417Y17029378D01*
X21033978Y17148504D01*
X21030245Y17154478D01*
X20954004Y17231253D01*
X20925154Y17260306D01*
X27511931Y17260306D01*
X27527989Y17096532D01*
X27579932Y16940385D01*
X27586608Y16929362D01*
X27659839Y16808445D01*
X27665179Y16799627D01*
X27670070Y16794562D01*
X27670071Y16794561D01*
X27704638Y16758766D01*
X27779491Y16681253D01*
X27917189Y16591146D01*
X28071428Y16533785D01*
X28078409Y16532854D01*
X28078411Y16532853D01*
X28227561Y16512952D01*
X28227565Y16512952D01*
X28234542Y16512021D01*
X28241553Y16512659D01*
X28241557Y16512659D01*
X28391403Y16526296D01*
X28391404Y16526296D01*
X28398424Y16526935D01*
X28465683Y16548789D01*
X28548230Y16575610D01*
X28548233Y16575611D01*
X28554929Y16577787D01*
X28696279Y16662049D01*
X28815449Y16775532D01*
X28820669Y16783389D01*
X28902614Y16906725D01*
X28902615Y16906727D01*
X28906515Y16912597D01*
X28964951Y17066432D01*
X28978027Y17159476D01*
X28987302Y17225466D01*
X28987303Y17225473D01*
X28987853Y17229390D01*
X28988141Y17250000D01*
X28969798Y17413534D01*
X28963998Y17430191D01*
X28933663Y17517300D01*
X28915680Y17568940D01*
X28908314Y17580729D01*
X28832209Y17702521D01*
X28828476Y17708495D01*
X28741542Y17796038D01*
X28717486Y17820263D01*
X28717482Y17820266D01*
X28712522Y17825261D01*
X28573580Y17913437D01*
X28452547Y17956535D01*
X28425189Y17966277D01*
X28425187Y17966278D01*
X28418555Y17968639D01*
X28411569Y17969472D01*
X28411565Y17969473D01*
X28297071Y17983125D01*
X28255153Y17988123D01*
X28248150Y17987387D01*
X28248149Y17987387D01*
X28204935Y17982845D01*
X28091495Y17970922D01*
X28084827Y17968652D01*
X27942382Y17920160D01*
X27942379Y17920159D01*
X27935715Y17917890D01*
X27795555Y17831663D01*
X27766585Y17803293D01*
X27686549Y17724916D01*
X27677982Y17716527D01*
X27588838Y17578203D01*
X27586427Y17571580D01*
X27586426Y17571577D01*
X27534966Y17430191D01*
X27534965Y17430186D01*
X27532556Y17423568D01*
X27511931Y17260306D01*
X20925154Y17260306D01*
X20919255Y17266246D01*
X20919251Y17266249D01*
X20914291Y17271244D01*
X20775349Y17359420D01*
X20719267Y17379390D01*
X20626958Y17412260D01*
X20626956Y17412261D01*
X20620324Y17414622D01*
X20613338Y17415455D01*
X20613334Y17415456D01*
X20489755Y17430191D01*
X20456922Y17434106D01*
X20449919Y17433370D01*
X20449918Y17433370D01*
X20419673Y17430191D01*
X20293264Y17416905D01*
X20286596Y17414635D01*
X20144151Y17366143D01*
X20144148Y17366142D01*
X20137484Y17363873D01*
X20060370Y17316432D01*
X20009153Y17284923D01*
X19997324Y17277646D01*
X19949949Y17231253D01*
X19915044Y17197071D01*
X19879751Y17162510D01*
X19790607Y17024186D01*
X19788196Y17017563D01*
X19788195Y17017560D01*
X19736735Y16876174D01*
X19736734Y16876169D01*
X19734325Y16869551D01*
X19713700Y16706289D01*
X18985266Y16706289D01*
X19044730Y16725610D01*
X19044733Y16725611D01*
X19051429Y16727787D01*
X19192779Y16812049D01*
X19311949Y16925532D01*
X19315850Y16931403D01*
X19399114Y17056725D01*
X19399115Y17056727D01*
X19403015Y17062597D01*
X19461451Y17216432D01*
X19476784Y17325532D01*
X19483802Y17375466D01*
X19483803Y17375473D01*
X19484353Y17379390D01*
X19484641Y17400000D01*
X19466298Y17563534D01*
X19462335Y17574916D01*
X19421131Y17693237D01*
X19412180Y17718940D01*
X19378045Y17773568D01*
X19328709Y17852521D01*
X19324976Y17858495D01*
X19263740Y17920160D01*
X19213986Y17970263D01*
X19213982Y17970266D01*
X19209022Y17975261D01*
X19126956Y18027342D01*
X19077912Y18058467D01*
X19031114Y18111857D01*
X19020609Y18182072D01*
X19049733Y18246820D01*
X19080910Y18273081D01*
X19140230Y18308442D01*
X19140236Y18308447D01*
X19146279Y18312049D01*
X19265449Y18425532D01*
X19269350Y18431403D01*
X19352614Y18556725D01*
X19352615Y18556727D01*
X19356515Y18562597D01*
X19414951Y18716432D01*
X19426696Y18800000D01*
X19428144Y18810306D01*
X24561931Y18810306D01*
X24577989Y18646532D01*
X24629932Y18490385D01*
X24633581Y18484360D01*
X24697369Y18379035D01*
X24715179Y18349627D01*
X24720070Y18344562D01*
X24720071Y18344561D01*
X24769523Y18293352D01*
X24829491Y18231253D01*
X24967189Y18141146D01*
X25121428Y18083785D01*
X25128409Y18082854D01*
X25128411Y18082853D01*
X25277561Y18062952D01*
X25277565Y18062952D01*
X25284542Y18062021D01*
X25291553Y18062659D01*
X25291557Y18062659D01*
X25441403Y18076296D01*
X25441404Y18076296D01*
X25448424Y18076935D01*
X25481986Y18087840D01*
X25598230Y18125610D01*
X25598233Y18125611D01*
X25604929Y18127787D01*
X25746279Y18212049D01*
X25865449Y18325532D01*
X25869350Y18331403D01*
X25952614Y18456725D01*
X25952615Y18456727D01*
X25956515Y18462597D01*
X26014951Y18616432D01*
X26029005Y18716432D01*
X26037302Y18775466D01*
X26037303Y18775473D01*
X26037853Y18779390D01*
X26038141Y18800000D01*
X26019798Y18963534D01*
X26015656Y18975430D01*
X26003511Y19010306D01*
X27211931Y19010306D01*
X27227989Y18846532D01*
X27279932Y18690385D01*
X27283581Y18684360D01*
X27336446Y18597071D01*
X27365179Y18549627D01*
X27370070Y18544562D01*
X27370071Y18544561D01*
X27422388Y18490385D01*
X27479491Y18431253D01*
X27617189Y18341146D01*
X27771428Y18283785D01*
X27778409Y18282854D01*
X27778411Y18282853D01*
X27927561Y18262952D01*
X27927565Y18262952D01*
X27934542Y18262021D01*
X27941553Y18262659D01*
X27941557Y18262659D01*
X28091403Y18276296D01*
X28091404Y18276296D01*
X28098424Y18276935D01*
X28148950Y18293352D01*
X28248230Y18325610D01*
X28248233Y18325611D01*
X28254929Y18327787D01*
X28396279Y18412049D01*
X28515449Y18525532D01*
X28520010Y18532397D01*
X28602614Y18656725D01*
X28602615Y18656727D01*
X28606515Y18662597D01*
X28664951Y18816432D01*
X28676696Y18900000D01*
X28687302Y18975466D01*
X28687303Y18975473D01*
X28687853Y18979390D01*
X28688141Y19000000D01*
X28669798Y19163534D01*
X28663998Y19180191D01*
X28637508Y19256258D01*
X28615680Y19318940D01*
X28590392Y19359410D01*
X28532209Y19452521D01*
X28528476Y19458495D01*
X28462367Y19525067D01*
X28417486Y19570263D01*
X28417482Y19570266D01*
X28412522Y19575261D01*
X28273580Y19663437D01*
X28180639Y19696532D01*
X28125189Y19716277D01*
X28125187Y19716278D01*
X28118555Y19718639D01*
X28111569Y19719472D01*
X28111565Y19719473D01*
X27997071Y19733125D01*
X27955153Y19738123D01*
X27948150Y19737387D01*
X27948149Y19737387D01*
X27904935Y19732845D01*
X27791495Y19720922D01*
X27784827Y19718652D01*
X27642382Y19670160D01*
X27642379Y19670159D01*
X27635715Y19667890D01*
X27576276Y19631323D01*
X27502007Y19585632D01*
X27495555Y19581663D01*
X27460231Y19547071D01*
X27387222Y19475575D01*
X27377982Y19466527D01*
X27288838Y19328203D01*
X27286427Y19321580D01*
X27286426Y19321577D01*
X27234966Y19180191D01*
X27234965Y19180186D01*
X27232556Y19173568D01*
X27211931Y19010306D01*
X26003511Y19010306D01*
X25981480Y19073568D01*
X25965680Y19118940D01*
X25961947Y19124915D01*
X25961944Y19124920D01*
X25957589Y19131889D01*
X25938450Y19200257D01*
X25952374Y19256258D01*
X25952615Y19256727D01*
X25956515Y19262597D01*
X26014951Y19416432D01*
X26029392Y19519187D01*
X26037302Y19575466D01*
X26037303Y19575473D01*
X26037853Y19579390D01*
X26038141Y19600000D01*
X26019798Y19763534D01*
X26013998Y19780191D01*
X25983663Y19867300D01*
X25965680Y19918940D01*
X25948995Y19945642D01*
X25893606Y20034283D01*
X25874470Y20102653D01*
X25895512Y20170780D01*
X25952614Y20256725D01*
X25952615Y20256727D01*
X25956515Y20262597D01*
X26014951Y20416432D01*
X26028584Y20513437D01*
X26037302Y20575466D01*
X26037303Y20575473D01*
X26037853Y20579390D01*
X26038141Y20600000D01*
X26020204Y20759913D01*
X29752324Y20759913D01*
X29768382Y20596139D01*
X29820325Y20439992D01*
X29823974Y20433967D01*
X29897621Y20312363D01*
X29905572Y20299234D01*
X29910463Y20294169D01*
X29910464Y20294168D01*
X29921481Y20282760D01*
X30019884Y20180860D01*
X30157582Y20090753D01*
X30311821Y20033392D01*
X30318802Y20032461D01*
X30318804Y20032460D01*
X30467954Y20012559D01*
X30467958Y20012559D01*
X30474935Y20011628D01*
X30481946Y20012266D01*
X30481950Y20012266D01*
X30631796Y20025903D01*
X30631797Y20025903D01*
X30638817Y20026542D01*
X30682384Y20040698D01*
X30788623Y20075217D01*
X30788626Y20075218D01*
X30795322Y20077394D01*
X30936672Y20161656D01*
X31055842Y20275139D01*
X31059743Y20281010D01*
X31143007Y20406332D01*
X31143008Y20406334D01*
X31146908Y20412204D01*
X31203166Y20560306D01*
X32161931Y20560306D01*
X32177989Y20396532D01*
X32229932Y20240385D01*
X32233581Y20234360D01*
X32309656Y20108747D01*
X32315179Y20099627D01*
X32320070Y20094562D01*
X32320071Y20094561D01*
X32356186Y20057163D01*
X32429491Y19981253D01*
X32567189Y19891146D01*
X32721428Y19833785D01*
X32728409Y19832854D01*
X32728411Y19832853D01*
X32877561Y19812952D01*
X32877565Y19812952D01*
X32884542Y19812021D01*
X32891553Y19812659D01*
X32891557Y19812659D01*
X33041403Y19826296D01*
X33041404Y19826296D01*
X33048424Y19826935D01*
X33077062Y19836240D01*
X33198230Y19875610D01*
X33198233Y19875611D01*
X33204929Y19877787D01*
X33346279Y19962049D01*
X33465449Y20075532D01*
X33469350Y20081403D01*
X33552614Y20206725D01*
X33552615Y20206727D01*
X33556515Y20212597D01*
X33614951Y20366432D01*
X33628849Y20465320D01*
X33637302Y20525466D01*
X33637303Y20525473D01*
X33637853Y20529390D01*
X33638141Y20550000D01*
X33619798Y20713534D01*
X33613998Y20730191D01*
X33567998Y20862283D01*
X33565680Y20868940D01*
X33534437Y20918940D01*
X33482209Y21002521D01*
X33478476Y21008495D01*
X33403757Y21083737D01*
X33367486Y21120263D01*
X33367482Y21120266D01*
X33362522Y21125261D01*
X33223580Y21213437D01*
X33150513Y21239455D01*
X33075189Y21266277D01*
X33075187Y21266278D01*
X33068555Y21268639D01*
X33061569Y21269472D01*
X33061565Y21269473D01*
X32947071Y21283125D01*
X32905153Y21288123D01*
X32898150Y21287387D01*
X32898149Y21287387D01*
X32854935Y21282845D01*
X32741495Y21270922D01*
X32734827Y21268652D01*
X32592382Y21220160D01*
X32592379Y21220159D01*
X32585715Y21217890D01*
X32445555Y21131663D01*
X32327982Y21016527D01*
X32238838Y20878203D01*
X32236427Y20871580D01*
X32236426Y20871577D01*
X32184966Y20730191D01*
X32184965Y20730186D01*
X32182556Y20723568D01*
X32161931Y20560306D01*
X31203166Y20560306D01*
X31205344Y20566039D01*
X31215876Y20640980D01*
X31227695Y20725073D01*
X31227696Y20725080D01*
X31228246Y20728997D01*
X31228388Y20739177D01*
X31228479Y20745645D01*
X31228479Y20745651D01*
X31228534Y20749607D01*
X31210191Y20913141D01*
X31204391Y20929798D01*
X31158391Y21061890D01*
X31156073Y21068547D01*
X31146823Y21083351D01*
X31072602Y21202128D01*
X31068869Y21208102D01*
X31003858Y21273568D01*
X30957879Y21319870D01*
X30957875Y21319873D01*
X30952915Y21324868D01*
X30937010Y21334962D01*
X30929912Y21339467D01*
X30883114Y21392857D01*
X30872610Y21463072D01*
X30901735Y21527820D01*
X30932914Y21554082D01*
X30940232Y21558444D01*
X30940233Y21558445D01*
X30946279Y21562049D01*
X31065449Y21675532D01*
X31146168Y21797024D01*
X31200524Y21842693D01*
X31270944Y21851726D01*
X31335068Y21821253D01*
X31358890Y21792568D01*
X31411526Y21705656D01*
X31411531Y21705650D01*
X31415179Y21699627D01*
X31420070Y21694562D01*
X31420071Y21694561D01*
X31454895Y21658500D01*
X31529491Y21581253D01*
X31667189Y21491146D01*
X31821428Y21433785D01*
X31828409Y21432854D01*
X31828411Y21432853D01*
X31977561Y21412952D01*
X31977565Y21412952D01*
X31984542Y21412021D01*
X31991553Y21412659D01*
X31991557Y21412659D01*
X32141403Y21426296D01*
X32141404Y21426296D01*
X32148424Y21426935D01*
X32202166Y21444397D01*
X32298230Y21475610D01*
X32298233Y21475611D01*
X32304929Y21477787D01*
X32446279Y21562049D01*
X32565449Y21675532D01*
X32569350Y21681403D01*
X32652614Y21806725D01*
X32652615Y21806727D01*
X32656515Y21812597D01*
X32714951Y21966432D01*
X32725269Y22039847D01*
X32727139Y22053154D01*
X33561931Y22053154D01*
X33577989Y21889380D01*
X33629932Y21733233D01*
X33633581Y21727208D01*
X33708561Y21603403D01*
X33715179Y21592475D01*
X33720070Y21587410D01*
X33720071Y21587409D01*
X33752284Y21554051D01*
X33829491Y21474101D01*
X33967189Y21383994D01*
X34121428Y21326633D01*
X34128409Y21325702D01*
X34128411Y21325701D01*
X34277561Y21305800D01*
X34277565Y21305800D01*
X34284542Y21304869D01*
X34291553Y21305507D01*
X34291557Y21305507D01*
X34441403Y21319144D01*
X34441404Y21319144D01*
X34448424Y21319783D01*
X34495140Y21334962D01*
X34598230Y21368458D01*
X34598233Y21368459D01*
X34604929Y21370635D01*
X34746279Y21454897D01*
X34865449Y21568380D01*
X34870709Y21576296D01*
X34916359Y21645006D01*
X34956515Y21705445D01*
X34956812Y21705248D01*
X35002952Y21753761D01*
X35063059Y21768423D01*
X35027570Y21809896D01*
X35017731Y21879064D01*
X35018242Y21882695D01*
X35029007Y21959296D01*
X35037302Y22018314D01*
X35037303Y22018321D01*
X35037853Y22022238D01*
X35038141Y22042848D01*
X35019798Y22206382D01*
X35013998Y22223039D01*
X34990545Y22290385D01*
X34965680Y22361788D01*
X34954181Y22380191D01*
X34882209Y22495369D01*
X34878476Y22501343D01*
X34811104Y22569187D01*
X34767486Y22613111D01*
X34767482Y22613114D01*
X34762522Y22618109D01*
X34623580Y22706285D01*
X34559691Y22729035D01*
X34475189Y22759125D01*
X34475187Y22759126D01*
X34468555Y22761487D01*
X34461569Y22762320D01*
X34461565Y22762321D01*
X34340686Y22776734D01*
X34305153Y22780971D01*
X34298150Y22780235D01*
X34298149Y22780235D01*
X34264840Y22776734D01*
X34141495Y22763770D01*
X34134827Y22761500D01*
X33992382Y22713008D01*
X33992379Y22713007D01*
X33985715Y22710738D01*
X33845555Y22624511D01*
X33810707Y22590385D01*
X33747209Y22528203D01*
X33727982Y22509375D01*
X33638838Y22371051D01*
X33636427Y22364428D01*
X33636426Y22364425D01*
X33584966Y22223039D01*
X33584965Y22223034D01*
X33582556Y22216416D01*
X33561931Y22053154D01*
X32727139Y22053154D01*
X32737302Y22125466D01*
X32737303Y22125473D01*
X32737853Y22129390D01*
X32738141Y22150000D01*
X32719798Y22313534D01*
X32716483Y22323055D01*
X32675811Y22439847D01*
X32665680Y22468940D01*
X32660648Y22476994D01*
X32582209Y22602521D01*
X32578476Y22608495D01*
X32515955Y22671454D01*
X32467486Y22720263D01*
X32467482Y22720266D01*
X32462522Y22725261D01*
X32323580Y22813437D01*
X32270649Y22832285D01*
X32175189Y22866277D01*
X32175187Y22866278D01*
X32168555Y22868639D01*
X32161569Y22869472D01*
X32161565Y22869473D01*
X32045173Y22883351D01*
X32005153Y22888123D01*
X31998150Y22887387D01*
X31998149Y22887387D01*
X31959750Y22883351D01*
X31841495Y22870922D01*
X31834827Y22868652D01*
X31692382Y22820160D01*
X31692379Y22820159D01*
X31685715Y22817890D01*
X31545555Y22731663D01*
X31484072Y22671454D01*
X31436549Y22624916D01*
X31427982Y22616527D01*
X31355960Y22504771D01*
X31355537Y22504114D01*
X31301822Y22457690D01*
X31231536Y22447675D01*
X31166992Y22477251D01*
X31142772Y22505600D01*
X31137335Y22514302D01*
X31078476Y22608495D01*
X31015955Y22671454D01*
X30967486Y22720263D01*
X30967482Y22720266D01*
X30962522Y22725261D01*
X30823580Y22813437D01*
X30770649Y22832285D01*
X30675189Y22866277D01*
X30675187Y22866278D01*
X30668555Y22868639D01*
X30661569Y22869472D01*
X30661565Y22869473D01*
X30545173Y22883351D01*
X30505153Y22888123D01*
X30498150Y22887387D01*
X30498149Y22887387D01*
X30459750Y22883351D01*
X30341495Y22870922D01*
X30334827Y22868652D01*
X30192382Y22820160D01*
X30192379Y22820159D01*
X30185715Y22817890D01*
X30045555Y22731663D01*
X29984072Y22671454D01*
X29936549Y22624916D01*
X29927982Y22616527D01*
X29838838Y22478203D01*
X29836427Y22471580D01*
X29836426Y22471577D01*
X29784966Y22330191D01*
X29784965Y22330186D01*
X29782556Y22323568D01*
X29761931Y22160306D01*
X29777989Y21996532D01*
X29829932Y21840385D01*
X29833581Y21834360D01*
X29911528Y21705656D01*
X29915179Y21699627D01*
X29920070Y21694562D01*
X29920071Y21694561D01*
X29954895Y21658500D01*
X30029491Y21581253D01*
X30035384Y21577397D01*
X30035386Y21577395D01*
X30063388Y21559071D01*
X30109435Y21505033D01*
X30118958Y21434678D01*
X30088932Y21370343D01*
X30060416Y21346323D01*
X30035948Y21331270D01*
X29991914Y21288149D01*
X29942190Y21239455D01*
X29918375Y21216134D01*
X29829231Y21077810D01*
X29826820Y21071187D01*
X29826819Y21071184D01*
X29775359Y20929798D01*
X29775358Y20929793D01*
X29772949Y20923175D01*
X29752324Y20759913D01*
X26020204Y20759913D01*
X26019798Y20763534D01*
X26013998Y20780191D01*
X25983092Y20868940D01*
X25965680Y20918940D01*
X25932568Y20971931D01*
X25882209Y21052521D01*
X25878476Y21058495D01*
X25805817Y21131663D01*
X25767486Y21170263D01*
X25767482Y21170266D01*
X25762522Y21175261D01*
X25623580Y21263437D01*
X25505434Y21305507D01*
X25475189Y21316277D01*
X25475187Y21316278D01*
X25468555Y21318639D01*
X25461569Y21319472D01*
X25461565Y21319473D01*
X25347071Y21333125D01*
X25305153Y21338123D01*
X25298150Y21337387D01*
X25298149Y21337387D01*
X25254935Y21332845D01*
X25141495Y21320922D01*
X25134827Y21318652D01*
X24992382Y21270160D01*
X24992379Y21270159D01*
X24985715Y21267890D01*
X24947619Y21244453D01*
X24861477Y21191458D01*
X24845555Y21181663D01*
X24833914Y21170263D01*
X24758118Y21096038D01*
X24727982Y21066527D01*
X24638838Y20928203D01*
X24636427Y20921580D01*
X24636426Y20921577D01*
X24584966Y20780191D01*
X24584965Y20780186D01*
X24582556Y20773568D01*
X24561931Y20610306D01*
X24577989Y20446532D01*
X24629932Y20290385D01*
X24702368Y20170780D01*
X24706541Y20163890D01*
X24724720Y20095260D01*
X24704677Y20030364D01*
X24638838Y19928203D01*
X24636427Y19921580D01*
X24636426Y19921577D01*
X24584966Y19780191D01*
X24584965Y19780186D01*
X24582556Y19773568D01*
X24561931Y19610306D01*
X24577989Y19446532D01*
X24629932Y19290385D01*
X24633581Y19284360D01*
X24644097Y19266996D01*
X24662276Y19198366D01*
X24644569Y19141039D01*
X24645787Y19140434D01*
X24642657Y19134129D01*
X24638838Y19128203D01*
X24636427Y19121580D01*
X24636426Y19121577D01*
X24584966Y18980191D01*
X24584965Y18980186D01*
X24582556Y18973568D01*
X24561931Y18810306D01*
X19428144Y18810306D01*
X19437302Y18875466D01*
X19437303Y18875473D01*
X19437853Y18879390D01*
X19438141Y18900000D01*
X19419798Y19063534D01*
X19413998Y19080191D01*
X19386593Y19158887D01*
X19365680Y19218940D01*
X19340995Y19258445D01*
X19282209Y19352521D01*
X19278476Y19358495D01*
X19204349Y19433141D01*
X19167486Y19470263D01*
X19167482Y19470266D01*
X19162522Y19475261D01*
X19023580Y19563437D01*
X18923014Y19599247D01*
X18875189Y19616277D01*
X18875187Y19616278D01*
X18868555Y19618639D01*
X18861569Y19619472D01*
X18861565Y19619473D01*
X18747071Y19633125D01*
X18705153Y19638123D01*
X18698150Y19637387D01*
X18698149Y19637387D01*
X18654935Y19632845D01*
X18541495Y19620922D01*
X18527850Y19616277D01*
X18392382Y19570160D01*
X18392379Y19570159D01*
X18385715Y19567890D01*
X18331213Y19534360D01*
X18316107Y19525067D01*
X18247606Y19506409D01*
X18182572Y19526000D01*
X18123580Y19563437D01*
X18023014Y19599247D01*
X17975189Y19616277D01*
X17975187Y19616278D01*
X17968555Y19618639D01*
X17961569Y19619472D01*
X17961565Y19619473D01*
X17847071Y19633125D01*
X17805153Y19638123D01*
X17798150Y19637387D01*
X17798149Y19637387D01*
X17754935Y19632845D01*
X17641495Y19620922D01*
X17627850Y19616277D01*
X17492382Y19570160D01*
X17492379Y19570159D01*
X17485715Y19567890D01*
X17395838Y19512597D01*
X17351981Y19485616D01*
X17345555Y19481663D01*
X17302854Y19439847D01*
X17237178Y19375532D01*
X17227982Y19366527D01*
X17138838Y19228203D01*
X17136427Y19221580D01*
X17136426Y19221577D01*
X17084966Y19080191D01*
X17084965Y19080186D01*
X17082556Y19073568D01*
X17061931Y18910306D01*
X6229449Y18910306D01*
X6265449Y18944588D01*
X6282458Y18970188D01*
X6352614Y19075781D01*
X6352615Y19075783D01*
X6356515Y19081653D01*
X6414951Y19235488D01*
X6429125Y19336340D01*
X6437302Y19394522D01*
X6437303Y19394529D01*
X6437853Y19398446D01*
X6438141Y19419056D01*
X6419798Y19582590D01*
X6413998Y19599247D01*
X6380119Y19696532D01*
X6365680Y19737996D01*
X6361767Y19744259D01*
X6282209Y19871577D01*
X6278476Y19877551D01*
X6162522Y19994317D01*
X6156572Y19998093D01*
X6151928Y20001827D01*
X6111372Y20060100D01*
X6108759Y20131049D01*
X6144919Y20192147D01*
X6145127Y20192322D01*
X6146279Y20193009D01*
X6265449Y20306492D01*
X6269350Y20312363D01*
X6352614Y20437685D01*
X6352615Y20437687D01*
X6356515Y20443557D01*
X6414951Y20597392D01*
X6415931Y20604363D01*
X6415932Y20604368D01*
X6428211Y20691743D01*
X6457499Y20756418D01*
X6517103Y20794991D01*
X6588099Y20795216D01*
X6647947Y20757023D01*
X6660760Y20739480D01*
X6711526Y20655657D01*
X6711531Y20655651D01*
X6715179Y20649627D01*
X6829491Y20531253D01*
X6967189Y20441146D01*
X7121428Y20383785D01*
X7128409Y20382854D01*
X7128411Y20382853D01*
X7277561Y20362952D01*
X7277565Y20362952D01*
X7284542Y20362021D01*
X7291553Y20362659D01*
X7291557Y20362659D01*
X7441403Y20376296D01*
X7441404Y20376296D01*
X7448424Y20376935D01*
X7488163Y20389847D01*
X7514736Y20398481D01*
X7585704Y20400508D01*
X7646501Y20363846D01*
X7677827Y20300134D01*
X7669734Y20229600D01*
X7659583Y20210393D01*
X7638838Y20178203D01*
X7636427Y20171580D01*
X7636426Y20171577D01*
X7584966Y20030191D01*
X7584965Y20030186D01*
X7582556Y20023568D01*
X7561931Y19860306D01*
X7577989Y19696532D01*
X7629932Y19540385D01*
X7633581Y19534360D01*
X7705812Y19415094D01*
X7715179Y19399627D01*
X7720070Y19394562D01*
X7720071Y19394561D01*
X7767054Y19345909D01*
X7829491Y19281253D01*
X7967189Y19191146D01*
X8121428Y19133785D01*
X8128409Y19132854D01*
X8128411Y19132853D01*
X8277561Y19112952D01*
X8277565Y19112952D01*
X8284542Y19112021D01*
X8291553Y19112659D01*
X8291557Y19112659D01*
X8441403Y19126296D01*
X8441404Y19126296D01*
X8448424Y19126935D01*
X8539523Y19156535D01*
X8598230Y19175610D01*
X8598233Y19175611D01*
X8604929Y19177787D01*
X8746279Y19262049D01*
X8865449Y19375532D01*
X8874151Y19388629D01*
X8952614Y19506725D01*
X8952615Y19506727D01*
X8956515Y19512597D01*
X9014951Y19666432D01*
X9025379Y19740633D01*
X9037302Y19825466D01*
X9037303Y19825473D01*
X9037853Y19829390D01*
X9038141Y19850000D01*
X9019798Y20013534D01*
X9013998Y20030191D01*
X8989505Y20100524D01*
X8965680Y20168940D01*
X8960643Y20177002D01*
X8882209Y20302521D01*
X8878476Y20308495D01*
X8814015Y20373407D01*
X8767486Y20420263D01*
X8767482Y20420266D01*
X8762522Y20425261D01*
X8623580Y20513437D01*
X8521520Y20549779D01*
X8475189Y20566277D01*
X8475187Y20566278D01*
X8468555Y20568639D01*
X8461569Y20569472D01*
X8461565Y20569473D01*
X8326404Y20585589D01*
X8305153Y20588123D01*
X8298150Y20587387D01*
X8298149Y20587387D01*
X8281043Y20585589D01*
X8141495Y20570922D01*
X8134824Y20568651D01*
X8088252Y20552797D01*
X8017320Y20549779D01*
X7956016Y20585589D01*
X7943432Y20610306D01*
X21961931Y20610306D01*
X21977989Y20446532D01*
X22029932Y20290385D01*
X22033581Y20284360D01*
X22110077Y20158052D01*
X22115179Y20149627D01*
X22229491Y20031253D01*
X22367189Y19941146D01*
X22521428Y19883785D01*
X22528409Y19882854D01*
X22528411Y19882853D01*
X22677561Y19862952D01*
X22677565Y19862952D01*
X22684542Y19862021D01*
X22691553Y19862659D01*
X22691557Y19862659D01*
X22841403Y19876296D01*
X22841404Y19876296D01*
X22848424Y19876935D01*
X22884602Y19888690D01*
X22998230Y19925610D01*
X22998233Y19925611D01*
X23004929Y19927787D01*
X23146279Y20012049D01*
X23265449Y20125532D01*
X23275565Y20140758D01*
X23352614Y20256725D01*
X23352615Y20256727D01*
X23356515Y20262597D01*
X23414951Y20416432D01*
X23428584Y20513437D01*
X23437302Y20575466D01*
X23437303Y20575473D01*
X23437853Y20579390D01*
X23438141Y20600000D01*
X23419798Y20763534D01*
X23413998Y20780191D01*
X23383092Y20868940D01*
X23365680Y20918940D01*
X23332568Y20971931D01*
X23282209Y21052521D01*
X23278476Y21058495D01*
X23205817Y21131663D01*
X23167486Y21170263D01*
X23167482Y21170266D01*
X23162522Y21175261D01*
X23023580Y21263437D01*
X22905434Y21305507D01*
X22875189Y21316277D01*
X22875187Y21316278D01*
X22868555Y21318639D01*
X22861569Y21319472D01*
X22861565Y21319473D01*
X22747071Y21333125D01*
X22705153Y21338123D01*
X22698150Y21337387D01*
X22698149Y21337387D01*
X22654935Y21332845D01*
X22541495Y21320922D01*
X22534827Y21318652D01*
X22392382Y21270160D01*
X22392379Y21270159D01*
X22385715Y21267890D01*
X22347619Y21244453D01*
X22261477Y21191458D01*
X22245555Y21181663D01*
X22233914Y21170263D01*
X22158118Y21096038D01*
X22127982Y21066527D01*
X22038838Y20928203D01*
X22036427Y20921580D01*
X22036426Y20921577D01*
X21984966Y20780191D01*
X21984965Y20780186D01*
X21982556Y20773568D01*
X21961931Y20610306D01*
X7943432Y20610306D01*
X7923804Y20648858D01*
X7930912Y20719498D01*
X7942699Y20741802D01*
X7952614Y20756725D01*
X7952615Y20756727D01*
X7956515Y20762597D01*
X8014951Y20916432D01*
X8027050Y21002521D01*
X8037302Y21075466D01*
X8037303Y21075473D01*
X8037853Y21079390D01*
X8038141Y21100000D01*
X8019798Y21263534D01*
X8016304Y21273568D01*
X7967997Y21412287D01*
X7967996Y21412288D01*
X7965680Y21418940D01*
X7964778Y21420384D01*
X7953723Y21488375D01*
X7982024Y21553486D01*
X8041035Y21592961D01*
X8067329Y21598219D01*
X8104184Y21601573D01*
X8124296Y21603403D01*
X8124297Y21603403D01*
X8131317Y21604042D01*
X8170902Y21616904D01*
X8281123Y21652717D01*
X8281126Y21652718D01*
X8287822Y21654894D01*
X8429172Y21739156D01*
X8434267Y21744008D01*
X8434275Y21744014D01*
X8438940Y21748457D01*
X8502064Y21780950D01*
X8572735Y21774157D01*
X8616467Y21744740D01*
X8629491Y21731253D01*
X8767189Y21641146D01*
X8921428Y21583785D01*
X8928409Y21582854D01*
X8928411Y21582853D01*
X9077561Y21562952D01*
X9077565Y21562952D01*
X9084542Y21562021D01*
X9091553Y21562659D01*
X9091557Y21562659D01*
X9241403Y21576296D01*
X9241404Y21576296D01*
X9248424Y21576935D01*
X9314788Y21598498D01*
X9398230Y21625610D01*
X9398233Y21625611D01*
X9404929Y21627787D01*
X9546279Y21712049D01*
X9665449Y21825532D01*
X9670718Y21833462D01*
X9752614Y21956725D01*
X9752615Y21956727D01*
X9756515Y21962597D01*
X9814951Y22116432D01*
X9826696Y22200000D01*
X9828144Y22210306D01*
X12561931Y22210306D01*
X12577989Y22046532D01*
X12629932Y21890385D01*
X12642770Y21869187D01*
X12703796Y21768423D01*
X12715179Y21749627D01*
X12720070Y21744562D01*
X12720071Y21744561D01*
X12780811Y21681663D01*
X12829491Y21631253D01*
X12967189Y21541146D01*
X13121428Y21483785D01*
X13128409Y21482854D01*
X13128411Y21482853D01*
X13277561Y21462952D01*
X13277565Y21462952D01*
X13284542Y21462021D01*
X13291553Y21462659D01*
X13291557Y21462659D01*
X13441403Y21476296D01*
X13441404Y21476296D01*
X13448424Y21476935D01*
X13497722Y21492953D01*
X13598230Y21525610D01*
X13598233Y21525611D01*
X13604929Y21527787D01*
X13746279Y21612049D01*
X13865449Y21725532D01*
X13870566Y21733233D01*
X13952614Y21856725D01*
X13952615Y21856727D01*
X13956515Y21862597D01*
X14014951Y22016432D01*
X14028079Y22109846D01*
X14037302Y22175466D01*
X14037303Y22175473D01*
X14037853Y22179390D01*
X14038141Y22200000D01*
X14019798Y22363534D01*
X14013998Y22380191D01*
X13984974Y22463534D01*
X13965680Y22518940D01*
X13930359Y22575466D01*
X13882209Y22652521D01*
X13878476Y22658495D01*
X13805817Y22731663D01*
X13767486Y22770263D01*
X13767482Y22770266D01*
X13762522Y22775261D01*
X13623580Y22863437D01*
X13532026Y22896038D01*
X13491957Y22910306D01*
X20961931Y22910306D01*
X20977989Y22746532D01*
X21029932Y22590385D01*
X21033581Y22584360D01*
X21106757Y22463534D01*
X21115179Y22449627D01*
X21229491Y22331253D01*
X21367189Y22241146D01*
X21521428Y22183785D01*
X21528409Y22182854D01*
X21528411Y22182853D01*
X21677561Y22162952D01*
X21677565Y22162952D01*
X21684542Y22162021D01*
X21691553Y22162659D01*
X21691557Y22162659D01*
X21841403Y22176296D01*
X21841404Y22176296D01*
X21848424Y22176935D01*
X21877062Y22186240D01*
X21998230Y22225610D01*
X21998233Y22225611D01*
X22004929Y22227787D01*
X22146279Y22312049D01*
X22265449Y22425532D01*
X22278092Y22444561D01*
X22352614Y22556725D01*
X22352615Y22556727D01*
X22356515Y22562597D01*
X22414951Y22716432D01*
X22424637Y22785355D01*
X22437302Y22875466D01*
X22437303Y22875473D01*
X22437853Y22879390D01*
X22437995Y22889570D01*
X22438086Y22896038D01*
X22438086Y22896044D01*
X22438141Y22900000D01*
X22419798Y23063534D01*
X22413998Y23080191D01*
X22381345Y23173955D01*
X22365680Y23218940D01*
X22300089Y23323908D01*
X22282209Y23352521D01*
X22278476Y23358495D01*
X22216459Y23420946D01*
X22167486Y23470263D01*
X22167482Y23470266D01*
X22162522Y23475261D01*
X22023580Y23563437D01*
X21974447Y23580932D01*
X21875189Y23616277D01*
X21875187Y23616278D01*
X21868555Y23618639D01*
X21861569Y23619472D01*
X21861565Y23619473D01*
X21747071Y23633125D01*
X21705153Y23638123D01*
X21698150Y23637387D01*
X21698149Y23637387D01*
X21654935Y23632845D01*
X21541495Y23620922D01*
X21534827Y23618652D01*
X21392382Y23570160D01*
X21392379Y23570159D01*
X21385715Y23567890D01*
X21302918Y23516953D01*
X21276672Y23500806D01*
X21245555Y23481663D01*
X21237259Y23473539D01*
X21137956Y23376294D01*
X21127982Y23366527D01*
X21038838Y23228203D01*
X21036427Y23221580D01*
X21036426Y23221577D01*
X20984966Y23080191D01*
X20984965Y23080186D01*
X20982556Y23073568D01*
X20961931Y22910306D01*
X13491957Y22910306D01*
X13475189Y22916277D01*
X13475187Y22916278D01*
X13468555Y22918639D01*
X13461569Y22919472D01*
X13461565Y22919473D01*
X13332048Y22934916D01*
X13305153Y22938123D01*
X13298150Y22937387D01*
X13298149Y22937387D01*
X13260245Y22933403D01*
X13141495Y22920922D01*
X13129437Y22916817D01*
X12992382Y22870160D01*
X12992379Y22870159D01*
X12985715Y22867890D01*
X12928279Y22832555D01*
X12863182Y22792507D01*
X12845555Y22781663D01*
X12804122Y22741089D01*
X12764725Y22702508D01*
X12727982Y22666527D01*
X12638838Y22528203D01*
X12636427Y22521580D01*
X12636426Y22521577D01*
X12584966Y22380191D01*
X12584965Y22380186D01*
X12582556Y22373568D01*
X12561931Y22210306D01*
X9828144Y22210306D01*
X9837302Y22275466D01*
X9837303Y22275473D01*
X9837853Y22279390D01*
X9838141Y22300000D01*
X9819798Y22463534D01*
X9815835Y22474916D01*
X9795214Y22534130D01*
X9765680Y22618940D01*
X9742954Y22655310D01*
X9682209Y22752521D01*
X9678476Y22758495D01*
X9604931Y22832555D01*
X9567486Y22870263D01*
X9567482Y22870266D01*
X9562522Y22875261D01*
X9423580Y22963437D01*
X9347455Y22990544D01*
X9275189Y23016277D01*
X9275187Y23016278D01*
X9268555Y23018639D01*
X9261569Y23019472D01*
X9261565Y23019473D01*
X9142993Y23033611D01*
X9105153Y23038123D01*
X9098150Y23037387D01*
X9098149Y23037387D01*
X9062224Y23033611D01*
X8941495Y23020922D01*
X8929686Y23016902D01*
X8792382Y22970160D01*
X8792379Y22970159D01*
X8785715Y22967890D01*
X8706148Y22918940D01*
X8656056Y22888123D01*
X8645555Y22881663D01*
X8640523Y22876735D01*
X8634969Y22872396D01*
X8633371Y22874441D01*
X8581248Y22846682D01*
X8510489Y22852485D01*
X8466344Y22881292D01*
X8464300Y22883351D01*
X8445415Y22902368D01*
X8433378Y22910007D01*
X8386579Y22963396D01*
X8376073Y23033611D01*
X8405196Y23098359D01*
X8423963Y23116051D01*
X8429172Y23119156D01*
X8548342Y23232639D01*
X8566295Y23259660D01*
X8635507Y23363832D01*
X8635508Y23363834D01*
X8639408Y23369704D01*
X8697844Y23523539D01*
X8711211Y23618652D01*
X8718064Y23667413D01*
X15474824Y23667413D01*
X15490882Y23503639D01*
X15542825Y23347492D01*
X15546474Y23341467D01*
X15620680Y23218940D01*
X15628072Y23206734D01*
X15632963Y23201669D01*
X15632964Y23201668D01*
X15689206Y23143428D01*
X15742384Y23088360D01*
X15880082Y22998253D01*
X16034321Y22940892D01*
X16041302Y22939961D01*
X16041304Y22939960D01*
X16190454Y22920059D01*
X16190458Y22920059D01*
X16197435Y22919128D01*
X16204446Y22919766D01*
X16204450Y22919766D01*
X16354296Y22933403D01*
X16354297Y22933403D01*
X16361317Y22934042D01*
X16398858Y22946240D01*
X16511123Y22982717D01*
X16511126Y22982718D01*
X16517822Y22984894D01*
X16659172Y23069156D01*
X16778342Y23182639D01*
X16782243Y23188510D01*
X16865507Y23313832D01*
X16865508Y23313834D01*
X16869408Y23319704D01*
X16927844Y23473539D01*
X16939101Y23553639D01*
X16950195Y23632573D01*
X16950196Y23632580D01*
X16950746Y23636497D01*
X16951034Y23657107D01*
X16949554Y23670306D01*
X23924824Y23670306D01*
X23940882Y23506532D01*
X23992825Y23350385D01*
X23996474Y23344360D01*
X24072432Y23218940D01*
X24078072Y23209627D01*
X24082963Y23204562D01*
X24082964Y23204561D01*
X24098464Y23188510D01*
X24192384Y23091253D01*
X24330082Y23001146D01*
X24484321Y22943785D01*
X24491300Y22942854D01*
X24491303Y22942853D01*
X24547868Y22935306D01*
X24626763Y22924779D01*
X24691638Y22895945D01*
X24730626Y22836612D01*
X24732466Y22773579D01*
X24732556Y22773568D01*
X24711931Y22610306D01*
X24727989Y22446532D01*
X24779932Y22290385D01*
X24783581Y22284360D01*
X24854476Y22167300D01*
X24865179Y22149627D01*
X24870070Y22144562D01*
X24870071Y22144561D01*
X24887788Y22126215D01*
X24979491Y22031253D01*
X25117189Y21941146D01*
X25271428Y21883785D01*
X25278409Y21882854D01*
X25278411Y21882853D01*
X25427561Y21862952D01*
X25427565Y21862952D01*
X25434542Y21862021D01*
X25441553Y21862659D01*
X25441557Y21862659D01*
X25591403Y21876296D01*
X25591404Y21876296D01*
X25598424Y21876935D01*
X25627062Y21886240D01*
X25748230Y21925610D01*
X25748233Y21925611D01*
X25754929Y21927787D01*
X25896279Y22012049D01*
X26015449Y22125532D01*
X26024332Y22138902D01*
X26102614Y22256725D01*
X26102615Y22256727D01*
X26106515Y22262597D01*
X26164951Y22416432D01*
X26176609Y22499385D01*
X26187302Y22575466D01*
X26187303Y22575473D01*
X26187853Y22579390D01*
X26188141Y22600000D01*
X26169798Y22763534D01*
X26115680Y22918940D01*
X26106643Y22933403D01*
X26032209Y23052521D01*
X26028476Y23058495D01*
X25952996Y23134504D01*
X25917486Y23170263D01*
X25917482Y23170266D01*
X25912522Y23175261D01*
X25773580Y23263437D01*
X25632055Y23313832D01*
X25625189Y23316277D01*
X25625187Y23316278D01*
X25618555Y23318639D01*
X25611567Y23319472D01*
X25611564Y23319473D01*
X25487763Y23334235D01*
X25422490Y23362162D01*
X25382677Y23420946D01*
X25377908Y23476884D01*
X25397947Y23619473D01*
X25400746Y23639390D01*
X25401034Y23660000D01*
X25382691Y23823534D01*
X25333156Y23965780D01*
X25329644Y24036688D01*
X25334360Y24051958D01*
X25375342Y24159846D01*
X25377844Y24166432D01*
X25393625Y24278721D01*
X25400195Y24325466D01*
X25400196Y24325473D01*
X25400746Y24329390D01*
X25401034Y24350000D01*
X25382691Y24513534D01*
X25379257Y24523397D01*
X25330891Y24662283D01*
X25328573Y24668940D01*
X25319723Y24683104D01*
X25245102Y24802521D01*
X25241369Y24808495D01*
X25180327Y24869965D01*
X25129151Y24921499D01*
X25095343Y24983929D01*
X25100655Y25054727D01*
X25131664Y25101529D01*
X25185292Y25152598D01*
X25248342Y25212639D01*
X25257707Y25226734D01*
X25335507Y25343832D01*
X25335508Y25343834D01*
X25339408Y25349704D01*
X25397844Y25503539D01*
X25411343Y25599587D01*
X25420195Y25662573D01*
X25420196Y25662580D01*
X25420746Y25666497D01*
X25420940Y25680400D01*
X25420979Y25683145D01*
X25420979Y25683151D01*
X25421034Y25687107D01*
X25402691Y25850641D01*
X25353156Y25992887D01*
X25349644Y26063795D01*
X25354360Y26079065D01*
X25390979Y26175466D01*
X25397844Y26193539D01*
X25400200Y26210306D01*
X26711931Y26210306D01*
X26727989Y26046532D01*
X26779932Y25890385D01*
X26783581Y25884360D01*
X26858910Y25759979D01*
X26865179Y25749627D01*
X26979491Y25631253D01*
X27117189Y25541146D01*
X27271428Y25483785D01*
X27278409Y25482854D01*
X27278411Y25482853D01*
X27427561Y25462952D01*
X27427565Y25462952D01*
X27434542Y25462021D01*
X27441553Y25462659D01*
X27441557Y25462659D01*
X27591403Y25476296D01*
X27591404Y25476296D01*
X27598424Y25476935D01*
X27738913Y25522583D01*
X27809879Y25524611D01*
X27821765Y25520849D01*
X27921428Y25483785D01*
X27928409Y25482854D01*
X27928411Y25482853D01*
X28077561Y25462952D01*
X28077565Y25462952D01*
X28084542Y25462021D01*
X28091553Y25462659D01*
X28091557Y25462659D01*
X28241403Y25476296D01*
X28241404Y25476296D01*
X28248424Y25476935D01*
X28331750Y25504009D01*
X28402716Y25506037D01*
X28414604Y25502274D01*
X28464321Y25483785D01*
X28471302Y25482854D01*
X28471304Y25482853D01*
X28620454Y25462952D01*
X28620458Y25462952D01*
X28627435Y25462021D01*
X28634446Y25462659D01*
X28634450Y25462659D01*
X28784296Y25476296D01*
X28784297Y25476296D01*
X28791317Y25476935D01*
X28822149Y25486953D01*
X28941123Y25525610D01*
X28941126Y25525611D01*
X28947822Y25527787D01*
X29089172Y25612049D01*
X29208342Y25725532D01*
X29227328Y25754108D01*
X29295507Y25856725D01*
X29295508Y25856727D01*
X29299408Y25862597D01*
X29357844Y26016432D01*
X29366646Y26079065D01*
X29380195Y26175466D01*
X29380196Y26175473D01*
X29380746Y26179390D01*
X29381034Y26200000D01*
X29362691Y26363534D01*
X29360076Y26371045D01*
X29310891Y26512283D01*
X29308573Y26518940D01*
X29301262Y26530641D01*
X29225102Y26652521D01*
X29221369Y26658495D01*
X29150655Y26729704D01*
X29110379Y26770263D01*
X29110375Y26770266D01*
X29105415Y26775261D01*
X28966473Y26863437D01*
X28903943Y26885703D01*
X28818082Y26916277D01*
X28818080Y26916278D01*
X28811448Y26918639D01*
X28804462Y26919472D01*
X28804458Y26919473D01*
X28689964Y26933125D01*
X28648046Y26938123D01*
X28641043Y26937387D01*
X28641042Y26937387D01*
X28491396Y26921659D01*
X28491392Y26921658D01*
X28484388Y26920922D01*
X28477717Y26918651D01*
X28412304Y26896383D01*
X28341371Y26893365D01*
X28329443Y26896958D01*
X28268555Y26918639D01*
X28261563Y26919473D01*
X28261562Y26919473D01*
X28186854Y26928381D01*
X28105153Y26938123D01*
X28098150Y26937387D01*
X28098149Y26937387D01*
X28054935Y26932845D01*
X27941495Y26920922D01*
X27934824Y26918651D01*
X27814653Y26877742D01*
X27743721Y26874724D01*
X27731781Y26878321D01*
X27625190Y26916277D01*
X27625185Y26916278D01*
X27618555Y26918639D01*
X27611569Y26919472D01*
X27611565Y26919473D01*
X27497071Y26933125D01*
X27455153Y26938123D01*
X27448150Y26937387D01*
X27448149Y26937387D01*
X27404935Y26932845D01*
X27291495Y26920922D01*
X27284827Y26918652D01*
X27142382Y26870160D01*
X27142379Y26870159D01*
X27135715Y26867890D01*
X27076743Y26831610D01*
X27012353Y26791997D01*
X26995555Y26781663D01*
X26942496Y26729704D01*
X26884475Y26672885D01*
X26877982Y26666527D01*
X26788838Y26528203D01*
X26786427Y26521580D01*
X26786426Y26521577D01*
X26734966Y26380191D01*
X26734965Y26380186D01*
X26732556Y26373568D01*
X26711931Y26210306D01*
X25400200Y26210306D01*
X25411695Y26292094D01*
X25420195Y26352573D01*
X25420196Y26352580D01*
X25420746Y26356497D01*
X25420894Y26367107D01*
X25420979Y26373145D01*
X25420979Y26373151D01*
X25421034Y26377107D01*
X25402691Y26540641D01*
X25353156Y26682887D01*
X25349644Y26753795D01*
X25354360Y26769065D01*
X25391106Y26865802D01*
X25397844Y26883539D01*
X25412782Y26989828D01*
X25420195Y27042573D01*
X25420196Y27042580D01*
X25420746Y27046497D01*
X25420924Y27059200D01*
X25420979Y27063145D01*
X25420979Y27063151D01*
X25421034Y27067107D01*
X25411162Y27155118D01*
X25423446Y27225043D01*
X25471585Y27277227D01*
X25540295Y27295101D01*
X25607761Y27272991D01*
X25608001Y27272809D01*
X25609884Y27270860D01*
X25747582Y27180753D01*
X25901821Y27123392D01*
X25908802Y27122461D01*
X25908804Y27122460D01*
X26057954Y27102559D01*
X26057958Y27102559D01*
X26064935Y27101628D01*
X26071946Y27102266D01*
X26071950Y27102266D01*
X26221796Y27115903D01*
X26221797Y27115903D01*
X26228817Y27116542D01*
X26257455Y27125847D01*
X26378623Y27165217D01*
X26378626Y27165218D01*
X26385322Y27167394D01*
X26526672Y27251656D01*
X26645842Y27365139D01*
X26649743Y27371010D01*
X26733007Y27496332D01*
X26733008Y27496334D01*
X26736908Y27502204D01*
X26795344Y27656039D01*
X26803900Y27716918D01*
X26817695Y27815073D01*
X26817696Y27815080D01*
X26818246Y27818997D01*
X26818534Y27839607D01*
X26800191Y28003141D01*
X26794391Y28019798D01*
X26755489Y28131508D01*
X26746073Y28158547D01*
X26738419Y28170797D01*
X26662602Y28292128D01*
X26658869Y28298102D01*
X26573796Y28383771D01*
X26547879Y28409870D01*
X26547875Y28409873D01*
X26542915Y28414868D01*
X26403973Y28503044D01*
X26351988Y28521555D01*
X26255582Y28555884D01*
X26255580Y28555885D01*
X26248948Y28558246D01*
X26241962Y28559079D01*
X26241958Y28559080D01*
X26127464Y28572732D01*
X26085546Y28577730D01*
X26078543Y28576994D01*
X26078542Y28576994D01*
X26035328Y28572452D01*
X25921888Y28560529D01*
X25915220Y28558259D01*
X25772775Y28509767D01*
X25772772Y28509766D01*
X25766108Y28507497D01*
X25625948Y28421270D01*
X25591430Y28387467D01*
X25515552Y28313162D01*
X25508375Y28306134D01*
X25419231Y28167810D01*
X25416820Y28161187D01*
X25416819Y28161184D01*
X25365359Y28019798D01*
X25365358Y28019793D01*
X25362949Y28013175D01*
X25342324Y27849913D01*
X25350828Y27763185D01*
X25352125Y27749957D01*
X25338866Y27680209D01*
X25290003Y27628702D01*
X25221050Y27611789D01*
X25153900Y27634839D01*
X25149872Y27637880D01*
X25145415Y27642368D01*
X25006473Y27730544D01*
X24911159Y27764484D01*
X24858082Y27783384D01*
X24858080Y27783385D01*
X24851448Y27785746D01*
X24844462Y27786579D01*
X24844458Y27786580D01*
X24727513Y27800524D01*
X24688046Y27805230D01*
X24681043Y27804494D01*
X24681042Y27804494D01*
X24643271Y27800524D01*
X24524388Y27788029D01*
X24517720Y27785759D01*
X24375275Y27737267D01*
X24375272Y27737266D01*
X24368608Y27734997D01*
X24279551Y27680209D01*
X24240264Y27656039D01*
X24228448Y27648770D01*
X24214222Y27634839D01*
X24127594Y27550006D01*
X24110875Y27533634D01*
X24021731Y27395310D01*
X24019320Y27388687D01*
X24019319Y27388684D01*
X23967859Y27247298D01*
X23967858Y27247293D01*
X23965449Y27240675D01*
X23944824Y27077413D01*
X23960882Y26913639D01*
X24012298Y26759077D01*
X24014820Y26688126D01*
X24011140Y26676212D01*
X23967859Y26557298D01*
X23967858Y26557293D01*
X23965449Y26550675D01*
X23944824Y26387413D01*
X23960882Y26223639D01*
X24010292Y26075108D01*
X24012298Y26069077D01*
X24014820Y25998126D01*
X24011140Y25986212D01*
X23967859Y25867298D01*
X23967858Y25867293D01*
X23965449Y25860675D01*
X23944824Y25697413D01*
X23960882Y25533639D01*
X24012825Y25377492D01*
X24016474Y25371467D01*
X24057717Y25303368D01*
X24098072Y25236734D01*
X24102963Y25231669D01*
X24102964Y25231668D01*
X24212384Y25118360D01*
X24211373Y25117384D01*
X24246778Y25064968D01*
X24248401Y24993990D01*
X24211464Y24933519D01*
X24208448Y24931663D01*
X24198069Y24921499D01*
X24138036Y24862710D01*
X24090875Y24816527D01*
X24001731Y24678203D01*
X23999320Y24671580D01*
X23999319Y24671577D01*
X23947859Y24530191D01*
X23947858Y24530186D01*
X23945449Y24523568D01*
X23924824Y24360306D01*
X23940882Y24196532D01*
X23989480Y24050441D01*
X23992298Y24041970D01*
X23994820Y23971019D01*
X23991140Y23959105D01*
X23947859Y23840191D01*
X23947858Y23840186D01*
X23945449Y23833568D01*
X23924824Y23670306D01*
X16949554Y23670306D01*
X16932691Y23820641D01*
X16926891Y23837298D01*
X16880891Y23969390D01*
X16878573Y23976047D01*
X16847330Y24026047D01*
X16795102Y24109628D01*
X16791369Y24115602D01*
X16721293Y24186169D01*
X16680379Y24227370D01*
X16680375Y24227373D01*
X16675415Y24232368D01*
X16536473Y24320544D01*
X16453751Y24350000D01*
X16388082Y24373384D01*
X16388080Y24373385D01*
X16381448Y24375746D01*
X16374462Y24376579D01*
X16374458Y24376580D01*
X16243423Y24392204D01*
X16218046Y24395230D01*
X16211043Y24394494D01*
X16211042Y24394494D01*
X16189255Y24392204D01*
X16054388Y24378029D01*
X16047720Y24375759D01*
X15905275Y24327267D01*
X15905272Y24327266D01*
X15898608Y24324997D01*
X15758448Y24238770D01*
X15708496Y24189853D01*
X15691702Y24173407D01*
X15640875Y24123634D01*
X15551731Y23985310D01*
X15549320Y23978687D01*
X15549319Y23978684D01*
X15497859Y23837298D01*
X15497858Y23837293D01*
X15495449Y23830675D01*
X15474824Y23667413D01*
X8718064Y23667413D01*
X8720195Y23682573D01*
X8720196Y23682580D01*
X8720746Y23686497D01*
X8721034Y23707107D01*
X8702691Y23870641D01*
X8696891Y23887298D01*
X8665924Y23976222D01*
X8648573Y24026047D01*
X8610149Y24087539D01*
X8565102Y24159628D01*
X8561369Y24165602D01*
X8488710Y24238770D01*
X8450379Y24277370D01*
X8450375Y24277373D01*
X8445415Y24282368D01*
X8306473Y24370544D01*
X8207620Y24405744D01*
X8158082Y24423384D01*
X8158080Y24423385D01*
X8151448Y24425746D01*
X8144462Y24426579D01*
X8144458Y24426580D01*
X8029964Y24440232D01*
X7988046Y24445230D01*
X7981043Y24444494D01*
X7981042Y24444494D01*
X7937828Y24439952D01*
X7824388Y24428029D01*
X7817720Y24425759D01*
X7675275Y24377267D01*
X7675272Y24377266D01*
X7668608Y24374997D01*
X7594475Y24329390D01*
X7543541Y24298055D01*
X7528448Y24288770D01*
X7517306Y24277859D01*
X7422585Y24185101D01*
X7410875Y24173634D01*
X7321731Y24035310D01*
X7319320Y24028687D01*
X7319319Y24028684D01*
X7267859Y23887298D01*
X7267858Y23887293D01*
X7265449Y23880675D01*
X7244824Y23717413D01*
X7260882Y23553639D01*
X7312825Y23397492D01*
X7316474Y23391467D01*
X7360581Y23318639D01*
X7398072Y23256734D01*
X7402963Y23251669D01*
X7402964Y23251668D01*
X7446356Y23206734D01*
X7512384Y23138360D01*
X7534874Y23123643D01*
X7580921Y23069606D01*
X7590444Y22999251D01*
X7560419Y22934916D01*
X7539565Y22917351D01*
X7539998Y22916797D01*
X7534450Y22912462D01*
X7528448Y22908770D01*
X7478299Y22859660D01*
X7422915Y22805424D01*
X7410875Y22793634D01*
X7321731Y22655310D01*
X7319320Y22648687D01*
X7319319Y22648684D01*
X7267859Y22507298D01*
X7267858Y22507293D01*
X7265449Y22500675D01*
X7244824Y22337413D01*
X7260882Y22173639D01*
X7279912Y22116432D01*
X7309929Y22026199D01*
X7312825Y22017492D01*
X7316471Y22011472D01*
X7318515Y22007048D01*
X7328929Y21936819D01*
X7299722Y21872109D01*
X7240166Y21833462D01*
X7217305Y21828890D01*
X7201455Y21827224D01*
X7141495Y21820922D01*
X7134827Y21818652D01*
X6992382Y21770160D01*
X6992379Y21770159D01*
X6985715Y21767890D01*
X6894947Y21712049D01*
X6861867Y21691698D01*
X6845555Y21681663D01*
X6799253Y21636321D01*
X6735733Y21574117D01*
X6727982Y21566527D01*
X6638838Y21428203D01*
X6636427Y21421580D01*
X6636426Y21421577D01*
X6584966Y21280191D01*
X6584965Y21280186D01*
X6582556Y21273568D01*
X6574286Y21208102D01*
X6572183Y21191458D01*
X6543801Y21126381D01*
X6484742Y21086980D01*
X6413755Y21085763D01*
X6353380Y21123118D01*
X6340323Y21140480D01*
X6282209Y21233481D01*
X6278476Y21239455D01*
X6162522Y21356221D01*
X6156572Y21359997D01*
X6151928Y21363731D01*
X6111372Y21422004D01*
X6108759Y21492953D01*
X6144919Y21554051D01*
X6145127Y21554226D01*
X6146279Y21554913D01*
X6265449Y21668396D01*
X6281458Y21692491D01*
X6352614Y21799589D01*
X6352615Y21799591D01*
X6356515Y21805461D01*
X6414951Y21959296D01*
X6424069Y22024174D01*
X6437302Y22118330D01*
X6437303Y22118337D01*
X6437853Y22122254D01*
X6438141Y22142864D01*
X6419798Y22306398D01*
X6416140Y22316904D01*
X6373326Y22439847D01*
X6365680Y22461804D01*
X6339656Y22503452D01*
X6282209Y22595385D01*
X6278476Y22601359D01*
X6162522Y22718125D01*
X6156572Y22721901D01*
X6151928Y22725635D01*
X6111372Y22783908D01*
X6108759Y22854857D01*
X6144919Y22915955D01*
X6145127Y22916130D01*
X6146279Y22916817D01*
X6265449Y23030300D01*
X6269350Y23036171D01*
X6352614Y23161493D01*
X6352615Y23161495D01*
X6356515Y23167365D01*
X6414951Y23321200D01*
X6435435Y23466953D01*
X6437302Y23480234D01*
X6437303Y23480241D01*
X6437853Y23484158D01*
X6438032Y23496954D01*
X6438086Y23500806D01*
X6438086Y23500812D01*
X6438141Y23504768D01*
X6419798Y23668302D01*
X6413998Y23684959D01*
X6367998Y23817051D01*
X6365680Y23823708D01*
X6340727Y23863642D01*
X6282209Y23957289D01*
X6278476Y23963263D01*
X6162522Y24080029D01*
X6156572Y24083805D01*
X6151928Y24087539D01*
X6111372Y24145812D01*
X6108759Y24216761D01*
X6144919Y24277859D01*
X6145127Y24278034D01*
X6146279Y24278721D01*
X6265449Y24392204D01*
X6281458Y24416299D01*
X6352614Y24523397D01*
X6352615Y24523399D01*
X6356515Y24529269D01*
X6414951Y24683104D01*
X6431734Y24802521D01*
X6437302Y24842138D01*
X6437303Y24842145D01*
X6437853Y24846062D01*
X6438141Y24866672D01*
X6419798Y25030206D01*
X6413998Y25046863D01*
X6378440Y25148971D01*
X6365680Y25185612D01*
X6360896Y25193269D01*
X6282209Y25319193D01*
X6278476Y25325167D01*
X6162522Y25441933D01*
X6156572Y25445709D01*
X6151928Y25449443D01*
X6111372Y25507716D01*
X6108759Y25578665D01*
X6144919Y25639763D01*
X6145127Y25639938D01*
X6146279Y25640625D01*
X6265449Y25754108D01*
X6281458Y25778203D01*
X6352614Y25885301D01*
X6352615Y25885303D01*
X6356515Y25891173D01*
X6414951Y26045008D01*
X6423797Y26107950D01*
X6437302Y26204042D01*
X6437303Y26204049D01*
X6437853Y26207966D01*
X6437886Y26210306D01*
X9711931Y26210306D01*
X9727989Y26046532D01*
X9779932Y25890385D01*
X9783581Y25884360D01*
X9858910Y25759979D01*
X9865179Y25749627D01*
X9979491Y25631253D01*
X10117189Y25541146D01*
X10271428Y25483785D01*
X10278409Y25482854D01*
X10278411Y25482853D01*
X10427561Y25462952D01*
X10427565Y25462952D01*
X10434542Y25462021D01*
X10441553Y25462659D01*
X10441557Y25462659D01*
X10591403Y25476296D01*
X10591404Y25476296D01*
X10598424Y25476935D01*
X10738913Y25522583D01*
X10809879Y25524611D01*
X10821765Y25520849D01*
X10921428Y25483785D01*
X10928409Y25482854D01*
X10928411Y25482853D01*
X11077561Y25462952D01*
X11077565Y25462952D01*
X11084542Y25462021D01*
X11091553Y25462659D01*
X11091557Y25462659D01*
X11241403Y25476296D01*
X11241404Y25476296D01*
X11248424Y25476935D01*
X11331750Y25504009D01*
X11402716Y25506037D01*
X11414604Y25502274D01*
X11464321Y25483785D01*
X11471302Y25482854D01*
X11471304Y25482853D01*
X11620454Y25462952D01*
X11620458Y25462952D01*
X11627435Y25462021D01*
X11634446Y25462659D01*
X11634450Y25462659D01*
X11784296Y25476296D01*
X11784297Y25476296D01*
X11791317Y25476935D01*
X11822149Y25486953D01*
X11941123Y25525610D01*
X11941126Y25525611D01*
X11947822Y25527787D01*
X12089172Y25612049D01*
X12168313Y25687413D01*
X15504824Y25687413D01*
X15520882Y25523639D01*
X15572825Y25367492D01*
X15576474Y25361467D01*
X15652016Y25236734D01*
X15658072Y25226734D01*
X15662963Y25221669D01*
X15662964Y25221668D01*
X15681340Y25202639D01*
X15772384Y25108360D01*
X15910082Y25018253D01*
X16064321Y24960892D01*
X16071302Y24959961D01*
X16071304Y24959960D01*
X16220454Y24940059D01*
X16220458Y24940059D01*
X16227435Y24939128D01*
X16234446Y24939766D01*
X16234450Y24939766D01*
X16384296Y24953403D01*
X16384297Y24953403D01*
X16391317Y24954042D01*
X16432056Y24967279D01*
X16541123Y25002717D01*
X16541126Y25002718D01*
X16547822Y25004894D01*
X16689172Y25089156D01*
X16808342Y25202639D01*
X16824351Y25226734D01*
X16895507Y25333832D01*
X16895508Y25333834D01*
X16899408Y25339704D01*
X16957844Y25493539D01*
X16973993Y25608445D01*
X16980195Y25652573D01*
X16980196Y25652580D01*
X16980746Y25656497D01*
X16980941Y25670458D01*
X16980979Y25673145D01*
X16980979Y25673151D01*
X16981034Y25677107D01*
X16962691Y25840641D01*
X16913156Y25982887D01*
X16909644Y26053795D01*
X16914360Y26069065D01*
X16955342Y26176953D01*
X16957844Y26183539D01*
X16961606Y26210306D01*
X18261931Y26210306D01*
X18277989Y26046532D01*
X18329932Y25890385D01*
X18333581Y25884360D01*
X18408910Y25759979D01*
X18415179Y25749627D01*
X18529491Y25631253D01*
X18667189Y25541146D01*
X18821428Y25483785D01*
X18828409Y25482854D01*
X18828411Y25482853D01*
X18977561Y25462952D01*
X18977565Y25462952D01*
X18984542Y25462021D01*
X18991553Y25462659D01*
X18991557Y25462659D01*
X19141403Y25476296D01*
X19141404Y25476296D01*
X19148424Y25476935D01*
X19288913Y25522583D01*
X19359879Y25524611D01*
X19371765Y25520849D01*
X19471428Y25483785D01*
X19478409Y25482854D01*
X19478411Y25482853D01*
X19627561Y25462952D01*
X19627565Y25462952D01*
X19634542Y25462021D01*
X19641553Y25462659D01*
X19641557Y25462659D01*
X19791403Y25476296D01*
X19791404Y25476296D01*
X19798424Y25476935D01*
X19881750Y25504009D01*
X19952716Y25506037D01*
X19964604Y25502274D01*
X20014321Y25483785D01*
X20021302Y25482854D01*
X20021304Y25482853D01*
X20170454Y25462952D01*
X20170458Y25462952D01*
X20177435Y25462021D01*
X20184446Y25462659D01*
X20184450Y25462659D01*
X20334296Y25476296D01*
X20334297Y25476296D01*
X20341317Y25476935D01*
X20372149Y25486953D01*
X20491123Y25525610D01*
X20491126Y25525611D01*
X20497822Y25527787D01*
X20639172Y25612049D01*
X20758342Y25725532D01*
X20777328Y25754108D01*
X20845507Y25856725D01*
X20845508Y25856727D01*
X20849408Y25862597D01*
X20907844Y26016432D01*
X20916646Y26079065D01*
X20930195Y26175466D01*
X20930196Y26175473D01*
X20930746Y26179390D01*
X20931034Y26200000D01*
X20912691Y26363534D01*
X20910076Y26371045D01*
X20860891Y26512283D01*
X20858573Y26518940D01*
X20851262Y26530641D01*
X20775102Y26652521D01*
X20771369Y26658495D01*
X20700655Y26729704D01*
X20660379Y26770263D01*
X20660375Y26770266D01*
X20655415Y26775261D01*
X20516473Y26863437D01*
X20453943Y26885703D01*
X20368082Y26916277D01*
X20368080Y26916278D01*
X20361448Y26918639D01*
X20354462Y26919472D01*
X20354458Y26919473D01*
X20239964Y26933125D01*
X20198046Y26938123D01*
X20191043Y26937387D01*
X20191042Y26937387D01*
X20041396Y26921659D01*
X20041392Y26921658D01*
X20034388Y26920922D01*
X20027717Y26918651D01*
X19962304Y26896383D01*
X19891371Y26893365D01*
X19879443Y26896958D01*
X19818555Y26918639D01*
X19811563Y26919473D01*
X19811562Y26919473D01*
X19736854Y26928381D01*
X19655153Y26938123D01*
X19648150Y26937387D01*
X19648149Y26937387D01*
X19604935Y26932845D01*
X19491495Y26920922D01*
X19484824Y26918651D01*
X19364653Y26877742D01*
X19293721Y26874724D01*
X19281781Y26878321D01*
X19175190Y26916277D01*
X19175185Y26916278D01*
X19168555Y26918639D01*
X19161569Y26919472D01*
X19161565Y26919473D01*
X19047071Y26933125D01*
X19005153Y26938123D01*
X18998150Y26937387D01*
X18998149Y26937387D01*
X18954935Y26932845D01*
X18841495Y26920922D01*
X18834827Y26918652D01*
X18692382Y26870160D01*
X18692379Y26870159D01*
X18685715Y26867890D01*
X18626743Y26831610D01*
X18562353Y26791997D01*
X18545555Y26781663D01*
X18492496Y26729704D01*
X18434475Y26672885D01*
X18427982Y26666527D01*
X18338838Y26528203D01*
X18336427Y26521580D01*
X18336426Y26521577D01*
X18284966Y26380191D01*
X18284965Y26380186D01*
X18282556Y26373568D01*
X18261931Y26210306D01*
X16961606Y26210306D01*
X16973528Y26295136D01*
X16980195Y26342573D01*
X16980196Y26342580D01*
X16980746Y26346497D01*
X16981034Y26367107D01*
X16962691Y26530641D01*
X16913156Y26672887D01*
X16909644Y26743795D01*
X16914360Y26759065D01*
X16953425Y26861907D01*
X16957844Y26873539D01*
X16958824Y26880510D01*
X16958825Y26880515D01*
X16978843Y27022958D01*
X17008131Y27087632D01*
X17067735Y27126206D01*
X17138731Y27126431D01*
X17172609Y27110856D01*
X17236644Y27068953D01*
X17390883Y27011592D01*
X17397864Y27010661D01*
X17397866Y27010660D01*
X17547016Y26990759D01*
X17547020Y26990759D01*
X17553997Y26989828D01*
X17561008Y26990466D01*
X17561012Y26990466D01*
X17710858Y27004103D01*
X17710859Y27004103D01*
X17717879Y27004742D01*
X17811080Y27035025D01*
X17867685Y27053417D01*
X17867688Y27053418D01*
X17874384Y27055594D01*
X18015734Y27139856D01*
X18134904Y27253339D01*
X18148358Y27273589D01*
X18222069Y27384532D01*
X18222070Y27384534D01*
X18225970Y27390404D01*
X18284406Y27544239D01*
X18299616Y27652462D01*
X18306757Y27703273D01*
X18306758Y27703280D01*
X18307308Y27707197D01*
X18307596Y27727807D01*
X18289253Y27891341D01*
X18283453Y27907998D01*
X18246826Y28013175D01*
X18235135Y28046747D01*
X18226223Y28061010D01*
X18151664Y28180328D01*
X18147931Y28186302D01*
X18076808Y28257923D01*
X18036941Y28298070D01*
X18036937Y28298073D01*
X18031977Y28303068D01*
X17893035Y28391244D01*
X17816093Y28418642D01*
X17744644Y28444084D01*
X17744642Y28444085D01*
X17738010Y28446446D01*
X17731024Y28447279D01*
X17731020Y28447280D01*
X17616526Y28460932D01*
X17574608Y28465930D01*
X17567605Y28465194D01*
X17567604Y28465194D01*
X17541802Y28462482D01*
X17410950Y28448729D01*
X17404282Y28446459D01*
X17261837Y28397967D01*
X17261834Y28397966D01*
X17255170Y28395697D01*
X17115010Y28309470D01*
X17069003Y28264417D01*
X17005670Y28202396D01*
X16997437Y28194334D01*
X16908293Y28056010D01*
X16905882Y28049387D01*
X16905881Y28049384D01*
X16854421Y27907998D01*
X16854420Y27907993D01*
X16852011Y27901375D01*
X16844705Y27843545D01*
X16834553Y27763185D01*
X16806171Y27698108D01*
X16747111Y27658707D01*
X16676125Y27657490D01*
X16642034Y27672591D01*
X16566473Y27720544D01*
X16483872Y27749957D01*
X16418082Y27773384D01*
X16418080Y27773385D01*
X16411448Y27775746D01*
X16404462Y27776579D01*
X16404458Y27776580D01*
X16289964Y27790232D01*
X16248046Y27795230D01*
X16241043Y27794494D01*
X16241042Y27794494D01*
X16197828Y27789952D01*
X16084388Y27778029D01*
X16077720Y27775759D01*
X15935275Y27727267D01*
X15935272Y27727266D01*
X15928608Y27724997D01*
X15850010Y27676643D01*
X15800433Y27646143D01*
X15788448Y27638770D01*
X15726599Y27578203D01*
X15677368Y27529992D01*
X15670875Y27523634D01*
X15581731Y27385310D01*
X15579320Y27378687D01*
X15579319Y27378684D01*
X15527859Y27237298D01*
X15527858Y27237293D01*
X15525449Y27230675D01*
X15504824Y27067413D01*
X15520882Y26903639D01*
X15572298Y26749077D01*
X15574820Y26678126D01*
X15571140Y26666212D01*
X15527859Y26547298D01*
X15527858Y26547293D01*
X15525449Y26540675D01*
X15504824Y26377413D01*
X15520882Y26213639D01*
X15572298Y26059077D01*
X15574820Y25988126D01*
X15571140Y25976212D01*
X15527859Y25857298D01*
X15527858Y25857293D01*
X15525449Y25850675D01*
X15504824Y25687413D01*
X12168313Y25687413D01*
X12208342Y25725532D01*
X12227328Y25754108D01*
X12295507Y25856725D01*
X12295508Y25856727D01*
X12299408Y25862597D01*
X12357844Y26016432D01*
X12366646Y26079065D01*
X12380195Y26175466D01*
X12380196Y26175473D01*
X12380746Y26179390D01*
X12381034Y26200000D01*
X12362691Y26363534D01*
X12360076Y26371045D01*
X12310891Y26512283D01*
X12308573Y26518940D01*
X12301262Y26530641D01*
X12225102Y26652521D01*
X12221369Y26658495D01*
X12150655Y26729704D01*
X12110379Y26770263D01*
X12110375Y26770266D01*
X12105415Y26775261D01*
X11966473Y26863437D01*
X11903943Y26885703D01*
X11818082Y26916277D01*
X11818080Y26916278D01*
X11811448Y26918639D01*
X11804462Y26919472D01*
X11804458Y26919473D01*
X11689964Y26933125D01*
X11648046Y26938123D01*
X11641043Y26937387D01*
X11641042Y26937387D01*
X11491396Y26921659D01*
X11491392Y26921658D01*
X11484388Y26920922D01*
X11477717Y26918651D01*
X11412304Y26896383D01*
X11341371Y26893365D01*
X11329443Y26896958D01*
X11268555Y26918639D01*
X11261563Y26919473D01*
X11261562Y26919473D01*
X11186854Y26928381D01*
X11105153Y26938123D01*
X11098150Y26937387D01*
X11098149Y26937387D01*
X11054935Y26932845D01*
X10941495Y26920922D01*
X10934824Y26918651D01*
X10814653Y26877742D01*
X10743721Y26874724D01*
X10731781Y26878321D01*
X10625190Y26916277D01*
X10625185Y26916278D01*
X10618555Y26918639D01*
X10611569Y26919472D01*
X10611565Y26919473D01*
X10497071Y26933125D01*
X10455153Y26938123D01*
X10448150Y26937387D01*
X10448149Y26937387D01*
X10404935Y26932845D01*
X10291495Y26920922D01*
X10284827Y26918652D01*
X10142382Y26870160D01*
X10142379Y26870159D01*
X10135715Y26867890D01*
X10076743Y26831610D01*
X10012353Y26791997D01*
X9995555Y26781663D01*
X9942496Y26729704D01*
X9884475Y26672885D01*
X9877982Y26666527D01*
X9788838Y26528203D01*
X9786427Y26521580D01*
X9786426Y26521577D01*
X9734966Y26380191D01*
X9734965Y26380186D01*
X9732556Y26373568D01*
X9711931Y26210306D01*
X6437886Y26210306D01*
X6438141Y26228576D01*
X6419798Y26392110D01*
X6365680Y26547516D01*
X6344403Y26581567D01*
X6282209Y26681097D01*
X6278476Y26687071D01*
X6206971Y26759077D01*
X6167486Y26798839D01*
X6167482Y26798842D01*
X6162522Y26803837D01*
X6023580Y26892013D01*
X5955439Y26916277D01*
X5875189Y26944853D01*
X5875187Y26944854D01*
X5868555Y26947215D01*
X5861569Y26948048D01*
X5861565Y26948049D01*
X5747071Y26961701D01*
X5705153Y26966699D01*
X5698150Y26965963D01*
X5698149Y26965963D01*
X5654935Y26961421D01*
X5541495Y26949498D01*
X5534827Y26947228D01*
X5392382Y26898736D01*
X5392379Y26898735D01*
X5385715Y26896466D01*
X5245555Y26810239D01*
X5193310Y26759077D01*
X5136885Y26703821D01*
X5127982Y26695103D01*
X5094171Y26642639D01*
X5072125Y26608430D01*
X5018410Y26562006D01*
X4948123Y26551991D01*
X4883580Y26581567D01*
X4844010Y26645991D01*
X4840869Y26658495D01*
X4790431Y26859298D01*
X4701354Y27064160D01*
X4640805Y27157754D01*
X4582822Y27247383D01*
X4582820Y27247386D01*
X4580014Y27251723D01*
X4429670Y27416949D01*
X4425619Y27420148D01*
X4425615Y27420152D01*
X4258414Y27552200D01*
X4258410Y27552202D01*
X4254359Y27555402D01*
X4213053Y27578204D01*
X4163084Y27628636D01*
X4148312Y27698079D01*
X4173428Y27764484D01*
X4200780Y27791091D01*
X4268797Y27839607D01*
X4341023Y27891125D01*
X8350786Y27891125D01*
X8366844Y27727351D01*
X8418787Y27571204D01*
X8422436Y27565179D01*
X8477769Y27473815D01*
X8504034Y27430446D01*
X8508925Y27425381D01*
X8508926Y27425380D01*
X8542702Y27390404D01*
X8618346Y27312072D01*
X8756044Y27221965D01*
X8910283Y27164604D01*
X8917264Y27163673D01*
X8917266Y27163672D01*
X9066416Y27143771D01*
X9066420Y27143771D01*
X9073397Y27142840D01*
X9080408Y27143478D01*
X9080412Y27143478D01*
X9230258Y27157115D01*
X9230259Y27157115D01*
X9237279Y27157754D01*
X9289815Y27174824D01*
X9387085Y27206429D01*
X9387088Y27206430D01*
X9393784Y27208606D01*
X9535134Y27292868D01*
X9654304Y27406351D01*
X9658808Y27413130D01*
X9741469Y27537544D01*
X9741470Y27537546D01*
X9745370Y27543416D01*
X9803806Y27697251D01*
X9814838Y27775746D01*
X9826157Y27856285D01*
X9826158Y27856292D01*
X9826708Y27860209D01*
X9826996Y27880819D01*
X9808653Y28044353D01*
X9802853Y28061010D01*
X9768954Y28158354D01*
X9754535Y28199759D01*
X9720815Y28253723D01*
X9671064Y28333340D01*
X9667331Y28339314D01*
X9597266Y28409870D01*
X9556341Y28451082D01*
X9556337Y28451085D01*
X9551377Y28456080D01*
X9412435Y28544256D01*
X9363302Y28561751D01*
X9264044Y28597096D01*
X9264042Y28597097D01*
X9257410Y28599458D01*
X9250424Y28600291D01*
X9250420Y28600292D01*
X9135926Y28613944D01*
X9094008Y28618942D01*
X9087005Y28618206D01*
X9087004Y28618206D01*
X9043790Y28613664D01*
X8930350Y28601741D01*
X8923682Y28599471D01*
X8781237Y28550979D01*
X8781234Y28550978D01*
X8774570Y28548709D01*
X8634410Y28462482D01*
X8516837Y28347346D01*
X8427693Y28209022D01*
X8425282Y28202399D01*
X8425281Y28202396D01*
X8373821Y28061010D01*
X8373820Y28061005D01*
X8371411Y28054387D01*
X8350786Y27891125D01*
X4341023Y27891125D01*
X4379860Y27918827D01*
X4410098Y27948959D01*
X4498802Y28037354D01*
X4538096Y28076511D01*
X4597594Y28159311D01*
X4665435Y28253723D01*
X4668453Y28257923D01*
X4671237Y28263555D01*
X4765136Y28453547D01*
X4765137Y28453549D01*
X4767430Y28458189D01*
X4832370Y28671931D01*
X4861529Y28893410D01*
X4863156Y28960000D01*
X4844852Y29182639D01*
X4790431Y29399298D01*
X4701354Y29604160D01*
X4619173Y29731192D01*
X4582822Y29787383D01*
X4582820Y29787386D01*
X4580014Y29791723D01*
X4576532Y29795550D01*
X4432798Y29953512D01*
X4401746Y30017358D01*
X4410141Y30087857D01*
X4455317Y30142625D01*
X4481761Y30156294D01*
X4588297Y30196233D01*
X4596705Y30199385D01*
X4713261Y30286739D01*
X4741878Y30324922D01*
X4798735Y30367437D01*
X4869553Y30372463D01*
X4931847Y30338404D01*
X4965838Y30276073D01*
X4968102Y30261653D01*
X4973680Y30204771D01*
X4977989Y30160820D01*
X5029932Y30004673D01*
X5033581Y29998648D01*
X5107334Y29876869D01*
X5115179Y29863915D01*
X5229491Y29745541D01*
X5367189Y29655434D01*
X5521428Y29598073D01*
X5528409Y29597142D01*
X5528411Y29597141D01*
X5677561Y29577240D01*
X5677565Y29577240D01*
X5684542Y29576309D01*
X5691553Y29576947D01*
X5691557Y29576947D01*
X5841403Y29590584D01*
X5841404Y29590584D01*
X5848424Y29591223D01*
X5888240Y29604160D01*
X5998230Y29639898D01*
X5998233Y29639899D01*
X6004929Y29642075D01*
X6146279Y29726337D01*
X6265449Y29839820D01*
X6281458Y29863915D01*
X6352614Y29971013D01*
X6352615Y29971015D01*
X6356515Y29976885D01*
X6414951Y30130720D01*
X6424158Y30196233D01*
X6437302Y30289754D01*
X6437303Y30289761D01*
X6437853Y30293678D01*
X6438141Y30314288D01*
X6419798Y30477822D01*
X6365680Y30633228D01*
X6354636Y30650903D01*
X6282209Y30766809D01*
X6278476Y30772783D01*
X6162522Y30889549D01*
X6156572Y30893325D01*
X6151928Y30897059D01*
X6111372Y30955332D01*
X6108759Y31026281D01*
X6144919Y31087379D01*
X6145127Y31087554D01*
X6146279Y31088241D01*
X6265449Y31201724D01*
X6278092Y31220753D01*
X6352614Y31332917D01*
X6352615Y31332919D01*
X6355601Y31337413D01*
X14069824Y31337413D01*
X14085882Y31173639D01*
X14137825Y31017492D01*
X14146009Y31003979D01*
X14211434Y30895951D01*
X14223072Y30876734D01*
X14337384Y30758360D01*
X14475082Y30668253D01*
X14629321Y30610892D01*
X14636302Y30609961D01*
X14636304Y30609960D01*
X14785454Y30590059D01*
X14785458Y30590059D01*
X14792435Y30589128D01*
X14799446Y30589766D01*
X14799450Y30589766D01*
X14949296Y30603403D01*
X14949297Y30603403D01*
X14956317Y30604042D01*
X15025654Y30626571D01*
X15106123Y30652717D01*
X15106126Y30652718D01*
X15112822Y30654894D01*
X15254172Y30739156D01*
X15373342Y30852639D01*
X15379269Y30861560D01*
X15460507Y30983832D01*
X15460508Y30983834D01*
X15464408Y30989704D01*
X15522844Y31143539D01*
X15539287Y31260536D01*
X15545195Y31302573D01*
X15545196Y31302580D01*
X15545746Y31306497D01*
X15546034Y31327107D01*
X15533302Y31440613D01*
X22536386Y31440613D01*
X22552444Y31276839D01*
X22604387Y31120692D01*
X22612329Y31107579D01*
X22685135Y30987363D01*
X22689634Y30979934D01*
X22803946Y30861560D01*
X22941644Y30771453D01*
X23095883Y30714092D01*
X23102864Y30713161D01*
X23102866Y30713160D01*
X23252016Y30693259D01*
X23252020Y30693259D01*
X23258997Y30692328D01*
X23266008Y30692966D01*
X23266012Y30692966D01*
X23415858Y30706603D01*
X23415859Y30706603D01*
X23422879Y30707242D01*
X23469887Y30722516D01*
X23572685Y30755917D01*
X23572688Y30755918D01*
X23579384Y30758094D01*
X23720734Y30842356D01*
X23839904Y30955839D01*
X23852547Y30974868D01*
X23927069Y31087032D01*
X23927070Y31087034D01*
X23930970Y31092904D01*
X23989406Y31246739D01*
X24001254Y31331045D01*
X24011757Y31405773D01*
X24011758Y31405780D01*
X24012308Y31409697D01*
X24012596Y31430307D01*
X23994253Y31593841D01*
X23988453Y31610498D01*
X23942453Y31742590D01*
X23940135Y31749247D01*
X23914349Y31790514D01*
X23856664Y31882828D01*
X23852931Y31888802D01*
X23775171Y31967107D01*
X23764937Y31977413D01*
X30844824Y31977413D01*
X30860882Y31813639D01*
X30912825Y31657492D01*
X30998072Y31516734D01*
X31008184Y31506263D01*
X31041115Y31443370D01*
X31042553Y31402952D01*
X31040274Y31384913D01*
X31056332Y31221139D01*
X31108275Y31064992D01*
X31111924Y31058967D01*
X31162857Y30974868D01*
X31193522Y30924234D01*
X31307834Y30805860D01*
X31445532Y30715753D01*
X31599771Y30658392D01*
X31606752Y30657461D01*
X31606754Y30657460D01*
X31755904Y30637559D01*
X31755908Y30637559D01*
X31762885Y30636628D01*
X31769896Y30637266D01*
X31769900Y30637266D01*
X31919746Y30650903D01*
X31919747Y30650903D01*
X31926767Y30651542D01*
X31971498Y30666076D01*
X32076573Y30700217D01*
X32076576Y30700218D01*
X32083272Y30702394D01*
X32224622Y30786656D01*
X32343792Y30900139D01*
X32347693Y30906010D01*
X32430957Y31031332D01*
X32430958Y31031334D01*
X32434858Y31037204D01*
X32484145Y31166954D01*
X32492288Y31188390D01*
X32535176Y31244969D01*
X32571140Y31263480D01*
X32571621Y31263636D01*
X32612255Y31276839D01*
X32661123Y31292717D01*
X32661126Y31292718D01*
X32667822Y31294894D01*
X32809172Y31379156D01*
X32928342Y31492639D01*
X32932243Y31498510D01*
X33015507Y31623832D01*
X33015508Y31623834D01*
X33019408Y31629704D01*
X33077844Y31783539D01*
X33091798Y31882828D01*
X33100195Y31942573D01*
X33100196Y31942580D01*
X33100746Y31946497D01*
X33101034Y31967107D01*
X33082691Y32130641D01*
X33076891Y32147298D01*
X33040620Y32251453D01*
X33028573Y32286047D01*
X33014174Y32309091D01*
X32945102Y32419628D01*
X32941369Y32425602D01*
X32873715Y32493730D01*
X32830379Y32537370D01*
X32830375Y32537373D01*
X32825415Y32542368D01*
X32686473Y32630544D01*
X32637340Y32648039D01*
X32538082Y32683384D01*
X32538080Y32683385D01*
X32531448Y32685746D01*
X32524462Y32686579D01*
X32524458Y32686580D01*
X32406095Y32700693D01*
X32368046Y32705230D01*
X32361043Y32704494D01*
X32361042Y32704494D01*
X32324879Y32700693D01*
X32204388Y32688029D01*
X32197720Y32685759D01*
X32055275Y32637267D01*
X32055272Y32637266D01*
X32048608Y32634997D01*
X32042610Y32631307D01*
X32039925Y32629655D01*
X32037965Y32629121D01*
X32036235Y32628307D01*
X32036092Y32628611D01*
X31971425Y32610995D01*
X31918663Y32623724D01*
X31912426Y32626766D01*
X31906473Y32630544D01*
X31879225Y32640247D01*
X31758082Y32683384D01*
X31758080Y32683385D01*
X31751448Y32685746D01*
X31744462Y32686579D01*
X31744458Y32686580D01*
X31626095Y32700693D01*
X31588046Y32705230D01*
X31581043Y32704494D01*
X31581042Y32704494D01*
X31544879Y32700693D01*
X31424388Y32688029D01*
X31417720Y32685759D01*
X31275275Y32637267D01*
X31275272Y32637266D01*
X31268608Y32634997D01*
X31192874Y32588405D01*
X31162143Y32569499D01*
X31128448Y32548770D01*
X31116807Y32537370D01*
X31041010Y32463144D01*
X31010875Y32433634D01*
X30921731Y32295310D01*
X30919320Y32288687D01*
X30919319Y32288684D01*
X30867859Y32147298D01*
X30867858Y32147293D01*
X30865449Y32140675D01*
X30844824Y31977413D01*
X23764937Y31977413D01*
X23741941Y32000570D01*
X23741937Y32000573D01*
X23736977Y32005568D01*
X23598035Y32093744D01*
X23499831Y32128713D01*
X23449644Y32146584D01*
X23449642Y32146585D01*
X23443010Y32148946D01*
X23436024Y32149779D01*
X23436020Y32149780D01*
X23321526Y32163432D01*
X23279608Y32168430D01*
X23272605Y32167694D01*
X23272604Y32167694D01*
X23229390Y32163152D01*
X23115950Y32151229D01*
X23109282Y32148959D01*
X22966837Y32100467D01*
X22966834Y32100466D01*
X22960170Y32098197D01*
X22820010Y32011970D01*
X22770152Y31963145D01*
X22710142Y31904379D01*
X22702437Y31896834D01*
X22613293Y31758510D01*
X22610882Y31751887D01*
X22610881Y31751884D01*
X22559421Y31610498D01*
X22559420Y31610493D01*
X22557011Y31603875D01*
X22536386Y31440613D01*
X15533302Y31440613D01*
X15527691Y31490641D01*
X15524572Y31499599D01*
X15475891Y31639390D01*
X15473573Y31646047D01*
X15466422Y31657492D01*
X15390102Y31779628D01*
X15386369Y31785602D01*
X15322657Y31849760D01*
X15275379Y31897370D01*
X15275375Y31897373D01*
X15270415Y31902368D01*
X15131473Y31990544D01*
X15026341Y32027980D01*
X14983082Y32043384D01*
X14983080Y32043385D01*
X14976448Y32045746D01*
X14969462Y32046579D01*
X14969458Y32046580D01*
X14854964Y32060232D01*
X14813046Y32065230D01*
X14806043Y32064494D01*
X14806042Y32064494D01*
X14762828Y32059952D01*
X14649388Y32048029D01*
X14642720Y32045759D01*
X14500275Y31997267D01*
X14500272Y31997266D01*
X14493608Y31994997D01*
X14353448Y31908770D01*
X14235875Y31793634D01*
X14146731Y31655310D01*
X14144320Y31648687D01*
X14144319Y31648684D01*
X14092859Y31507298D01*
X14092858Y31507293D01*
X14090449Y31500675D01*
X14069824Y31337413D01*
X6355601Y31337413D01*
X6356515Y31338789D01*
X6414951Y31492624D01*
X6423797Y31555566D01*
X6437302Y31651658D01*
X6437303Y31651665D01*
X6437853Y31655582D01*
X6438141Y31676192D01*
X6419798Y31839726D01*
X6400968Y31893800D01*
X6375439Y31967107D01*
X6365680Y31995132D01*
X6358239Y32007041D01*
X6282209Y32128713D01*
X6278476Y32134687D01*
X6162522Y32251453D01*
X6156572Y32255229D01*
X6151928Y32258963D01*
X6111372Y32317236D01*
X6108759Y32388185D01*
X6144919Y32449283D01*
X6145127Y32449458D01*
X6146279Y32450145D01*
X6265449Y32563628D01*
X6281911Y32588405D01*
X6352614Y32694821D01*
X6352615Y32694823D01*
X6356515Y32700693D01*
X6414951Y32854528D01*
X6423797Y32917470D01*
X6437302Y33013562D01*
X6437303Y33013569D01*
X6437853Y33017486D01*
X6437995Y33027666D01*
X6438086Y33034134D01*
X6438086Y33034140D01*
X6438141Y33038096D01*
X6419798Y33201630D01*
X6412790Y33221756D01*
X6367998Y33350379D01*
X6365680Y33357036D01*
X6339656Y33398684D01*
X6282209Y33490617D01*
X6278476Y33496591D01*
X6162522Y33613357D01*
X6156572Y33617133D01*
X6151928Y33620867D01*
X6111372Y33679140D01*
X6108759Y33750089D01*
X6144919Y33811187D01*
X6145127Y33811362D01*
X6146279Y33812049D01*
X6265449Y33925532D01*
X6275127Y33940099D01*
X6329483Y33985769D01*
X6399902Y33994802D01*
X6464027Y33964330D01*
X6475939Y33951516D01*
X6477083Y33949627D01*
X6591395Y33831253D01*
X6729093Y33741146D01*
X6883332Y33683785D01*
X6890313Y33682854D01*
X6890315Y33682853D01*
X7039465Y33662952D01*
X7039469Y33662952D01*
X7046446Y33662021D01*
X7053457Y33662659D01*
X7053461Y33662659D01*
X7203307Y33676296D01*
X7203308Y33676296D01*
X7210328Y33676935D01*
X7238966Y33686240D01*
X7360134Y33725610D01*
X7360137Y33725611D01*
X7366833Y33727787D01*
X7508183Y33812049D01*
X7627353Y33925532D01*
X7637031Y33940099D01*
X7691387Y33985769D01*
X7761806Y33994802D01*
X7825931Y33964330D01*
X7837843Y33951516D01*
X7838987Y33949627D01*
X7953299Y33831253D01*
X8090997Y33741146D01*
X8245236Y33683785D01*
X8252217Y33682854D01*
X8252219Y33682853D01*
X8401369Y33662952D01*
X8401373Y33662952D01*
X8408350Y33662021D01*
X8415361Y33662659D01*
X8415365Y33662659D01*
X8565211Y33676296D01*
X8565212Y33676296D01*
X8572232Y33676935D01*
X8600870Y33686240D01*
X8722038Y33725610D01*
X8722041Y33725611D01*
X8728737Y33727787D01*
X8870087Y33812049D01*
X8989257Y33925532D01*
X8998935Y33940099D01*
X9053291Y33985769D01*
X9123710Y33994802D01*
X9187835Y33964330D01*
X9199747Y33951516D01*
X9200891Y33949627D01*
X9315203Y33831253D01*
X9452901Y33741146D01*
X9607140Y33683785D01*
X9614121Y33682854D01*
X9614123Y33682853D01*
X9763273Y33662952D01*
X9763277Y33662952D01*
X9770254Y33662021D01*
X9777265Y33662659D01*
X9777269Y33662659D01*
X9927115Y33676296D01*
X9927116Y33676296D01*
X9934136Y33676935D01*
X9962774Y33686240D01*
X10083942Y33725610D01*
X10083945Y33725611D01*
X10090641Y33727787D01*
X10231991Y33812049D01*
X10351161Y33925532D01*
X10360839Y33940099D01*
X10415195Y33985769D01*
X10485614Y33994802D01*
X10549739Y33964330D01*
X10561651Y33951516D01*
X10562795Y33949627D01*
X10677107Y33831253D01*
X10814805Y33741146D01*
X10969044Y33683785D01*
X10976025Y33682854D01*
X10976027Y33682853D01*
X11125177Y33662952D01*
X11125181Y33662952D01*
X11132158Y33662021D01*
X11139169Y33662659D01*
X11139173Y33662659D01*
X11289019Y33676296D01*
X11289020Y33676296D01*
X11296040Y33676935D01*
X11324678Y33686240D01*
X11445846Y33725610D01*
X11445849Y33725611D01*
X11452545Y33727787D01*
X11593895Y33812049D01*
X11713065Y33925532D01*
X11722743Y33940099D01*
X11777099Y33985769D01*
X11847518Y33994802D01*
X11911643Y33964330D01*
X11923555Y33951516D01*
X11924699Y33949627D01*
X12039011Y33831253D01*
X12176709Y33741146D01*
X12330948Y33683785D01*
X12337929Y33682854D01*
X12337931Y33682853D01*
X12487081Y33662952D01*
X12487085Y33662952D01*
X12494062Y33662021D01*
X12501073Y33662659D01*
X12501077Y33662659D01*
X12650923Y33676296D01*
X12650924Y33676296D01*
X12657944Y33676935D01*
X12686582Y33686240D01*
X12807750Y33725610D01*
X12807753Y33725611D01*
X12814449Y33727787D01*
X12955799Y33812049D01*
X13074969Y33925532D01*
X13084647Y33940099D01*
X13139003Y33985769D01*
X13209422Y33994802D01*
X13273547Y33964330D01*
X13285459Y33951516D01*
X13286603Y33949627D01*
X13400915Y33831253D01*
X13538613Y33741146D01*
X13692852Y33683785D01*
X13699833Y33682854D01*
X13699835Y33682853D01*
X13848985Y33662952D01*
X13848989Y33662952D01*
X13855966Y33662021D01*
X13862977Y33662659D01*
X13862981Y33662659D01*
X14012827Y33676296D01*
X14012828Y33676296D01*
X14019848Y33676935D01*
X14048486Y33686240D01*
X14169654Y33725610D01*
X14169657Y33725611D01*
X14176353Y33727787D01*
X14317703Y33812049D01*
X14436873Y33925532D01*
X14446551Y33940099D01*
X14500907Y33985769D01*
X14571326Y33994802D01*
X14635451Y33964330D01*
X14647363Y33951516D01*
X14648507Y33949627D01*
X14762819Y33831253D01*
X14900517Y33741146D01*
X15054756Y33683785D01*
X15061737Y33682854D01*
X15061739Y33682853D01*
X15210889Y33662952D01*
X15210893Y33662952D01*
X15217870Y33662021D01*
X15224881Y33662659D01*
X15224885Y33662659D01*
X15374731Y33676296D01*
X15374732Y33676296D01*
X15381752Y33676935D01*
X15410390Y33686240D01*
X15531558Y33725610D01*
X15531561Y33725611D01*
X15538257Y33727787D01*
X15679607Y33812049D01*
X15798777Y33925532D01*
X15808455Y33940099D01*
X15862811Y33985769D01*
X15933230Y33994802D01*
X15997355Y33964330D01*
X16009267Y33951516D01*
X16010411Y33949627D01*
X16124723Y33831253D01*
X16262421Y33741146D01*
X16416660Y33683785D01*
X16423641Y33682854D01*
X16423643Y33682853D01*
X16572793Y33662952D01*
X16572797Y33662952D01*
X16579774Y33662021D01*
X16586785Y33662659D01*
X16586789Y33662659D01*
X16736635Y33676296D01*
X16736636Y33676296D01*
X16743656Y33676935D01*
X16772294Y33686240D01*
X16893462Y33725610D01*
X16893465Y33725611D01*
X16900161Y33727787D01*
X17041511Y33812049D01*
X17160681Y33925532D01*
X17170359Y33940099D01*
X17224715Y33985769D01*
X17295134Y33994802D01*
X17359259Y33964330D01*
X17371171Y33951516D01*
X17372315Y33949627D01*
X17486627Y33831253D01*
X17624325Y33741146D01*
X17778564Y33683785D01*
X17785545Y33682854D01*
X17785547Y33682853D01*
X17934697Y33662952D01*
X17934701Y33662952D01*
X17941678Y33662021D01*
X17948689Y33662659D01*
X17948693Y33662659D01*
X18098539Y33676296D01*
X18098540Y33676296D01*
X18105560Y33676935D01*
X18134198Y33686240D01*
X18255366Y33725610D01*
X18255369Y33725611D01*
X18262065Y33727787D01*
X18403415Y33812049D01*
X18522585Y33925532D01*
X18532263Y33940099D01*
X18586619Y33985769D01*
X18657038Y33994802D01*
X18721163Y33964330D01*
X18733075Y33951516D01*
X18734219Y33949627D01*
X18848531Y33831253D01*
X18986229Y33741146D01*
X19140468Y33683785D01*
X19147449Y33682854D01*
X19147451Y33682853D01*
X19296601Y33662952D01*
X19296605Y33662952D01*
X19303582Y33662021D01*
X19310593Y33662659D01*
X19310597Y33662659D01*
X19460443Y33676296D01*
X19460444Y33676296D01*
X19467464Y33676935D01*
X19496102Y33686240D01*
X19617270Y33725610D01*
X19617273Y33725611D01*
X19623969Y33727787D01*
X19765319Y33812049D01*
X19884489Y33925532D01*
X19894167Y33940099D01*
X19948523Y33985769D01*
X20018942Y33994802D01*
X20083067Y33964330D01*
X20094979Y33951516D01*
X20096123Y33949627D01*
X20210435Y33831253D01*
X20348133Y33741146D01*
X20502372Y33683785D01*
X20509353Y33682854D01*
X20509355Y33682853D01*
X20658505Y33662952D01*
X20658509Y33662952D01*
X20665486Y33662021D01*
X20672497Y33662659D01*
X20672501Y33662659D01*
X20822347Y33676296D01*
X20822348Y33676296D01*
X20829368Y33676935D01*
X20858006Y33686240D01*
X20979174Y33725610D01*
X20979177Y33725611D01*
X20985873Y33727787D01*
X21127223Y33812049D01*
X21246393Y33925532D01*
X21256071Y33940099D01*
X21310427Y33985769D01*
X21380846Y33994802D01*
X21444971Y33964330D01*
X21456883Y33951516D01*
X21458027Y33949627D01*
X21572339Y33831253D01*
X21710037Y33741146D01*
X21864276Y33683785D01*
X21871257Y33682854D01*
X21871259Y33682853D01*
X22020409Y33662952D01*
X22020413Y33662952D01*
X22027390Y33662021D01*
X22034401Y33662659D01*
X22034405Y33662659D01*
X22184251Y33676296D01*
X22184252Y33676296D01*
X22191272Y33676935D01*
X22219910Y33686240D01*
X22341078Y33725610D01*
X22341081Y33725611D01*
X22347777Y33727787D01*
X22489127Y33812049D01*
X22608297Y33925532D01*
X22617975Y33940099D01*
X22672331Y33985769D01*
X22742750Y33994802D01*
X22806875Y33964330D01*
X22818787Y33951516D01*
X22819931Y33949627D01*
X22934243Y33831253D01*
X23071941Y33741146D01*
X23226180Y33683785D01*
X23233161Y33682854D01*
X23233163Y33682853D01*
X23382313Y33662952D01*
X23382317Y33662952D01*
X23389294Y33662021D01*
X23396305Y33662659D01*
X23396309Y33662659D01*
X23546155Y33676296D01*
X23546156Y33676296D01*
X23553176Y33676935D01*
X23581814Y33686240D01*
X23702982Y33725610D01*
X23702985Y33725611D01*
X23709681Y33727787D01*
X23851031Y33812049D01*
X23970201Y33925532D01*
X23979879Y33940099D01*
X24034235Y33985769D01*
X24104654Y33994802D01*
X24168779Y33964330D01*
X24180691Y33951516D01*
X24181835Y33949627D01*
X24296147Y33831253D01*
X24433845Y33741146D01*
X24588084Y33683785D01*
X24595065Y33682854D01*
X24595067Y33682853D01*
X24744217Y33662952D01*
X24744221Y33662952D01*
X24751198Y33662021D01*
X24758209Y33662659D01*
X24758213Y33662659D01*
X24908059Y33676296D01*
X24908060Y33676296D01*
X24915080Y33676935D01*
X24943718Y33686240D01*
X25064886Y33725610D01*
X25064889Y33725611D01*
X25071585Y33727787D01*
X25212935Y33812049D01*
X25332105Y33925532D01*
X25341783Y33940099D01*
X25396139Y33985769D01*
X25466558Y33994802D01*
X25530683Y33964330D01*
X25542595Y33951516D01*
X25543739Y33949627D01*
X25658051Y33831253D01*
X25795749Y33741146D01*
X25949988Y33683785D01*
X25956969Y33682854D01*
X25956971Y33682853D01*
X26106121Y33662952D01*
X26106125Y33662952D01*
X26113102Y33662021D01*
X26120113Y33662659D01*
X26120117Y33662659D01*
X26269963Y33676296D01*
X26269964Y33676296D01*
X26276984Y33676935D01*
X26305622Y33686240D01*
X26426790Y33725610D01*
X26426793Y33725611D01*
X26433489Y33727787D01*
X26574839Y33812049D01*
X26694009Y33925532D01*
X26703687Y33940099D01*
X26758043Y33985769D01*
X26828462Y33994802D01*
X26892587Y33964330D01*
X26904499Y33951516D01*
X26905643Y33949627D01*
X27019955Y33831253D01*
X27157653Y33741146D01*
X27311892Y33683785D01*
X27318873Y33682854D01*
X27318875Y33682853D01*
X27468025Y33662952D01*
X27468029Y33662952D01*
X27475006Y33662021D01*
X27482017Y33662659D01*
X27482021Y33662659D01*
X27631867Y33676296D01*
X27631868Y33676296D01*
X27638888Y33676935D01*
X27667526Y33686240D01*
X27788694Y33725610D01*
X27788697Y33725611D01*
X27795393Y33727787D01*
X27936743Y33812049D01*
X28055913Y33925532D01*
X28065591Y33940099D01*
X28119947Y33985769D01*
X28190366Y33994802D01*
X28254491Y33964330D01*
X28266403Y33951516D01*
X28267547Y33949627D01*
X28381859Y33831253D01*
X28519557Y33741146D01*
X28673796Y33683785D01*
X28680777Y33682854D01*
X28680779Y33682853D01*
X28829929Y33662952D01*
X28829933Y33662952D01*
X28836910Y33662021D01*
X28843921Y33662659D01*
X28843925Y33662659D01*
X28993771Y33676296D01*
X28993772Y33676296D01*
X29000792Y33676935D01*
X29029430Y33686240D01*
X29150598Y33725610D01*
X29150601Y33725611D01*
X29157297Y33727787D01*
X29298647Y33812049D01*
X29417817Y33925532D01*
X29427495Y33940099D01*
X29481851Y33985769D01*
X29552270Y33994802D01*
X29616395Y33964330D01*
X29628307Y33951516D01*
X29629451Y33949627D01*
X29743763Y33831253D01*
X29881461Y33741146D01*
X30035700Y33683785D01*
X30042681Y33682854D01*
X30042683Y33682853D01*
X30191833Y33662952D01*
X30191837Y33662952D01*
X30198814Y33662021D01*
X30205825Y33662659D01*
X30205829Y33662659D01*
X30355675Y33676296D01*
X30355676Y33676296D01*
X30362696Y33676935D01*
X30391334Y33686240D01*
X30512502Y33725610D01*
X30512505Y33725611D01*
X30519201Y33727787D01*
X30660551Y33812049D01*
X30779721Y33925532D01*
X30789399Y33940099D01*
X30843755Y33985769D01*
X30914174Y33994802D01*
X30978299Y33964330D01*
X30990211Y33951516D01*
X30991355Y33949627D01*
X31105667Y33831253D01*
X31243365Y33741146D01*
X31397604Y33683785D01*
X31404585Y33682854D01*
X31404587Y33682853D01*
X31553737Y33662952D01*
X31553741Y33662952D01*
X31560718Y33662021D01*
X31567729Y33662659D01*
X31567733Y33662659D01*
X31717579Y33676296D01*
X31717580Y33676296D01*
X31724600Y33676935D01*
X31753238Y33686240D01*
X31874406Y33725610D01*
X31874409Y33725611D01*
X31881105Y33727787D01*
X32022455Y33812049D01*
X32141625Y33925532D01*
X32151303Y33940099D01*
X32205659Y33985769D01*
X32276078Y33994802D01*
X32340203Y33964330D01*
X32352115Y33951516D01*
X32353259Y33949627D01*
X32467571Y33831253D01*
X32605269Y33741146D01*
X32759508Y33683785D01*
X32766489Y33682854D01*
X32766491Y33682853D01*
X32915641Y33662952D01*
X32915645Y33662952D01*
X32922622Y33662021D01*
X32929633Y33662659D01*
X32929637Y33662659D01*
X33079483Y33676296D01*
X33079484Y33676296D01*
X33086504Y33676935D01*
X33115142Y33686240D01*
X33236310Y33725610D01*
X33236313Y33725611D01*
X33243009Y33727787D01*
X33384359Y33812049D01*
X33503529Y33925532D01*
X33513216Y33940112D01*
X33567575Y33985782D01*
X33637995Y33994813D01*
X33702118Y33964338D01*
G37*
%TD.AperFunction*%
%TD*%
M02*
