M48
; DRILL file {KiCad (6.0.6)} date Fri Jul  8 12:20:09 2022
; FORMAT={2:4/ absolute / inch / keep zeros}
; #@! TF.CreationDate,2022-07-08T12:20:09+02:00
; #@! TF.GenerationSoftware,Kicad,Pcbnew,(6.0.6)
; #@! TF.FileFunction,MixedPlating,1,4
FMAT,2
INCH
; #@! TA.AperFunction,Plated,PTH,ViaDrill
T1C0.0079
; #@! TA.AperFunction,Plated,PTH,ComponentDrill
T2C0.0394
; #@! TA.AperFunction,Plated,PTH,ComponentDrill
T3C0.1378
%
G90
G05
T1
X034921Y-022677
X034921Y-023213
X034921Y-023750
X034921Y-024286
X034921Y-025894
X034921Y-026430
X034921Y-026967
X034921Y-027503
X034921Y-028039
X034921Y-028575
X034921Y-029648
X034921Y-030184
X034921Y-030720
X034921Y-031256
X034921Y-031792
X034921Y-032328
X034921Y-032865
X034921Y-033401
X034921Y-033976
X035457Y-022677
X035457Y-033976
X035551Y-027913
X035725Y-033081
X035807Y-030177
X035820Y-026887
X035820Y-027430
X035827Y-029331
X035945Y-028406
X035994Y-022677
X035994Y-033976
X036051Y-033085
X036161Y-028898
X036255Y-025244
X036260Y-027441
X036530Y-022677
X036530Y-033976
X036535Y-029213
X036791Y-025906
X036909Y-032953
X036934Y-026694
X037047Y-025906
X037066Y-022677
X037066Y-033976
X037261Y-025906
X037303Y-029882
X037323Y-032835
X037504Y-032152
X037602Y-022677
X037655Y-023614
X037655Y-023844
X037788Y-031754
X037883Y-023610
X037883Y-023840
X037913Y-027480
X037933Y-033346
X038138Y-022677
X038138Y-033976
X038507Y-023887
X038610Y-033073
X038675Y-022677
X038675Y-033976
X038780Y-029483
X038780Y-029843
X038780Y-030236
X039060Y-026907
X039072Y-025568
X039072Y-025840
X039072Y-026111
X039154Y-033110
X039211Y-022677
X039594Y-025304
X039685Y-028780
X039725Y-031514
X039747Y-022677
X039747Y-033976
X039764Y-032126
X040039Y-028780
X040058Y-029370
X040157Y-025906
X040274Y-026708
X040283Y-022677
X040295Y-033092
X040413Y-025906
X040627Y-025906
X040669Y-033091
X040729Y-029647
X040819Y-022677
X040989Y-032466
X041004Y-033091
X041012Y-023625
X041012Y-023855
X041156Y-031740
X041170Y-030001
X041220Y-027205
X041240Y-023621
X041240Y-023851
X041355Y-022677
X041355Y-033976
X041614Y-028110
X041840Y-023846
X041892Y-022677
X042087Y-033366
X042362Y-033366
X042387Y-026634
X042387Y-026906
X042395Y-025564
X042395Y-025836
X042395Y-026107
X042428Y-022677
X042428Y-033976
X042638Y-028110
X042638Y-028504
X042638Y-028819
X042697Y-027323
X042776Y-030055
X042925Y-032130
X042945Y-025260
X042964Y-022677
X042964Y-033976
X043071Y-031215
X043169Y-032874
X043175Y-029709
X043484Y-025906
X043500Y-022677
X043500Y-033976
X043634Y-026701
X043681Y-028740
X043740Y-025906
X043760Y-029071
X043776Y-033095
X043799Y-029429
X043954Y-025906
X044024Y-032390
X044036Y-022677
X044368Y-023622
X044368Y-023852
X044382Y-031732
X044382Y-033114
X044390Y-028748
X044573Y-022677
X044573Y-033976
X044597Y-023618
X044597Y-023848
X044681Y-028051
X044685Y-027500
X045109Y-022677
X045109Y-033976
X045111Y-023635
X045188Y-023868
X045276Y-027500
X045276Y-033071
X045418Y-023635
X045630Y-028130
X045645Y-022677
X046181Y-022677
X046181Y-023253
X046181Y-023789
X046181Y-024325
X046181Y-024861
X046181Y-025397
X046181Y-025934
X046181Y-026470
X046181Y-027542
X046181Y-028615
X046181Y-029151
X046181Y-029687
X046181Y-030759
X046181Y-031295
X046181Y-031832
X046181Y-032368
X046181Y-032904
X046181Y-033440
X046181Y-033976
T2
X034055Y-023819
X034055Y-024819
X034055Y-025819
X036051Y-034843
X036102Y-021850
X037051Y-034843
X037102Y-021850
X038051Y-034843
X038102Y-021850
X039051Y-034843
X039102Y-021850
X040051Y-034843
X040102Y-021850
X041051Y-034843
X041102Y-021850
X042051Y-034843
X042102Y-021850
X043051Y-034843
X043102Y-021850
X044051Y-034843
X044102Y-021850
X045051Y-034843
X045102Y-021850
X047047Y-026850
X047047Y-027850
X047047Y-028850
T3
X034055Y-021850
X034055Y-034843
X047047Y-021850
X047047Y-034843
T0
M30
