%TF.GenerationSoftware,KiCad,Pcbnew,(6.0.6)*%
%TF.CreationDate,2022-07-08T12:19:54+02:00*%
%TF.ProjectId,low_freq_board,6c6f775f-6672-4657-915f-626f6172642e,rev?*%
%TF.SameCoordinates,Original*%
%TF.FileFunction,Soldermask,Bot*%
%TF.FilePolarity,Negative*%
%FSLAX46Y46*%
G04 Gerber Fmt 4.6, Leading zero omitted, Abs format (unit mm)*
G04 Created by KiCad (PCBNEW (6.0.6)) date 2022-07-08 12:19:54*
%MOMM*%
%LPD*%
G01*
G04 APERTURE LIST*
G04 Aperture macros list*
%AMRoundRect*
0 Rectangle with rounded corners*
0 $1 Rounding radius*
0 $2 $3 $4 $5 $6 $7 $8 $9 X,Y pos of 4 corners*
0 Add a 4 corners polygon primitive as box body*
4,1,4,$2,$3,$4,$5,$6,$7,$8,$9,$2,$3,0*
0 Add four circle primitives for the rounded corners*
1,1,$1+$1,$2,$3*
1,1,$1+$1,$4,$5*
1,1,$1+$1,$6,$7*
1,1,$1+$1,$8,$9*
0 Add four rect primitives between the rounded corners*
20,1,$1+$1,$2,$3,$4,$5,0*
20,1,$1+$1,$4,$5,$6,$7,0*
20,1,$1+$1,$6,$7,$8,$9,0*
20,1,$1+$1,$8,$9,$2,$3,0*%
G04 Aperture macros list end*
%ADD10C,6.000000*%
%ADD11R,2.400000X2.400000*%
%ADD12R,1.000000X0.350000*%
%ADD13R,0.350000X1.000000*%
%ADD14R,1.700000X1.700000*%
%ADD15O,1.700000X1.700000*%
%ADD16RoundRect,0.237500X0.237500X-0.300000X0.237500X0.300000X-0.237500X0.300000X-0.237500X-0.300000X0*%
%ADD17RoundRect,0.237500X0.237500X-0.250000X0.237500X0.250000X-0.237500X0.250000X-0.237500X-0.250000X0*%
%ADD18RoundRect,0.237500X-0.237500X0.250000X-0.237500X-0.250000X0.237500X-0.250000X0.237500X0.250000X0*%
%ADD19RoundRect,0.237500X-0.237500X0.300000X-0.237500X-0.300000X0.237500X-0.300000X0.237500X0.300000X0*%
%ADD20RoundRect,0.237500X-0.300000X-0.237500X0.300000X-0.237500X0.300000X0.237500X-0.300000X0.237500X0*%
%ADD21RoundRect,0.237500X-0.250000X-0.237500X0.250000X-0.237500X0.250000X0.237500X-0.250000X0.237500X0*%
%ADD22RoundRect,0.155000X0.155000X-0.212500X0.155000X0.212500X-0.155000X0.212500X-0.155000X-0.212500X0*%
%ADD23RoundRect,0.237500X0.300000X0.237500X-0.300000X0.237500X-0.300000X-0.237500X0.300000X-0.237500X0*%
%ADD24R,1.803400X3.505200*%
%ADD25RoundRect,0.160000X0.197500X0.160000X-0.197500X0.160000X-0.197500X-0.160000X0.197500X-0.160000X0*%
%ADD26R,0.254000X1.066800*%
%ADD27R,1.371600X0.635000*%
%ADD28RoundRect,0.237500X0.250000X0.237500X-0.250000X0.237500X-0.250000X-0.237500X0.250000X-0.237500X0*%
%ADD29RoundRect,0.155000X-0.212500X-0.155000X0.212500X-0.155000X0.212500X0.155000X-0.212500X0.155000X0*%
%ADD30RoundRect,0.155000X-0.155000X0.212500X-0.155000X-0.212500X0.155000X-0.212500X0.155000X0.212500X0*%
G04 APERTURE END LIST*
D10*
%TO.C,H4*%
X119500003Y-88499999D03*
%TD*%
%TO.C,H3*%
X86500001Y-88499999D03*
%TD*%
%TO.C,H2*%
X119500003Y-55499997D03*
%TD*%
%TO.C,H1*%
X86500001Y-55499997D03*
%TD*%
D11*
%TO.C,U4*%
X111565393Y-77385393D03*
D12*
X113465393Y-78360393D03*
X113465393Y-77710393D03*
X113465393Y-77060393D03*
X113465393Y-76410393D03*
D13*
X112540393Y-75485393D03*
X111890393Y-75485393D03*
X111240393Y-75485393D03*
X110590393Y-75485393D03*
D12*
X109665393Y-76410393D03*
X109665393Y-77060393D03*
X109665393Y-77710393D03*
X109665393Y-78360393D03*
D13*
X110590393Y-79285393D03*
X111240393Y-79285393D03*
X111890393Y-79285393D03*
X112540393Y-79285393D03*
%TD*%
%TO.C,U5*%
X103917893Y-80002893D03*
X103267893Y-80002893D03*
X102617893Y-80002893D03*
X101967893Y-80002893D03*
D12*
X101042893Y-79077893D03*
X101042893Y-78427893D03*
X101042893Y-77777893D03*
X101042893Y-77127893D03*
D13*
X101967893Y-76202893D03*
X102617893Y-76202893D03*
X103267893Y-76202893D03*
X103917893Y-76202893D03*
D12*
X104842893Y-77127893D03*
X104842893Y-77777893D03*
X104842893Y-78427893D03*
X104842893Y-79077893D03*
D11*
X102942893Y-78102893D03*
%TD*%
D12*
%TO.C,U6*%
X92520393Y-79730393D03*
X92520393Y-79080393D03*
X92520393Y-78430393D03*
X92520393Y-77780393D03*
D13*
X93445393Y-76855393D03*
X94095393Y-76855393D03*
X94745393Y-76855393D03*
X95395393Y-76855393D03*
D12*
X96320393Y-77780393D03*
X96320393Y-78430393D03*
X96320393Y-79080393D03*
X96320393Y-79730393D03*
D13*
X95395393Y-80655393D03*
X94745393Y-80655393D03*
X94095393Y-80655393D03*
X93445393Y-80655393D03*
D11*
X94420393Y-78755393D03*
%TD*%
D14*
%TO.C,J2*%
X119500000Y-68200000D03*
D15*
X119500000Y-70740000D03*
X119500000Y-73280000D03*
%TD*%
D14*
%TO.C,J1*%
X91700000Y-55500000D03*
D15*
X94240000Y-55500000D03*
X96780000Y-55500000D03*
X99320000Y-55500000D03*
X101860000Y-55500000D03*
X104400000Y-55500000D03*
X106940000Y-55500000D03*
X109480000Y-55500000D03*
X112020000Y-55500000D03*
X114560000Y-55500000D03*
%TD*%
D14*
%TO.C,J3*%
X91569997Y-88500001D03*
D15*
X94109997Y-88500001D03*
X96649997Y-88500001D03*
X99189997Y-88500001D03*
X101729997Y-88500001D03*
X104269997Y-88500001D03*
X106809997Y-88500001D03*
X109349997Y-88500001D03*
X111889997Y-88500001D03*
X114429997Y-88500001D03*
%TD*%
D14*
%TO.C,J4*%
X86500000Y-60500000D03*
D15*
X86500000Y-63040000D03*
X86500000Y-65580000D03*
%TD*%
D16*
%TO.C,C4*%
X100569904Y-66879593D03*
X100569904Y-65154593D03*
%TD*%
D17*
%TO.C,R15*%
X90982893Y-79617893D03*
X90982893Y-77792893D03*
%TD*%
D18*
%TO.C,R7*%
X115005393Y-79977893D03*
X115005393Y-78152893D03*
%TD*%
D19*
%TO.C,C15*%
X112730393Y-83232893D03*
X112730393Y-81507893D03*
%TD*%
D16*
%TO.C,C29*%
X111960393Y-73882893D03*
X111960393Y-72157893D03*
%TD*%
D19*
%TO.C,C32*%
X103322893Y-81600393D03*
X103322893Y-83325393D03*
%TD*%
D18*
%TO.C,R16*%
X90970393Y-81162893D03*
X90970393Y-82987893D03*
%TD*%
D17*
%TO.C,R3*%
X113272893Y-68352893D03*
X113272893Y-66527893D03*
%TD*%
D20*
%TO.C,C5*%
X113080393Y-63200393D03*
X114805393Y-63200393D03*
%TD*%
D18*
%TO.C,R19*%
X97870393Y-81152893D03*
X97870393Y-82977893D03*
%TD*%
D20*
%TO.C,C6*%
X113330393Y-65000393D03*
X115055393Y-65000393D03*
%TD*%
D21*
%TO.C,R21*%
X92872893Y-73393788D03*
X91047893Y-73393788D03*
%TD*%
D17*
%TO.C,R14*%
X106392893Y-82240393D03*
X106392893Y-84065393D03*
%TD*%
D22*
%TO.C,C14*%
X110180393Y-73022893D03*
X110180393Y-74157893D03*
%TD*%
D19*
%TO.C,C13*%
X111190393Y-83232893D03*
X111190393Y-81507893D03*
%TD*%
D17*
%TO.C,R9*%
X108125393Y-78832893D03*
X108125393Y-80657893D03*
%TD*%
D23*
%TO.C,C7*%
X111692893Y-68480393D03*
X109967893Y-68480393D03*
%TD*%
%TO.C,C11*%
X94685393Y-68432893D03*
X92960393Y-68432893D03*
%TD*%
D17*
%TO.C,R17*%
X92500393Y-84037893D03*
X92500393Y-82212893D03*
%TD*%
D23*
%TO.C,C30*%
X104315393Y-74652893D03*
X102590393Y-74652893D03*
%TD*%
D18*
%TO.C,R24*%
X99472893Y-78220393D03*
X99472893Y-80045393D03*
%TD*%
D20*
%TO.C,C2*%
X104817404Y-65017093D03*
X106542404Y-65017093D03*
%TD*%
D19*
%TO.C,C28*%
X109650393Y-82602893D03*
X109650393Y-80877893D03*
%TD*%
D20*
%TO.C,C10*%
X96335393Y-65042893D03*
X98060393Y-65042893D03*
%TD*%
D23*
%TO.C,C23*%
X92822893Y-70893788D03*
X91097893Y-70893788D03*
%TD*%
D17*
%TO.C,R1*%
X104759904Y-68369593D03*
X104759904Y-66544593D03*
%TD*%
D24*
%TO.C,L3*%
X94069082Y-61502898D03*
X91376682Y-61502898D03*
%TD*%
D18*
%TO.C,R6*%
X97797893Y-66570393D03*
X97797893Y-68395393D03*
%TD*%
D22*
%TO.C,C19*%
X100752893Y-74870393D03*
X100752893Y-73735393D03*
%TD*%
D23*
%TO.C,C3*%
X103169205Y-68477093D03*
X101444205Y-68477093D03*
%TD*%
D17*
%TO.C,R20*%
X96350393Y-84027893D03*
X96350393Y-82202893D03*
%TD*%
D20*
%TO.C,C1*%
X104567404Y-63169693D03*
X106292404Y-63169693D03*
%TD*%
D24*
%TO.C,L2*%
X111061580Y-61530381D03*
X108369180Y-61530381D03*
%TD*%
D20*
%TO.C,C24*%
X104567404Y-61647093D03*
X106292404Y-61647093D03*
%TD*%
D17*
%TO.C,R10*%
X108125393Y-75472893D03*
X108125393Y-77297893D03*
%TD*%
D19*
%TO.C,C31*%
X99472893Y-83355393D03*
X99472893Y-81630393D03*
%TD*%
D17*
%TO.C,R18*%
X97862893Y-79617893D03*
X97862893Y-77792893D03*
%TD*%
D18*
%TO.C,R26*%
X106382893Y-75500393D03*
X106382893Y-77325393D03*
%TD*%
D19*
%TO.C,C20*%
X104852893Y-81600393D03*
X104852893Y-83325393D03*
%TD*%
D16*
%TO.C,C16*%
X113490393Y-72157893D03*
X113490393Y-73882893D03*
%TD*%
D23*
%TO.C,C26*%
X92765393Y-75312893D03*
X91040393Y-75312893D03*
%TD*%
D16*
%TO.C,C8*%
X109082893Y-66862893D03*
X109082893Y-65137893D03*
%TD*%
D17*
%TO.C,R8*%
X115010393Y-81517893D03*
X115010393Y-83342893D03*
%TD*%
D25*
%TO.C,R23*%
X93107893Y-72143788D03*
X91912893Y-72143788D03*
%TD*%
D19*
%TO.C,C18*%
X101772893Y-81600393D03*
X101772893Y-83325393D03*
%TD*%
D18*
%TO.C,R12*%
X115010393Y-73262893D03*
X115010393Y-71437893D03*
%TD*%
D17*
%TO.C,R5*%
X96277893Y-68395393D03*
X96277893Y-66570393D03*
%TD*%
D20*
%TO.C,C9*%
X96092893Y-63182893D03*
X97817893Y-63182893D03*
%TD*%
D19*
%TO.C,C17*%
X108130393Y-83972893D03*
X108130393Y-82247893D03*
%TD*%
D20*
%TO.C,C25*%
X113080393Y-61680393D03*
X114805393Y-61680393D03*
%TD*%
D26*
%TO.C,U1*%
X101989898Y-64752912D03*
X102439897Y-64752912D03*
X102889899Y-64752912D03*
X103339898Y-64752912D03*
X103339898Y-66886512D03*
X102889899Y-66886512D03*
X102439897Y-66886512D03*
X101989898Y-66886512D03*
D27*
X102664898Y-65819712D03*
%TD*%
D23*
%TO.C,C33*%
X104312500Y-73100000D03*
X102587500Y-73100000D03*
%TD*%
D18*
%TO.C,R2*%
X106279904Y-66544593D03*
X106279904Y-68369593D03*
%TD*%
D28*
%TO.C,R27*%
X108275393Y-73932893D03*
X106450393Y-73932893D03*
%TD*%
D18*
%TO.C,R4*%
X114792893Y-66527893D03*
X114792893Y-68352893D03*
%TD*%
D29*
%TO.C,C22*%
X95287893Y-75050000D03*
X94152893Y-75050000D03*
%TD*%
D20*
%TO.C,C27*%
X96092893Y-61672893D03*
X97817893Y-61672893D03*
%TD*%
D16*
%TO.C,C12*%
X92087893Y-66835393D03*
X92087893Y-65110393D03*
%TD*%
D26*
%TO.C,U2*%
X110503354Y-64733608D03*
X110953353Y-64733608D03*
X111403355Y-64733608D03*
X111853354Y-64733608D03*
X111853354Y-66867208D03*
X111403355Y-66867208D03*
X110953353Y-66867208D03*
X110503354Y-66867208D03*
D27*
X111178354Y-65800408D03*
%TD*%
D25*
%TO.C,R22*%
X95397500Y-72150000D03*
X94202500Y-72150000D03*
%TD*%
D30*
%TO.C,C21*%
X93760393Y-81987893D03*
X93760393Y-83122893D03*
%TD*%
D24*
%TO.C,L1*%
X102545672Y-61537188D03*
X99853272Y-61537188D03*
%TD*%
D18*
%TO.C,R25*%
X99472893Y-74850393D03*
X99472893Y-76675393D03*
%TD*%
D26*
%TO.C,U3*%
X93508330Y-64716107D03*
X93958329Y-64716107D03*
X94408331Y-64716107D03*
X94858330Y-64716107D03*
X94858330Y-66849707D03*
X94408331Y-66849707D03*
X93958329Y-66849707D03*
X93508330Y-66849707D03*
D27*
X94183330Y-65782907D03*
%TD*%
D17*
%TO.C,R11*%
X115005393Y-74792893D03*
X115005393Y-76617893D03*
%TD*%
D18*
%TO.C,R13*%
X106382893Y-78870393D03*
X106382893Y-80695393D03*
%TD*%
G36*
X117842121Y-57020002D02*
G01*
X117888614Y-57073658D01*
X117900000Y-57126000D01*
X117900000Y-86774000D01*
X117879998Y-86842121D01*
X117826342Y-86888614D01*
X117774000Y-86900000D01*
X88226000Y-86900000D01*
X88157879Y-86879998D01*
X88111386Y-86826342D01*
X88100000Y-86774000D01*
X88100000Y-85781883D01*
X89300000Y-85781883D01*
X89304475Y-85797123D01*
X89305866Y-85798328D01*
X89313545Y-85799999D01*
X116681885Y-85800001D01*
X116697124Y-85795526D01*
X116698329Y-85794136D01*
X116700000Y-85786453D01*
X116700108Y-58218117D01*
X116695633Y-58202877D01*
X116694236Y-58201666D01*
X116686569Y-58199997D01*
X89318225Y-58192796D01*
X89302982Y-58197267D01*
X89301783Y-58198650D01*
X89300108Y-58206346D01*
X89300000Y-85781883D01*
X88100000Y-85781883D01*
X88100000Y-57126000D01*
X88120002Y-57057879D01*
X88173658Y-57011386D01*
X88226000Y-57000000D01*
X117774000Y-57000000D01*
X117842121Y-57020002D01*
G37*
M02*
