%TF.GenerationSoftware,KiCad,Pcbnew,(6.0.6)*%
%TF.CreationDate,2022-07-20T12:02:56+02:00*%
%TF.ProjectId,low_freq_board,6c6f775f-6672-4657-915f-626f6172642e,rev?*%
%TF.SameCoordinates,PX4f27ac0PY57bcf00*%
%TF.FileFunction,Copper,L4,Bot*%
%TF.FilePolarity,Positive*%
%FSLAX46Y46*%
G04 Gerber Fmt 4.6, Leading zero omitted, Abs format (unit mm)*
G04 Created by KiCad (PCBNEW (6.0.6)) date 2022-07-20 12:02:56*
%MOMM*%
%LPD*%
G01*
G04 APERTURE LIST*
G04 Aperture macros list*
%AMRoundRect*
0 Rectangle with rounded corners*
0 $1 Rounding radius*
0 $2 $3 $4 $5 $6 $7 $8 $9 X,Y pos of 4 corners*
0 Add a 4 corners polygon primitive as box body*
4,1,4,$2,$3,$4,$5,$6,$7,$8,$9,$2,$3,0*
0 Add four circle primitives for the rounded corners*
1,1,$1+$1,$2,$3*
1,1,$1+$1,$4,$5*
1,1,$1+$1,$6,$7*
1,1,$1+$1,$8,$9*
0 Add four rect primitives between the rounded corners*
20,1,$1+$1,$2,$3,$4,$5,0*
20,1,$1+$1,$4,$5,$6,$7,0*
20,1,$1+$1,$6,$7,$8,$9,0*
20,1,$1+$1,$8,$9,$2,$3,0*%
G04 Aperture macros list end*
%TA.AperFunction,ComponentPad*%
%ADD10R,1.700000X1.700000*%
%TD*%
%TA.AperFunction,ComponentPad*%
%ADD11O,1.700000X1.700000*%
%TD*%
%TA.AperFunction,ComponentPad*%
%ADD12C,6.000000*%
%TD*%
%TA.AperFunction,SMDPad,CuDef*%
%ADD13R,0.350000X1.000000*%
%TD*%
%TA.AperFunction,SMDPad,CuDef*%
%ADD14R,1.000000X0.350000*%
%TD*%
%TA.AperFunction,SMDPad,CuDef*%
%ADD15R,2.400000X2.400000*%
%TD*%
%TA.AperFunction,SMDPad,CuDef*%
%ADD16RoundRect,0.237500X0.237500X-0.300000X0.237500X0.300000X-0.237500X0.300000X-0.237500X-0.300000X0*%
%TD*%
%TA.AperFunction,SMDPad,CuDef*%
%ADD17RoundRect,0.237500X0.237500X-0.250000X0.237500X0.250000X-0.237500X0.250000X-0.237500X-0.250000X0*%
%TD*%
%TA.AperFunction,SMDPad,CuDef*%
%ADD18RoundRect,0.237500X-0.237500X0.250000X-0.237500X-0.250000X0.237500X-0.250000X0.237500X0.250000X0*%
%TD*%
%TA.AperFunction,SMDPad,CuDef*%
%ADD19RoundRect,0.237500X-0.237500X0.300000X-0.237500X-0.300000X0.237500X-0.300000X0.237500X0.300000X0*%
%TD*%
%TA.AperFunction,SMDPad,CuDef*%
%ADD20RoundRect,0.237500X-0.300000X-0.237500X0.300000X-0.237500X0.300000X0.237500X-0.300000X0.237500X0*%
%TD*%
%TA.AperFunction,SMDPad,CuDef*%
%ADD21RoundRect,0.237500X-0.250000X-0.237500X0.250000X-0.237500X0.250000X0.237500X-0.250000X0.237500X0*%
%TD*%
%TA.AperFunction,SMDPad,CuDef*%
%ADD22RoundRect,0.155000X0.155000X-0.212500X0.155000X0.212500X-0.155000X0.212500X-0.155000X-0.212500X0*%
%TD*%
%TA.AperFunction,SMDPad,CuDef*%
%ADD23RoundRect,0.237500X0.300000X0.237500X-0.300000X0.237500X-0.300000X-0.237500X0.300000X-0.237500X0*%
%TD*%
%TA.AperFunction,SMDPad,CuDef*%
%ADD24R,1.803400X3.505200*%
%TD*%
%TA.AperFunction,SMDPad,CuDef*%
%ADD25RoundRect,0.160000X0.197500X0.160000X-0.197500X0.160000X-0.197500X-0.160000X0.197500X-0.160000X0*%
%TD*%
%TA.AperFunction,SMDPad,CuDef*%
%ADD26R,0.254000X1.066800*%
%TD*%
%TA.AperFunction,SMDPad,CuDef*%
%ADD27R,1.371600X0.635000*%
%TD*%
%TA.AperFunction,SMDPad,CuDef*%
%ADD28RoundRect,0.237500X0.250000X0.237500X-0.250000X0.237500X-0.250000X-0.237500X0.250000X-0.237500X0*%
%TD*%
%TA.AperFunction,SMDPad,CuDef*%
%ADD29RoundRect,0.155000X-0.212500X-0.155000X0.212500X-0.155000X0.212500X0.155000X-0.212500X0.155000X0*%
%TD*%
%TA.AperFunction,SMDPad,CuDef*%
%ADD30RoundRect,0.155000X-0.155000X0.212500X-0.155000X-0.212500X0.155000X-0.212500X0.155000X0.212500X0*%
%TD*%
%TA.AperFunction,ViaPad*%
%ADD31C,0.450000*%
%TD*%
%TA.AperFunction,Conductor*%
%ADD32C,0.508000*%
%TD*%
%TA.AperFunction,Conductor*%
%ADD33C,0.246380*%
%TD*%
%TA.AperFunction,Conductor*%
%ADD34C,0.381000*%
%TD*%
%TA.AperFunction,Conductor*%
%ADD35C,0.762000*%
%TD*%
%TA.AperFunction,Conductor*%
%ADD36C,0.254000*%
%TD*%
G04 APERTURE END LIST*
D10*
%TO.P,J3,1,Pin_1*%
%TO.N,Vtune1*%
X8569997Y3499999D03*
D11*
%TO.P,J3,2,Pin_2*%
%TO.N,2V75*%
X11109997Y3499999D03*
%TO.P,J3,3,Pin_3*%
%TO.N,Vtune2*%
X13649997Y3499999D03*
%TO.P,J3,4,Pin_4*%
%TO.N,2V5*%
X16189997Y3499999D03*
%TO.P,J3,5,Pin_5*%
%TO.N,P{slash}L power*%
X18729997Y3499999D03*
%TO.P,J3,6,Pin_6*%
%TO.N,LEE1_Vcc*%
X21269997Y3499999D03*
%TO.P,J3,7,Pin_7*%
%TO.N,LEE2_Vcc*%
X23809997Y3499999D03*
%TO.P,J3,8,Pin_8*%
%TO.N,3V*%
X26349997Y3499999D03*
%TO.P,J3,9,Pin_9*%
%TO.N,RSSI*%
X28889997Y3499999D03*
%TO.P,J3,10,Pin_10*%
%TO.N,GND*%
X31429997Y3499999D03*
%TD*%
D12*
%TO.P,H1,1,1*%
%TO.N,GND*%
X3500001Y36500003D03*
%TD*%
%TO.P,H3,1,1*%
%TO.N,GND*%
X3500001Y3500001D03*
%TD*%
D10*
%TO.P,J4,1,Pin_1*%
%TO.N,3V*%
X3500000Y31500000D03*
D11*
%TO.P,J4,2,Pin_2*%
%TO.N,ADC_PL2*%
X3500000Y28960000D03*
%TO.P,J4,3,Pin_3*%
%TO.N,DAC_PL2*%
X3500000Y26420000D03*
%TD*%
D10*
%TO.P,J1,1,Pin_1*%
%TO.N,SDA*%
X8700000Y36500000D03*
D11*
%TO.P,J1,2,Pin_2*%
%TO.N,SCL*%
X11240000Y36500000D03*
%TO.P,J1,3,Pin_3*%
%TO.N,GND*%
X13780000Y36500000D03*
%TO.P,J1,4,Pin_4*%
%TO.N,unconnected-(J1-Pad4)*%
X16320000Y36500000D03*
%TO.P,J1,5,Pin_5*%
%TO.N,unconnected-(J1-Pad5)*%
X18860000Y36500000D03*
%TO.P,J1,6,Pin_6*%
%TO.N,unconnected-(J1-Pad6)*%
X21400000Y36500000D03*
%TO.P,J1,7,Pin_7*%
%TO.N,unconnected-(J1-Pad7)*%
X23940000Y36500000D03*
%TO.P,J1,8,Pin_8*%
%TO.N,unconnected-(J1-Pad8)*%
X26480000Y36500000D03*
%TO.P,J1,9,Pin_9*%
%TO.N,unconnected-(J1-Pad9)*%
X29020000Y36500000D03*
%TO.P,J1,10,Pin_10*%
%TO.N,unconnected-(J1-Pad10)*%
X31560000Y36500000D03*
%TD*%
D12*
%TO.P,H4,1,1*%
%TO.N,GND*%
X36500003Y3500001D03*
%TD*%
%TO.P,H2,1,1*%
%TO.N,GND*%
X36500003Y36500003D03*
%TD*%
D10*
%TO.P,J2,1,Pin_1*%
%TO.N,LDO_extra1*%
X36500000Y23800000D03*
D11*
%TO.P,J2,2,Pin_2*%
%TO.N,LDO_extra2*%
X36500000Y21260000D03*
%TO.P,J2,3,Pin_3*%
%TO.N,2V7*%
X36500000Y18720000D03*
%TD*%
D13*
%TO.P,U4,1,VOUT1_1*%
%TO.N,3V*%
X29540393Y12714607D03*
%TO.P,U4,2,VIN1*%
%TO.N,P{slash}L power*%
X28890393Y12714607D03*
%TO.P,U4,3,VIN2*%
X28240393Y12714607D03*
%TO.P,U4,4,VOUT2*%
%TO.N,2V7*%
X27590393Y12714607D03*
D14*
%TO.P,U4,5,ADJ2*%
%TO.N,Net-(R10-Pad1)*%
X26665393Y13639607D03*
%TO.P,U4,6,EN1*%
%TO.N,P{slash}L power*%
X26665393Y14289607D03*
%TO.P,U4,7,EN2*%
X26665393Y14939607D03*
%TO.P,U4,8,EN3*%
X26665393Y15589607D03*
D13*
%TO.P,U4,9,CBYP*%
%TO.N,Net-(C14-Pad1)*%
X27590393Y16514607D03*
%TO.P,U4,10,GND_1*%
%TO.N,GND*%
X28240393Y16514607D03*
%TO.P,U4,11,GND_2*%
X28890393Y16514607D03*
%TO.P,U4,12,VIN3*%
%TO.N,P{slash}L power*%
X29540393Y16514607D03*
D14*
%TO.P,U4,13,VOUT3*%
%TO.N,2V75*%
X30465393Y15589607D03*
%TO.P,U4,14,ADJ3*%
%TO.N,Net-(R11-Pad1)*%
X30465393Y14939607D03*
%TO.P,U4,15,ADJ1*%
%TO.N,Net-(R7-Pad1)*%
X30465393Y14289607D03*
%TO.P,U4,16,VOUT1_2*%
%TO.N,3V*%
X30465393Y13639607D03*
D15*
%TO.P,U4,17,GND_3*%
%TO.N,GND*%
X28565393Y14614607D03*
%TD*%
D16*
%TO.P,C4,1*%
%TO.N,Net-(C4-Pad1)*%
X17569904Y25120407D03*
%TO.P,C4,2*%
%TO.N,GND*%
X17569904Y26845407D03*
%TD*%
D17*
%TO.P,R15,1*%
%TO.N,Net-(R15-Pad1)*%
X7982893Y12382107D03*
%TO.P,R15,2*%
%TO.N,Net-(R15-Pad2)*%
X7982893Y14207107D03*
%TD*%
D18*
%TO.P,R7,1*%
%TO.N,Net-(R7-Pad1)*%
X32005393Y13847107D03*
%TO.P,R7,2*%
%TO.N,3V*%
X32005393Y12022107D03*
%TD*%
D19*
%TO.P,C15,1*%
%TO.N,3V*%
X29730393Y10492107D03*
%TO.P,C15,2*%
%TO.N,GND*%
X29730393Y8767107D03*
%TD*%
D16*
%TO.P,C29,1*%
%TO.N,P{slash}L power*%
X28960393Y18117107D03*
%TO.P,C29,2*%
%TO.N,GND*%
X28960393Y19842107D03*
%TD*%
D19*
%TO.P,C32,1*%
%TO.N,P{slash}L power*%
X20322893Y10399607D03*
%TO.P,C32,2*%
%TO.N,GND*%
X20322893Y8674607D03*
%TD*%
D18*
%TO.P,R16,1*%
%TO.N,Net-(R16-Pad1)*%
X7970393Y10837107D03*
%TO.P,R16,2*%
%TO.N,GND*%
X7970393Y9012107D03*
%TD*%
D17*
%TO.P,R3,1*%
%TO.N,LEE2_Vcc*%
X30272893Y23647107D03*
%TO.P,R3,2*%
%TO.N,Net-(R3-Pad2)*%
X30272893Y25472107D03*
%TD*%
D20*
%TO.P,C5,1*%
%TO.N,P{slash}L power*%
X30080393Y28799607D03*
%TO.P,C5,2*%
%TO.N,GND*%
X31805393Y28799607D03*
%TD*%
D18*
%TO.P,R19,1*%
%TO.N,Net-(R19-Pad1)*%
X14870393Y10847107D03*
%TO.P,R19,2*%
%TO.N,GND*%
X14870393Y9022107D03*
%TD*%
D20*
%TO.P,C6,1*%
%TO.N,Net-(C6-Pad1)*%
X30330393Y26999607D03*
%TO.P,C6,2*%
%TO.N,GND*%
X32055393Y26999607D03*
%TD*%
D21*
%TO.P,R21,1*%
%TO.N,P{slash}L power*%
X8047893Y18606212D03*
%TO.P,R21,2*%
%TO.N,Vtune1*%
X9872893Y18606212D03*
%TD*%
D17*
%TO.P,R14,1*%
%TO.N,GND*%
X23392893Y7934607D03*
%TO.P,R14,2*%
%TO.N,Net-(R13-Pad1)*%
X23392893Y9759607D03*
%TD*%
D22*
%TO.P,C14,1*%
%TO.N,Net-(C14-Pad1)*%
X27180393Y17842107D03*
%TO.P,C14,2*%
%TO.N,GND*%
X27180393Y18977107D03*
%TD*%
D19*
%TO.P,C13,1*%
%TO.N,P{slash}L power*%
X28190393Y10492107D03*
%TO.P,C13,2*%
%TO.N,GND*%
X28190393Y8767107D03*
%TD*%
D17*
%TO.P,R9,1*%
%TO.N,2V7*%
X25125393Y11342107D03*
%TO.P,R9,2*%
%TO.N,Net-(R10-Pad1)*%
X25125393Y13167107D03*
%TD*%
D23*
%TO.P,C7,1*%
%TO.N,LEE2_Vcc*%
X28692893Y23519607D03*
%TO.P,C7,2*%
%TO.N,GND*%
X26967893Y23519607D03*
%TD*%
%TO.P,C11,1*%
%TO.N,13V*%
X11685393Y23567107D03*
%TO.P,C11,2*%
%TO.N,GND*%
X9960393Y23567107D03*
%TD*%
D17*
%TO.P,R17,1*%
%TO.N,P{slash}L power*%
X9500393Y7962107D03*
%TO.P,R17,2*%
%TO.N,Net-(R16-Pad1)*%
X9500393Y9787107D03*
%TD*%
D23*
%TO.P,C30,1*%
%TO.N,P{slash}L power*%
X21315393Y17347107D03*
%TO.P,C30,2*%
%TO.N,GND*%
X19590393Y17347107D03*
%TD*%
D18*
%TO.P,R24,1*%
%TO.N,Net-(R24-Pad1)*%
X16472893Y13779607D03*
%TO.P,R24,2*%
%TO.N,LDO_extra1*%
X16472893Y11954607D03*
%TD*%
D20*
%TO.P,C2,1*%
%TO.N,Net-(C2-Pad1)*%
X21817404Y26982907D03*
%TO.P,C2,2*%
%TO.N,GND*%
X23542404Y26982907D03*
%TD*%
D19*
%TO.P,C28,1*%
%TO.N,P{slash}L power*%
X26650393Y11122107D03*
%TO.P,C28,2*%
%TO.N,GND*%
X26650393Y9397107D03*
%TD*%
D20*
%TO.P,C10,1*%
%TO.N,Net-(C10-Pad1)*%
X13335393Y26957107D03*
%TO.P,C10,2*%
%TO.N,GND*%
X15060393Y26957107D03*
%TD*%
D13*
%TO.P,U5,1,VOUT1_1*%
%TO.N,2V5*%
X20917893Y11997107D03*
%TO.P,U5,2,VIN1*%
%TO.N,P{slash}L power*%
X20267893Y11997107D03*
%TO.P,U5,3,VIN2*%
X19617893Y11997107D03*
%TO.P,U5,4,VOUT2*%
%TO.N,LDO_extra1*%
X18967893Y11997107D03*
D14*
%TO.P,U5,5,ADJ2*%
%TO.N,Net-(R24-Pad1)*%
X18042893Y12922107D03*
%TO.P,U5,6,EN1*%
%TO.N,P{slash}L power*%
X18042893Y13572107D03*
%TO.P,U5,7,EN2*%
X18042893Y14222107D03*
%TO.P,U5,8,EN3*%
X18042893Y14872107D03*
D13*
%TO.P,U5,9,CBYP*%
%TO.N,Net-(C19-Pad1)*%
X18967893Y15797107D03*
%TO.P,U5,10,GND_1*%
%TO.N,GND*%
X19617893Y15797107D03*
%TO.P,U5,11,GND_2*%
X20267893Y15797107D03*
%TO.P,U5,12,VIN3*%
%TO.N,P{slash}L power*%
X20917893Y15797107D03*
D14*
%TO.P,U5,13,VOUT3*%
%TO.N,LDO_extra2*%
X21842893Y14872107D03*
%TO.P,U5,14,ADJ3*%
%TO.N,Net-(R26-Pad2)*%
X21842893Y14222107D03*
%TO.P,U5,15,ADJ1*%
%TO.N,Net-(R13-Pad1)*%
X21842893Y13572107D03*
%TO.P,U5,16,VOUT1_2*%
%TO.N,2V5*%
X21842893Y12922107D03*
D15*
%TO.P,U5,17,GND_3*%
%TO.N,GND*%
X19942893Y13897107D03*
%TD*%
D23*
%TO.P,C23,1*%
%TO.N,Vtune1*%
X9822893Y21106212D03*
%TO.P,C23,2*%
%TO.N,GND*%
X8097893Y21106212D03*
%TD*%
D17*
%TO.P,R1,1*%
%TO.N,LEE1_Vcc*%
X21759904Y23630407D03*
%TO.P,R1,2*%
%TO.N,Net-(R1-Pad2)*%
X21759904Y25455407D03*
%TD*%
D24*
%TO.P,L3,1,1*%
%TO.N,P{slash}L power*%
X11069082Y30497102D03*
%TO.P,L3,2,2*%
%TO.N,Net-(L3-Pad2)*%
X8376682Y30497102D03*
%TD*%
D18*
%TO.P,R6,1*%
%TO.N,Net-(R5-Pad2)*%
X14797893Y25429607D03*
%TO.P,R6,2*%
%TO.N,GND*%
X14797893Y23604607D03*
%TD*%
D22*
%TO.P,C19,1*%
%TO.N,Net-(C19-Pad1)*%
X17752893Y17129607D03*
%TO.P,C19,2*%
%TO.N,GND*%
X17752893Y18264607D03*
%TD*%
D23*
%TO.P,C3,1*%
%TO.N,LEE1_Vcc*%
X20169205Y23522907D03*
%TO.P,C3,2*%
%TO.N,GND*%
X18444205Y23522907D03*
%TD*%
D17*
%TO.P,R20,1*%
%TO.N,P{slash}L power*%
X13350393Y7972107D03*
%TO.P,R20,2*%
%TO.N,Net-(R19-Pad1)*%
X13350393Y9797107D03*
%TD*%
D20*
%TO.P,C1,1*%
%TO.N,P{slash}L power*%
X21567404Y28830307D03*
%TO.P,C1,2*%
%TO.N,GND*%
X23292404Y28830307D03*
%TD*%
D24*
%TO.P,L2,1,1*%
%TO.N,P{slash}L power*%
X28061580Y30469619D03*
%TO.P,L2,2,2*%
%TO.N,Net-(L2-Pad2)*%
X25369180Y30469619D03*
%TD*%
D20*
%TO.P,C24,1*%
%TO.N,P{slash}L power*%
X21567404Y30352907D03*
%TO.P,C24,2*%
%TO.N,GND*%
X23292404Y30352907D03*
%TD*%
D17*
%TO.P,R10,1*%
%TO.N,Net-(R10-Pad1)*%
X25125393Y14702107D03*
%TO.P,R10,2*%
%TO.N,GND*%
X25125393Y16527107D03*
%TD*%
D19*
%TO.P,C31,1*%
%TO.N,LDO_extra1*%
X16472893Y10369607D03*
%TO.P,C31,2*%
%TO.N,GND*%
X16472893Y8644607D03*
%TD*%
D17*
%TO.P,R18,1*%
%TO.N,Net-(R18-Pad1)*%
X14862893Y12382107D03*
%TO.P,R18,2*%
%TO.N,Net-(R18-Pad2)*%
X14862893Y14207107D03*
%TD*%
D18*
%TO.P,R26,1*%
%TO.N,LDO_extra2*%
X23382893Y16499607D03*
%TO.P,R26,2*%
%TO.N,Net-(R26-Pad2)*%
X23382893Y14674607D03*
%TD*%
D19*
%TO.P,C20,1*%
%TO.N,2V5*%
X21852893Y10399607D03*
%TO.P,C20,2*%
%TO.N,GND*%
X21852893Y8674607D03*
%TD*%
D16*
%TO.P,C16,1*%
%TO.N,2V75*%
X30490393Y18117107D03*
%TO.P,C16,2*%
%TO.N,GND*%
X30490393Y19842107D03*
%TD*%
D23*
%TO.P,C26,1*%
%TO.N,13V*%
X9765393Y16687107D03*
%TO.P,C26,2*%
%TO.N,GND*%
X8040393Y16687107D03*
%TD*%
D16*
%TO.P,C8,1*%
%TO.N,Net-(C8-Pad1)*%
X26082893Y25137107D03*
%TO.P,C8,2*%
%TO.N,GND*%
X26082893Y26862107D03*
%TD*%
D17*
%TO.P,R8,1*%
%TO.N,GND*%
X32010393Y8657107D03*
%TO.P,R8,2*%
%TO.N,Net-(R7-Pad1)*%
X32010393Y10482107D03*
%TD*%
D25*
%TO.P,R23,1*%
%TO.N,Vtune1*%
X10107893Y19856212D03*
%TO.P,R23,2*%
%TO.N,GND*%
X8912893Y19856212D03*
%TD*%
D19*
%TO.P,C18,1*%
%TO.N,P{slash}L power*%
X18772893Y10399607D03*
%TO.P,C18,2*%
%TO.N,GND*%
X18772893Y8674607D03*
%TD*%
D14*
%TO.P,U6,1,-IN1*%
%TO.N,Net-(R16-Pad1)*%
X9520393Y12269607D03*
%TO.P,U6,2,RG1_1*%
%TO.N,Net-(R15-Pad1)*%
X9520393Y12919607D03*
%TO.P,U6,3,RG1_2*%
%TO.N,Net-(R15-Pad2)*%
X9520393Y13569607D03*
%TO.P,U6,4,+IN1*%
%TO.N,DAC_PL2*%
X9520393Y14219607D03*
D13*
%TO.P,U6,5,+VS_1*%
%TO.N,13V*%
X10445393Y15144607D03*
%TO.P,U6,6,REF1*%
%TO.N,GND*%
X11095393Y15144607D03*
%TO.P,U6,7,REF2*%
X11745393Y15144607D03*
%TO.P,U6,8,-VS_1*%
X12395393Y15144607D03*
D14*
%TO.P,U6,9,+IN2*%
%TO.N,RSSI*%
X13320393Y14219607D03*
%TO.P,U6,10,RG2_1*%
%TO.N,Net-(R18-Pad2)*%
X13320393Y13569607D03*
%TO.P,U6,11,RG2_2*%
%TO.N,Net-(R18-Pad1)*%
X13320393Y12919607D03*
%TO.P,U6,12,-IN2*%
%TO.N,Net-(R19-Pad1)*%
X13320393Y12269607D03*
D13*
%TO.P,U6,13,-VS_2*%
%TO.N,GND*%
X12395393Y11344607D03*
%TO.P,U6,14,OUT2*%
%TO.N,ADC_PL2*%
X11745393Y11344607D03*
%TO.P,U6,15,OUT1*%
%TO.N,Vtune2*%
X11095393Y11344607D03*
%TO.P,U6,16,+VS_2*%
%TO.N,13V*%
X10445393Y11344607D03*
D15*
%TO.P,U6,17,EP*%
X11420393Y13244607D03*
%TD*%
D18*
%TO.P,R12,1*%
%TO.N,GND*%
X32010393Y20562107D03*
%TO.P,R12,2*%
%TO.N,Net-(R11-Pad1)*%
X32010393Y18737107D03*
%TD*%
D17*
%TO.P,R5,1*%
%TO.N,13V*%
X13277893Y23604607D03*
%TO.P,R5,2*%
%TO.N,Net-(R5-Pad2)*%
X13277893Y25429607D03*
%TD*%
D20*
%TO.P,C9,1*%
%TO.N,P{slash}L power*%
X13092893Y28817107D03*
%TO.P,C9,2*%
%TO.N,GND*%
X14817893Y28817107D03*
%TD*%
D19*
%TO.P,C17,1*%
%TO.N,2V7*%
X25130393Y9752107D03*
%TO.P,C17,2*%
%TO.N,GND*%
X25130393Y8027107D03*
%TD*%
D20*
%TO.P,C25,1*%
%TO.N,P{slash}L power*%
X30080393Y30319607D03*
%TO.P,C25,2*%
%TO.N,GND*%
X31805393Y30319607D03*
%TD*%
D26*
%TO.P,U1,1,SW*%
%TO.N,Net-(L1-Pad2)*%
X18989898Y27247088D03*
%TO.P,U1,2,VIN*%
%TO.N,P{slash}L power*%
X19439897Y27247088D03*
%TO.P,U1,3,GND*%
%TO.N,GND*%
X19889899Y27247088D03*
%TO.P,U1,4,BYP*%
%TO.N,Net-(C2-Pad1)*%
X20339898Y27247088D03*
%TO.P,U1,5,FB*%
%TO.N,Net-(R1-Pad2)*%
X20339898Y25113488D03*
%TO.P,U1,6,LDOOUT*%
%TO.N,LEE1_Vcc*%
X19889899Y25113488D03*
%TO.P,U1,7,EN*%
%TO.N,P{slash}L power*%
X19439897Y25113488D03*
%TO.P,U1,8,BSTOUT*%
%TO.N,Net-(C4-Pad1)*%
X18989898Y25113488D03*
D27*
%TO.P,U1,9,GND*%
%TO.N,GND*%
X19664898Y26180288D03*
%TD*%
D23*
%TO.P,C33,1*%
%TO.N,LDO_extra2*%
X21312500Y18900000D03*
%TO.P,C33,2*%
%TO.N,GND*%
X19587500Y18900000D03*
%TD*%
D18*
%TO.P,R2,1*%
%TO.N,Net-(R1-Pad2)*%
X23279904Y25455407D03*
%TO.P,R2,2*%
%TO.N,GND*%
X23279904Y23630407D03*
%TD*%
D28*
%TO.P,R27,1*%
%TO.N,GND*%
X25275393Y18067107D03*
%TO.P,R27,2*%
%TO.N,Net-(R26-Pad2)*%
X23450393Y18067107D03*
%TD*%
D18*
%TO.P,R4,1*%
%TO.N,Net-(R3-Pad2)*%
X31792893Y25472107D03*
%TO.P,R4,2*%
%TO.N,GND*%
X31792893Y23647107D03*
%TD*%
D29*
%TO.P,C22,1*%
%TO.N,13V*%
X11152893Y16950000D03*
%TO.P,C22,2*%
%TO.N,GND*%
X12287893Y16950000D03*
%TD*%
D20*
%TO.P,C27,1*%
%TO.N,P{slash}L power*%
X13092893Y30327107D03*
%TO.P,C27,2*%
%TO.N,GND*%
X14817893Y30327107D03*
%TD*%
D16*
%TO.P,C12,1*%
%TO.N,Net-(C12-Pad1)*%
X9087893Y25164607D03*
%TO.P,C12,2*%
%TO.N,GND*%
X9087893Y26889607D03*
%TD*%
D26*
%TO.P,U2,1,SW*%
%TO.N,Net-(L2-Pad2)*%
X27503354Y27266392D03*
%TO.P,U2,2,VIN*%
%TO.N,P{slash}L power*%
X27953353Y27266392D03*
%TO.P,U2,3,GND*%
%TO.N,GND*%
X28403355Y27266392D03*
%TO.P,U2,4,BYP*%
%TO.N,Net-(C6-Pad1)*%
X28853354Y27266392D03*
%TO.P,U2,5,FB*%
%TO.N,Net-(R3-Pad2)*%
X28853354Y25132792D03*
%TO.P,U2,6,LDOOUT*%
%TO.N,LEE2_Vcc*%
X28403355Y25132792D03*
%TO.P,U2,7,EN*%
%TO.N,P{slash}L power*%
X27953353Y25132792D03*
%TO.P,U2,8,BSTOUT*%
%TO.N,Net-(C8-Pad1)*%
X27503354Y25132792D03*
D27*
%TO.P,U2,9,GND*%
%TO.N,GND*%
X28178354Y26199592D03*
%TD*%
D25*
%TO.P,R22,1*%
%TO.N,13V*%
X12397500Y19850000D03*
%TO.P,R22,2*%
%TO.N,Vtune1*%
X11202500Y19850000D03*
%TD*%
D30*
%TO.P,C21,1*%
%TO.N,13V*%
X10760393Y10012107D03*
%TO.P,C21,2*%
%TO.N,GND*%
X10760393Y8877107D03*
%TD*%
D24*
%TO.P,L1,1,1*%
%TO.N,P{slash}L power*%
X19545672Y30462812D03*
%TO.P,L1,2,2*%
%TO.N,Net-(L1-Pad2)*%
X16853272Y30462812D03*
%TD*%
D18*
%TO.P,R25,1*%
%TO.N,GND*%
X16472893Y17149607D03*
%TO.P,R25,2*%
%TO.N,Net-(R24-Pad1)*%
X16472893Y15324607D03*
%TD*%
D26*
%TO.P,U3,1,SW*%
%TO.N,Net-(L3-Pad2)*%
X10508330Y27283893D03*
%TO.P,U3,2,VIN*%
%TO.N,P{slash}L power*%
X10958329Y27283893D03*
%TO.P,U3,3,GND*%
%TO.N,GND*%
X11408331Y27283893D03*
%TO.P,U3,4,BYP*%
%TO.N,Net-(C10-Pad1)*%
X11858330Y27283893D03*
%TO.P,U3,5,FB*%
%TO.N,Net-(R5-Pad2)*%
X11858330Y25150293D03*
%TO.P,U3,6,LDOOUT*%
%TO.N,13V*%
X11408331Y25150293D03*
%TO.P,U3,7,EN*%
%TO.N,P{slash}L power*%
X10958329Y25150293D03*
%TO.P,U3,8,BSTOUT*%
%TO.N,Net-(C12-Pad1)*%
X10508330Y25150293D03*
D27*
%TO.P,U3,9,GND*%
%TO.N,GND*%
X11183330Y26217093D03*
%TD*%
D17*
%TO.P,R11,1*%
%TO.N,Net-(R11-Pad1)*%
X32005393Y15382107D03*
%TO.P,R11,2*%
%TO.N,2V75*%
X32005393Y17207107D03*
%TD*%
D18*
%TO.P,R13,1*%
%TO.N,Net-(R13-Pad1)*%
X23382893Y13129607D03*
%TO.P,R13,2*%
%TO.N,2V5*%
X23382893Y11304607D03*
%TD*%
D31*
%TO.N,GND*%
X5700000Y13971440D03*
X5700000Y19419056D03*
X15500000Y17114202D03*
X24682893Y27067107D03*
X9100000Y22300000D03*
X5700000Y8523824D03*
X26650393Y8499607D03*
X15233328Y34400000D03*
X34300000Y11147616D03*
X31576176Y5700000D03*
X11642893Y26200000D03*
X34300000Y17957136D03*
X23274455Y31430307D03*
X27950000Y19000000D03*
X8423808Y34400000D03*
X23404752Y34400000D03*
X19650000Y26200000D03*
X18700000Y18900000D03*
X34300000Y32938080D03*
X34300000Y22042848D03*
X5700000Y23504768D03*
X5700000Y22142864D03*
X24682893Y26377107D03*
X13300000Y22200000D03*
X21150000Y7950000D03*
X27450000Y26200000D03*
X19350000Y7947107D03*
X5700000Y5700000D03*
X31576176Y34400000D03*
X24766656Y5700000D03*
X34300000Y12509520D03*
X16450000Y7900000D03*
X34300000Y24766656D03*
X20451769Y16695983D03*
X5700000Y30314288D03*
X22042848Y5700000D03*
X5700000Y24866672D03*
X16595232Y34400000D03*
X17957136Y34400000D03*
X28642893Y26200000D03*
X13871424Y5700000D03*
X28100000Y26200000D03*
X5700000Y31676192D03*
X5700000Y11247632D03*
X7982893Y22327107D03*
X17569455Y27727807D03*
X34300000Y31576176D03*
X30490393Y20749607D03*
X34300000Y13871424D03*
X27490464Y5700000D03*
X24766656Y34400000D03*
X24682893Y25687107D03*
X16242893Y26367107D03*
X15233328Y5700000D03*
X30214272Y34400000D03*
X12980393Y11344607D03*
X5700000Y12609536D03*
X34300000Y7061904D03*
X9785712Y34400000D03*
X22042848Y34400000D03*
X34300000Y19319040D03*
X7740393Y7974607D03*
X34300000Y28852368D03*
X34300000Y26128560D03*
X7061904Y34400000D03*
X19000000Y26200000D03*
X16242893Y27057107D03*
X32000000Y8000000D03*
X14807893Y31327107D03*
X32900000Y20550000D03*
X28190393Y7939607D03*
X32938080Y34400000D03*
X29730393Y7889607D03*
X5700000Y33038096D03*
X34300000Y30214272D03*
X8000000Y17500000D03*
X8300000Y19850000D03*
X15070393Y7994607D03*
X24662893Y23660000D03*
X28852368Y34400000D03*
X7982893Y23707107D03*
X34300000Y9785712D03*
X26128560Y5700000D03*
X16242893Y25677107D03*
X5700000Y7161920D03*
X25300000Y18800000D03*
X7061904Y5700000D03*
X32362893Y31967107D03*
X34300000Y34400000D03*
X19319040Y34400000D03*
X20300000Y7950000D03*
X25650393Y15659607D03*
X10750000Y8300000D03*
X11147616Y34400000D03*
X34300000Y8423808D03*
X20680944Y34400000D03*
X23900000Y7250000D03*
X5700000Y34400000D03*
X34300000Y16595232D03*
X5700000Y9885728D03*
X8423808Y5700000D03*
X9785712Y5700000D03*
X18746500Y17400000D03*
X31778343Y31374607D03*
X7300000Y21100000D03*
X5700000Y16695248D03*
X34300000Y27490464D03*
X32000000Y22150000D03*
X5700000Y20780960D03*
X20192893Y26200000D03*
X34300000Y5700000D03*
X5700000Y15333344D03*
X17957136Y5700000D03*
X31582893Y31967107D03*
X5700000Y26228576D03*
X11750000Y16100000D03*
X17800000Y18900000D03*
X9088855Y27880819D03*
X28250000Y17250000D03*
X26080393Y27839607D03*
X10450000Y26200000D03*
X27490464Y34400000D03*
X16212893Y23657107D03*
X30214272Y5700000D03*
X13871424Y34400000D03*
X26128560Y34400000D03*
X24662893Y24350000D03*
X11147616Y5700000D03*
X24600000Y7250000D03*
X12509520Y34400000D03*
X11100000Y26200000D03*
X30500000Y22150000D03*
%TO.N,LEE1_Vcc*%
X21700000Y22900000D03*
%TO.N,LEE2_Vcc*%
X25450000Y22600000D03*
%TO.N,3V*%
X29730393Y11400000D03*
%TO.N,2V75*%
X29750393Y18979607D03*
%TO.N,2V7*%
X26400000Y12714607D03*
%TO.N,2V5*%
X21535393Y11379607D03*
%TO.N,Vtune1*%
X9800000Y17800000D03*
%TO.N,P{slash}L power*%
X8570393Y7964607D03*
X29695393Y31416274D03*
X28820393Y9729607D03*
X21749463Y31419479D03*
X21112893Y9537107D03*
X21169463Y31992813D03*
X12642893Y32020441D03*
X27830393Y24179607D03*
X21169463Y31409480D03*
X13222893Y31447107D03*
X21749463Y32002813D03*
X26030393Y10389607D03*
X29695393Y31999607D03*
X28150000Y18159607D03*
X10812893Y24197107D03*
X19296705Y24162907D03*
X12642893Y31437108D03*
X18000000Y10400000D03*
X13350000Y7300000D03*
X30275393Y32009607D03*
X15500000Y16200000D03*
X8850000Y18600000D03*
X30275393Y31426273D03*
X13222893Y32030441D03*
X21572893Y15797107D03*
X26665393Y16539607D03*
%TO.N,ADC_PL2*%
X12260393Y10334607D03*
%TO.N,DAC_PL2*%
X7950000Y15350000D03*
%TO.N,LDO_extra1*%
X17900393Y11954607D03*
X25300000Y20600000D03*
X22700000Y20600000D03*
%TO.N,LDO_extra2*%
X25300000Y19600000D03*
%TO.N,RSSI*%
X15500000Y15200000D03*
%TO.N,Vtune2*%
X11800000Y8600000D03*
%TD*%
D32*
%TO.N,GND*%
X10750000Y8300000D02*
X10750000Y8866714D01*
X17599455Y26842807D02*
X18261955Y26180307D01*
X18700000Y18900000D02*
X18716893Y18916893D01*
X26112893Y26862107D02*
X26775393Y26199607D01*
X12395393Y15144607D02*
X11160413Y15144607D01*
X16437488Y17114202D02*
X16472893Y17149607D01*
X32010393Y20562107D02*
X32887893Y20562107D01*
X29730393Y8767107D02*
X29730393Y7889607D01*
X31775393Y31371657D02*
X31778343Y31374607D01*
X25130393Y7780393D02*
X25130393Y8027107D01*
X31775393Y30299607D02*
X31775393Y31371657D01*
X25125393Y16527107D02*
X25125393Y16184607D01*
X23392893Y7757107D02*
X23392893Y7934607D01*
X18261955Y26180307D02*
X18449455Y26180307D01*
X21150000Y7971714D02*
X21852893Y8674607D01*
X32887893Y20562107D02*
X32900000Y20550000D01*
X19617893Y15797107D02*
X19617893Y14222107D01*
D33*
X19889906Y27247107D02*
X19889906Y26405308D01*
D32*
X8906681Y19850000D02*
X8912893Y19856212D01*
X18772893Y8524214D02*
X18772893Y8674607D01*
X19617893Y14222107D02*
X19942893Y13897107D01*
X20267893Y16512107D02*
X20451769Y16695983D01*
X20300000Y7950000D02*
X20300000Y8651714D01*
D33*
X11408344Y26442108D02*
X11183343Y26217107D01*
D32*
X17569904Y26845407D02*
X17569904Y27727358D01*
X15070393Y8822107D02*
X15070393Y7994607D01*
D33*
X19889906Y26405308D02*
X19664905Y26180307D01*
D32*
X23261955Y31417807D02*
X23274455Y31430307D01*
X18449455Y26180307D02*
X18649455Y26180307D01*
X19617893Y15797107D02*
X20267893Y15797107D01*
X18746500Y17400000D02*
X19537500Y17400000D01*
X10432893Y26217107D02*
X9767893Y26217107D01*
X26082893Y27837107D02*
X26080393Y27839607D01*
X28190393Y8767107D02*
X28190393Y7939607D01*
X11750000Y15149214D02*
X11745393Y15144607D01*
X10467107Y26217107D02*
X11183343Y26217107D01*
X32010393Y8010393D02*
X32010393Y8657107D01*
D33*
X28240393Y16514607D02*
X28240393Y14939607D01*
D32*
X25275393Y18775393D02*
X25275393Y18067107D01*
X12300000Y16650000D02*
X12300000Y16979607D01*
X28103343Y26199607D02*
X28178343Y26199607D01*
D34*
X28240393Y17240393D02*
X28240393Y16514607D01*
D32*
X8000000Y16727500D02*
X8040393Y16687107D01*
X7740393Y8782107D02*
X7740393Y7974607D01*
X23261955Y30280307D02*
X23261955Y31417807D01*
X14817893Y31317107D02*
X14807893Y31327107D01*
D33*
X28890393Y14939607D02*
X28565393Y14614607D01*
D32*
X10450000Y26200000D02*
X10432893Y26217107D01*
X19537500Y17400000D02*
X19590393Y17347107D01*
X8300000Y19850000D02*
X8906681Y19850000D01*
X27950000Y19000000D02*
X27203286Y19000000D01*
X26082893Y26862107D02*
X26082893Y27837107D01*
X8000000Y17500000D02*
X8000000Y16727500D01*
X20267893Y15797107D02*
X20267893Y16512107D01*
X12395393Y11344607D02*
X12980393Y11344607D01*
X27728343Y26199607D02*
X28103343Y26199607D01*
X9087893Y27879857D02*
X9088855Y27880819D01*
X11750000Y16100000D02*
X12300000Y16650000D01*
X20300000Y8651714D02*
X20322893Y8674607D01*
X18716893Y18916893D02*
X19570607Y18916893D01*
X17569904Y27727358D02*
X17569455Y27727807D01*
X14817893Y30317107D02*
X14817893Y31317107D01*
X25125393Y16184607D02*
X25650393Y15659607D01*
X16450000Y8621714D02*
X16472893Y8644607D01*
D34*
X28240393Y16514607D02*
X28890393Y16514607D01*
D32*
X17752893Y18264607D02*
X17752893Y18267107D01*
X7300000Y21100000D02*
X8091681Y21100000D01*
X14870393Y9022107D02*
X15070393Y8822107D01*
D33*
X28890393Y16514607D02*
X28890393Y14939607D01*
D32*
X26775393Y26199607D02*
X27003343Y26199607D01*
D33*
X11408344Y27283907D02*
X11408344Y26442108D01*
D32*
X23900000Y7250000D02*
X23392893Y7757107D01*
D33*
X28403344Y27266407D02*
X28403344Y26424608D01*
D32*
X23261955Y28830307D02*
X23261955Y28817807D01*
X10450000Y26200000D02*
X10467107Y26217107D01*
X28960393Y19842107D02*
X30490393Y19842107D01*
X9767893Y26217107D02*
X9105393Y26879607D01*
X17800000Y18311714D02*
X17752893Y18264607D01*
X24600000Y7250000D02*
X25130393Y7780393D01*
D33*
X28178343Y26199607D02*
X28628343Y26199607D01*
D32*
X32000000Y8000000D02*
X32010393Y8010393D01*
D33*
X28403344Y26424608D02*
X28178343Y26199607D01*
D32*
X27003343Y26199607D02*
X27728343Y26199607D01*
X30490393Y19842107D02*
X30490393Y20749607D01*
X18649455Y26180307D02*
X19664905Y26180307D01*
X20267893Y15797107D02*
X20267893Y14222107D01*
X19350000Y7947107D02*
X18772893Y8524214D01*
X9087893Y26889607D02*
X9087893Y27879857D01*
X14817893Y28817107D02*
X14817893Y28707107D01*
D33*
X28240393Y14939607D02*
X28565393Y14614607D01*
D32*
X15500000Y17114202D02*
X16437488Y17114202D01*
X26650393Y9397107D02*
X26650393Y8499607D01*
D34*
X28250000Y17250000D02*
X28240393Y17240393D01*
D32*
X8091681Y21100000D02*
X8097893Y21106212D01*
X7970393Y9012107D02*
X7740393Y8782107D01*
X20267893Y14222107D02*
X19942893Y13897107D01*
X16450000Y7900000D02*
X16450000Y8621714D01*
X10750000Y8866714D02*
X10760393Y8877107D01*
X25300000Y18800000D02*
X25275393Y18775393D01*
X11750000Y16100000D02*
X11750000Y15149214D01*
X17800000Y18900000D02*
X17800000Y18311714D01*
%TO.N,Net-(C2-Pad1)*%
X21736955Y26930307D02*
X20656705Y26930307D01*
X20656705Y26930307D02*
X20470417Y27116595D01*
%TO.N,LEE1_Vcc*%
X20169205Y23522907D02*
X21652404Y23522907D01*
D34*
X21700000Y22900000D02*
X21700000Y23570503D01*
D33*
X19889906Y23802206D02*
X19889906Y25113507D01*
%TO.N,Net-(C4-Pad1)*%
X18985605Y25117807D02*
X18989905Y25113507D01*
D32*
X17599455Y25117807D02*
X18859393Y25117807D01*
X18859393Y25117807D02*
X18859393Y25113507D01*
%TO.N,Net-(C6-Pad1)*%
X29303343Y26949607D02*
X28986543Y27266407D01*
X28986543Y27266407D02*
X28983855Y27266407D01*
X30300393Y26949607D02*
X29303343Y26949607D01*
%TO.N,LEE2_Vcc*%
X28692893Y23519607D02*
X30145393Y23519607D01*
X25450000Y22600000D02*
X25459393Y22590607D01*
X25459393Y22590607D02*
X27763893Y22590607D01*
X27763893Y22590607D02*
X28692893Y23519607D01*
D33*
X28403344Y25132807D02*
X28403344Y23809156D01*
D32*
%TO.N,Net-(C8-Pad1)*%
X27372831Y25137107D02*
X27372831Y25132807D01*
D33*
X27499043Y25137107D02*
X27503343Y25132807D01*
D32*
X26112893Y25137107D02*
X27372831Y25137107D01*
%TO.N,Net-(C10-Pad1)*%
X12225143Y26917107D02*
X11988855Y27153395D01*
X13292893Y26917107D02*
X12225143Y26917107D01*
%TO.N,13V*%
X11135393Y18335393D02*
X11135393Y16967500D01*
X11685393Y23567107D02*
X13240393Y23567107D01*
D33*
X11408344Y25150307D02*
X11408344Y23844156D01*
D32*
X10028286Y16950000D02*
X9765393Y16687107D01*
D34*
X10445393Y14219607D02*
X10445393Y15144607D01*
X11420393Y13244607D02*
X10445393Y14219607D01*
D32*
X11152893Y16950000D02*
X10028286Y16950000D01*
X9765393Y16687107D02*
X9765393Y15824607D01*
X12397500Y21032500D02*
X12397500Y19597500D01*
D34*
X11420393Y13244607D02*
X10445393Y12269607D01*
D32*
X11572893Y21900000D02*
X11572893Y23454607D01*
D34*
X10760393Y10012107D02*
X10445393Y10327107D01*
D32*
X11135393Y16967500D02*
X11152893Y16950000D01*
D34*
X10445393Y12269607D02*
X10445393Y11344607D01*
D32*
X12397500Y19597500D02*
X11135393Y18335393D01*
X9765393Y15824607D02*
X10445393Y15144607D01*
X11572893Y21857107D02*
X12397500Y21032500D01*
D34*
X10445393Y10327107D02*
X10445393Y11344607D01*
D32*
%TO.N,Net-(C12-Pad1)*%
X9105393Y25154607D02*
X9109693Y25150307D01*
X9109693Y25150307D02*
X10377831Y25150307D01*
D33*
X10504043Y25154607D02*
X10508343Y25150307D01*
D34*
%TO.N,Net-(C14-Pad1)*%
X27590393Y16514607D02*
X27350382Y16754618D01*
X27350382Y16754618D02*
X27350382Y17672118D01*
X27350382Y17672118D02*
X27180393Y17842107D01*
D32*
%TO.N,3V*%
X29540393Y12714607D02*
X29972415Y12714607D01*
X29730393Y12524607D02*
X29540393Y12714607D01*
X32005393Y12022107D02*
X32005393Y12099607D01*
X31965393Y12052107D02*
X31965393Y12139607D01*
X30465393Y13207585D02*
X30465393Y13639607D01*
X32005393Y12099607D02*
X30465393Y13639607D01*
X29730393Y10492107D02*
X29730393Y11400000D01*
X29602642Y12714607D02*
X29540393Y12714607D01*
X29730393Y11400000D02*
X29730393Y12524607D01*
X29972415Y12714607D02*
X30465393Y13207585D01*
%TO.N,2V75*%
X30490393Y18239607D02*
X29750393Y18979607D01*
X30465393Y15667107D02*
X32005393Y17207107D01*
X30490393Y18117107D02*
X30490393Y15614607D01*
X30490393Y15614607D02*
X30465393Y15589607D01*
X30465393Y15589607D02*
X30465393Y15667107D01*
%TO.N,2V7*%
X26400000Y12708357D02*
X25125393Y11433750D01*
X25125393Y11342107D02*
X25125393Y9757107D01*
X26400000Y12714607D02*
X27590393Y12714607D01*
X26400000Y12714607D02*
X26400000Y12708357D01*
X25130393Y9752107D02*
X25097893Y9752107D01*
X25125393Y9757107D02*
X25130393Y9752107D01*
D34*
%TO.N,Net-(C19-Pad1)*%
X17752893Y17012107D02*
X18967893Y15797107D01*
X17752893Y17129607D02*
X17752893Y17012107D01*
D32*
%TO.N,2V5*%
X21600893Y11997107D02*
X21842893Y12239107D01*
X21535393Y11379607D02*
X20917893Y11997107D01*
X21842893Y12844607D02*
X23382893Y11304607D01*
X21852893Y11062107D02*
X21535393Y11379607D01*
X21842893Y12239107D02*
X21842893Y12922107D01*
X20917893Y11997107D02*
X21600893Y11997107D01*
X21852893Y10399607D02*
X21852893Y11062107D01*
X21842893Y12922107D02*
X21842893Y12844607D01*
%TO.N,Vtune1*%
X10107893Y19856212D02*
X11157893Y19856212D01*
X10107893Y19856212D02*
X10107893Y20821212D01*
D34*
X9800000Y18533319D02*
X9872893Y18606212D01*
D32*
X10107893Y20821212D02*
X9822893Y21106212D01*
X10107893Y19856212D02*
X10107893Y18841212D01*
D35*
X9872893Y18606212D02*
X9872893Y18618712D01*
D32*
X10107893Y18841212D02*
X9872893Y18606212D01*
D34*
X9800000Y17800000D02*
X9800000Y18533319D01*
%TO.N,P{slash}L power*%
X20322893Y10327107D02*
X21112893Y9537107D01*
D33*
X27953342Y27266407D02*
X27953342Y30361356D01*
D34*
X20322893Y10399607D02*
X20322893Y10327107D01*
X20322893Y10399607D02*
X20267893Y10454607D01*
D33*
X19439904Y27247107D02*
X19439904Y30357054D01*
D34*
X18042893Y14222107D02*
X18042893Y14872107D01*
X17307873Y16202127D02*
X18042893Y15467107D01*
D32*
X8054105Y18600000D02*
X8047893Y18606212D01*
D34*
X28960393Y18117107D02*
X29540393Y17537107D01*
D32*
X21536955Y28830307D02*
X21536955Y30280307D01*
X13350000Y7971714D02*
X13350393Y7972107D01*
D34*
X20917893Y15797107D02*
X21572893Y15797107D01*
D32*
X28190393Y10492107D02*
X28190393Y10359607D01*
X8850000Y18600000D02*
X8054105Y18600000D01*
X26650393Y11009607D02*
X26030393Y10389607D01*
D34*
X18042893Y15467107D02*
X18042893Y14872107D01*
D33*
X10958342Y30386356D02*
X11069093Y30497107D01*
D32*
X26665393Y15589607D02*
X26665393Y16539607D01*
D34*
X15973339Y16200000D02*
X15975466Y16202127D01*
D33*
X19439904Y30357054D02*
X19545663Y30462813D01*
D34*
X26650393Y11389607D02*
X26650393Y11122107D01*
D32*
X28917893Y18159607D02*
X28150000Y18159607D01*
X8572893Y7962107D02*
X8570393Y7964607D01*
D34*
X28890393Y11479607D02*
X28890393Y12714607D01*
X18772893Y10399607D02*
X19617893Y11244607D01*
D33*
X10958342Y24342556D02*
X10812893Y24197107D01*
D34*
X18042893Y13572107D02*
X18042893Y14222107D01*
X19617893Y11244607D02*
X19617893Y11997107D01*
D33*
X27953342Y30361356D02*
X28061593Y30469607D01*
D34*
X15975466Y16202127D02*
X17307873Y16202127D01*
D32*
X13350000Y7300000D02*
X13350000Y7971714D01*
X26665393Y14289607D02*
X26665393Y14939607D01*
D34*
X28240393Y12714607D02*
X28240393Y11833607D01*
D33*
X10958342Y27283907D02*
X10958342Y30386356D01*
X10958342Y25150307D02*
X10958342Y24342556D01*
D34*
X28190393Y10779607D02*
X28890393Y11479607D01*
X28190393Y10492107D02*
X28190393Y10779607D01*
D32*
X9500393Y7962107D02*
X8572893Y7962107D01*
D33*
X19439904Y25113507D02*
X19439904Y24306106D01*
X19439904Y24306106D02*
X19296705Y24162907D01*
X27953342Y25132807D02*
X27953342Y24302556D01*
D34*
X20267893Y10454607D02*
X20267893Y11997107D01*
X28086393Y11679607D02*
X26940393Y11679607D01*
X15500000Y16200000D02*
X15973339Y16200000D01*
D33*
X27953342Y24302556D02*
X27830393Y24179607D01*
D34*
X26940393Y11679607D02*
X26650393Y11389607D01*
D32*
X26665393Y14939607D02*
X26665393Y15589607D01*
D34*
X21315393Y16194607D02*
X21315393Y17347107D01*
X18772500Y10400000D02*
X18772893Y10399607D01*
D35*
X21567404Y30352907D02*
X21567404Y28830307D01*
D34*
X29540393Y17537107D02*
X29540393Y16514607D01*
X28240393Y11833607D02*
X28086393Y11679607D01*
D32*
X28190393Y10359607D02*
X28820393Y9729607D01*
X26650393Y11122107D02*
X26650393Y11009607D01*
D34*
X18000000Y10400000D02*
X18772500Y10400000D01*
X20917893Y15797107D02*
X21315393Y16194607D01*
D36*
%TO.N,ADC_PL2*%
X11745393Y10849607D02*
X12260393Y10334607D01*
X11745393Y11344607D02*
X11745393Y10849607D01*
D34*
%TO.N,DAC_PL2*%
X7950000Y15350000D02*
X8390000Y15350000D01*
X8390000Y15350000D02*
X9520393Y14219607D01*
%TO.N,Net-(L1-Pad2)*%
X16853263Y30462813D02*
X16853263Y29522443D01*
X16853263Y29522443D02*
X18922893Y27452813D01*
X18922893Y27452813D02*
X18922893Y27247107D01*
%TO.N,Net-(L2-Pad2)*%
X25369193Y29618707D02*
X27436331Y27551569D01*
X25369193Y30469607D02*
X25369193Y29618707D01*
X27436331Y27551569D02*
X27436331Y27266407D01*
%TO.N,Net-(L3-Pad2)*%
X10441331Y27581569D02*
X10441331Y27283907D01*
X8376693Y29646207D02*
X10441331Y27581569D01*
X8376693Y30497107D02*
X8376693Y29646207D01*
D32*
%TO.N,Net-(R1-Pad2)*%
X21699455Y25442807D02*
X20669205Y25442807D01*
X21699454Y25442813D02*
X23149463Y25442813D01*
X20669205Y25442807D02*
X20470417Y25244019D01*
%TO.N,Net-(R3-Pad2)*%
X31662893Y25462107D02*
X30212893Y25462107D01*
X30212893Y25462107D02*
X29315843Y25462107D01*
X28986543Y25132807D02*
X28983855Y25132807D01*
X29315843Y25462107D02*
X28986543Y25132807D01*
%TO.N,Net-(R5-Pad2)*%
X13205393Y25429607D02*
X12137643Y25429607D01*
X12137643Y25429607D02*
X11988855Y25280819D01*
X13205393Y25429607D02*
X14655393Y25429607D01*
D36*
%TO.N,Net-(R7-Pad1)*%
X32806913Y11278627D02*
X32010393Y10482107D01*
X32806913Y13045587D02*
X32806913Y11278627D01*
X32005393Y13847107D02*
X32806913Y13045587D01*
D34*
X30465393Y14289607D02*
X31562893Y14289607D01*
X31562893Y14289607D02*
X32005393Y13847107D01*
D32*
%TO.N,Net-(R10-Pad1)*%
X25165393Y13227107D02*
X25520373Y13582087D01*
X25165393Y14702107D02*
X25165393Y13227107D01*
X25520373Y13582087D02*
X26665393Y13582087D01*
D36*
%TO.N,Net-(R11-Pad1)*%
X32010393Y18737107D02*
X32950000Y17797500D01*
D34*
X31562893Y14939607D02*
X32005393Y15382107D01*
D36*
X32950000Y17797500D02*
X32950000Y16326714D01*
D34*
X30465393Y14939607D02*
X31562893Y14939607D01*
D36*
X32950000Y16326714D02*
X32005393Y15382107D01*
%TO.N,Net-(R13-Pad1)*%
X24184413Y12328087D02*
X24184413Y10551127D01*
X24184413Y10551127D02*
X23392893Y9759607D01*
X23382893Y13129607D02*
X24184413Y12328087D01*
D34*
X23382893Y13129607D02*
X22940393Y13572107D01*
X22940393Y13572107D02*
X21842893Y13572107D01*
D36*
%TO.N,Net-(R15-Pad1)*%
X8557893Y12919607D02*
X8020393Y12382107D01*
X9520393Y12919607D02*
X8557893Y12919607D01*
%TO.N,Net-(R15-Pad2)*%
X8657893Y13569607D02*
X8020393Y14207107D01*
X9520393Y13569607D02*
X8657893Y13569607D01*
D34*
%TO.N,Net-(R16-Pad1)*%
X9500393Y9787107D02*
X9020393Y9787107D01*
X9520393Y12269607D02*
X9402893Y12269607D01*
X9402893Y12269607D02*
X7970393Y10837107D01*
X9020393Y9787107D02*
X7970393Y10837107D01*
D36*
%TO.N,Net-(R18-Pad1)*%
X14282893Y12919607D02*
X14820393Y12382107D01*
X13320393Y12919607D02*
X14282893Y12919607D01*
%TO.N,Net-(R18-Pad2)*%
X13320393Y13569607D02*
X14182893Y13569607D01*
X14182893Y13569607D02*
X14820393Y14207107D01*
D34*
%TO.N,Net-(R19-Pad1)*%
X14870393Y10847107D02*
X14742893Y10847107D01*
X13820393Y9797107D02*
X14870393Y10847107D01*
X13350393Y9797107D02*
X13820393Y9797107D01*
X14742893Y10847107D02*
X13320393Y12269607D01*
D32*
%TO.N,LDO_extra1*%
X16472893Y10369607D02*
X16472893Y11954607D01*
X18925393Y11954607D02*
X18967893Y11997107D01*
X22700000Y20600000D02*
X25300000Y20600000D01*
X16472893Y11954607D02*
X17900393Y11954607D01*
X17900393Y11954607D02*
X18925393Y11954607D01*
%TO.N,Net-(R24-Pad1)*%
X16472893Y13779607D02*
X16472893Y15324607D01*
X17330393Y12922107D02*
X18042893Y12922107D01*
X16472893Y13779607D02*
X17330393Y12922107D01*
%TO.N,LDO_extra2*%
X22306893Y15506893D02*
X22300000Y15500000D01*
X21350000Y18900000D02*
X22306893Y17943107D01*
X21312500Y18900000D02*
X21312500Y19162500D01*
X21842893Y14959607D02*
X23382893Y16499607D01*
X21312500Y19162500D02*
X21750000Y19600000D01*
X21312500Y18900000D02*
X21350000Y18900000D01*
X22306893Y17943107D02*
X22306893Y15506893D01*
X21750000Y19600000D02*
X25300000Y19600000D01*
D36*
%TO.N,Net-(R26-Pad2)*%
X24184413Y15476127D02*
X24184413Y17233087D01*
X23382893Y14674607D02*
X24184413Y15476127D01*
D34*
X23382893Y14674607D02*
X22930393Y14222107D01*
D36*
X24184413Y17233087D02*
X23382893Y18034607D01*
D34*
X22930393Y14222107D02*
X21842893Y14222107D01*
%TO.N,RSSI*%
X14295786Y15200000D02*
X13320393Y14224607D01*
X15500000Y15200000D02*
X14295786Y15200000D01*
D33*
%TO.N,Vtune2*%
X11800000Y8600000D02*
X11800000Y10015583D01*
X11095393Y10720190D02*
X11095393Y11344607D01*
X11800000Y10015583D02*
X11095393Y10720190D01*
%TD*%
%TA.AperFunction,Conductor*%
%TO.N,P{slash}L power*%
G36*
X30495814Y32428484D02*
G01*
X30563917Y32408421D01*
X30610362Y32354724D01*
X30621702Y32302530D01*
X30623119Y28446607D01*
X30603142Y28378479D01*
X30549503Y28331967D01*
X30497007Y28320561D01*
X27705462Y28323051D01*
X27637359Y28343114D01*
X27616479Y28359956D01*
X26816285Y29160150D01*
X26782259Y29222462D01*
X26779380Y29249245D01*
X26779380Y32270353D01*
X26777020Y32292074D01*
X26789547Y32361955D01*
X26837867Y32413971D01*
X26902395Y32431682D01*
X30495814Y32428484D01*
G37*
%TD.AperFunction*%
%TD*%
%TA.AperFunction,Conductor*%
%TO.N,GND*%
G36*
X34842121Y34979998D02*
G01*
X34888614Y34926342D01*
X34900000Y34874000D01*
X34900000Y5226000D01*
X34879998Y5157879D01*
X34826342Y5111386D01*
X34774000Y5100000D01*
X5226000Y5100000D01*
X5157879Y5120002D01*
X5111386Y5173658D01*
X5100000Y5226000D01*
X5100000Y6200000D01*
X6300000Y6200000D01*
X33700000Y6200000D01*
X33700000Y33800000D01*
X6300000Y33800000D01*
X6300000Y6200000D01*
X5100000Y6200000D01*
X5100000Y34874000D01*
X5120002Y34942121D01*
X5173658Y34988614D01*
X5226000Y35000000D01*
X34774000Y35000000D01*
X34842121Y34979998D01*
G37*
%TD.AperFunction*%
%TD*%
%TA.AperFunction,Conductor*%
%TO.N,GND*%
G36*
X32631313Y24647095D02*
G01*
X32682881Y24598297D01*
X32700000Y24534885D01*
X32700000Y21761466D01*
X32679998Y21693345D01*
X32626342Y21646852D01*
X32573964Y21635466D01*
X31590115Y21635748D01*
X28091461Y21636749D01*
X28023346Y21656771D01*
X27976868Y21710440D01*
X27966785Y21780716D01*
X27996296Y21845289D01*
X28052664Y21882615D01*
X28083468Y21892594D01*
X28089731Y21896394D01*
X28095273Y21898932D01*
X28100749Y21901674D01*
X28107634Y21904173D01*
X28169025Y21944422D01*
X28172693Y21946737D01*
X28235474Y21984834D01*
X28239679Y21988548D01*
X28239682Y21988550D01*
X28243898Y21992274D01*
X28243924Y21992245D01*
X28246855Y21994845D01*
X28250209Y21997649D01*
X28256328Y22001661D01*
X28309882Y22058194D01*
X28312259Y22060635D01*
X28750826Y22499202D01*
X28813138Y22533228D01*
X28839921Y22536107D01*
X29042465Y22536107D01*
X29045711Y22536444D01*
X29045715Y22536444D01*
X29139628Y22546188D01*
X29139632Y22546189D01*
X29146486Y22546900D01*
X29153022Y22549081D01*
X29153024Y22549081D01*
X29304552Y22599635D01*
X29311500Y22601953D01*
X29459424Y22693491D01*
X29464597Y22698673D01*
X29464602Y22698677D01*
X29486013Y22720125D01*
X29548295Y22754204D01*
X29575185Y22757107D01*
X29616217Y22757107D01*
X29682333Y22738367D01*
X29717973Y22716398D01*
X29883084Y22661633D01*
X29889920Y22660933D01*
X29889923Y22660932D01*
X29941419Y22655656D01*
X29985821Y22651107D01*
X30559965Y22651107D01*
X30563211Y22651444D01*
X30563215Y22651444D01*
X30657128Y22661188D01*
X30657132Y22661189D01*
X30663986Y22661900D01*
X30670522Y22664081D01*
X30670524Y22664081D01*
X30807707Y22709849D01*
X30829000Y22716953D01*
X30976924Y22808491D01*
X30993508Y22825104D01*
X31094651Y22926423D01*
X31094655Y22926428D01*
X31099822Y22931604D01*
X31103663Y22937835D01*
X31187262Y23073457D01*
X31187263Y23073459D01*
X31191102Y23079687D01*
X31245867Y23244798D01*
X31256393Y23347535D01*
X31256393Y23946679D01*
X31256056Y23949929D01*
X31246312Y24043842D01*
X31246311Y24043846D01*
X31245600Y24050700D01*
X31237582Y24074735D01*
X31192865Y24208766D01*
X31190547Y24215714D01*
X31107370Y24350127D01*
X31088533Y24418578D01*
X31109695Y24486348D01*
X31164136Y24531919D01*
X31234572Y24540822D01*
X31254176Y24536024D01*
X31403084Y24486633D01*
X31409920Y24485933D01*
X31409923Y24485932D01*
X31461419Y24480656D01*
X31505821Y24476107D01*
X32079965Y24476107D01*
X32083211Y24476444D01*
X32083215Y24476444D01*
X32177128Y24486188D01*
X32177132Y24486189D01*
X32183986Y24486900D01*
X32190522Y24489081D01*
X32190524Y24489081D01*
X32342052Y24539635D01*
X32349000Y24541953D01*
X32496924Y24633491D01*
X32497965Y24634534D01*
X32561549Y24660268D01*
X32631313Y24647095D01*
G37*
%TD.AperFunction*%
%TA.AperFunction,Conductor*%
G36*
X15401481Y32479998D02*
G01*
X15447974Y32426342D01*
X15458078Y32356068D01*
X15454186Y32340870D01*
X15454428Y32340812D01*
X15452601Y32333128D01*
X15449827Y32325728D01*
X15443072Y32263546D01*
X15443072Y28662078D01*
X15449827Y28599896D01*
X15500957Y28463507D01*
X15588311Y28346951D01*
X15704867Y28259597D01*
X15841256Y28208467D01*
X15903438Y28201712D01*
X17133269Y28201712D01*
X17201390Y28181710D01*
X17222364Y28164807D01*
X18198828Y27188343D01*
X18232854Y27126031D01*
X18234817Y27114406D01*
X18239084Y27079147D01*
X18298887Y26920885D01*
X18303188Y26914627D01*
X18381450Y26800755D01*
X18394714Y26781455D01*
X18400384Y26776404D01*
X18400385Y26776402D01*
X18515362Y26673961D01*
X18515365Y26673959D01*
X18521034Y26668908D01*
X18527747Y26665353D01*
X18527748Y26665353D01*
X18568517Y26643767D01*
X18670554Y26589741D01*
X18677919Y26587891D01*
X18827271Y26550376D01*
X18827275Y26550376D01*
X18834642Y26548525D01*
X18842241Y26548485D01*
X18842243Y26548485D01*
X18912585Y26548117D01*
X19003824Y26547639D01*
X19037092Y26555626D01*
X19160951Y26585362D01*
X19160955Y26585363D01*
X19168334Y26587135D01*
X19175080Y26590617D01*
X19175083Y26590618D01*
X19218904Y26613236D01*
X19288612Y26626705D01*
X19294491Y26625843D01*
X19298026Y26625495D01*
X19304094Y26624288D01*
X19321776Y26624288D01*
X19345385Y26622056D01*
X19399925Y26611652D01*
X19479568Y26616663D01*
X19551301Y26621176D01*
X19551303Y26621176D01*
X19559212Y26621674D01*
X19565014Y26623559D01*
X19570070Y26624289D01*
X19575699Y26624289D01*
X19583514Y26625843D01*
X19589606Y26627054D01*
X19589608Y26627055D01*
X19601779Y26629475D01*
X19612097Y26636369D01*
X19623569Y26641121D01*
X19623746Y26640693D01*
X19635920Y26646598D01*
X19703462Y26668544D01*
X19711002Y26670994D01*
X19717317Y26675002D01*
X19787272Y26685879D01*
X19852187Y26657127D01*
X19865204Y26644379D01*
X19872084Y26636590D01*
X20069895Y26438779D01*
X20082282Y26424366D01*
X20095251Y26406743D01*
X20116371Y26388800D01*
X20135760Y26372328D01*
X20143276Y26365398D01*
X20149020Y26359654D01*
X20151894Y26357380D01*
X20151901Y26357374D01*
X20171416Y26341935D01*
X20174820Y26339144D01*
X20225174Y26296365D01*
X20230756Y26291623D01*
X20237274Y26288295D01*
X20241881Y26285222D01*
X20287456Y26230784D01*
X20296365Y26160349D01*
X20265779Y26096278D01*
X20237342Y26072682D01*
X20197624Y26048580D01*
X20193419Y26044866D01*
X20193416Y26044864D01*
X20189200Y26041140D01*
X20189174Y26041169D01*
X20186243Y26038569D01*
X20182889Y26035765D01*
X20176770Y26031753D01*
X20123217Y25975221D01*
X20120839Y25972779D01*
X19928482Y25780422D01*
X19866170Y25746396D01*
X19847299Y25743766D01*
X19784902Y25739840D01*
X19770598Y25738940D01*
X19764692Y25737021D01*
X19759605Y25736287D01*
X19754097Y25736287D01*
X19745595Y25734596D01*
X19740190Y25733522D01*
X19740188Y25733521D01*
X19728017Y25731101D01*
X19717700Y25724207D01*
X19716633Y25723765D01*
X19646043Y25716178D01*
X19639022Y25717943D01*
X19636659Y25719055D01*
X19626865Y25720923D01*
X19609027Y25726257D01*
X19601779Y25731101D01*
X19575700Y25736288D01*
X19558232Y25736288D01*
X19534622Y25738520D01*
X19487669Y25747477D01*
X19487667Y25747477D01*
X19479883Y25748962D01*
X19413126Y25744762D01*
X19353476Y25741009D01*
X19285419Y25756425D01*
X19285342Y25756491D01*
X19280606Y25758909D01*
X19280600Y25758913D01*
X19227578Y25785987D01*
X19221592Y25789250D01*
X19171836Y25818151D01*
X19165509Y25821826D01*
X19156317Y25824610D01*
X19135542Y25832983D01*
X19133509Y25834021D01*
X19133508Y25834021D01*
X19126989Y25837350D01*
X19063988Y25852767D01*
X19057436Y25854558D01*
X18995339Y25873365D01*
X18985749Y25873960D01*
X18963611Y25877328D01*
X18954281Y25879611D01*
X18948679Y25879959D01*
X18948676Y25879959D01*
X18945002Y25880187D01*
X18944992Y25880187D01*
X18943063Y25880307D01*
X18887347Y25880307D01*
X18879545Y25880549D01*
X18817877Y25884375D01*
X18804793Y25882127D01*
X18783457Y25880307D01*
X18454789Y25880307D01*
X18386668Y25900309D01*
X18365771Y25917134D01*
X18307583Y25975221D01*
X18272907Y26009836D01*
X18261178Y26017066D01*
X18131054Y26097276D01*
X18131052Y26097277D01*
X18124824Y26101116D01*
X17959713Y26155881D01*
X17952877Y26156581D01*
X17952874Y26156582D01*
X17901378Y26161858D01*
X17856976Y26166407D01*
X17282832Y26166407D01*
X17279586Y26166070D01*
X17279582Y26166070D01*
X17185669Y26156326D01*
X17185665Y26156325D01*
X17178811Y26155614D01*
X17172275Y26153433D01*
X17172273Y26153433D01*
X17063853Y26117261D01*
X17013797Y26100561D01*
X16865873Y26009023D01*
X16860700Y26003841D01*
X16748146Y25891091D01*
X16748142Y25891086D01*
X16742975Y25885910D01*
X16739135Y25879680D01*
X16739134Y25879679D01*
X16658559Y25748962D01*
X16651695Y25737827D01*
X16596930Y25572716D01*
X16586404Y25469979D01*
X16586404Y24770835D01*
X16586741Y24767589D01*
X16586741Y24767585D01*
X16596143Y24676976D01*
X16597197Y24666814D01*
X16599378Y24660278D01*
X16599378Y24660276D01*
X16622765Y24590178D01*
X16652250Y24501800D01*
X16743788Y24353876D01*
X16748970Y24348703D01*
X16861720Y24236149D01*
X16861725Y24236145D01*
X16866901Y24230978D01*
X16873131Y24227138D01*
X16873132Y24227137D01*
X16990752Y24154635D01*
X17014984Y24139698D01*
X17180095Y24084933D01*
X17186931Y24084233D01*
X17186934Y24084232D01*
X17238430Y24078956D01*
X17282832Y24074407D01*
X17856976Y24074407D01*
X17860222Y24074744D01*
X17860226Y24074744D01*
X17954139Y24084488D01*
X17954143Y24084489D01*
X17960997Y24085200D01*
X17967533Y24087381D01*
X17967535Y24087381D01*
X18100299Y24131675D01*
X18126011Y24140253D01*
X18273935Y24231791D01*
X18347988Y24305974D01*
X18410270Y24340053D01*
X18481090Y24335050D01*
X18537963Y24292553D01*
X18562832Y24226055D01*
X18562167Y24201164D01*
X18558636Y24173213D01*
X18574694Y24009439D01*
X18626637Y23853292D01*
X18630286Y23847267D01*
X18694240Y23741668D01*
X18711884Y23712534D01*
X18826196Y23594160D01*
X18963894Y23504053D01*
X18970498Y23501597D01*
X19041125Y23475331D01*
X19098001Y23432838D01*
X19122875Y23366341D01*
X19123205Y23357233D01*
X19123205Y23235835D01*
X19123542Y23232589D01*
X19123542Y23232585D01*
X19126685Y23202298D01*
X19133998Y23131814D01*
X19136179Y23125278D01*
X19136179Y23125276D01*
X19171987Y23017948D01*
X19189051Y22966800D01*
X19280589Y22818876D01*
X19285771Y22813703D01*
X19398521Y22701149D01*
X19398526Y22701145D01*
X19403702Y22695978D01*
X19409932Y22692138D01*
X19409933Y22692137D01*
X19544897Y22608944D01*
X19551785Y22604698D01*
X19716896Y22549933D01*
X19723732Y22549233D01*
X19723735Y22549232D01*
X19775231Y22543956D01*
X19819633Y22539407D01*
X20518777Y22539407D01*
X20522023Y22539744D01*
X20522027Y22539744D01*
X20615940Y22549488D01*
X20615944Y22549489D01*
X20622798Y22550200D01*
X20629334Y22552381D01*
X20629336Y22552381D01*
X20777921Y22601953D01*
X20787812Y22605253D01*
X20850429Y22644002D01*
X20918880Y22662838D01*
X20986649Y22641676D01*
X21029552Y22591529D01*
X21029932Y22590385D01*
X21054947Y22549081D01*
X21110794Y22456868D01*
X21115179Y22449627D01*
X21229491Y22331253D01*
X21367189Y22241146D01*
X21521428Y22183785D01*
X21528409Y22182854D01*
X21528411Y22182853D01*
X21677561Y22162952D01*
X21677565Y22162952D01*
X21684542Y22162021D01*
X21691553Y22162659D01*
X21691557Y22162659D01*
X21841403Y22176296D01*
X21841404Y22176296D01*
X21848424Y22176935D01*
X21902803Y22194604D01*
X21998230Y22225610D01*
X21998233Y22225611D01*
X22004929Y22227787D01*
X22146279Y22312049D01*
X22265449Y22425532D01*
X22281458Y22449627D01*
X22352614Y22556725D01*
X22352615Y22556727D01*
X22356515Y22562597D01*
X22414951Y22716432D01*
X22415761Y22722196D01*
X22451828Y22782787D01*
X22458143Y22788207D01*
X22463935Y22791791D01*
X22497190Y22825104D01*
X22581662Y22909723D01*
X22581666Y22909728D01*
X22586833Y22914904D01*
X22590674Y22921135D01*
X22674273Y23056757D01*
X22674274Y23056759D01*
X22678113Y23062987D01*
X22732878Y23228098D01*
X22733921Y23238272D01*
X22743076Y23327636D01*
X22743404Y23330835D01*
X22743404Y23929979D01*
X22735288Y24008200D01*
X22733323Y24027142D01*
X22733322Y24027146D01*
X22732611Y24034000D01*
X22729328Y24043842D01*
X22684089Y24179438D01*
X22677558Y24199014D01*
X22594381Y24333427D01*
X22575544Y24401878D01*
X22596706Y24469648D01*
X22651147Y24515219D01*
X22721583Y24524122D01*
X22741187Y24519324D01*
X22890095Y24469933D01*
X22896931Y24469233D01*
X22896934Y24469232D01*
X22948430Y24463956D01*
X22992832Y24459407D01*
X23566976Y24459407D01*
X23570222Y24459744D01*
X23570226Y24459744D01*
X23664139Y24469488D01*
X23664143Y24469489D01*
X23670997Y24470200D01*
X23677533Y24472381D01*
X23677535Y24472381D01*
X23829063Y24522935D01*
X23836011Y24525253D01*
X23983935Y24616791D01*
X24033871Y24666814D01*
X24101662Y24734723D01*
X24101666Y24734728D01*
X24106833Y24739904D01*
X24125899Y24770835D01*
X24194273Y24881757D01*
X24194274Y24881759D01*
X24198113Y24887987D01*
X24252878Y25053098D01*
X24263404Y25155835D01*
X24263404Y25754979D01*
X24262851Y25760309D01*
X24253323Y25852142D01*
X24253322Y25852146D01*
X24252611Y25859000D01*
X24247982Y25872877D01*
X24199876Y26017066D01*
X24197558Y26024014D01*
X24106020Y26171938D01*
X24095160Y26182779D01*
X23988088Y26289665D01*
X23988083Y26289669D01*
X23982907Y26294836D01*
X23967192Y26304523D01*
X23841054Y26382276D01*
X23841052Y26382277D01*
X23834824Y26386116D01*
X23669713Y26440881D01*
X23662877Y26441581D01*
X23662874Y26441582D01*
X23611378Y26446858D01*
X23566976Y26451407D01*
X22992832Y26451407D01*
X22989582Y26451070D01*
X22986340Y26450902D01*
X22986287Y26451922D01*
X22920615Y26464011D01*
X22868824Y26512573D01*
X22851510Y26581426D01*
X22852978Y26593088D01*
X22852878Y26593098D01*
X22856605Y26629475D01*
X22863404Y26695835D01*
X22863404Y27269979D01*
X22860494Y27298029D01*
X22853323Y27367142D01*
X22853322Y27367146D01*
X22852611Y27374000D01*
X22849328Y27383842D01*
X22799876Y27532066D01*
X22797558Y27539014D01*
X22706020Y27686938D01*
X22668845Y27724048D01*
X22588088Y27804665D01*
X22588083Y27804669D01*
X22582907Y27809836D01*
X22499576Y27861202D01*
X22452083Y27913975D01*
X22440661Y27984047D01*
X22470437Y28050938D01*
X22505624Y28091577D01*
X22505624Y28091578D01*
X22511522Y28098389D01*
X22541823Y28164807D01*
X22570321Y28227273D01*
X22570323Y28227278D01*
X22572186Y28231362D01*
X22592162Y28299491D01*
X22612907Y28444165D01*
X22612874Y28532805D01*
X22613038Y28539275D01*
X22613077Y28540042D01*
X22613404Y28543235D01*
X22613404Y29117379D01*
X22613067Y29120621D01*
X22612899Y29123878D01*
X22613023Y29123884D01*
X22612648Y29131144D01*
X22612301Y30048593D01*
X22612958Y30061488D01*
X22613404Y30065835D01*
X22613404Y30639979D01*
X22612744Y30646343D01*
X22612072Y30659289D01*
X22611465Y32266943D01*
X22611461Y32277111D01*
X22606232Y32325728D01*
X22602489Y32360525D01*
X22615091Y32430394D01*
X22663467Y32482359D01*
X22727766Y32500000D01*
X23847096Y32500000D01*
X23915217Y32479998D01*
X23961710Y32426342D01*
X23971814Y32356068D01*
X23969678Y32344852D01*
X23968508Y32339933D01*
X23965735Y32332535D01*
X23958980Y32270353D01*
X23958980Y28668885D01*
X23965735Y28606703D01*
X24016865Y28470314D01*
X24104219Y28353758D01*
X24220775Y28266404D01*
X24357164Y28215274D01*
X24419346Y28208519D01*
X25738655Y28208519D01*
X25806776Y28188517D01*
X25827751Y28171614D01*
X26701335Y27298029D01*
X26735360Y27235717D01*
X26736958Y27223936D01*
X26737331Y27223981D01*
X26752522Y27098447D01*
X26812325Y26940185D01*
X26816626Y26933927D01*
X26896125Y26818255D01*
X26908152Y26800755D01*
X26913822Y26795704D01*
X26913823Y26795702D01*
X27028800Y26693261D01*
X27028803Y26693259D01*
X27034472Y26688208D01*
X27041185Y26684653D01*
X27041186Y26684653D01*
X27083400Y26662302D01*
X27183992Y26609041D01*
X27191357Y26607191D01*
X27340709Y26569676D01*
X27340713Y26569676D01*
X27348080Y26567825D01*
X27355679Y26567785D01*
X27355681Y26567785D01*
X27426023Y26567417D01*
X27517262Y26566939D01*
X27528662Y26569676D01*
X27674389Y26604662D01*
X27674393Y26604663D01*
X27681772Y26606435D01*
X27732354Y26632542D01*
X27802060Y26646011D01*
X27807953Y26645147D01*
X27811477Y26644800D01*
X27817550Y26643592D01*
X27835193Y26643592D01*
X27858802Y26641360D01*
X27913363Y26630952D01*
X28072650Y26640974D01*
X28078463Y26642863D01*
X28083521Y26643593D01*
X28089155Y26643593D01*
X28095229Y26644801D01*
X28095231Y26644801D01*
X28103060Y26646358D01*
X28115235Y26648779D01*
X28125556Y26655676D01*
X28137024Y26660426D01*
X28137201Y26659998D01*
X28149382Y26665906D01*
X28216898Y26687843D01*
X28216901Y26687844D01*
X28224440Y26690294D01*
X28294799Y26734945D01*
X28363033Y26754558D01*
X28431038Y26734167D01*
X28443892Y26724585D01*
X28480778Y26693248D01*
X28488294Y26686318D01*
X28716533Y26458079D01*
X28728920Y26443666D01*
X28741889Y26426043D01*
X28757663Y26412642D01*
X28782398Y26391628D01*
X28789914Y26384698D01*
X28795658Y26378954D01*
X28798532Y26376680D01*
X28798539Y26376674D01*
X28818054Y26361235D01*
X28821458Y26358444D01*
X28871813Y26315664D01*
X28871816Y26315662D01*
X28877394Y26310923D01*
X28883913Y26307594D01*
X28888518Y26304523D01*
X28934094Y26250086D01*
X28943004Y26179651D01*
X28912420Y26115580D01*
X28883981Y26091982D01*
X28844263Y26067880D01*
X28835838Y26060440D01*
X28835813Y26060469D01*
X28832887Y26057873D01*
X28829533Y26055068D01*
X28823408Y26051053D01*
X28818373Y26045738D01*
X28818372Y26045737D01*
X28769855Y25994521D01*
X28767477Y25992079D01*
X28574760Y25799362D01*
X28512448Y25765336D01*
X28462058Y25764688D01*
X28443323Y25768262D01*
X28371511Y25763744D01*
X28291946Y25758738D01*
X28291944Y25758738D01*
X28284036Y25758240D01*
X28278137Y25756323D01*
X28273063Y25755591D01*
X28267553Y25755591D01*
X28241473Y25750405D01*
X28231149Y25743507D01*
X28230078Y25743063D01*
X28159488Y25735475D01*
X28152463Y25737242D01*
X28150097Y25738355D01*
X28140349Y25740215D01*
X28122494Y25745554D01*
X28115235Y25750405D01*
X28103060Y25752827D01*
X28103059Y25752827D01*
X28100489Y25753338D01*
X28089156Y25755592D01*
X28071649Y25755592D01*
X28048039Y25757824D01*
X28001107Y25766777D01*
X28001105Y25766777D01*
X27993321Y25768262D01*
X27936517Y25764688D01*
X27866914Y25760309D01*
X27798857Y25775725D01*
X27798780Y25775791D01*
X27794044Y25778209D01*
X27794038Y25778213D01*
X27741016Y25805287D01*
X27735030Y25808550D01*
X27685274Y25837451D01*
X27678947Y25841126D01*
X27669755Y25843910D01*
X27648980Y25852283D01*
X27646947Y25853321D01*
X27646946Y25853321D01*
X27640427Y25856650D01*
X27577426Y25872067D01*
X27570874Y25873858D01*
X27508777Y25892665D01*
X27499187Y25893260D01*
X27477049Y25896628D01*
X27467719Y25898911D01*
X27462117Y25899259D01*
X27462114Y25899259D01*
X27458440Y25899487D01*
X27458430Y25899487D01*
X27456501Y25899607D01*
X27400785Y25899607D01*
X27392983Y25899849D01*
X27331315Y25903675D01*
X27318231Y25901427D01*
X27296895Y25899607D01*
X26965174Y25899607D01*
X26897053Y25919609D01*
X26876157Y25936434D01*
X26791081Y26021361D01*
X26791076Y26021365D01*
X26785896Y26026536D01*
X26777577Y26031664D01*
X26644043Y26113976D01*
X26644041Y26113977D01*
X26637813Y26117816D01*
X26472702Y26172581D01*
X26465866Y26173281D01*
X26465863Y26173282D01*
X26414367Y26178558D01*
X26369965Y26183107D01*
X25795821Y26183107D01*
X25792575Y26182770D01*
X25792571Y26182770D01*
X25698658Y26173026D01*
X25698654Y26173025D01*
X25691800Y26172314D01*
X25685264Y26170133D01*
X25685262Y26170133D01*
X25597401Y26140820D01*
X25526786Y26117261D01*
X25378862Y26025723D01*
X25373689Y26020541D01*
X25261135Y25907791D01*
X25261131Y25907786D01*
X25255964Y25902610D01*
X25252124Y25896380D01*
X25252123Y25896379D01*
X25171190Y25765081D01*
X25164684Y25754527D01*
X25109919Y25589416D01*
X25109219Y25582580D01*
X25109218Y25582577D01*
X25108208Y25572716D01*
X25099393Y25486679D01*
X25099393Y24787535D01*
X25099730Y24784289D01*
X25099730Y24784285D01*
X25107550Y24708923D01*
X25110186Y24683514D01*
X25112367Y24676978D01*
X25112367Y24676976D01*
X25132718Y24615978D01*
X25165239Y24518500D01*
X25256777Y24370576D01*
X25261959Y24365403D01*
X25374709Y24252849D01*
X25374714Y24252845D01*
X25379890Y24247678D01*
X25386120Y24243838D01*
X25386121Y24243837D01*
X25500693Y24173214D01*
X25527973Y24156398D01*
X25693084Y24101633D01*
X25699920Y24100933D01*
X25699923Y24100932D01*
X25751419Y24095656D01*
X25795821Y24091107D01*
X26369965Y24091107D01*
X26373211Y24091444D01*
X26373215Y24091444D01*
X26467128Y24101188D01*
X26467132Y24101189D01*
X26473986Y24101900D01*
X26480522Y24104081D01*
X26480524Y24104081D01*
X26613288Y24148375D01*
X26639000Y24156953D01*
X26786924Y24248491D01*
X26792097Y24253673D01*
X26792102Y24253677D01*
X26875902Y24337624D01*
X26938184Y24371704D01*
X26965075Y24374607D01*
X26972738Y24374607D01*
X27040859Y24354605D01*
X27087352Y24300949D01*
X27097744Y24232815D01*
X27092324Y24189913D01*
X27108382Y24026139D01*
X27160325Y23869992D01*
X27163974Y23863967D01*
X27238042Y23741668D01*
X27245572Y23729234D01*
X27250463Y23724169D01*
X27250464Y23724168D01*
X27261699Y23712534D01*
X27359884Y23610860D01*
X27400109Y23584537D01*
X27446155Y23530502D01*
X27455679Y23460147D01*
X27425655Y23395812D01*
X27365614Y23357922D01*
X27331114Y23353107D01*
X25586716Y23353107D01*
X25561057Y23355747D01*
X25525407Y23363162D01*
X25525408Y23363162D01*
X25518244Y23364652D01*
X25340505Y23359842D01*
X25168640Y23314273D01*
X25162183Y23310818D01*
X25018328Y23233846D01*
X25018325Y23233844D01*
X25011868Y23230389D01*
X25006380Y23225542D01*
X25006377Y23225540D01*
X24958065Y23182872D01*
X24878598Y23112689D01*
X24843472Y23062987D01*
X24780205Y22973467D01*
X24780203Y22973464D01*
X24775980Y22967488D01*
X24709518Y22802573D01*
X24706508Y22782787D01*
X24688009Y22661188D01*
X24682776Y22626792D01*
X24683369Y22619501D01*
X24683369Y22619498D01*
X24686227Y22584362D01*
X24697191Y22449574D01*
X24699445Y22442615D01*
X24699446Y22442612D01*
X24740170Y22316904D01*
X24751987Y22280425D01*
X24783134Y22229096D01*
X24786307Y22222908D01*
X24789685Y22216986D01*
X24792552Y22210248D01*
X24796891Y22204353D01*
X24796891Y22204352D01*
X24800740Y22199122D01*
X24806975Y22189809D01*
X24844227Y22128419D01*
X24851667Y22119995D01*
X24872583Y22099079D01*
X24884970Y22084666D01*
X24897939Y22067043D01*
X24903522Y22062300D01*
X24938448Y22032628D01*
X24945964Y22025698D01*
X24951708Y22019954D01*
X24954582Y22017680D01*
X24954589Y22017674D01*
X24974104Y22002235D01*
X24977508Y21999444D01*
X25027865Y21956662D01*
X25027869Y21956659D01*
X25033444Y21951923D01*
X25039961Y21948595D01*
X25045025Y21945218D01*
X25050249Y21941991D01*
X25055993Y21937447D01*
X25122497Y21906365D01*
X25126394Y21904460D01*
X25169172Y21882617D01*
X25182495Y21875814D01*
X25234068Y21827020D01*
X25251074Y21758090D01*
X25228114Y21690909D01*
X25172477Y21646805D01*
X25125161Y21637598D01*
X12919401Y21641090D01*
X12851287Y21661112D01*
X12830343Y21677995D01*
X12372298Y22136040D01*
X12338272Y22198352D01*
X12335393Y22225135D01*
X12335393Y22598676D01*
X12355395Y22666797D01*
X12395090Y22705820D01*
X12445702Y22737139D01*
X12445712Y22737147D01*
X12451924Y22740991D01*
X12454376Y22743447D01*
X12518723Y22769492D01*
X12588487Y22756321D01*
X12597292Y22751369D01*
X12697440Y22689637D01*
X12722973Y22673898D01*
X12888084Y22619133D01*
X12894920Y22618433D01*
X12894923Y22618432D01*
X12946419Y22613156D01*
X12990821Y22608607D01*
X13564965Y22608607D01*
X13568211Y22608944D01*
X13568215Y22608944D01*
X13662128Y22618688D01*
X13662132Y22618689D01*
X13668986Y22619400D01*
X13675522Y22621581D01*
X13675524Y22621581D01*
X13817296Y22668880D01*
X13834000Y22674453D01*
X13981924Y22765991D01*
X13998691Y22782787D01*
X14099651Y22883923D01*
X14099655Y22883928D01*
X14104822Y22889104D01*
X14117532Y22909723D01*
X14192262Y23030957D01*
X14192263Y23030959D01*
X14196102Y23037187D01*
X14250867Y23202298D01*
X14253511Y23228098D01*
X14258499Y23276785D01*
X14261393Y23305035D01*
X14261393Y23904179D01*
X14257322Y23943413D01*
X14251312Y24001342D01*
X14251311Y24001346D01*
X14250600Y24008200D01*
X14246846Y24019454D01*
X14197865Y24166266D01*
X14195547Y24173214D01*
X14112370Y24307627D01*
X14093533Y24376078D01*
X14114695Y24443848D01*
X14169136Y24489419D01*
X14239572Y24498322D01*
X14259176Y24493524D01*
X14408084Y24444133D01*
X14414920Y24443433D01*
X14414923Y24443432D01*
X14466419Y24438156D01*
X14510821Y24433607D01*
X15084965Y24433607D01*
X15088211Y24433944D01*
X15088215Y24433944D01*
X15182128Y24443688D01*
X15182132Y24443689D01*
X15188986Y24444400D01*
X15195522Y24446581D01*
X15195524Y24446581D01*
X15347052Y24497135D01*
X15354000Y24499453D01*
X15501924Y24590991D01*
X15509217Y24598297D01*
X15619651Y24708923D01*
X15619655Y24708928D01*
X15624822Y24714104D01*
X15637532Y24734723D01*
X15712262Y24855957D01*
X15712263Y24855959D01*
X15716102Y24862187D01*
X15770867Y25027298D01*
X15773511Y25053098D01*
X15781065Y25126836D01*
X15781393Y25130035D01*
X15781393Y25729179D01*
X15781056Y25732429D01*
X15771312Y25826342D01*
X15771311Y25826346D01*
X15770600Y25833200D01*
X15767249Y25843246D01*
X15717865Y25991266D01*
X15715547Y25998214D01*
X15624009Y26146138D01*
X15616418Y26153716D01*
X15506077Y26263865D01*
X15506072Y26263869D01*
X15500896Y26269036D01*
X15485668Y26278423D01*
X15359043Y26356476D01*
X15359041Y26356477D01*
X15352813Y26360316D01*
X15187702Y26415081D01*
X15180866Y26415781D01*
X15180863Y26415782D01*
X15127003Y26421300D01*
X15084965Y26425607D01*
X14510821Y26425607D01*
X14507571Y26425270D01*
X14504329Y26425102D01*
X14504276Y26426122D01*
X14438604Y26438211D01*
X14386813Y26486773D01*
X14369499Y26555626D01*
X14370967Y26567288D01*
X14370867Y26567298D01*
X14373510Y26593098D01*
X14381393Y26670035D01*
X14381393Y27244179D01*
X14377322Y27283413D01*
X14371312Y27341342D01*
X14371311Y27341346D01*
X14370600Y27348200D01*
X14364281Y27367142D01*
X14317865Y27506266D01*
X14315547Y27513214D01*
X14224009Y27661138D01*
X14160989Y27724048D01*
X14106077Y27778865D01*
X14106072Y27778869D01*
X14100896Y27784036D01*
X14065066Y27806122D01*
X14022916Y27832104D01*
X13975422Y27884877D01*
X13963999Y27954948D01*
X13993789Y28021855D01*
X14034986Y28069420D01*
X14034986Y28069421D01*
X14040885Y28076231D01*
X14050999Y28098389D01*
X14099700Y28205092D01*
X14099701Y28205095D01*
X14101572Y28209194D01*
X14109546Y28236371D01*
X14120292Y28273001D01*
X14121559Y28277319D01*
X14142327Y28421995D01*
X14142170Y29124643D01*
X14141459Y32305470D01*
X14141459Y32305475D01*
X14141458Y32308841D01*
X14135904Y32360546D01*
X14148518Y32430412D01*
X14196902Y32482369D01*
X14261184Y32500000D01*
X15333360Y32500000D01*
X15401481Y32479998D01*
G37*
%TD.AperFunction*%
%TA.AperFunction,Conductor*%
G36*
X7355146Y28246035D02*
G01*
X7357267Y28245531D01*
X7364666Y28242757D01*
X7426848Y28236002D01*
X8746173Y28236002D01*
X8814294Y28216000D01*
X8835268Y28199097D01*
X9705531Y27328834D01*
X9739557Y27266522D01*
X9742207Y27247326D01*
X9742331Y27245271D01*
X9742331Y27241481D01*
X9757522Y27115947D01*
X9817325Y26957685D01*
X9913152Y26818255D01*
X9918822Y26813204D01*
X9918823Y26813202D01*
X10033800Y26710761D01*
X10033803Y26710759D01*
X10039472Y26705708D01*
X10046185Y26702153D01*
X10046186Y26702153D01*
X10091796Y26678004D01*
X10188992Y26626541D01*
X10196357Y26624691D01*
X10345709Y26587176D01*
X10345713Y26587176D01*
X10353080Y26585325D01*
X10360679Y26585285D01*
X10360681Y26585285D01*
X10431023Y26584917D01*
X10522262Y26584439D01*
X10529643Y26586211D01*
X10679389Y26622162D01*
X10679393Y26622163D01*
X10686772Y26623935D01*
X10701332Y26631450D01*
X10737349Y26650039D01*
X10807056Y26663508D01*
X10812912Y26662650D01*
X10816451Y26662301D01*
X10822526Y26661093D01*
X10840187Y26661093D01*
X10863797Y26658861D01*
X10910577Y26649937D01*
X10910579Y26649937D01*
X10918363Y26648452D01*
X11077650Y26658474D01*
X11083472Y26660366D01*
X11088516Y26661094D01*
X11094131Y26661094D01*
X11100205Y26662302D01*
X11100207Y26662302D01*
X11102940Y26662846D01*
X11120211Y26666280D01*
X11130534Y26673178D01*
X11142000Y26677927D01*
X11142179Y26677495D01*
X11154332Y26683390D01*
X11161993Y26685879D01*
X11229440Y26707794D01*
X11235757Y26711803D01*
X11305713Y26722678D01*
X11370626Y26693925D01*
X11383642Y26681179D01*
X11390522Y26673390D01*
X11638333Y26425579D01*
X11650720Y26411166D01*
X11663689Y26393543D01*
X11669272Y26388800D01*
X11704198Y26359128D01*
X11711714Y26352198D01*
X11717458Y26346454D01*
X11720332Y26344180D01*
X11720339Y26344174D01*
X11739854Y26328735D01*
X11743258Y26325944D01*
X11776411Y26297778D01*
X11815375Y26238429D01*
X11816067Y26167436D01*
X11778268Y26107339D01*
X11763916Y26096382D01*
X11732511Y26075792D01*
X11728843Y26073477D01*
X11666062Y26035380D01*
X11661857Y26031666D01*
X11661854Y26031664D01*
X11657638Y26027940D01*
X11657612Y26027969D01*
X11654681Y26025369D01*
X11651327Y26022565D01*
X11645208Y26018553D01*
X11640176Y26013241D01*
X11591655Y25962021D01*
X11589277Y25959579D01*
X11446920Y25817222D01*
X11384608Y25783196D01*
X11365737Y25780566D01*
X11296950Y25776238D01*
X11289036Y25775740D01*
X11283145Y25773826D01*
X11278056Y25773092D01*
X11272529Y25773092D01*
X11246449Y25767906D01*
X11236129Y25761010D01*
X11235062Y25760568D01*
X11164472Y25752981D01*
X11157455Y25754745D01*
X11155097Y25755855D01*
X11145306Y25757723D01*
X11127466Y25763058D01*
X11120211Y25767906D01*
X11108036Y25770328D01*
X11108035Y25770328D01*
X11105465Y25770839D01*
X11094132Y25773093D01*
X11076643Y25773093D01*
X11053033Y25775325D01*
X11050591Y25775791D01*
X11025559Y25780566D01*
X11006106Y25784277D01*
X11006105Y25784277D01*
X10998321Y25785762D01*
X10865213Y25777387D01*
X10800000Y25790921D01*
X10783470Y25799362D01*
X10715594Y25834021D01*
X10651943Y25866523D01*
X10651941Y25866524D01*
X10645427Y25869850D01*
X10638322Y25871589D01*
X10638318Y25871590D01*
X10524309Y25899487D01*
X10472719Y25912111D01*
X10467117Y25912459D01*
X10467114Y25912459D01*
X10463440Y25912687D01*
X10463430Y25912687D01*
X10461501Y25912807D01*
X9984499Y25912807D01*
X9916378Y25932809D01*
X9895482Y25949634D01*
X9796081Y26048861D01*
X9796076Y26048865D01*
X9790896Y26054036D01*
X9780460Y26060469D01*
X9649043Y26141476D01*
X9649041Y26141477D01*
X9642813Y26145316D01*
X9477702Y26200081D01*
X9470866Y26200781D01*
X9470863Y26200782D01*
X9415382Y26206466D01*
X9374965Y26210607D01*
X8800821Y26210607D01*
X8797575Y26210270D01*
X8797571Y26210270D01*
X8703658Y26200526D01*
X8703654Y26200525D01*
X8696800Y26199814D01*
X8690264Y26197633D01*
X8690262Y26197633D01*
X8565117Y26155881D01*
X8531786Y26144761D01*
X8383862Y26053223D01*
X8378689Y26048041D01*
X8266135Y25935291D01*
X8266131Y25935286D01*
X8260964Y25930110D01*
X8257124Y25923880D01*
X8257123Y25923879D01*
X8173977Y25788991D01*
X8169684Y25782027D01*
X8114919Y25616916D01*
X8104393Y25514179D01*
X8104393Y24815035D01*
X8104730Y24811789D01*
X8104730Y24811785D01*
X8114219Y24720335D01*
X8115186Y24711014D01*
X8117367Y24704478D01*
X8117367Y24704476D01*
X8147907Y24612937D01*
X8170239Y24546000D01*
X8261777Y24398076D01*
X8266959Y24392903D01*
X8379709Y24280349D01*
X8379714Y24280345D01*
X8384890Y24275178D01*
X8391120Y24271338D01*
X8391121Y24271337D01*
X8494825Y24207413D01*
X8532973Y24183898D01*
X8698084Y24129133D01*
X8704920Y24128433D01*
X8704923Y24128432D01*
X8756419Y24123156D01*
X8800821Y24118607D01*
X9374965Y24118607D01*
X9378211Y24118944D01*
X9378215Y24118944D01*
X9472128Y24128688D01*
X9472132Y24128689D01*
X9478986Y24129400D01*
X9485522Y24131581D01*
X9485524Y24131581D01*
X9631273Y24180207D01*
X9644000Y24184453D01*
X9791924Y24275991D01*
X9865362Y24349557D01*
X9927643Y24383636D01*
X9998463Y24378633D01*
X10055336Y24336136D01*
X10080205Y24269638D01*
X10079541Y24244752D01*
X10074824Y24207413D01*
X10090882Y24043639D01*
X10142825Y23887492D01*
X10228072Y23746734D01*
X10342384Y23628360D01*
X10480082Y23538253D01*
X10486686Y23535797D01*
X10557313Y23509531D01*
X10614189Y23467038D01*
X10639063Y23400541D01*
X10639393Y23391433D01*
X10639393Y23280035D01*
X10639730Y23276789D01*
X10639730Y23276785D01*
X10647459Y23202298D01*
X10650186Y23176014D01*
X10652367Y23169478D01*
X10652367Y23169476D01*
X10669695Y23117538D01*
X10705239Y23011000D01*
X10780671Y22889104D01*
X10791537Y22871544D01*
X10810393Y22805241D01*
X10810393Y22015347D01*
X10790391Y21947226D01*
X10736735Y21900733D01*
X10666461Y21890629D01*
X10601881Y21920123D01*
X10595374Y21926175D01*
X10593576Y21927970D01*
X10588396Y21933141D01*
X10582165Y21936982D01*
X10446543Y22020581D01*
X10446541Y22020582D01*
X10440313Y22024421D01*
X10275202Y22079186D01*
X10268366Y22079886D01*
X10268363Y22079887D01*
X10216867Y22085163D01*
X10172465Y22089712D01*
X9473321Y22089712D01*
X9470075Y22089375D01*
X9470071Y22089375D01*
X9376158Y22079631D01*
X9376154Y22079630D01*
X9369300Y22078919D01*
X9362764Y22076738D01*
X9362762Y22076738D01*
X9230549Y22032628D01*
X9204286Y22023866D01*
X9056362Y21932328D01*
X9051189Y21927146D01*
X8938635Y21814396D01*
X8938631Y21814391D01*
X8933464Y21809215D01*
X8929624Y21802985D01*
X8929623Y21802984D01*
X8867477Y21702165D01*
X8814704Y21654672D01*
X8760181Y21642281D01*
X7325964Y21642691D01*
X7257849Y21662713D01*
X7211371Y21716381D01*
X7200000Y21768691D01*
X7200000Y28123452D01*
X7220002Y28191573D01*
X7273658Y28238066D01*
X7343932Y28248170D01*
X7355146Y28246035D01*
G37*
%TD.AperFunction*%
%TA.AperFunction,Conductor*%
G36*
X32642121Y32479998D02*
G01*
X32688614Y32426342D01*
X32700000Y32374000D01*
X32700000Y26409328D01*
X32679998Y26341207D01*
X32626342Y26294714D01*
X32556068Y26284610D01*
X32497801Y26309634D01*
X32495896Y26311536D01*
X32417491Y26359866D01*
X32354043Y26398976D01*
X32354041Y26398977D01*
X32347813Y26402816D01*
X32182702Y26457581D01*
X32175866Y26458281D01*
X32175863Y26458282D01*
X32119943Y26464011D01*
X32079965Y26468107D01*
X31505821Y26468107D01*
X31502571Y26467770D01*
X31499329Y26467602D01*
X31499276Y26468622D01*
X31433604Y26480711D01*
X31381813Y26529273D01*
X31364499Y26598126D01*
X31365967Y26609788D01*
X31365867Y26609798D01*
X31367883Y26629475D01*
X31376393Y26712535D01*
X31376393Y27286679D01*
X31376056Y27289929D01*
X31366312Y27383842D01*
X31366311Y27383846D01*
X31365600Y27390700D01*
X31310547Y27555714D01*
X31219009Y27703638D01*
X31198563Y27724048D01*
X31101077Y27821365D01*
X31101072Y27821369D01*
X31095896Y27826536D01*
X31027495Y27868699D01*
X30980002Y27921471D01*
X30968578Y27991543D01*
X30998356Y28058435D01*
X31035228Y28101019D01*
X31064331Y28164807D01*
X31094029Y28229899D01*
X31094031Y28229905D01*
X31095895Y28233990D01*
X31102480Y28256445D01*
X31114607Y28297803D01*
X31114608Y28297807D01*
X31115872Y28302118D01*
X31136619Y28446796D01*
X31135202Y32302719D01*
X31128984Y32360525D01*
X31141585Y32430393D01*
X31189961Y32482358D01*
X31254261Y32500000D01*
X32574000Y32500000D01*
X32642121Y32479998D01*
G37*
%TD.AperFunction*%
%TD*%
%TA.AperFunction,Conductor*%
%TO.N,P{slash}L power*%
G36*
X13502091Y32434698D02*
G01*
X13570190Y32414624D01*
X13616627Y32360920D01*
X13627958Y32308726D01*
X13628827Y28421880D01*
X13608840Y28353755D01*
X13555195Y28307250D01*
X13502694Y28295852D01*
X12987880Y28296395D01*
X10764752Y28298740D01*
X10696652Y28318814D01*
X10675790Y28335645D01*
X9823787Y29187648D01*
X9789761Y29249960D01*
X9786882Y29276743D01*
X9786882Y32297836D01*
X9786513Y32301233D01*
X9786329Y32304630D01*
X9787815Y32304710D01*
X9799304Y32368763D01*
X9847630Y32420773D01*
X9912166Y32438476D01*
X13502091Y32434698D01*
G37*
%TD.AperFunction*%
%TD*%
%TA.AperFunction,Conductor*%
%TO.N,P{slash}L power*%
G36*
X19803876Y32404860D02*
G01*
X21972079Y32402869D01*
X22040179Y32382804D01*
X22086623Y32329106D01*
X22097961Y32276917D01*
X22099407Y28443971D01*
X22079431Y28375842D01*
X22025793Y28329329D01*
X21973292Y28317923D01*
X19095742Y28320571D01*
X19027642Y28340636D01*
X19006765Y28357476D01*
X18300377Y29063864D01*
X18266351Y29126176D01*
X18263472Y29152959D01*
X18263472Y32263546D01*
X18263103Y32266943D01*
X18262919Y32270340D01*
X18263829Y32270389D01*
X18275682Y32336450D01*
X18324011Y32388459D01*
X18388525Y32406159D01*
X19803876Y32404860D01*
G37*
%TD.AperFunction*%
%TD*%
M02*
