M48
; DRILL file {KiCad (6.0.6)} date Wed Jul 20 12:03:02 2022
; FORMAT={2:4/ absolute / inch / keep zeros}
; #@! TF.CreationDate,2022-07-20T12:03:02+02:00
; #@! TF.GenerationSoftware,Kicad,Pcbnew,(6.0.6)
; #@! TF.FileFunction,MixedPlating,1,4
FMAT,2
INCH
; #@! TA.AperFunction,Plated,PTH,ViaDrill
T1C0.0079
; #@! TA.AperFunction,Plated,PTH,ComponentDrill
T2C0.0394
; #@! TA.AperFunction,Plated,PTH,ComponentDrill
T3C0.1378
%
G90
G05
T1
X002244Y013543
X002244Y013007
X002244Y012471
X002244Y011935
X002244Y010326
X002244Y009790
X002244Y009254
X002244Y008718
X002244Y008181
X002244Y007645
X002244Y006573
X002244Y006037
X002244Y005501
X002244Y004964
X002244Y004428
X002244Y003892
X002244Y003356
X002244Y002820
X002244Y002244
X002780Y013543
X002780Y002244
X002874Y008307
X003047Y003140
X003130Y006043
X003143Y009334
X003143Y008790
X003150Y006890
X003268Y007815
X003316Y013543
X003316Y002244
X003374Y003136
X003484Y007323
X003578Y010977
X003583Y008780
X003853Y013543
X003853Y002244
X003858Y007008
X004114Y010315
X004232Y003268
X004257Y009526
X004370Y010315
X004389Y013543
X004389Y002244
X004584Y010315
X004626Y006339
X004646Y003386
X004827Y004069
X004925Y013543
X004978Y012606
X004978Y012377
X005110Y004466
X005206Y012610
X005206Y012381
X005236Y008740
X005256Y002874
X005461Y013543
X005461Y002244
X005830Y012334
X005933Y003147
X005997Y013543
X005997Y002244
X006102Y006738
X006102Y006378
X006102Y005984
X006383Y009314
X006395Y010652
X006395Y010381
X006395Y010109
X006476Y003110
X006534Y013543
X006917Y010916
X007008Y007441
X007047Y004707
X007070Y013543
X007070Y002244
X007087Y004094
X007362Y007441
X007381Y006850
X007480Y010315
X007597Y009513
X007606Y013543
X007618Y003129
X007736Y010315
X007950Y010315
X007992Y003130
X008052Y006573
X008142Y013543
X008312Y003755
X008327Y003130
X008334Y012596
X008334Y012366
X008479Y004480
X008493Y006219
X008543Y009016
X008563Y012600
X008563Y012370
X008678Y013543
X008678Y002244
X008937Y008110
X009163Y012374
X009214Y013543
X009409Y002854
X009685Y002854
X009710Y009587
X009710Y009315
X009718Y010656
X009718Y010385
X009718Y010113
X009751Y013543
X009751Y002244
X009961Y008110
X009961Y007717
X009961Y007402
X010020Y008898
X010099Y006165
X010248Y004090
X010268Y010960
X010287Y013543
X010287Y002244
X010394Y005006
X010492Y003346
X010498Y006512
X010807Y010315
X010823Y013543
X010823Y002244
X010957Y009520
X011004Y007480
X011063Y010315
X011083Y007149
X011099Y003126
X011122Y006791
X011277Y010315
X011347Y003831
X011359Y013543
X011691Y012598
X011691Y012369
X011705Y004488
X011705Y003106
X011713Y007472
X011895Y013543
X011895Y002244
X011919Y012602
X011919Y012373
X012004Y008169
X012008Y008720
X012432Y013543
X012432Y002244
X012434Y012585
X012511Y012352
X012598Y008720
X012598Y003150
X012741Y012585
X012953Y008091
X012968Y013543
X013504Y013543
X013504Y012968
X013504Y012432
X013504Y011895
X013504Y011359
X013504Y010823
X013504Y010287
X013504Y009751
X013504Y008678
X013504Y007606
X013504Y007070
X013504Y006534
X013504Y005461
X013504Y004925
X013504Y004389
X013504Y003853
X013504Y003316
X013504Y002780
X013504Y002244
T2
X001378Y012402
X001378Y011402
X001378Y010402
X003374Y001378
X003425Y014370
X004374Y001378
X004425Y014370
X005374Y001378
X005425Y014370
X006374Y001378
X006425Y014370
X007374Y001378
X007425Y014370
X008374Y001378
X008425Y014370
X009374Y001378
X009425Y014370
X010374Y001378
X010425Y014370
X011374Y001378
X011425Y014370
X012374Y001378
X012425Y014370
X014370Y009370
X014370Y008370
X014370Y007370
T3
X001378Y014370
X001378Y001378
X014370Y014370
X014370Y001378
T0
M30
