M48
; DRILL file {KiCad (6.0.1)} date Tue Apr 19 10:31:09 2022
; FORMAT={2:4/ absolute / inch / keep zeros}
; #@! TF.CreationDate,2022-04-19T10:31:09+02:00
; #@! TF.GenerationSoftware,Kicad,Pcbnew,(6.0.1)
; #@! TF.FileFunction,MixedPlating,1,2
FMAT,2
INCH
; #@! TA.AperFunction,Plated,PTH,ViaDrill
T1C0.0157
; #@! TA.AperFunction,Plated,PTH,ComponentDrill
T2C0.0315
%
G90
G05
T1
X043701Y-016929
X043701Y-018110
X043701Y-022244
X043701Y-023425
X043701Y-027559
X043701Y-028346
X043701Y-029134
X043701Y-029921
X043701Y-030709
X043701Y-031496
X043701Y-032283
X043701Y-033071
X043701Y-033858
X043701Y-034646
X043701Y-035433
X043701Y-036220
X043701Y-037008
X043701Y-037795
X043701Y-038583
X043701Y-040551
X043701Y-041339
X043701Y-042126
X043701Y-042913
X043701Y-043701
X043701Y-044488
X043701Y-045276
X043701Y-045276
X043701Y-046850
X043701Y-046850
X043701Y-047638
X043701Y-048425
X043701Y-049213
X043701Y-050000
X043701Y-050787
X043701Y-051575
X044087Y-058504
X044094Y-033858
X044094Y-036220
X044094Y-059843
X044291Y-037992
X044488Y-016929
X044488Y-018110
X044488Y-022244
X044488Y-023425
X044488Y-027559
X044488Y-038583
X044488Y-040551
X044488Y-045276
X044488Y-046850
X044488Y-051575
X044488Y-053937
X044488Y-055118
X044488Y-063780
X044843Y-034724
X044843Y-035315
X044874Y-058504
X044882Y-056693
X044882Y-059843
X044882Y-061811
X045276Y-016929
X045276Y-018110
X045276Y-020079
X045276Y-022244
X045276Y-023425
X045276Y-027559
X045276Y-037008
X045276Y-038583
X045276Y-040551
X045276Y-042126
X045276Y-045276
X045276Y-046850
X045276Y-049606
X045276Y-050787
X045276Y-051575
X045433Y-034724
X045433Y-035315
X045661Y-058504
X045669Y-059843
X046063Y-016929
X046063Y-018110
X046063Y-022244
X046063Y-023425
X046063Y-027559
X046063Y-038583
X046063Y-040551
X046063Y-043701
X046063Y-045276
X046063Y-046850
X046063Y-048031
X046063Y-051575
X046063Y-056299
X046063Y-061417
X046260Y-015157
X046260Y-019094
X046260Y-021063
X046260Y-025000
X046260Y-037992
X046449Y-058504
X046457Y-033858
X046457Y-035630
X046457Y-036614
X046457Y-044882
X046457Y-059843
X046850Y-016929
X046850Y-018110
X046850Y-022244
X046850Y-023425
X046850Y-027559
X046850Y-031890
X046850Y-038583
X046850Y-040551
X046850Y-046850
X046850Y-051575
X046969Y-053543
X046969Y-054331
X046969Y-055118
X046969Y-055906
X046969Y-056693
X046969Y-057480
X046969Y-058268
X046969Y-059843
X046969Y-060630
X046969Y-061417
X046969Y-062205
X046969Y-062992
X046969Y-063780
X046969Y-064567
X047165Y-034331
X047244Y-016142
X047244Y-020079
X047244Y-024016
X047244Y-033071
X047244Y-035630
X047244Y-037008
X047244Y-042126
X047244Y-044882
X047244Y-048031
X047244Y-049606
X047638Y-016929
X047638Y-018110
X047638Y-022244
X047638Y-023425
X047638Y-027559
X047638Y-038583
X047638Y-040551
X047638Y-046850
X047638Y-047638
X047638Y-051575
X047638Y-059173
X048031Y-035591
X048031Y-036614
X048031Y-042520
X048031Y-044882
X048031Y-045669
X048031Y-046457
X048031Y-048031
X048228Y-015157
X048228Y-019094
X048228Y-021063
X048228Y-025000
X048228Y-032087
X048228Y-037992
X048268Y-053543
X048268Y-054331
X048268Y-055118
X048268Y-055906
X048268Y-056693
X048268Y-057480
X048268Y-058268
X048268Y-059055
X048268Y-059843
X048268Y-060630
X048268Y-061417
X048268Y-062205
X048268Y-062992
X048268Y-063780
X048268Y-064567
X048425Y-016929
X048425Y-018110
X048425Y-022244
X048425Y-023425
X048425Y-027559
X048425Y-034252
X048425Y-038583
X048425Y-040551
X048425Y-043701
X048425Y-047638
X048425Y-051575
X048819Y-035630
X048819Y-044882
X048819Y-046850
X048819Y-048031
X048819Y-050787
X049184Y-016929
X049184Y-022244
X049213Y-016142
X049213Y-018110
X049213Y-020079
X049213Y-023425
X049213Y-024016
X049213Y-027559
X049213Y-033071
X049213Y-033858
X049213Y-037008
X049213Y-038583
X049213Y-040551
X049213Y-047638
X049213Y-049213
X049213Y-051575
X049213Y-057874
X049311Y-034980
X049606Y-035630
X049606Y-048031
X049606Y-059449
X049606Y-061024
X050000Y-016929
X050000Y-018110
X050000Y-022244
X050000Y-023425
X050000Y-027559
X050000Y-038583
X050000Y-040551
X050000Y-044488
X050000Y-045276
X050000Y-047638
X050000Y-050394
X050000Y-051575
X050000Y-056299
X050197Y-015157
X050197Y-019094
X050197Y-021063
X050197Y-025000
X050197Y-031102
X050197Y-032087
X050197Y-033071
X050197Y-037992
X050394Y-034252
X050394Y-036220
X050394Y-048031
X050394Y-059449
X050394Y-061811
X050394Y-064173
X050787Y-016929
X050787Y-018110
X050787Y-022244
X050787Y-023425
X050787Y-027559
X050787Y-038583
X050787Y-040551
X050787Y-042913
X050787Y-043701
X050787Y-044488
X050787Y-045276
X050787Y-046063
X050787Y-046850
X050787Y-047638
X050787Y-051575
X051181Y-016142
X051181Y-020079
X051181Y-024016
X051181Y-031102
X051181Y-033071
X051181Y-034252
X051181Y-037008
X051181Y-043307
X051181Y-044094
X051181Y-044882
X051181Y-045669
X051181Y-046457
X051181Y-047244
X051181Y-048031
X051181Y-054724
X051181Y-056299
X051181Y-057480
X051181Y-062992
X051417Y-035551
X051575Y-016929
X051575Y-018110
X051575Y-022244
X051575Y-023425
X051575Y-027559
X051575Y-038583
X051575Y-040551
X051575Y-048819
X051575Y-051575
X051575Y-060236
X051969Y-033465
X051969Y-034252
X051969Y-043307
X051969Y-045669
X051969Y-046850
X051969Y-049213
X051969Y-050394
X051969Y-063780
X052165Y-015157
X052165Y-019094
X052165Y-021063
X052165Y-025000
X052165Y-030118
X052165Y-032087
X052165Y-037992
X052205Y-035551
X052362Y-016929
X052362Y-018110
X052362Y-022244
X052362Y-023425
X052362Y-027559
X052362Y-037008
X052362Y-038583
X052362Y-040551
X052362Y-050000
X052362Y-051575
X052362Y-057874
X052756Y-034252
X052756Y-043307
X052756Y-044094
X052756Y-044882
X052756Y-045669
X052756Y-046457
X052756Y-047244
X052756Y-048031
X052756Y-056693
X052756Y-059449
X052756Y-061417
X053150Y-016142
X053150Y-016929
X053150Y-018110
X053150Y-020079
X053150Y-022244
X053150Y-023425
X053150Y-024016
X053150Y-027559
X053150Y-033071
X053150Y-037008
X053150Y-038583
X053150Y-040551
X053150Y-042913
X053150Y-043701
X053150Y-044488
X053150Y-045276
X053150Y-046063
X053150Y-046850
X053150Y-047638
X053150Y-051575
X053543Y-034252
X053543Y-036614
X053549Y-048028
X053937Y-016929
X053937Y-018110
X053937Y-022244
X053937Y-023425
X053937Y-027559
X053937Y-038583
X053937Y-040551
X053937Y-047638
X053937Y-051575
X054016Y-053543
X054016Y-054331
X054016Y-055118
X054016Y-055906
X054016Y-056693
X054016Y-057480
X054016Y-058268
X054016Y-059055
X054016Y-059843
X054016Y-060630
X054016Y-061417
X054016Y-062205
X054016Y-062992
X054016Y-063780
X054016Y-064567
X054134Y-015157
X054134Y-019094
X054134Y-021063
X054134Y-025000
X054134Y-037992
X054331Y-032677
X054336Y-048028
X054488Y-034685
X054488Y-035394
X054606Y-058976
X054724Y-016929
X054724Y-018110
X054724Y-022244
X054724Y-023425
X054724Y-027559
X054724Y-038583
X054724Y-040551
X054724Y-041732
X054724Y-047638
X054724Y-051575
X054921Y-035079
X055118Y-016142
X055118Y-020079
X055118Y-024016
X055118Y-037008
X055118Y-048031
X055118Y-048819
X055118Y-050394
X055248Y-053547
X055248Y-054335
X055248Y-055122
X055248Y-055909
X055248Y-056697
X055248Y-057484
X055248Y-058272
X055248Y-059846
X055248Y-060634
X055248Y-061421
X055248Y-062209
X055248Y-062996
X055248Y-063783
X055248Y-064571
X055354Y-034606
X055354Y-035472
X055512Y-016929
X055512Y-018110
X055512Y-022244
X055512Y-023425
X055512Y-027559
X055512Y-033071
X055512Y-038583
X055512Y-040551
X055512Y-045276
X055512Y-046850
X055512Y-047638
X055512Y-051575
X055906Y-036614
X055906Y-043701
X055906Y-048031
X055921Y-059701
X055929Y-058287
X056102Y-015157
X056102Y-019094
X056102Y-021063
X056102Y-025000
X056102Y-037992
X056299Y-016929
X056299Y-018110
X056299Y-022244
X056299Y-023425
X056299Y-027559
X056299Y-033465
X056299Y-034252
X056299Y-035630
X056299Y-038583
X056299Y-040551
X056299Y-045276
X056299Y-046850
X056299Y-047638
X056299Y-051575
X056299Y-057087
X056693Y-041732
X056693Y-048031
X056693Y-055906
X056693Y-061417
X056709Y-059701
X056717Y-058287
X057087Y-016929
X057087Y-018110
X057087Y-020079
X057087Y-022244
X057087Y-023425
X057087Y-027559
X057087Y-034252
X057087Y-035630
X057087Y-038583
X057087Y-040551
X057087Y-045276
X057087Y-046850
X057087Y-050000
X057087Y-051575
X057087Y-064173
X057480Y-042913
X057480Y-053937
X057480Y-062205
X057496Y-059701
X057504Y-058287
X057874Y-016929
X057874Y-018110
X057874Y-022244
X057874Y-023425
X057874Y-027559
X057874Y-034252
X057874Y-035630
X057874Y-038583
X057874Y-040551
X057874Y-045276
X057874Y-046850
X057874Y-051575
X058071Y-033071
X058071Y-037992
X058268Y-056299
X058268Y-063386
X058283Y-059701
X058291Y-058287
X058661Y-016929
X058661Y-018110
X058661Y-022244
X058661Y-023425
X058661Y-027559
X058661Y-028346
X058661Y-029134
X058661Y-029921
X058661Y-030709
X058661Y-031496
X058661Y-032283
X058661Y-033465
X058661Y-034252
X058661Y-035630
X058661Y-036614
X058661Y-037795
X058661Y-038583
X058661Y-040551
X058661Y-041339
X058661Y-042126
X058661Y-042913
X058661Y-043701
X058661Y-044488
X058661Y-045276
X058661Y-046850
X058661Y-047638
X058661Y-048425
X058661Y-049213
X058661Y-050000
X058661Y-050787
X058661Y-051575
X058661Y-054724
T2
X044134Y-014974
X048819Y-014961
X049409Y-028346
X049606Y-041732
X050197Y-028346
X050394Y-041732
X050984Y-028346
X051181Y-041732
X051772Y-028346
X051969Y-041732
X052559Y-028346
X052756Y-041732
X053346Y-028346
X053543Y-014961
X054134Y-028346
X054921Y-028346
X058228Y-014948
T0
M30
