  0
SECTION
  2
HEADER
  9
$ANGBASE
  50
0.0
  9
$ANGDIR
  70
1
  9
$MEASUREMENT
  70
1
  0
ENDSEC
  0
SECTION
  2
TABLES
  0
TABLE
  2
LTYPE
  70
4
  0
LTYPE
  5
40F
  2
CONTINUOUS
  70
0
  3
Solid line
  72
65
  73
0
  40
0.0
  0
LTYPE
  5
410
  2
DASHDOT
 70
0
  3
Dash Dot ____ _ ____ _
 72
65
 73
4
 40
2.0
 49
1.25
 49
-0.25
 49
0.25
 49
-0.25
  0
LTYPE
  5
411
  2
DASHED
 70
0
  3
Dashed __ __ __ __ __
 72
65
 73
2
 40
0.75
 49
0.5
 49
-0.25
  0
LTYPE
  5
43B
  2
DOTTED
 70
0
  3
Dotted .  .  .  .
 72
65
 73
2
 40
0.2
 49
0.0
 49
-0.2
  0
ENDTAB
  0
TABLE
  2
STYLE
  70
4
  0
STYLE
  2
KICAD
  70
0
  40
0
  41
1
  42
1
  50
0
  71
0
  3
isocp.shx
  0
STYLE
  2
KICADB
  70
0
  40
0
  41
1
  42
1
  50
0
  71
0
  3
isocp.shx
  0
STYLE
  2
KICADI
  70
0
  40
0
  41
1
  42
1
  50
15
  71
0
  3
isocp.shx
  0
STYLE
  2
KICADBI
  70
0
  40
0
  41
1
  42
1
  50
15
  71
0
  3
isocp.shx
  0
ENDTAB
  0
TABLE
  2
LAYER
  70
1
  0
LAYER
  2
BLACK
  70
0
  62
7
  6
CONTINUOUS
  0
ENDTAB
  0
ENDSEC
  0
SECTION
  2
ENTITIES
0
LINE
8
BLACK
6
CONTINUOUS
10
118
20
-78.0002
11
117.999
21
-78
0
LINE
8
BLACK
6
CONTINUOUS
10
117.999
20
-78
11
117.999
21
-74
0
LINE
8
BLACK
6
CONTINUOUS
10
117.999
20
-74
11
118
21
-74
0
LINE
8
BLACK
6
CONTINUOUS
10
118
20
-74
11
118.019
21
-73.8047
0
LINE
8
BLACK
6
CONTINUOUS
10
118.019
20
-73.8047
11
118.019
21
-73.8046
0
LINE
8
BLACK
6
CONTINUOUS
10
118.019
20
-73.8046
11
118.076
21
-73.6169
0
LINE
8
BLACK
6
CONTINUOUS
10
118.076
20
-73.6169
11
118.076
21
-73.6168
0
LINE
8
BLACK
6
CONTINUOUS
10
118.076
20
-73.6168
11
118.168
21
-73.4438
0
LINE
8
BLACK
6
CONTINUOUS
10
118.168
20
-73.4438
11
118.168
21
-73.4437
0
LINE
8
BLACK
6
CONTINUOUS
10
118.168
20
-73.4437
11
118.293
21
-73.2921
0
LINE
8
BLACK
6
CONTINUOUS
10
118.293
20
-73.2921
11
118.293
21
-73.292
0
LINE
8
BLACK
6
CONTINUOUS
10
118.293
20
-73.292
11
118.445
21
-73.1677
0
LINE
8
BLACK
6
CONTINUOUS
10
118.445
20
-73.1677
11
118.445
21
-73.1676
0
LINE
8
BLACK
6
CONTINUOUS
10
118.445
20
-73.1676
11
118.618
21
-73.0753
0
LINE
8
BLACK
6
CONTINUOUS
10
118.618
20
-73.0753
11
118.618
21
-73.0752
0
LINE
8
BLACK
6
CONTINUOUS
10
118.618
20
-73.0752
11
118.806
21
-73.0185
0
LINE
8
BLACK
6
CONTINUOUS
10
118.806
20
-73.0185
11
118.806
21
-73.0185
0
LINE
8
BLACK
6
CONTINUOUS
10
118.806
20
-73.0185
11
119.001
21
-72.9995
0
LINE
8
BLACK
6
CONTINUOUS
10
119.001
20
-72.9995
11
119.001
21
-72.9995
0
LINE
8
BLACK
6
CONTINUOUS
10
119.001
20
-72.9995
11
123.001
21
-72.9995
0
LINE
8
BLACK
6
CONTINUOUS
10
123.001
20
-72.9995
11
123.001
21
-72.9996
0
LINE
8
BLACK
6
CONTINUOUS
10
123.001
20
-72.9996
11
125
21
-74.0005
0
LINE
8
BLACK
6
CONTINUOUS
10
125
20
-74.0005
11
151
21
-74.0005
0
LINE
8
BLACK
6
CONTINUOUS
10
151
20
-74.0005
11
152.999
21
-72.9996
0
LINE
8
BLACK
6
CONTINUOUS
10
152.999
20
-72.9996
11
152.999
21
-72.9995
0
LINE
8
BLACK
6
CONTINUOUS
10
152.999
20
-72.9995
11
157
21
-72.9995
0
LINE
8
BLACK
6
CONTINUOUS
10
157
20
-72.9995
11
157
21
-72.9995
0
LINE
8
BLACK
6
CONTINUOUS
10
157
20
-72.9995
11
157.195
21
-73.0187
0
LINE
8
BLACK
6
CONTINUOUS
10
157.195
20
-73.0187
11
157.195
21
-73.0187
0
LINE
8
BLACK
6
CONTINUOUS
10
157.195
20
-73.0187
11
157.383
21
-73.0757
0
LINE
8
BLACK
6
CONTINUOUS
10
157.383
20
-73.0757
11
157.383
21
-73.0757
0
LINE
8
BLACK
6
CONTINUOUS
10
157.383
20
-73.0757
11
157.556
21
-73.1681
0
LINE
8
BLACK
6
CONTINUOUS
10
157.556
20
-73.1681
11
157.556
21
-73.1682
0
LINE
8
BLACK
6
CONTINUOUS
10
157.556
20
-73.1682
11
157.707
21
-73.2926
0
LINE
8
BLACK
6
CONTINUOUS
10
157.707
20
-73.2926
11
157.708
21
-73.2926
0
LINE
8
BLACK
6
CONTINUOUS
10
157.708
20
-73.2926
11
157.832
21
-73.4442
0
LINE
8
BLACK
6
CONTINUOUS
10
157.832
20
-73.4442
11
157.832
21
-73.4443
0
LINE
8
BLACK
6
CONTINUOUS
10
157.832
20
-73.4443
11
157.924
21
-73.6172
0
LINE
8
BLACK
6
CONTINUOUS
10
157.924
20
-73.6172
11
157.924
21
-73.6173
0
LINE
8
BLACK
6
CONTINUOUS
10
157.924
20
-73.6173
11
157.981
21
-73.8049
0
LINE
8
BLACK
6
CONTINUOUS
10
157.981
20
-73.8049
11
157.981
21
-73.805
0
LINE
8
BLACK
6
CONTINUOUS
10
157.981
20
-73.805
11
158
21
-74.0002
0
LINE
8
BLACK
6
CONTINUOUS
10
158
20
-74.0002
11
158
21
-74.0002
0
LINE
8
BLACK
6
CONTINUOUS
10
158
20
-74.0002
11
158
21
-78
0
LINE
8
BLACK
6
CONTINUOUS
10
158
20
-78
11
158
21
-78.0002
0
LINE
8
BLACK
6
CONTINUOUS
10
158
20
-78.0002
11
157
21
-80.0001
0
LINE
8
BLACK
6
CONTINUOUS
10
157
20
-80.0001
11
157
21
-106
0
LINE
8
BLACK
6
CONTINUOUS
10
157
20
-106
11
158
21
-108
0
LINE
8
BLACK
6
CONTINUOUS
10
158
20
-108
11
158
21
-108
0
LINE
8
BLACK
6
CONTINUOUS
10
158
20
-108
11
158
21
-112
0
LINE
8
BLACK
6
CONTINUOUS
10
158
20
-112
11
158
21
-112
0
LINE
8
BLACK
6
CONTINUOUS
10
158
20
-112
11
157.981
21
-112.195
0
LINE
8
BLACK
6
CONTINUOUS
10
157.981
20
-112.195
11
157.981
21
-112.195
0
LINE
8
BLACK
6
CONTINUOUS
10
157.981
20
-112.195
11
157.924
21
-112.383
0
LINE
8
BLACK
6
CONTINUOUS
10
157.924
20
-112.383
11
157.924
21
-112.383
0
LINE
8
BLACK
6
CONTINUOUS
10
157.924
20
-112.383
11
157.832
21
-112.556
0
LINE
8
BLACK
6
CONTINUOUS
10
157.832
20
-112.556
11
157.832
21
-112.556
0
LINE
8
BLACK
6
CONTINUOUS
10
157.832
20
-112.556
11
157.707
21
-112.707
0
LINE
8
BLACK
6
CONTINUOUS
10
157.707
20
-112.707
11
157.707
21
-112.707
0
LINE
8
BLACK
6
CONTINUOUS
10
157.707
20
-112.707
11
157.556
21
-112.832
0
LINE
8
BLACK
6
CONTINUOUS
10
157.556
20
-112.832
11
157.556
21
-112.832
0
LINE
8
BLACK
6
CONTINUOUS
10
157.556
20
-112.832
11
157.383
21
-112.924
0
LINE
8
BLACK
6
CONTINUOUS
10
157.383
20
-112.924
11
157.383
21
-112.924
0
LINE
8
BLACK
6
CONTINUOUS
10
157.383
20
-112.924
11
157.195
21
-112.981
0
LINE
8
BLACK
6
CONTINUOUS
10
157.195
20
-112.981
11
157.195
21
-112.981
0
LINE
8
BLACK
6
CONTINUOUS
10
157.195
20
-112.981
11
157
21
-113
0
LINE
8
BLACK
6
CONTINUOUS
10
157
20
-113
11
157
21
-113
0
LINE
8
BLACK
6
CONTINUOUS
10
157
20
-113
11
153
21
-113
0
LINE
8
BLACK
6
CONTINUOUS
10
153
20
-113
11
153
21
-113
0
LINE
8
BLACK
6
CONTINUOUS
10
153
20
-113
11
151
21
-112
0
LINE
8
BLACK
6
CONTINUOUS
10
151
20
-112
11
125
21
-112
0
LINE
8
BLACK
6
CONTINUOUS
10
125
20
-112
11
123
21
-113
0
LINE
8
BLACK
6
CONTINUOUS
10
123
20
-113
11
123
21
-113
0
LINE
8
BLACK
6
CONTINUOUS
10
123
20
-113
11
119
21
-113
0
LINE
8
BLACK
6
CONTINUOUS
10
119
20
-113
11
119
21
-113
0
LINE
8
BLACK
6
CONTINUOUS
10
119
20
-113
11
118.805
21
-112.981
0
LINE
8
BLACK
6
CONTINUOUS
10
118.805
20
-112.981
11
118.805
21
-112.981
0
LINE
8
BLACK
6
CONTINUOUS
10
118.805
20
-112.981
11
118.617
21
-112.924
0
LINE
8
BLACK
6
CONTINUOUS
10
118.617
20
-112.924
11
118.617
21
-112.924
0
LINE
8
BLACK
6
CONTINUOUS
10
118.617
20
-112.924
11
118.444
21
-112.832
0
LINE
8
BLACK
6
CONTINUOUS
10
118.444
20
-112.832
11
118.444
21
-112.832
0
LINE
8
BLACK
6
CONTINUOUS
10
118.444
20
-112.832
11
118.293
21
-112.707
0
LINE
8
BLACK
6
CONTINUOUS
10
118.293
20
-112.707
11
118.293
21
-112.707
0
LINE
8
BLACK
6
CONTINUOUS
10
118.293
20
-112.707
11
118.168
21
-112.556
0
LINE
8
BLACK
6
CONTINUOUS
10
118.168
20
-112.556
11
118.168
21
-112.556
0
LINE
8
BLACK
6
CONTINUOUS
10
118.168
20
-112.556
11
118.076
21
-112.383
0
LINE
8
BLACK
6
CONTINUOUS
10
118.076
20
-112.383
11
118.076
21
-112.383
0
LINE
8
BLACK
6
CONTINUOUS
10
118.076
20
-112.383
11
118.019
21
-112.195
0
LINE
8
BLACK
6
CONTINUOUS
10
118.019
20
-112.195
11
118.019
21
-112.195
0
LINE
8
BLACK
6
CONTINUOUS
10
118.019
20
-112.195
11
118
21
-112
0
LINE
8
BLACK
6
CONTINUOUS
10
118
20
-112
11
117.999
21
-112
0
LINE
8
BLACK
6
CONTINUOUS
10
117.999
20
-112
11
117.999
21
-108
0
LINE
8
BLACK
6
CONTINUOUS
10
117.999
20
-108
11
118
21
-108
0
LINE
8
BLACK
6
CONTINUOUS
10
118
20
-108
11
118.999
21
-106
0
LINE
8
BLACK
6
CONTINUOUS
10
118.999
20
-106
11
118.999
21
-80.0001
0
LINE
8
BLACK
6
CONTINUOUS
10
118.999
20
-80.0001
11
118
21
-78.0002
0
LINE
8
BLACK
6
CONTINUOUS
10
120.899
20
-97.5005
11
120
21
-97.5005
0
LINE
8
BLACK
6
CONTINUOUS
10
120
20
-97.5005
11
120
21
-105.999
0
LINE
8
BLACK
6
CONTINUOUS
10
120
20
-105.999
11
120.899
21
-105.999
0
LINE
8
BLACK
6
CONTINUOUS
10
120.899
20
-105.999
11
120.899
21
-97.5005
0
LINE
8
BLACK
6
CONTINUOUS
10
154.3
20
-89.1996
11
154.3
21
-89.2
0
LINE
8
BLACK
6
CONTINUOUS
10
154.3
20
-89.2
11
154.3
21
-105.999
0
LINE
8
BLACK
6
CONTINUOUS
10
154.3
20
-105.999
11
156.1
21
-105.999
0
LINE
8
BLACK
6
CONTINUOUS
10
156.1
20
-105.999
11
156.1
21
-80.0005
0
LINE
8
BLACK
6
CONTINUOUS
10
156.1
20
-80.0005
11
152.9
21
-80.0005
0
LINE
8
BLACK
6
CONTINUOUS
10
152.9
20
-80.0005
11
152.9
21
-89.1995
0
LINE
8
BLACK
6
CONTINUOUS
10
152.9
20
-89.1995
11
154.3
21
-89.1995
0
LINE
8
BLACK
6
CONTINUOUS
10
154.3
20
-89.1995
11
154.3
21
-89.1996
0
LINE
8
BLACK
6
CONTINUOUS
10
150.999
20
-74.8005
11
125
21
-74.8005
0
LINE
8
BLACK
6
CONTINUOUS
10
125
20
-74.8005
11
125
21
-78.0995
0
LINE
8
BLACK
6
CONTINUOUS
10
125
20
-78.0995
11
150.999
21
-78.0995
0
LINE
8
BLACK
6
CONTINUOUS
10
150.999
20
-78.0995
11
150.999
21
-74.8005
0
LINE
8
BLACK
6
CONTINUOUS
10
123.099
20
-89.3
11
123.1
21
-89.2996
0
LINE
8
BLACK
6
CONTINUOUS
10
123.1
20
-89.2996
11
123.1
21
-89.2995
0
LINE
8
BLACK
6
CONTINUOUS
10
123.1
20
-89.2995
11
140.25
21
-89.2995
0
LINE
8
BLACK
6
CONTINUOUS
10
140.25
20
-89.2995
11
140.25
21
-89.2996
0
LINE
8
BLACK
6
CONTINUOUS
10
140.25
20
-89.2996
11
140.25
21
-89.3
0
LINE
8
BLACK
6
CONTINUOUS
10
140.25
20
-89.3
11
140.25
21
-90.5
0
LINE
8
BLACK
6
CONTINUOUS
10
140.25
20
-90.5
11
140.25
21
-90.5004
0
LINE
8
BLACK
6
CONTINUOUS
10
140.25
20
-90.5004
11
140.25
21
-90.5005
0
LINE
8
BLACK
6
CONTINUOUS
10
140.25
20
-90.5005
11
130.701
21
-90.5005
0
LINE
8
BLACK
6
CONTINUOUS
10
130.701
20
-90.5005
11
130.701
21
-93.4
0
LINE
8
BLACK
6
CONTINUOUS
10
130.701
20
-93.4
11
130.7
21
-93.4004
0
LINE
8
BLACK
6
CONTINUOUS
10
130.7
20
-93.4004
11
130.7
21
-93.4005
0
LINE
8
BLACK
6
CONTINUOUS
10
130.7
20
-93.4005
11
129.5
21
-93.4005
0
LINE
8
BLACK
6
CONTINUOUS
10
129.5
20
-93.4005
11
129.5
21
-93.4004
0
LINE
8
BLACK
6
CONTINUOUS
10
129.5
20
-93.4004
11
129.499
21
-93.4
0
LINE
8
BLACK
6
CONTINUOUS
10
129.499
20
-93.4
11
129.499
21
-90.5005
0
LINE
8
BLACK
6
CONTINUOUS
10
129.499
20
-90.5005
11
124.3
21
-90.5005
0
LINE
8
BLACK
6
CONTINUOUS
10
124.3
20
-90.5005
11
124.3
21
-97.5
0
LINE
8
BLACK
6
CONTINUOUS
10
124.3
20
-97.5
11
124.3
21
-97.5004
0
LINE
8
BLACK
6
CONTINUOUS
10
124.3
20
-97.5004
11
124.3
21
-97.5005
0
LINE
8
BLACK
6
CONTINUOUS
10
124.3
20
-97.5005
11
122.1
21
-97.5005
0
LINE
8
BLACK
6
CONTINUOUS
10
122.1
20
-97.5005
11
122.1
21
-105.999
0
LINE
8
BLACK
6
CONTINUOUS
10
122.1
20
-105.999
11
125
21
-105.999
0
LINE
8
BLACK
6
CONTINUOUS
10
125
20
-105.999
11
125
21
-106
0
LINE
8
BLACK
6
CONTINUOUS
10
125
20
-106
11
125
21
-106
0
LINE
8
BLACK
6
CONTINUOUS
10
125
20
-106
11
125
21
-106.7
0
LINE
8
BLACK
6
CONTINUOUS
10
125
20
-106.7
11
128.5
21
-106.7
0
LINE
8
BLACK
6
CONTINUOUS
10
128.5
20
-106.7
11
128.5
21
-106.7
0
LINE
8
BLACK
6
CONTINUOUS
10
128.5
20
-106.7
11
128.5
21
-106.7
0
LINE
8
BLACK
6
CONTINUOUS
10
128.5
20
-106.7
11
128.5
21
-107.9
0
LINE
8
BLACK
6
CONTINUOUS
10
128.5
20
-107.9
11
128.5
21
-107.9
0
LINE
8
BLACK
6
CONTINUOUS
10
128.5
20
-107.9
11
128.5
21
-107.9
0
LINE
8
BLACK
6
CONTINUOUS
10
128.5
20
-107.9
11
125
21
-107.9
0
LINE
8
BLACK
6
CONTINUOUS
10
125
20
-107.9
11
125
21
-111.099
0
LINE
8
BLACK
6
CONTINUOUS
10
125
20
-111.099
11
150.999
21
-111.099
0
LINE
8
BLACK
6
CONTINUOUS
10
150.999
20
-111.099
11
150.999
21
-107.9
0
LINE
8
BLACK
6
CONTINUOUS
10
150.999
20
-107.9
11
147.5
21
-107.9
0
LINE
8
BLACK
6
CONTINUOUS
10
147.5
20
-107.9
11
147.5
21
-107.9
0
LINE
8
BLACK
6
CONTINUOUS
10
147.5
20
-107.9
11
147.499
21
-107.9
0
LINE
8
BLACK
6
CONTINUOUS
10
147.499
20
-107.9
11
147.499
21
-106.7
0
LINE
8
BLACK
6
CONTINUOUS
10
147.499
20
-106.7
11
147.5
21
-106.7
0
LINE
8
BLACK
6
CONTINUOUS
10
147.5
20
-106.7
11
147.5
21
-106.7
0
LINE
8
BLACK
6
CONTINUOUS
10
147.5
20
-106.7
11
150.999
21
-106.7
0
LINE
8
BLACK
6
CONTINUOUS
10
150.999
20
-106.7
11
150.999
21
-106
0
LINE
8
BLACK
6
CONTINUOUS
10
150.999
20
-106
11
151
21
-106
0
LINE
8
BLACK
6
CONTINUOUS
10
151
20
-106
11
151
21
-105.999
0
LINE
8
BLACK
6
CONTINUOUS
10
151
20
-105.999
11
153.1
21
-105.999
0
LINE
8
BLACK
6
CONTINUOUS
10
153.1
20
-105.999
11
153.1
21
-99.1005
0
LINE
8
BLACK
6
CONTINUOUS
10
153.1
20
-99.1005
11
152.05
21
-99.1005
0
LINE
8
BLACK
6
CONTINUOUS
10
152.05
20
-99.1005
11
152.05
21
-99.1004
0
LINE
8
BLACK
6
CONTINUOUS
10
152.05
20
-99.1004
11
152.049
21
-99.1
0
LINE
8
BLACK
6
CONTINUOUS
10
152.049
20
-99.1
11
152.049
21
-97.9
0
LINE
8
BLACK
6
CONTINUOUS
10
152.049
20
-97.9
11
152.05
21
-97.8996
0
LINE
8
BLACK
6
CONTINUOUS
10
152.05
20
-97.8996
11
152.05
21
-97.8995
0
LINE
8
BLACK
6
CONTINUOUS
10
152.05
20
-97.8995
11
153.1
21
-97.8995
0
LINE
8
BLACK
6
CONTINUOUS
10
153.1
20
-97.8995
11
153.1
21
-90.5005
0
LINE
8
BLACK
6
CONTINUOUS
10
153.1
20
-90.5005
11
147.6
21
-90.5005
0
LINE
8
BLACK
6
CONTINUOUS
10
147.6
20
-90.5005
11
147.6
21
-90.5004
0
LINE
8
BLACK
6
CONTINUOUS
10
147.6
20
-90.5004
11
147.6
21
-90.5
0
LINE
8
BLACK
6
CONTINUOUS
10
147.6
20
-90.5
11
147.6
21
-89.3
0
LINE
8
BLACK
6
CONTINUOUS
10
147.6
20
-89.3
11
147.6
21
-89.2996
0
LINE
8
BLACK
6
CONTINUOUS
10
147.6
20
-89.2996
11
147.6
21
-89.2995
0
LINE
8
BLACK
6
CONTINUOUS
10
147.6
20
-89.2995
11
151.6
21
-89.2995
0
LINE
8
BLACK
6
CONTINUOUS
10
151.6
20
-89.2995
11
151.6
21
-79.4005
0
LINE
8
BLACK
6
CONTINUOUS
10
151.6
20
-79.4005
11
124.3
21
-79.4005
0
LINE
8
BLACK
6
CONTINUOUS
10
124.3
20
-79.4005
11
124.3
21
-88.2
0
LINE
8
BLACK
6
CONTINUOUS
10
124.3
20
-88.2
11
124.3
21
-88.2004
0
LINE
8
BLACK
6
CONTINUOUS
10
124.3
20
-88.2004
11
124.3
21
-88.2005
0
LINE
8
BLACK
6
CONTINUOUS
10
124.3
20
-88.2005
11
123.1
21
-88.2005
0
LINE
8
BLACK
6
CONTINUOUS
10
123.1
20
-88.2005
11
123.1
21
-88.2004
0
LINE
8
BLACK
6
CONTINUOUS
10
123.1
20
-88.2004
11
123.099
21
-88.2
0
LINE
8
BLACK
6
CONTINUOUS
10
123.099
20
-88.2
11
123.099
21
-80.0005
0
LINE
8
BLACK
6
CONTINUOUS
10
123.099
20
-80.0005
11
119.9
21
-80.0005
0
LINE
8
BLACK
6
CONTINUOUS
10
119.9
20
-80.0005
11
119.9
21
-96.2995
0
LINE
8
BLACK
6
CONTINUOUS
10
119.9
20
-96.2995
11
123.099
21
-96.2995
0
LINE
8
BLACK
6
CONTINUOUS
10
123.099
20
-96.2995
11
123.099
21
-89.3
0
LINE
8
BLACK
6
CONTINUOUS
10
144.95
20
-95.3496
11
144.951
21
-95.35
0
LINE
8
BLACK
6
CONTINUOUS
10
144.951
20
-95.35
11
144.951
21
-97.8995
0
LINE
8
BLACK
6
CONTINUOUS
10
144.951
20
-97.8995
11
150.3
21
-97.8995
0
LINE
8
BLACK
6
CONTINUOUS
10
150.3
20
-97.8995
11
150.3
21
-97.8996
0
LINE
8
BLACK
6
CONTINUOUS
10
150.3
20
-97.8996
11
150.3
21
-97.9
0
LINE
8
BLACK
6
CONTINUOUS
10
150.3
20
-97.9
11
150.3
21
-99.1
0
LINE
8
BLACK
6
CONTINUOUS
10
150.3
20
-99.1
11
150.3
21
-99.1004
0
LINE
8
BLACK
6
CONTINUOUS
10
150.3
20
-99.1004
11
150.3
21
-99.1005
0
LINE
8
BLACK
6
CONTINUOUS
10
150.3
20
-99.1005
11
144.951
21
-99.1005
0
LINE
8
BLACK
6
CONTINUOUS
10
144.951
20
-99.1005
11
144.951
21
-107.9
0
LINE
8
BLACK
6
CONTINUOUS
10
144.951
20
-107.9
11
144.95
21
-107.9
0
LINE
8
BLACK
6
CONTINUOUS
10
144.95
20
-107.9
11
144.95
21
-107.9
0
LINE
8
BLACK
6
CONTINUOUS
10
144.95
20
-107.9
11
137.4
21
-107.9
0
LINE
8
BLACK
6
CONTINUOUS
10
137.4
20
-107.9
11
137.4
21
-107.9
0
LINE
8
BLACK
6
CONTINUOUS
10
137.4
20
-107.9
11
137.399
21
-107.9
0
LINE
8
BLACK
6
CONTINUOUS
10
137.399
20
-107.9
11
137.399
21
-106.7
0
LINE
8
BLACK
6
CONTINUOUS
10
137.399
20
-106.7
11
137.4
21
-106.7
0
LINE
8
BLACK
6
CONTINUOUS
10
137.4
20
-106.7
11
137.4
21
-106.7
0
LINE
8
BLACK
6
CONTINUOUS
10
137.4
20
-106.7
11
143.749
21
-106.7
0
LINE
8
BLACK
6
CONTINUOUS
10
143.749
20
-106.7
11
143.749
21
-95.35
0
LINE
8
BLACK
6
CONTINUOUS
10
143.749
20
-95.35
11
143.75
21
-95.3496
0
LINE
8
BLACK
6
CONTINUOUS
10
143.75
20
-95.3496
11
143.75
21
-95.3495
0
LINE
8
BLACK
6
CONTINUOUS
10
143.75
20
-95.3495
11
144.95
21
-95.3495
0
LINE
8
BLACK
6
CONTINUOUS
10
144.95
20
-95.3495
11
144.95
21
-95.3496
0
LINE
8
BLACK
6
CONTINUOUS
10
130.7
20
-95.0996
11
130.701
21
-95.1
0
LINE
8
BLACK
6
CONTINUOUS
10
130.701
20
-95.1
11
130.701
21
-106.7
0
LINE
8
BLACK
6
CONTINUOUS
10
130.701
20
-106.7
11
133.6
21
-106.7
0
LINE
8
BLACK
6
CONTINUOUS
10
133.6
20
-106.7
11
133.6
21
-106.7
0
LINE
8
BLACK
6
CONTINUOUS
10
133.6
20
-106.7
11
133.6
21
-106.7
0
LINE
8
BLACK
6
CONTINUOUS
10
133.6
20
-106.7
11
133.6
21
-107.9
0
LINE
8
BLACK
6
CONTINUOUS
10
133.6
20
-107.9
11
133.6
21
-107.9
0
LINE
8
BLACK
6
CONTINUOUS
10
133.6
20
-107.9
11
133.6
21
-107.9
0
LINE
8
BLACK
6
CONTINUOUS
10
133.6
20
-107.9
11
129.5
21
-107.9
0
LINE
8
BLACK
6
CONTINUOUS
10
129.5
20
-107.9
11
129.5
21
-107.9
0
LINE
8
BLACK
6
CONTINUOUS
10
129.5
20
-107.9
11
129.499
21
-107.9
0
LINE
8
BLACK
6
CONTINUOUS
10
129.499
20
-107.9
11
129.499
21
-95.1
0
LINE
8
BLACK
6
CONTINUOUS
10
129.499
20
-95.1
11
129.5
21
-95.0996
0
LINE
8
BLACK
6
CONTINUOUS
10
129.5
20
-95.0996
11
129.5
21
-95.0995
0
LINE
8
BLACK
6
CONTINUOUS
10
129.5
20
-95.0995
11
130.7
21
-95.0995
0
LINE
8
BLACK
6
CONTINUOUS
10
130.7
20
-95.0995
11
130.7
21
-95.0996
0
LINE
8
BLACK
6
CONTINUOUS
10
136.1
20
-106.7
11
136.1
21
-106.7
0
LINE
8
BLACK
6
CONTINUOUS
10
136.1
20
-106.7
11
136.1
21
-107.9
0
LINE
8
BLACK
6
CONTINUOUS
10
136.1
20
-107.9
11
136.1
21
-107.9
0
LINE
8
BLACK
6
CONTINUOUS
10
136.1
20
-107.9
11
136.1
21
-107.9
0
LINE
8
BLACK
6
CONTINUOUS
10
136.1
20
-107.9
11
134.8
21
-107.9
0
LINE
8
BLACK
6
CONTINUOUS
10
134.8
20
-107.9
11
134.8
21
-107.9
0
LINE
8
BLACK
6
CONTINUOUS
10
134.8
20
-107.9
11
134.799
21
-107.9
0
LINE
8
BLACK
6
CONTINUOUS
10
134.799
20
-107.9
11
134.799
21
-106.7
0
LINE
8
BLACK
6
CONTINUOUS
10
134.799
20
-106.7
11
134.8
21
-106.7
0
LINE
8
BLACK
6
CONTINUOUS
10
134.8
20
-106.7
11
134.8
21
-106.7
0
LINE
8
BLACK
6
CONTINUOUS
10
134.8
20
-106.7
11
136.1
21
-106.7
0
LINE
8
BLACK
6
CONTINUOUS
10
136.1
20
-106.7
11
136.1
21
-106.7
0
LINE
8
BLACK
6
CONTINUOUS
10
145.9
20
-89.2996
11
145.9
21
-89.3
0
LINE
8
BLACK
6
CONTINUOUS
10
145.9
20
-89.3
11
145.9
21
-90.5
0
LINE
8
BLACK
6
CONTINUOUS
10
145.9
20
-90.5
11
145.9
21
-90.5004
0
LINE
8
BLACK
6
CONTINUOUS
10
145.9
20
-90.5004
11
145.9
21
-90.5005
0
LINE
8
BLACK
6
CONTINUOUS
10
145.9
20
-90.5005
11
144.951
21
-90.5005
0
LINE
8
BLACK
6
CONTINUOUS
10
144.951
20
-90.5005
11
144.951
21
-93.65
0
LINE
8
BLACK
6
CONTINUOUS
10
144.951
20
-93.65
11
144.95
21
-93.6504
0
LINE
8
BLACK
6
CONTINUOUS
10
144.95
20
-93.6504
11
144.95
21
-93.6505
0
LINE
8
BLACK
6
CONTINUOUS
10
144.95
20
-93.6505
11
143.75
21
-93.6505
0
LINE
8
BLACK
6
CONTINUOUS
10
143.75
20
-93.6505
11
143.75
21
-93.6504
0
LINE
8
BLACK
6
CONTINUOUS
10
143.75
20
-93.6504
11
143.749
21
-93.65
0
LINE
8
BLACK
6
CONTINUOUS
10
143.749
20
-93.65
11
143.749
21
-90.5005
0
LINE
8
BLACK
6
CONTINUOUS
10
143.749
20
-90.5005
11
141.55
21
-90.5005
0
LINE
8
BLACK
6
CONTINUOUS
10
141.55
20
-90.5005
11
141.55
21
-90.5004
0
LINE
8
BLACK
6
CONTINUOUS
10
141.55
20
-90.5004
11
141.549
21
-90.5
0
LINE
8
BLACK
6
CONTINUOUS
10
141.549
20
-90.5
11
141.549
21
-89.3
0
LINE
8
BLACK
6
CONTINUOUS
10
141.549
20
-89.3
11
141.55
21
-89.2996
0
LINE
8
BLACK
6
CONTINUOUS
10
141.55
20
-89.2996
11
141.55
21
-89.2995
0
LINE
8
BLACK
6
CONTINUOUS
10
141.55
20
-89.2995
11
145.9
21
-89.2995
0
LINE
8
BLACK
6
CONTINUOUS
10
145.9
20
-89.2995
11
145.9
21
-89.2996
  0
ENDSEC
  0
EOF
